G04 (created by PCBNEW (2013-07-07 BZR 4022)-stable) date 7/26/2015 4:19:23 PM*
%MOIN*%
G04 Gerber Fmt 3.4, Leading zero omitted, Abs format*
%FSLAX34Y34*%
G01*
G70*
G90*
G04 APERTURE LIST*
%ADD10C,0.00590551*%
%ADD11C,0.00393701*%
%ADD12C,0.00787402*%
%ADD13C,0.012*%
%ADD14C,0.006*%
%ADD15C,0.01*%
%ADD16C,0.0107*%
%ADD17C,0.005*%
%ADD18C,0.0099*%
%ADD19C,0.0050748*%
%ADD20R,0.0669685X0.0669685*%
%ADD21C,0.0669685*%
%ADD22R,0.0319685X0.0419685*%
%ADD23R,0.0719685X0.0719685*%
%ADD24C,0.0719685*%
%ADD25C,0.0906685*%
%ADD26R,0.0355685X0.0729685*%
%ADD27R,0.0591685X0.0827685*%
%ADD28C,0.153701*%
%ADD29C,0.130079*%
%ADD30C,0.0769291*%
%ADD31C,0.0907087*%
G04 APERTURE END LIST*
G54D10*
G54D11*
X102367Y-58653D02*
G75*
G02X92910Y-64961I-13785J10425D01*
G74*
G01*
X92913Y-64960D02*
X92125Y-64960D01*
X84251Y-64960D02*
X85039Y-64960D01*
X85039Y-61023D02*
X92125Y-61023D01*
X74797Y-58653D02*
G75*
G03X84255Y-64961I13785J10425D01*
G74*
G01*
X92125Y-61023D02*
X92125Y-64960D01*
X85039Y-61023D02*
X85039Y-64960D01*
G54D12*
X87598Y-48228D02*
X89566Y-48228D01*
X88582Y-47244D02*
X88582Y-49212D01*
G54D11*
X74803Y-58661D02*
X74803Y-45275D01*
X102362Y-45275D02*
X102362Y-58661D01*
X74803Y-45275D02*
X102362Y-45275D01*
G54D13*
X85553Y-45525D02*
X85553Y-46525D01*
X85553Y-46525D02*
X91553Y-46525D01*
X91553Y-46525D02*
X91553Y-45525D01*
X91553Y-45525D02*
X85553Y-45525D01*
X86553Y-45525D02*
X86553Y-46525D01*
X102150Y-49100D02*
X101150Y-49100D01*
X101150Y-49100D02*
X101150Y-51100D01*
X101150Y-51100D02*
X102150Y-51100D01*
X102150Y-51100D02*
X102150Y-49100D01*
X82200Y-48150D02*
X82200Y-49150D01*
X82200Y-49150D02*
X84200Y-49150D01*
X84200Y-49150D02*
X84200Y-48150D01*
X84200Y-48150D02*
X82200Y-48150D01*
X76500Y-46750D02*
X75500Y-46750D01*
X75500Y-46750D02*
X75500Y-48750D01*
X75500Y-48750D02*
X76500Y-48750D01*
X76500Y-48750D02*
X76500Y-46750D01*
X90150Y-46571D02*
X90150Y-46571D01*
X90150Y-46571D02*
X90150Y-47571D01*
X90150Y-47571D02*
X100150Y-47571D01*
X100150Y-46571D02*
X90150Y-46571D01*
X91150Y-46571D02*
X91150Y-47571D01*
X100150Y-47571D02*
X101900Y-47571D01*
X101900Y-47571D02*
X102150Y-47571D01*
X102150Y-47571D02*
X102150Y-46571D01*
X102150Y-46571D02*
X100150Y-46571D01*
X102150Y-54071D02*
X102150Y-54071D01*
X102150Y-54071D02*
X102150Y-53071D01*
X102150Y-53071D02*
X92150Y-53071D01*
X92150Y-54071D02*
X102150Y-54071D01*
X101150Y-54071D02*
X101150Y-53071D01*
X92150Y-53071D02*
X90400Y-53071D01*
X90400Y-53071D02*
X90150Y-53071D01*
X90150Y-53071D02*
X90150Y-54071D01*
X90150Y-54071D02*
X92150Y-54071D01*
G54D14*
X76550Y-49750D02*
X76550Y-50750D01*
X76550Y-50750D02*
X79550Y-50750D01*
X79550Y-50750D02*
X79550Y-49750D01*
X79550Y-49750D02*
X76550Y-49750D01*
X77550Y-50750D02*
X77550Y-49750D01*
X76550Y-50750D02*
X76550Y-51750D01*
X76550Y-51750D02*
X79550Y-51750D01*
X79550Y-51750D02*
X79550Y-50750D01*
X79550Y-50750D02*
X76550Y-50750D01*
X77550Y-51750D02*
X77550Y-50750D01*
X76553Y-48775D02*
X76553Y-49775D01*
X76553Y-49775D02*
X79553Y-49775D01*
X79553Y-49775D02*
X79553Y-48775D01*
X79553Y-48775D02*
X76553Y-48775D01*
X77553Y-49775D02*
X77553Y-48775D01*
X76553Y-47775D02*
X76553Y-48775D01*
X76553Y-48775D02*
X79553Y-48775D01*
X79553Y-48775D02*
X79553Y-47775D01*
X79553Y-47775D02*
X76553Y-47775D01*
X77553Y-48775D02*
X77553Y-47775D01*
G54D10*
X92987Y-55431D02*
X92002Y-55431D01*
X92987Y-59368D02*
X92002Y-59368D01*
X92987Y-59368D02*
X92987Y-55431D01*
X92593Y-57400D02*
G75*
G03X92593Y-57400I-3543J0D01*
G74*
G01*
G54D15*
X82019Y-45721D02*
X82019Y-47293D01*
X82019Y-47293D02*
X84281Y-47293D01*
X84281Y-47293D02*
X84281Y-45721D01*
X84281Y-45721D02*
X82019Y-45721D01*
X82019Y-46496D02*
X82019Y-47293D01*
X82019Y-47293D02*
X82166Y-47293D01*
X84281Y-46496D02*
X84281Y-47293D01*
X84281Y-47293D02*
X84134Y-47293D01*
X82560Y-45721D02*
X83740Y-45721D01*
G54D13*
X78550Y-52850D02*
X78550Y-51850D01*
X78550Y-51850D02*
X76550Y-51850D01*
X76550Y-51850D02*
X76550Y-52850D01*
X76550Y-52850D02*
X78550Y-52850D01*
X78550Y-53850D02*
X78550Y-52850D01*
X78550Y-52850D02*
X76550Y-52850D01*
X76550Y-52850D02*
X76550Y-53850D01*
X76550Y-53850D02*
X78550Y-53850D01*
G54D10*
X78812Y-57244D02*
X81596Y-54460D01*
X81596Y-54460D02*
X81039Y-53903D01*
X81039Y-53903D02*
X80204Y-54739D01*
X78255Y-56687D02*
X75471Y-59471D01*
X75471Y-59471D02*
X76028Y-60028D01*
X76028Y-60028D02*
X76863Y-59193D01*
X98833Y-56740D02*
X96049Y-53956D01*
X96049Y-53956D02*
X95492Y-54513D01*
X95492Y-54513D02*
X96327Y-55348D01*
X98276Y-57297D02*
X101060Y-60081D01*
X101060Y-60081D02*
X101616Y-59524D01*
X101616Y-59524D02*
X100781Y-58689D01*
G54D16*
X92465Y-46275D02*
X92465Y-45594D01*
X92302Y-45594D01*
X92262Y-45627D01*
X92241Y-45659D01*
X92221Y-45724D01*
X92221Y-45821D01*
X92241Y-45886D01*
X92262Y-45918D01*
X92302Y-45951D01*
X92465Y-45951D01*
X91813Y-46275D02*
X92058Y-46275D01*
X91936Y-46275D02*
X91936Y-45594D01*
X91976Y-45691D01*
X92017Y-45756D01*
X92058Y-45789D01*
G54D13*
G54D16*
X100835Y-50455D02*
X100835Y-49774D01*
X100672Y-49774D01*
X100632Y-49807D01*
X100611Y-49839D01*
X100591Y-49904D01*
X100591Y-50001D01*
X100611Y-50066D01*
X100632Y-50098D01*
X100672Y-50131D01*
X100835Y-50131D01*
X100428Y-49839D02*
X100407Y-49807D01*
X100367Y-49774D01*
X100265Y-49774D01*
X100224Y-49807D01*
X100204Y-49839D01*
X100183Y-49904D01*
X100183Y-49969D01*
X100204Y-50066D01*
X100448Y-50455D01*
X100183Y-50455D01*
G54D13*
G54D16*
X83075Y-50075D02*
X83075Y-49394D01*
X82912Y-49394D01*
X82872Y-49427D01*
X82851Y-49459D01*
X82831Y-49524D01*
X82831Y-49621D01*
X82851Y-49686D01*
X82872Y-49718D01*
X82912Y-49751D01*
X83075Y-49751D01*
X82464Y-49621D02*
X82464Y-50075D01*
X82566Y-49362D02*
X82668Y-49848D01*
X82403Y-49848D01*
G54D13*
G54D16*
X76315Y-46515D02*
X76315Y-45834D01*
X76152Y-45834D01*
X76112Y-45867D01*
X76091Y-45899D01*
X76071Y-45964D01*
X76071Y-46061D01*
X76091Y-46126D01*
X76112Y-46158D01*
X76152Y-46191D01*
X76315Y-46191D01*
X75704Y-45834D02*
X75786Y-45834D01*
X75826Y-45867D01*
X75847Y-45899D01*
X75887Y-45996D01*
X75908Y-46126D01*
X75908Y-46385D01*
X75887Y-46450D01*
X75867Y-46483D01*
X75826Y-46515D01*
X75745Y-46515D01*
X75704Y-46483D01*
X75684Y-46450D01*
X75663Y-46385D01*
X75663Y-46223D01*
X75684Y-46158D01*
X75704Y-46126D01*
X75745Y-46094D01*
X75826Y-46094D01*
X75867Y-46126D01*
X75887Y-46158D01*
X75908Y-46223D01*
G54D13*
G54D16*
X95146Y-45644D02*
X95146Y-46131D01*
X95166Y-46228D01*
X95207Y-46293D01*
X95268Y-46325D01*
X95309Y-46325D01*
X94718Y-46325D02*
X94963Y-46325D01*
X94840Y-46325D02*
X94840Y-45644D01*
X94881Y-45741D01*
X94922Y-45806D01*
X94963Y-45839D01*
X94575Y-45644D02*
X94290Y-45644D01*
X94473Y-46325D01*
G54D13*
G54D16*
X100446Y-52144D02*
X100446Y-52631D01*
X100466Y-52728D01*
X100507Y-52793D01*
X100568Y-52825D01*
X100609Y-52825D01*
X100018Y-52825D02*
X100263Y-52825D01*
X100140Y-52825D02*
X100140Y-52144D01*
X100181Y-52241D01*
X100222Y-52306D01*
X100263Y-52339D01*
X99773Y-52436D02*
X99814Y-52404D01*
X99835Y-52371D01*
X99855Y-52306D01*
X99855Y-52274D01*
X99835Y-52209D01*
X99814Y-52177D01*
X99773Y-52144D01*
X99692Y-52144D01*
X99651Y-52177D01*
X99631Y-52209D01*
X99610Y-52274D01*
X99610Y-52306D01*
X99631Y-52371D01*
X99651Y-52404D01*
X99692Y-52436D01*
X99773Y-52436D01*
X99814Y-52468D01*
X99835Y-52501D01*
X99855Y-52566D01*
X99855Y-52695D01*
X99835Y-52760D01*
X99814Y-52793D01*
X99773Y-52825D01*
X99692Y-52825D01*
X99651Y-52793D01*
X99631Y-52760D01*
X99610Y-52695D01*
X99610Y-52566D01*
X99631Y-52501D01*
X99651Y-52468D01*
X99692Y-52436D01*
G54D13*
G54D17*
X85313Y-58027D02*
X85313Y-58210D01*
X85325Y-58247D01*
X85349Y-58271D01*
X85386Y-58283D01*
X85410Y-58283D01*
X85191Y-58283D02*
X85191Y-58027D01*
X85093Y-58027D01*
X85069Y-58039D01*
X85057Y-58052D01*
X85045Y-58076D01*
X85045Y-58112D01*
X85057Y-58137D01*
X85069Y-58149D01*
X85093Y-58161D01*
X85191Y-58161D01*
X84801Y-58283D02*
X84947Y-58283D01*
X84874Y-58283D02*
X84874Y-58027D01*
X84898Y-58064D01*
X84923Y-58088D01*
X84947Y-58100D01*
X83929Y-58001D02*
X83929Y-58215D01*
X83944Y-58258D01*
X83972Y-58287D01*
X84015Y-58301D01*
X84044Y-58301D01*
X83787Y-58301D02*
X83787Y-58001D01*
X83672Y-58001D01*
X83644Y-58015D01*
X83630Y-58030D01*
X83615Y-58058D01*
X83615Y-58101D01*
X83630Y-58130D01*
X83644Y-58144D01*
X83672Y-58158D01*
X83787Y-58158D01*
X83515Y-58001D02*
X83330Y-58001D01*
X83430Y-58115D01*
X83387Y-58115D01*
X83358Y-58130D01*
X83344Y-58144D01*
X83330Y-58172D01*
X83330Y-58244D01*
X83344Y-58272D01*
X83358Y-58287D01*
X83387Y-58301D01*
X83472Y-58301D01*
X83501Y-58287D01*
X83515Y-58272D01*
X84829Y-59681D02*
X84829Y-59895D01*
X84844Y-59938D01*
X84872Y-59967D01*
X84915Y-59981D01*
X84944Y-59981D01*
X84687Y-59981D02*
X84687Y-59681D01*
X84572Y-59681D01*
X84544Y-59695D01*
X84530Y-59710D01*
X84515Y-59738D01*
X84515Y-59781D01*
X84530Y-59810D01*
X84544Y-59824D01*
X84572Y-59838D01*
X84687Y-59838D01*
X84401Y-59710D02*
X84387Y-59695D01*
X84358Y-59681D01*
X84287Y-59681D01*
X84258Y-59695D01*
X84244Y-59710D01*
X84230Y-59738D01*
X84230Y-59767D01*
X84244Y-59810D01*
X84415Y-59981D01*
X84230Y-59981D01*
G54D14*
X76230Y-50036D02*
X76230Y-50322D01*
X76249Y-50379D01*
X76287Y-50417D01*
X76344Y-50436D01*
X76382Y-50436D01*
X75849Y-50036D02*
X76039Y-50036D01*
X76058Y-50226D01*
X76039Y-50207D01*
X76001Y-50188D01*
X75906Y-50188D01*
X75868Y-50207D01*
X75849Y-50226D01*
X75830Y-50264D01*
X75830Y-50360D01*
X75849Y-50398D01*
X75868Y-50417D01*
X75906Y-50436D01*
X76001Y-50436D01*
X76039Y-50417D01*
X76058Y-50398D01*
X76180Y-51036D02*
X76180Y-51322D01*
X76199Y-51379D01*
X76237Y-51417D01*
X76294Y-51436D01*
X76332Y-51436D01*
X75780Y-51436D02*
X76008Y-51436D01*
X75894Y-51436D02*
X75894Y-51036D01*
X75932Y-51093D01*
X75970Y-51131D01*
X76008Y-51150D01*
X76233Y-49011D02*
X76233Y-49297D01*
X76252Y-49354D01*
X76290Y-49392D01*
X76347Y-49411D01*
X76385Y-49411D01*
X76023Y-49411D02*
X75947Y-49411D01*
X75909Y-49392D01*
X75890Y-49373D01*
X75852Y-49316D01*
X75833Y-49240D01*
X75833Y-49088D01*
X75852Y-49050D01*
X75871Y-49030D01*
X75909Y-49011D01*
X75985Y-49011D01*
X76023Y-49030D01*
X76042Y-49050D01*
X76061Y-49088D01*
X76061Y-49183D01*
X76042Y-49221D01*
X76023Y-49240D01*
X75985Y-49259D01*
X75909Y-49259D01*
X75871Y-49240D01*
X75852Y-49221D01*
X75833Y-49183D01*
X80583Y-48041D02*
X80583Y-48327D01*
X80602Y-48384D01*
X80640Y-48422D01*
X80698Y-48441D01*
X80736Y-48441D01*
X80183Y-48441D02*
X80412Y-48441D01*
X80298Y-48441D02*
X80298Y-48041D01*
X80336Y-48099D01*
X80374Y-48137D01*
X80412Y-48156D01*
X80050Y-48041D02*
X79802Y-48041D01*
X79936Y-48194D01*
X79879Y-48194D01*
X79840Y-48213D01*
X79821Y-48232D01*
X79802Y-48270D01*
X79802Y-48365D01*
X79821Y-48403D01*
X79840Y-48422D01*
X79879Y-48441D01*
X79993Y-48441D01*
X80031Y-48422D01*
X80050Y-48403D01*
G54D18*
X94707Y-57552D02*
X94707Y-57052D01*
X94516Y-57052D01*
X94469Y-57076D01*
X94445Y-57100D01*
X94421Y-57147D01*
X94421Y-57219D01*
X94445Y-57266D01*
X94469Y-57290D01*
X94516Y-57314D01*
X94707Y-57314D01*
X94254Y-57052D02*
X93921Y-57052D01*
X94254Y-57552D01*
X93921Y-57552D01*
X93469Y-57552D02*
X93754Y-57552D01*
X93611Y-57552D02*
X93611Y-57052D01*
X93659Y-57123D01*
X93707Y-57171D01*
X93754Y-57195D01*
G54D19*
X81610Y-46070D02*
X81610Y-45649D01*
X81450Y-45649D01*
X81410Y-45669D01*
X81390Y-45689D01*
X81370Y-45729D01*
X81370Y-45789D01*
X81390Y-45829D01*
X81410Y-45849D01*
X81450Y-45869D01*
X81610Y-45869D01*
X81229Y-45649D02*
X80969Y-45649D01*
X81109Y-45809D01*
X81049Y-45809D01*
X81009Y-45829D01*
X80989Y-45849D01*
X80969Y-45889D01*
X80969Y-45990D01*
X80989Y-46030D01*
X81009Y-46050D01*
X81049Y-46070D01*
X81169Y-46070D01*
X81209Y-46050D01*
X81229Y-46030D01*
G54D17*
X84933Y-53447D02*
X84933Y-53630D01*
X84945Y-53667D01*
X84969Y-53691D01*
X85006Y-53703D01*
X85030Y-53703D01*
X84811Y-53703D02*
X84811Y-53447D01*
X84713Y-53447D01*
X84689Y-53459D01*
X84677Y-53472D01*
X84665Y-53496D01*
X84665Y-53532D01*
X84677Y-53557D01*
X84689Y-53569D01*
X84713Y-53581D01*
X84811Y-53581D01*
X84445Y-53532D02*
X84445Y-53703D01*
X84506Y-53435D02*
X84567Y-53618D01*
X84409Y-53618D01*
X84953Y-54387D02*
X84953Y-54570D01*
X84965Y-54607D01*
X84989Y-54631D01*
X85026Y-54643D01*
X85050Y-54643D01*
X84831Y-54643D02*
X84831Y-54387D01*
X84733Y-54387D01*
X84709Y-54399D01*
X84697Y-54412D01*
X84685Y-54436D01*
X84685Y-54472D01*
X84697Y-54497D01*
X84709Y-54509D01*
X84733Y-54521D01*
X84831Y-54521D01*
X84453Y-54387D02*
X84575Y-54387D01*
X84587Y-54509D01*
X84575Y-54497D01*
X84551Y-54485D01*
X84490Y-54485D01*
X84465Y-54497D01*
X84453Y-54509D01*
X84441Y-54533D01*
X84441Y-54594D01*
X84453Y-54619D01*
X84465Y-54631D01*
X84490Y-54643D01*
X84551Y-54643D01*
X84575Y-54631D01*
X84587Y-54619D01*
G54D16*
X76235Y-52635D02*
X76235Y-51954D01*
X76072Y-51954D01*
X76032Y-51987D01*
X76011Y-52019D01*
X75991Y-52084D01*
X75991Y-52181D01*
X76011Y-52246D01*
X76032Y-52278D01*
X76072Y-52311D01*
X76235Y-52311D01*
X75848Y-51954D02*
X75563Y-51954D01*
X75746Y-52635D01*
G54D13*
G54D16*
X76255Y-53675D02*
X76255Y-52994D01*
X76092Y-52994D01*
X76052Y-53027D01*
X76031Y-53059D01*
X76011Y-53124D01*
X76011Y-53221D01*
X76031Y-53286D01*
X76052Y-53318D01*
X76092Y-53351D01*
X76255Y-53351D01*
X75766Y-53286D02*
X75807Y-53254D01*
X75827Y-53221D01*
X75848Y-53156D01*
X75848Y-53124D01*
X75827Y-53059D01*
X75807Y-53027D01*
X75766Y-52994D01*
X75685Y-52994D01*
X75644Y-53027D01*
X75624Y-53059D01*
X75603Y-53124D01*
X75603Y-53156D01*
X75624Y-53221D01*
X75644Y-53254D01*
X75685Y-53286D01*
X75766Y-53286D01*
X75807Y-53318D01*
X75827Y-53351D01*
X75848Y-53416D01*
X75848Y-53545D01*
X75827Y-53610D01*
X75807Y-53643D01*
X75766Y-53675D01*
X75685Y-53675D01*
X75644Y-53643D01*
X75624Y-53610D01*
X75603Y-53545D01*
X75603Y-53416D01*
X75624Y-53351D01*
X75644Y-53318D01*
X75685Y-53286D01*
G54D13*
%LPC*%
G54D20*
X86053Y-46025D03*
G54D21*
X87053Y-46025D03*
X88053Y-46025D03*
X89053Y-46025D03*
X90053Y-46025D03*
X91053Y-46025D03*
G54D20*
X101650Y-49600D03*
G54D21*
X101650Y-50600D03*
G54D20*
X82700Y-48650D03*
G54D21*
X83700Y-48650D03*
G54D20*
X76000Y-47250D03*
G54D21*
X76000Y-48250D03*
G54D20*
X90650Y-47071D03*
G54D21*
X91650Y-47071D03*
X92650Y-47071D03*
X93650Y-47071D03*
X94650Y-47071D03*
X95650Y-47071D03*
X96650Y-47071D03*
X97650Y-47071D03*
X98650Y-47071D03*
X99650Y-47071D03*
X100650Y-47071D03*
X101650Y-47071D03*
G54D20*
X101650Y-53571D03*
G54D21*
X100650Y-53571D03*
X99650Y-53571D03*
X98650Y-53571D03*
X97650Y-53571D03*
X96650Y-53571D03*
X95650Y-53571D03*
X94650Y-53571D03*
X93650Y-53571D03*
X92650Y-53571D03*
X91650Y-53571D03*
X90650Y-53571D03*
G54D22*
X85150Y-58650D03*
X84870Y-58650D03*
X85430Y-58650D03*
X83700Y-58650D03*
X83980Y-58650D03*
X83420Y-58650D03*
X84550Y-59250D03*
X84830Y-59250D03*
X84270Y-59250D03*
G54D23*
X77050Y-50250D03*
G54D24*
X78050Y-50250D03*
X79050Y-50250D03*
G54D23*
X77050Y-51250D03*
G54D24*
X78050Y-51250D03*
X79050Y-51250D03*
G54D23*
X77053Y-49275D03*
G54D24*
X78053Y-49275D03*
X79053Y-49275D03*
G54D23*
X77053Y-48275D03*
G54D24*
X78053Y-48275D03*
X79053Y-48275D03*
G54D25*
X92987Y-58187D03*
X92987Y-56612D03*
G54D26*
X82560Y-47471D03*
X82954Y-47471D03*
X83346Y-47471D03*
X83740Y-47471D03*
G54D27*
X82048Y-45946D03*
X84252Y-45946D03*
G54D22*
X85600Y-53600D03*
X85880Y-53600D03*
X85320Y-53600D03*
X85600Y-54550D03*
X85880Y-54550D03*
X85320Y-54550D03*
G54D20*
X78050Y-52350D03*
G54D21*
X77050Y-52350D03*
G54D20*
X78050Y-53350D03*
G54D21*
X77050Y-53350D03*
G54D28*
X76000Y-56275D03*
X101150Y-56275D03*
G54D29*
X97350Y-45975D03*
X79800Y-45975D03*
G54D30*
X78668Y-56249D03*
X79698Y-55219D03*
X78384Y-57696D03*
X77313Y-58768D03*
X97837Y-56884D03*
X96807Y-55854D03*
X99285Y-57168D03*
X100357Y-58239D03*
G54D31*
X85050Y-47350D03*
X85050Y-48350D03*
X85050Y-49350D03*
X85050Y-50350D03*
X85050Y-51350D03*
M02*
