M48
;DRILL file {Pcbnew (2013-07-07 BZR 4022)-stable} date 2/17/2015 3:57:04 AM
;FORMAT={-:-/ absolute / inch / decimal}
FMAT,2
INCH,TZ
T1C0.025
T2C0.032
T3C0.035
T4C0.040
T5C0.040
T6C0.091
%
G90
G05
M72
T1
X7.555Y-5.155
X8.Y-5.945
X8.055Y-5.11
X8.14Y-4.66
X8.16Y-5.71
X8.18Y-6.265
X8.185Y-5.81
X8.215Y-5.03
X8.225Y-6.01
X8.23Y-5.695
X8.235Y-5.88
X8.27Y-5.145
X8.27Y-5.62
X8.325Y-5.695
X8.33Y-4.865
X8.355Y-6.255
X8.375Y-5.945
X8.415Y-4.905
X8.425Y-6.07
X8.445Y-5.865
X8.475Y-5.73
X8.49Y-5.16
X8.51Y-5.01
X8.52Y-5.715
X8.525Y-5.25
X8.53Y-4.67
X8.55Y-4.94
X8.555Y-5.395
X8.56Y-5.16
X8.575Y-5.93
X8.59Y-5.25
X8.615Y-6.01
X8.665Y-4.98
X8.72Y-4.95
X8.745Y-5.155
X8.745Y-5.81
X8.85Y-4.815
X8.87Y-6.03
X8.925Y-5.355
X8.96Y-5.23
X8.96Y-5.545
X8.965Y-4.84
X8.97Y-4.935
X9.01Y-5.395
X9.055Y-5.57
X9.07Y-5.86
X9.075Y-5.225
X9.08Y-5.46
X9.105Y-5.53
X9.135Y-5.225
X9.17Y-5.25
X9.175Y-4.785
X9.21Y-5.59
X9.245Y-5.145
X9.25Y-4.935
X9.265Y-5.24
X9.27Y-6.1
X9.305Y-5.03
X9.375Y-4.8
X9.415Y-4.76
X9.415Y-5.5
X9.42Y-5.265
X9.435Y-5.03
X9.455Y-5.91
X9.47Y-6.01
X9.485Y-4.96
X9.515Y-5.5
X9.52Y-5.935
X9.54Y-5.045
X9.55Y-5.175
X9.55Y-5.6
X9.57Y-4.885
X9.59Y-5.995
X9.6Y-4.95
X9.62Y-5.13
X9.625Y-5.08
X9.64Y-4.98
X9.655Y-5.285
X9.68Y-4.77
X9.69Y-5.055
X9.71Y-4.84
X9.765Y-6.175
X9.785Y-5.195
X9.795Y-4.91
X9.81Y-5.115
X9.81Y-5.86
X9.84Y-4.91
X9.91Y-4.58
X9.91Y-6.095
X9.93Y-5.865
X9.955Y-5.085
X9.99Y-4.895
X10.005Y-4.575
X10.035Y-4.92
X10.065Y-5.085
X10.08Y-4.895
X10.115Y-5.245
X10.185Y-4.8
T2
X7.705Y-4.625
X7.705Y-4.725
X8.03Y-4.85
X8.13Y-4.85
X8.55Y-4.755
X8.55Y-4.855
X8.6053Y-4.6026
X8.7053Y-4.6026
X8.8053Y-4.6026
X8.855Y-5.04
X8.855Y-5.165
X8.9053Y-4.6026
X8.955Y-5.04
X8.955Y-5.165
X9.0053Y-4.6026
X9.0651Y-4.7072
X9.0651Y-5.3572
X9.1053Y-4.6026
X9.1651Y-4.7072
X9.1651Y-5.3572
X9.2651Y-4.7072
X9.2651Y-5.3572
X9.3651Y-4.7072
X9.3651Y-5.3572
X9.4651Y-4.7072
X9.4651Y-5.3572
X9.5651Y-4.7072
X9.5651Y-5.3572
X9.6651Y-4.7072
X9.6651Y-5.3572
X9.7651Y-4.7072
X9.7651Y-5.3572
X9.8651Y-4.7072
X9.8651Y-5.3572
X9.9651Y-4.7072
X9.9651Y-5.3572
X10.0651Y-4.7072
X10.0651Y-5.3572
X10.165Y-4.96
X10.165Y-5.06
X10.1651Y-4.7072
X10.1651Y-5.3572
T3
X9.2987Y-5.6613
X9.2987Y-5.8187
T4
X7.7053Y-4.8276
X7.7053Y-4.9276
X7.7053Y-5.0276
X7.7053Y-5.1276
X7.8053Y-4.8276
X7.8053Y-4.9276
X7.8053Y-5.0276
X7.8053Y-5.1276
X7.9053Y-4.8276
X7.9053Y-4.9276
X7.9053Y-5.0276
X7.9053Y-5.1276
T5
X7.7313Y-5.8769
X7.8385Y-5.7697
X7.8669Y-5.6249
X7.9699Y-5.5219
X9.6808Y-5.5854
X9.7838Y-5.6884
X9.9285Y-5.7168
X10.0357Y-5.824
T6
X7.6Y-5.6275
X7.98Y-4.5975
X9.735Y-4.5975
X10.115Y-5.6275
T0
M30
