G04 (created by PCBNEW (2013-07-07 BZR 4022)-stable) date 2/17/2015 3:56:23 AM*
%MOIN*%
G04 Gerber Fmt 3.4, Leading zero omitted, Abs format*
%FSLAX34Y34*%
G01*
G70*
G90*
G04 APERTURE LIST*
%ADD10C,0.00590551*%
%ADD11R,0.035X0.055*%
%ADD12R,0.055X0.035*%
%ADD13R,0.055X0.055*%
%ADD14C,0.055*%
%ADD15R,0.02X0.03*%
%ADD16R,0.06X0.06*%
%ADD17C,0.06*%
%ADD18C,0.0787*%
%ADD19R,0.0236X0.061*%
%ADD20R,0.0472X0.0708*%
%ADD21R,0.0984X0.0768*%
%ADD22C,0.141732*%
%ADD23C,0.11811*%
%ADD24C,0.0769291*%
G04 APERTURE END LIST*
G54D10*
G54D11*
X81575Y-58700D03*
X80825Y-58700D03*
G54D12*
X85550Y-55325D03*
X85550Y-54575D03*
X82650Y-60675D03*
X82650Y-61425D03*
X82450Y-58275D03*
X82450Y-57525D03*
G54D10*
G36*
X96144Y-57016D02*
X96533Y-57405D01*
X96285Y-57653D01*
X95896Y-57264D01*
X96144Y-57016D01*
X96144Y-57016D01*
G37*
G36*
X95614Y-57546D02*
X96003Y-57935D01*
X95755Y-58183D01*
X95366Y-57794D01*
X95614Y-57546D01*
X95614Y-57546D01*
G37*
G36*
X96744Y-57616D02*
X97133Y-58005D01*
X96885Y-58253D01*
X96496Y-57864D01*
X96744Y-57616D01*
X96744Y-57616D01*
G37*
G36*
X96214Y-58146D02*
X96603Y-58535D01*
X96355Y-58783D01*
X95966Y-58394D01*
X96214Y-58146D01*
X96214Y-58146D01*
G37*
G54D11*
X81575Y-59500D03*
X80825Y-59500D03*
G54D13*
X86053Y-46025D03*
G54D14*
X87053Y-46025D03*
X88053Y-46025D03*
X89053Y-46025D03*
X90053Y-46025D03*
X91053Y-46025D03*
G54D13*
X101650Y-50600D03*
G54D14*
X101650Y-49600D03*
G54D13*
X85500Y-48550D03*
G54D14*
X85500Y-47550D03*
G54D13*
X80300Y-48500D03*
G54D14*
X81300Y-48500D03*
G54D13*
X77050Y-47250D03*
G54D14*
X77050Y-46250D03*
G54D13*
X90650Y-47071D03*
G54D14*
X91650Y-47071D03*
X92650Y-47071D03*
X93650Y-47071D03*
X94650Y-47071D03*
X95650Y-47071D03*
X96650Y-47071D03*
X97650Y-47071D03*
X98650Y-47071D03*
X99650Y-47071D03*
X100650Y-47071D03*
X101650Y-47071D03*
G54D13*
X101650Y-53571D03*
G54D14*
X100650Y-53571D03*
X99650Y-53571D03*
X98650Y-53571D03*
X97650Y-53571D03*
X96650Y-53571D03*
X95650Y-53571D03*
X94650Y-53571D03*
X93650Y-53571D03*
X92650Y-53571D03*
X91650Y-53571D03*
X90650Y-53571D03*
G54D15*
X85150Y-58650D03*
X84870Y-58650D03*
X85430Y-58650D03*
X83700Y-58650D03*
X83980Y-58650D03*
X83420Y-58650D03*
X84550Y-59250D03*
X84830Y-59250D03*
X84270Y-59250D03*
G54D16*
X77053Y-51275D03*
G54D17*
X78053Y-51275D03*
X79053Y-51275D03*
G54D16*
X77053Y-50275D03*
G54D17*
X78053Y-50275D03*
X79053Y-50275D03*
G54D16*
X77053Y-49275D03*
G54D17*
X78053Y-49275D03*
X79053Y-49275D03*
G54D16*
X77053Y-48275D03*
G54D17*
X78053Y-48275D03*
X79053Y-48275D03*
G54D18*
X92987Y-58187D03*
X92987Y-56612D03*
G54D19*
X82560Y-47471D03*
X82954Y-47471D03*
X83346Y-47471D03*
X83740Y-47471D03*
G54D20*
X82048Y-45946D03*
X84252Y-45946D03*
G54D21*
X80300Y-52000D03*
X80300Y-53200D03*
X82050Y-51950D03*
X82050Y-53150D03*
G54D15*
X85600Y-52050D03*
X85880Y-52050D03*
X85320Y-52050D03*
X85600Y-53000D03*
X85880Y-53000D03*
X85320Y-53000D03*
G54D13*
X89550Y-50400D03*
G54D14*
X88550Y-50400D03*
G54D13*
X89550Y-51650D03*
G54D14*
X88550Y-51650D03*
G54D22*
X76000Y-56275D03*
X101150Y-56275D03*
G54D23*
X97350Y-45975D03*
X79800Y-45975D03*
G54D24*
X78668Y-56249D03*
X79698Y-55219D03*
X78384Y-57696D03*
X77313Y-58768D03*
X97837Y-56884D03*
X96807Y-55854D03*
X99285Y-57168D03*
X100357Y-58239D03*
M02*
