G04 (created by PCBNEW (2013-07-07 BZR 4022)-stable) date 2/17/2015 4:00:20 AM*
%MOIN*%
G04 Gerber Fmt 3.4, Leading zero omitted, Abs format*
%FSLAX34Y34*%
G01*
G70*
G90*
G04 APERTURE LIST*
%ADD10C,0.00590551*%
%ADD11C,0.006*%
%ADD12C,0.0118*%
%ADD13C,0.005*%
%ADD14C,0.008*%
%ADD15C,0.0039*%
%ADD16C,0.0026*%
%ADD17C,0.004*%
%ADD18C,0.002*%
%ADD19C,0.012*%
%ADD20C,0.015*%
%ADD21C,0.00295276*%
%ADD22C,0.0001*%
%ADD23C,0.0059*%
%ADD24C,0.0043*%
%ADD25C,0.0039435*%
%ADD26C,0.0047*%
%ADD27C,0.0107*%
G04 APERTURE END LIST*
G54D10*
X88468Y-60070D02*
X89019Y-60070D01*
X89984Y-59421D02*
X89984Y-60366D01*
X89236Y-60504D02*
G75*
G03X89984Y-60385I314J433D01*
G74*
G01*
X89019Y-60070D02*
G75*
G03X89551Y-60602I531J0D01*
G74*
G01*
X88055Y-60503D02*
G75*
G03X88488Y-60070I0J433D01*
G74*
G01*
X87622Y-60110D02*
G75*
G03X88094Y-60503I433J39D01*
G74*
G01*
X89984Y-59421D02*
X87622Y-59421D01*
X87622Y-59421D02*
X87622Y-60090D01*
G54D11*
X97670Y-49620D02*
X97352Y-49938D01*
X96129Y-48079D02*
X95818Y-48390D01*
X97670Y-49620D02*
X96129Y-48079D01*
X97380Y-50575D02*
X97684Y-50879D01*
X95825Y-52145D02*
X96122Y-52442D01*
X96115Y-52449D02*
X97692Y-50886D01*
X93322Y-49627D02*
X94849Y-48086D01*
X93505Y-50419D02*
X95507Y-52420D01*
X94863Y-48086D02*
X95153Y-48376D01*
X93513Y-50073D02*
X95478Y-48107D01*
X97670Y-50271D02*
X95521Y-48121D01*
X95514Y-52427D02*
X97635Y-50306D01*
X93307Y-50858D02*
X94877Y-52427D01*
X94877Y-52427D02*
X95195Y-52109D01*
X93501Y-50409D02*
X93501Y-50084D01*
X93309Y-50856D02*
X93628Y-50537D01*
X93640Y-49945D02*
X93320Y-49626D01*
X94101Y-50244D02*
G75*
G03X94101Y-50244I-188J0D01*
G74*
G01*
G54D12*
X92381Y-55019D02*
X92381Y-57381D01*
X92381Y-57381D02*
X90019Y-57381D01*
X90019Y-57381D02*
X90019Y-55019D01*
X90019Y-55019D02*
X92381Y-55019D01*
G54D13*
X94600Y-61550D02*
X94600Y-60850D01*
X94600Y-60850D02*
X95800Y-60850D01*
X95800Y-60850D02*
X95800Y-61550D01*
X95800Y-61550D02*
X94600Y-61550D01*
G54D14*
X79700Y-51550D02*
X79700Y-52750D01*
X79700Y-52750D02*
X82500Y-52750D01*
X82500Y-52750D02*
X82500Y-51550D01*
X79700Y-50350D02*
X79700Y-50050D01*
X79700Y-50050D02*
X80300Y-49150D01*
X80300Y-49150D02*
X81900Y-49150D01*
X81900Y-49150D02*
X82500Y-50050D01*
X82500Y-50050D02*
X82500Y-50350D01*
G54D13*
X82550Y-58220D02*
X82550Y-59780D01*
X82550Y-59780D02*
X85950Y-59780D01*
X85950Y-59780D02*
X85950Y-58220D01*
X85950Y-58220D02*
X82550Y-58220D01*
X83250Y-58220D02*
X83250Y-57790D01*
X83750Y-58220D02*
X83750Y-57790D01*
X84250Y-58220D02*
X84250Y-57790D01*
X82750Y-58220D02*
X82750Y-57790D01*
X84750Y-57790D02*
X84750Y-58220D01*
X85250Y-57790D02*
X85250Y-58220D01*
X85750Y-57790D02*
X85750Y-58220D01*
X85750Y-59780D02*
X85750Y-60210D01*
X85250Y-59780D02*
X85250Y-60210D01*
X82750Y-59780D02*
X82750Y-60210D01*
X83250Y-60210D02*
X83250Y-59780D01*
X84750Y-60210D02*
X84750Y-59780D01*
X84250Y-60210D02*
X84250Y-59780D01*
X83750Y-60210D02*
X83750Y-59780D01*
X83026Y-59490D02*
G75*
G03X83026Y-59490I-186J0D01*
G74*
G01*
G54D15*
X91703Y-46325D02*
G75*
G03X91703Y-46325I-50J0D01*
G74*
G01*
X92103Y-46325D02*
X91703Y-46325D01*
X91703Y-46325D02*
X91703Y-45725D01*
X91703Y-45725D02*
X92103Y-45725D01*
X92503Y-45725D02*
X92903Y-45725D01*
X92903Y-45725D02*
X92903Y-46325D01*
X92903Y-46325D02*
X92503Y-46325D01*
X98471Y-48497D02*
G75*
G03X98471Y-48497I-49J0D01*
G74*
G01*
X98103Y-48179D02*
X98386Y-48462D01*
X98386Y-48462D02*
X97962Y-48886D01*
X97962Y-48886D02*
X97679Y-48603D01*
X97396Y-48320D02*
X97113Y-48037D01*
X97113Y-48037D02*
X97537Y-47613D01*
X97537Y-47613D02*
X97820Y-47896D01*
X92050Y-48350D02*
G75*
G03X92050Y-48350I-50J0D01*
G74*
G01*
X92450Y-48350D02*
X92050Y-48350D01*
X92050Y-48350D02*
X92050Y-47750D01*
X92050Y-47750D02*
X92450Y-47750D01*
X92850Y-47750D02*
X93250Y-47750D01*
X93250Y-47750D02*
X93250Y-48350D01*
X93250Y-48350D02*
X92850Y-48350D01*
X99950Y-47700D02*
G75*
G03X99950Y-47700I-50J0D01*
G74*
G01*
X99450Y-47700D02*
X99850Y-47700D01*
X99850Y-47700D02*
X99850Y-48300D01*
X99850Y-48300D02*
X99450Y-48300D01*
X99050Y-48300D02*
X98650Y-48300D01*
X98650Y-48300D02*
X98650Y-47700D01*
X98650Y-47700D02*
X99050Y-47700D01*
X86950Y-49250D02*
G75*
G03X86950Y-49250I-50J0D01*
G74*
G01*
X86900Y-48800D02*
X86900Y-49200D01*
X86900Y-49200D02*
X86300Y-49200D01*
X86300Y-49200D02*
X86300Y-48800D01*
X86300Y-48400D02*
X86300Y-48000D01*
X86300Y-48000D02*
X86900Y-48000D01*
X86900Y-48000D02*
X86900Y-48400D01*
X86350Y-46650D02*
G75*
G03X86350Y-46650I-50J0D01*
G74*
G01*
X86300Y-47100D02*
X86300Y-46700D01*
X86300Y-46700D02*
X86900Y-46700D01*
X86900Y-46700D02*
X86900Y-47100D01*
X86900Y-47500D02*
X86900Y-47900D01*
X86900Y-47900D02*
X86300Y-47900D01*
X86300Y-47900D02*
X86300Y-47500D01*
X82950Y-46800D02*
G75*
G03X82950Y-46800I-50J0D01*
G74*
G01*
X82900Y-46350D02*
X82900Y-46750D01*
X82900Y-46750D02*
X82300Y-46750D01*
X82300Y-46750D02*
X82300Y-46350D01*
X82300Y-45950D02*
X82300Y-45550D01*
X82300Y-45550D02*
X82900Y-45550D01*
X82900Y-45550D02*
X82900Y-45950D01*
X83900Y-46800D02*
G75*
G03X83900Y-46800I-50J0D01*
G74*
G01*
X83850Y-46350D02*
X83850Y-46750D01*
X83850Y-46750D02*
X83250Y-46750D01*
X83250Y-46750D02*
X83250Y-46350D01*
X83250Y-45950D02*
X83250Y-45550D01*
X83250Y-45550D02*
X83850Y-45550D01*
X83850Y-45550D02*
X83850Y-45950D01*
X84350Y-48400D02*
G75*
G03X84350Y-48400I-50J0D01*
G74*
G01*
X84300Y-48850D02*
X84300Y-48450D01*
X84300Y-48450D02*
X84900Y-48450D01*
X84900Y-48450D02*
X84900Y-48850D01*
X84900Y-49250D02*
X84900Y-49650D01*
X84900Y-49650D02*
X84300Y-49650D01*
X84300Y-49650D02*
X84300Y-49250D01*
X82703Y-49575D02*
G75*
G03X82703Y-49575I-50J0D01*
G74*
G01*
X83103Y-49575D02*
X82703Y-49575D01*
X82703Y-49575D02*
X82703Y-48975D01*
X82703Y-48975D02*
X83103Y-48975D01*
X83503Y-48975D02*
X83903Y-48975D01*
X83903Y-48975D02*
X83903Y-49575D01*
X83903Y-49575D02*
X83503Y-49575D01*
X89350Y-46700D02*
G75*
G03X89350Y-46700I-50J0D01*
G74*
G01*
X88850Y-46700D02*
X89250Y-46700D01*
X89250Y-46700D02*
X89250Y-47300D01*
X89250Y-47300D02*
X88850Y-47300D01*
X88450Y-47300D02*
X88050Y-47300D01*
X88050Y-47300D02*
X88050Y-46700D01*
X88050Y-46700D02*
X88450Y-46700D01*
X94600Y-62800D02*
G75*
G03X94600Y-62800I-50J0D01*
G74*
G01*
X95000Y-62800D02*
X94600Y-62800D01*
X94600Y-62800D02*
X94600Y-62200D01*
X94600Y-62200D02*
X95000Y-62200D01*
X95400Y-62200D02*
X95800Y-62200D01*
X95800Y-62200D02*
X95800Y-62800D01*
X95800Y-62800D02*
X95400Y-62800D01*
X90450Y-49050D02*
G75*
G03X90450Y-49050I-50J0D01*
G74*
G01*
X90400Y-48600D02*
X90400Y-49000D01*
X90400Y-49000D02*
X89800Y-49000D01*
X89800Y-49000D02*
X89800Y-48600D01*
X89800Y-48200D02*
X89800Y-47800D01*
X89800Y-47800D02*
X90400Y-47800D01*
X90400Y-47800D02*
X90400Y-48200D01*
X92378Y-51752D02*
G75*
G03X92378Y-51752I-49J0D01*
G74*
G01*
X92646Y-52070D02*
X92363Y-51787D01*
X92363Y-51787D02*
X92787Y-51363D01*
X92787Y-51363D02*
X93070Y-51646D01*
X93353Y-51929D02*
X93636Y-52212D01*
X93636Y-52212D02*
X93212Y-52636D01*
X93212Y-52636D02*
X92929Y-52353D01*
X94150Y-60150D02*
G75*
G03X94150Y-60150I-50J0D01*
G74*
G01*
X94100Y-59700D02*
X94100Y-60100D01*
X94100Y-60100D02*
X93500Y-60100D01*
X93500Y-60100D02*
X93500Y-59700D01*
X93500Y-59300D02*
X93500Y-58900D01*
X93500Y-58900D02*
X94100Y-58900D01*
X94100Y-58900D02*
X94100Y-59300D01*
X86850Y-58550D02*
G75*
G03X86850Y-58550I-50J0D01*
G74*
G01*
X86800Y-59000D02*
X86800Y-58600D01*
X86800Y-58600D02*
X87400Y-58600D01*
X87400Y-58600D02*
X87400Y-59000D01*
X87400Y-59400D02*
X87400Y-59800D01*
X87400Y-59800D02*
X86800Y-59800D01*
X86800Y-59800D02*
X86800Y-59400D01*
X89250Y-58950D02*
G75*
G03X89250Y-58950I-50J0D01*
G74*
G01*
X89650Y-58950D02*
X89250Y-58950D01*
X89250Y-58950D02*
X89250Y-58350D01*
X89250Y-58350D02*
X89650Y-58350D01*
X90050Y-58350D02*
X90450Y-58350D01*
X90450Y-58350D02*
X90450Y-58950D01*
X90450Y-58950D02*
X90050Y-58950D01*
X91050Y-60400D02*
G75*
G03X91050Y-60400I-50J0D01*
G74*
G01*
X91000Y-59950D02*
X91000Y-60350D01*
X91000Y-60350D02*
X90400Y-60350D01*
X90400Y-60350D02*
X90400Y-59950D01*
X90400Y-59550D02*
X90400Y-59150D01*
X90400Y-59150D02*
X91000Y-59150D01*
X91000Y-59150D02*
X91000Y-59550D01*
X87600Y-58900D02*
G75*
G03X87600Y-58900I-50J0D01*
G74*
G01*
X88000Y-58900D02*
X87600Y-58900D01*
X87600Y-58900D02*
X87600Y-58300D01*
X87600Y-58300D02*
X88000Y-58300D01*
X88400Y-58300D02*
X88800Y-58300D01*
X88800Y-58300D02*
X88800Y-58900D01*
X88800Y-58900D02*
X88400Y-58900D01*
G54D10*
X77614Y-53629D02*
G75*
G03X77614Y-53866I118J-118D01*
G74*
G01*
X77614Y-53137D02*
G75*
G03X77595Y-53354I98J-118D01*
G74*
G01*
X77595Y-52645D02*
G75*
G03X77595Y-52842I98J-98D01*
G74*
G01*
X77595Y-52153D02*
G75*
G03X77595Y-52350I98J-98D01*
G74*
G01*
X77004Y-53846D02*
G75*
G03X77004Y-53649I-98J98D01*
G74*
G01*
X77004Y-53354D02*
G75*
G03X77004Y-53157I-98J98D01*
G74*
G01*
X77004Y-52862D02*
G75*
G03X77004Y-52625I-118J118D01*
G74*
G01*
X77004Y-52350D02*
G75*
G03X77004Y-52153I-98J98D01*
G74*
G01*
X77477Y-51996D02*
X77477Y-54003D01*
X77122Y-51996D02*
X77122Y-54003D01*
X77693Y-53866D02*
X77614Y-53866D01*
X77693Y-53629D02*
X77614Y-53629D01*
X77693Y-53354D02*
X77614Y-53354D01*
X77693Y-53137D02*
X77614Y-53137D01*
X77693Y-52862D02*
X77614Y-52862D01*
X77693Y-52625D02*
X77614Y-52625D01*
X77693Y-52370D02*
X77614Y-52370D01*
X77693Y-52133D02*
X77614Y-52133D01*
X76906Y-53866D02*
X76985Y-53866D01*
X76906Y-53629D02*
X76985Y-53629D01*
X76906Y-53354D02*
X76985Y-53354D01*
X76906Y-53137D02*
X76985Y-53137D01*
X76906Y-52862D02*
X76985Y-52862D01*
X76906Y-52625D02*
X76985Y-52625D01*
X76985Y-52370D02*
X76906Y-52370D01*
X76985Y-52133D02*
X76906Y-52133D01*
X77693Y-51996D02*
X77693Y-54003D01*
X76906Y-51996D02*
X76906Y-54003D01*
G54D13*
X76906Y-52000D02*
X77693Y-52000D01*
X76906Y-54000D02*
X77693Y-54000D01*
G54D10*
X88085Y-52970D02*
G75*
G03X88085Y-52733I-118J118D01*
G74*
G01*
X88085Y-53462D02*
G75*
G03X88104Y-53245I-98J118D01*
G74*
G01*
X88104Y-53954D02*
G75*
G03X88104Y-53757I-98J98D01*
G74*
G01*
X88104Y-54446D02*
G75*
G03X88104Y-54249I-98J98D01*
G74*
G01*
X88695Y-52753D02*
G75*
G03X88695Y-52950I98J-98D01*
G74*
G01*
X88695Y-53245D02*
G75*
G03X88695Y-53442I98J-98D01*
G74*
G01*
X88695Y-53737D02*
G75*
G03X88695Y-53974I118J-118D01*
G74*
G01*
X88695Y-54249D02*
G75*
G03X88695Y-54446I98J-98D01*
G74*
G01*
X88222Y-54603D02*
X88222Y-52596D01*
X88577Y-54603D02*
X88577Y-52596D01*
X88006Y-52733D02*
X88085Y-52733D01*
X88006Y-52970D02*
X88085Y-52970D01*
X88006Y-53245D02*
X88085Y-53245D01*
X88006Y-53462D02*
X88085Y-53462D01*
X88006Y-53737D02*
X88085Y-53737D01*
X88006Y-53974D02*
X88085Y-53974D01*
X88006Y-54229D02*
X88085Y-54229D01*
X88006Y-54466D02*
X88085Y-54466D01*
X88793Y-52733D02*
X88714Y-52733D01*
X88793Y-52970D02*
X88714Y-52970D01*
X88793Y-53245D02*
X88714Y-53245D01*
X88793Y-53462D02*
X88714Y-53462D01*
X88793Y-53737D02*
X88714Y-53737D01*
X88793Y-53974D02*
X88714Y-53974D01*
X88714Y-54229D02*
X88793Y-54229D01*
X88714Y-54466D02*
X88793Y-54466D01*
X88006Y-54603D02*
X88006Y-52596D01*
X88793Y-54603D02*
X88793Y-52596D01*
G54D13*
X88793Y-54600D02*
X88006Y-54600D01*
X88793Y-52600D02*
X88006Y-52600D01*
G54D10*
X81714Y-55779D02*
G75*
G03X81714Y-56016I118J-118D01*
G74*
G01*
X81714Y-55287D02*
G75*
G03X81695Y-55504I98J-118D01*
G74*
G01*
X81695Y-54795D02*
G75*
G03X81695Y-54992I98J-98D01*
G74*
G01*
X81695Y-54303D02*
G75*
G03X81695Y-54500I98J-98D01*
G74*
G01*
X81104Y-55996D02*
G75*
G03X81104Y-55799I-98J98D01*
G74*
G01*
X81104Y-55504D02*
G75*
G03X81104Y-55307I-98J98D01*
G74*
G01*
X81104Y-55012D02*
G75*
G03X81104Y-54775I-118J118D01*
G74*
G01*
X81104Y-54500D02*
G75*
G03X81104Y-54303I-98J98D01*
G74*
G01*
X81577Y-54146D02*
X81577Y-56153D01*
X81222Y-54146D02*
X81222Y-56153D01*
X81793Y-56016D02*
X81714Y-56016D01*
X81793Y-55779D02*
X81714Y-55779D01*
X81793Y-55504D02*
X81714Y-55504D01*
X81793Y-55287D02*
X81714Y-55287D01*
X81793Y-55012D02*
X81714Y-55012D01*
X81793Y-54775D02*
X81714Y-54775D01*
X81793Y-54520D02*
X81714Y-54520D01*
X81793Y-54283D02*
X81714Y-54283D01*
X81006Y-56016D02*
X81085Y-56016D01*
X81006Y-55779D02*
X81085Y-55779D01*
X81006Y-55504D02*
X81085Y-55504D01*
X81006Y-55287D02*
X81085Y-55287D01*
X81006Y-55012D02*
X81085Y-55012D01*
X81006Y-54775D02*
X81085Y-54775D01*
X81085Y-54520D02*
X81006Y-54520D01*
X81085Y-54283D02*
X81006Y-54283D01*
X81793Y-54146D02*
X81793Y-56153D01*
X81006Y-54146D02*
X81006Y-56153D01*
G54D13*
X81006Y-54150D02*
X81793Y-54150D01*
X81006Y-56150D02*
X81793Y-56150D01*
G54D10*
X88085Y-55070D02*
G75*
G03X88085Y-54833I-118J118D01*
G74*
G01*
X88085Y-55562D02*
G75*
G03X88104Y-55345I-98J118D01*
G74*
G01*
X88104Y-56054D02*
G75*
G03X88104Y-55857I-98J98D01*
G74*
G01*
X88104Y-56546D02*
G75*
G03X88104Y-56349I-98J98D01*
G74*
G01*
X88695Y-54853D02*
G75*
G03X88695Y-55050I98J-98D01*
G74*
G01*
X88695Y-55345D02*
G75*
G03X88695Y-55542I98J-98D01*
G74*
G01*
X88695Y-55837D02*
G75*
G03X88695Y-56074I118J-118D01*
G74*
G01*
X88695Y-56349D02*
G75*
G03X88695Y-56546I98J-98D01*
G74*
G01*
X88222Y-56703D02*
X88222Y-54696D01*
X88577Y-56703D02*
X88577Y-54696D01*
X88006Y-54833D02*
X88085Y-54833D01*
X88006Y-55070D02*
X88085Y-55070D01*
X88006Y-55345D02*
X88085Y-55345D01*
X88006Y-55562D02*
X88085Y-55562D01*
X88006Y-55837D02*
X88085Y-55837D01*
X88006Y-56074D02*
X88085Y-56074D01*
X88006Y-56329D02*
X88085Y-56329D01*
X88006Y-56566D02*
X88085Y-56566D01*
X88793Y-54833D02*
X88714Y-54833D01*
X88793Y-55070D02*
X88714Y-55070D01*
X88793Y-55345D02*
X88714Y-55345D01*
X88793Y-55562D02*
X88714Y-55562D01*
X88793Y-55837D02*
X88714Y-55837D01*
X88793Y-56074D02*
X88714Y-56074D01*
X88714Y-56329D02*
X88793Y-56329D01*
X88714Y-56566D02*
X88793Y-56566D01*
X88006Y-56703D02*
X88006Y-54696D01*
X88793Y-56703D02*
X88793Y-54696D01*
G54D13*
X88793Y-56700D02*
X88006Y-56700D01*
X88793Y-54700D02*
X88006Y-54700D01*
G54D10*
X95330Y-56011D02*
X95224Y-56117D01*
X94411Y-56930D02*
X94517Y-56824D01*
X97169Y-59688D02*
X97275Y-59582D01*
X98088Y-58769D02*
X97982Y-58875D01*
X98548Y-58733D02*
X98194Y-59087D01*
X97133Y-60148D02*
X97487Y-59794D01*
X93951Y-56966D02*
X94305Y-56612D01*
X95366Y-55551D02*
X95012Y-55905D01*
X94411Y-56930D02*
X94411Y-57284D01*
X94411Y-57284D02*
X96815Y-59688D01*
X96815Y-59688D02*
X97169Y-59688D01*
X98088Y-58769D02*
X98088Y-58415D01*
X98088Y-58415D02*
X95684Y-56011D01*
X95684Y-56011D02*
X95330Y-56011D01*
X97133Y-60148D02*
X93951Y-56966D01*
X95366Y-55551D02*
X98548Y-58733D01*
X81600Y-57850D02*
X81450Y-57850D01*
X80300Y-57850D02*
X80450Y-57850D01*
X80300Y-61750D02*
X80450Y-61750D01*
X81600Y-61750D02*
X81450Y-61750D01*
X81950Y-62050D02*
X81450Y-62050D01*
X79950Y-62050D02*
X80450Y-62050D01*
X79950Y-57550D02*
X80450Y-57550D01*
X81950Y-57550D02*
X81450Y-57550D01*
X80300Y-57850D02*
X80050Y-58100D01*
X80050Y-58100D02*
X80050Y-61500D01*
X80050Y-61500D02*
X80300Y-61750D01*
X81600Y-61750D02*
X81850Y-61500D01*
X81850Y-61500D02*
X81850Y-58100D01*
X81850Y-58100D02*
X81600Y-57850D01*
X79950Y-62050D02*
X79950Y-57550D01*
X81950Y-57550D02*
X81950Y-62050D01*
X83486Y-48636D02*
G75*
G03X83486Y-48636I-111J0D01*
G74*
G01*
G54D13*
X82647Y-48813D02*
X83552Y-48813D01*
X83552Y-48813D02*
X83552Y-47986D01*
X83552Y-47986D02*
X82647Y-47986D01*
X82647Y-47986D02*
X82647Y-48813D01*
X82647Y-48695D02*
X82470Y-48695D01*
X82647Y-48498D02*
X82470Y-48498D01*
X82647Y-48301D02*
X82470Y-48301D01*
X82647Y-48104D02*
X82470Y-48104D01*
X83552Y-48104D02*
X83729Y-48104D01*
X83552Y-48301D02*
X83729Y-48301D01*
X83552Y-48498D02*
X83729Y-48498D01*
X83552Y-48695D02*
X83729Y-48695D01*
G54D16*
X101196Y-48118D02*
X101196Y-48246D01*
X101196Y-48246D02*
X101393Y-48246D01*
X101393Y-48118D02*
X101393Y-48246D01*
X101196Y-48118D02*
X101393Y-48118D01*
X101196Y-47873D02*
X101196Y-47932D01*
X101196Y-47932D02*
X101295Y-47932D01*
X101295Y-47873D02*
X101295Y-47932D01*
X101196Y-47873D02*
X101295Y-47873D01*
X101196Y-48068D02*
X101196Y-48127D01*
X101196Y-48127D02*
X101295Y-48127D01*
X101295Y-48068D02*
X101295Y-48127D01*
X101196Y-48068D02*
X101295Y-48068D01*
X101196Y-47922D02*
X101196Y-48078D01*
X101196Y-48078D02*
X101265Y-48078D01*
X101265Y-47922D02*
X101265Y-48078D01*
X101196Y-47922D02*
X101265Y-47922D01*
X100607Y-48118D02*
X100607Y-48246D01*
X100607Y-48246D02*
X100804Y-48246D01*
X100804Y-48118D02*
X100804Y-48246D01*
X100607Y-48118D02*
X100804Y-48118D01*
X100607Y-47754D02*
X100607Y-47882D01*
X100607Y-47882D02*
X100804Y-47882D01*
X100804Y-47754D02*
X100804Y-47882D01*
X100607Y-47754D02*
X100804Y-47754D01*
X100705Y-48068D02*
X100705Y-48127D01*
X100705Y-48127D02*
X100804Y-48127D01*
X100804Y-48068D02*
X100804Y-48127D01*
X100705Y-48068D02*
X100804Y-48068D01*
X100705Y-47873D02*
X100705Y-47932D01*
X100705Y-47932D02*
X100804Y-47932D01*
X100804Y-47873D02*
X100804Y-47932D01*
X100705Y-47873D02*
X100804Y-47873D01*
X100735Y-47922D02*
X100735Y-48078D01*
X100735Y-48078D02*
X100804Y-48078D01*
X100804Y-47922D02*
X100804Y-48078D01*
X100735Y-47922D02*
X100804Y-47922D01*
X101000Y-47961D02*
X101000Y-48039D01*
X101000Y-48039D02*
X101078Y-48039D01*
X101078Y-47961D02*
X101078Y-48039D01*
X101000Y-47961D02*
X101078Y-47961D01*
X101196Y-47764D02*
X101196Y-47882D01*
X101196Y-47882D02*
X101314Y-47882D01*
X101314Y-47764D02*
X101314Y-47882D01*
X101196Y-47764D02*
X101314Y-47764D01*
X101364Y-47754D02*
X101364Y-47843D01*
X101364Y-47843D02*
X101393Y-47843D01*
X101393Y-47754D02*
X101393Y-47843D01*
X101364Y-47754D02*
X101393Y-47754D01*
G54D17*
X101206Y-48226D02*
X100794Y-48226D01*
X100804Y-47774D02*
X101364Y-47774D01*
G54D18*
X101362Y-47823D02*
G75*
G03X101362Y-47823I-28J0D01*
G74*
G01*
G54D17*
X101393Y-47863D02*
G75*
G03X101393Y-48137I0J-137D01*
G74*
G01*
X100607Y-48137D02*
G75*
G03X100607Y-47863I0J137D01*
G74*
G01*
G54D16*
X91954Y-59982D02*
X91954Y-59854D01*
X91954Y-59854D02*
X91757Y-59854D01*
X91757Y-59982D02*
X91757Y-59854D01*
X91954Y-59982D02*
X91757Y-59982D01*
X91954Y-60227D02*
X91954Y-60168D01*
X91954Y-60168D02*
X91855Y-60168D01*
X91855Y-60227D02*
X91855Y-60168D01*
X91954Y-60227D02*
X91855Y-60227D01*
X91954Y-60032D02*
X91954Y-59973D01*
X91954Y-59973D02*
X91855Y-59973D01*
X91855Y-60032D02*
X91855Y-59973D01*
X91954Y-60032D02*
X91855Y-60032D01*
X91954Y-60178D02*
X91954Y-60022D01*
X91954Y-60022D02*
X91885Y-60022D01*
X91885Y-60178D02*
X91885Y-60022D01*
X91954Y-60178D02*
X91885Y-60178D01*
X92543Y-59982D02*
X92543Y-59854D01*
X92543Y-59854D02*
X92346Y-59854D01*
X92346Y-59982D02*
X92346Y-59854D01*
X92543Y-59982D02*
X92346Y-59982D01*
X92543Y-60346D02*
X92543Y-60218D01*
X92543Y-60218D02*
X92346Y-60218D01*
X92346Y-60346D02*
X92346Y-60218D01*
X92543Y-60346D02*
X92346Y-60346D01*
X92445Y-60032D02*
X92445Y-59973D01*
X92445Y-59973D02*
X92346Y-59973D01*
X92346Y-60032D02*
X92346Y-59973D01*
X92445Y-60032D02*
X92346Y-60032D01*
X92445Y-60227D02*
X92445Y-60168D01*
X92445Y-60168D02*
X92346Y-60168D01*
X92346Y-60227D02*
X92346Y-60168D01*
X92445Y-60227D02*
X92346Y-60227D01*
X92415Y-60178D02*
X92415Y-60022D01*
X92415Y-60022D02*
X92346Y-60022D01*
X92346Y-60178D02*
X92346Y-60022D01*
X92415Y-60178D02*
X92346Y-60178D01*
X92150Y-60139D02*
X92150Y-60061D01*
X92150Y-60061D02*
X92072Y-60061D01*
X92072Y-60139D02*
X92072Y-60061D01*
X92150Y-60139D02*
X92072Y-60139D01*
X91954Y-60336D02*
X91954Y-60218D01*
X91954Y-60218D02*
X91836Y-60218D01*
X91836Y-60336D02*
X91836Y-60218D01*
X91954Y-60336D02*
X91836Y-60336D01*
X91786Y-60346D02*
X91786Y-60257D01*
X91786Y-60257D02*
X91757Y-60257D01*
X91757Y-60346D02*
X91757Y-60257D01*
X91786Y-60346D02*
X91757Y-60346D01*
G54D17*
X91944Y-59874D02*
X92356Y-59874D01*
X92346Y-60326D02*
X91786Y-60326D01*
G54D18*
X91844Y-60277D02*
G75*
G03X91844Y-60277I-28J0D01*
G74*
G01*
G54D17*
X91757Y-60237D02*
G75*
G03X91757Y-59963I0J137D01*
G74*
G01*
X92543Y-59963D02*
G75*
G03X92543Y-60237I0J-137D01*
G74*
G01*
G54D16*
X101868Y-51804D02*
X101996Y-51804D01*
X101996Y-51804D02*
X101996Y-51607D01*
X101868Y-51607D02*
X101996Y-51607D01*
X101868Y-51804D02*
X101868Y-51607D01*
X101623Y-51804D02*
X101682Y-51804D01*
X101682Y-51804D02*
X101682Y-51705D01*
X101623Y-51705D02*
X101682Y-51705D01*
X101623Y-51804D02*
X101623Y-51705D01*
X101818Y-51804D02*
X101877Y-51804D01*
X101877Y-51804D02*
X101877Y-51705D01*
X101818Y-51705D02*
X101877Y-51705D01*
X101818Y-51804D02*
X101818Y-51705D01*
X101672Y-51804D02*
X101828Y-51804D01*
X101828Y-51804D02*
X101828Y-51735D01*
X101672Y-51735D02*
X101828Y-51735D01*
X101672Y-51804D02*
X101672Y-51735D01*
X101868Y-52393D02*
X101996Y-52393D01*
X101996Y-52393D02*
X101996Y-52196D01*
X101868Y-52196D02*
X101996Y-52196D01*
X101868Y-52393D02*
X101868Y-52196D01*
X101504Y-52393D02*
X101632Y-52393D01*
X101632Y-52393D02*
X101632Y-52196D01*
X101504Y-52196D02*
X101632Y-52196D01*
X101504Y-52393D02*
X101504Y-52196D01*
X101818Y-52295D02*
X101877Y-52295D01*
X101877Y-52295D02*
X101877Y-52196D01*
X101818Y-52196D02*
X101877Y-52196D01*
X101818Y-52295D02*
X101818Y-52196D01*
X101623Y-52295D02*
X101682Y-52295D01*
X101682Y-52295D02*
X101682Y-52196D01*
X101623Y-52196D02*
X101682Y-52196D01*
X101623Y-52295D02*
X101623Y-52196D01*
X101672Y-52265D02*
X101828Y-52265D01*
X101828Y-52265D02*
X101828Y-52196D01*
X101672Y-52196D02*
X101828Y-52196D01*
X101672Y-52265D02*
X101672Y-52196D01*
X101711Y-52000D02*
X101789Y-52000D01*
X101789Y-52000D02*
X101789Y-51922D01*
X101711Y-51922D02*
X101789Y-51922D01*
X101711Y-52000D02*
X101711Y-51922D01*
X101514Y-51804D02*
X101632Y-51804D01*
X101632Y-51804D02*
X101632Y-51686D01*
X101514Y-51686D02*
X101632Y-51686D01*
X101514Y-51804D02*
X101514Y-51686D01*
X101504Y-51636D02*
X101593Y-51636D01*
X101593Y-51636D02*
X101593Y-51607D01*
X101504Y-51607D02*
X101593Y-51607D01*
X101504Y-51636D02*
X101504Y-51607D01*
G54D17*
X101976Y-51794D02*
X101976Y-52206D01*
X101524Y-52196D02*
X101524Y-51636D01*
G54D18*
X101601Y-51666D02*
G75*
G03X101601Y-51666I-28J0D01*
G74*
G01*
G54D17*
X101613Y-51607D02*
G75*
G03X101887Y-51607I137J0D01*
G74*
G01*
X101887Y-52393D02*
G75*
G03X101613Y-52393I-137J0D01*
G74*
G01*
G54D16*
X101107Y-45657D02*
X101107Y-45529D01*
X101107Y-45529D02*
X100910Y-45529D01*
X100910Y-45657D02*
X100910Y-45529D01*
X101107Y-45657D02*
X100910Y-45657D01*
X101107Y-45902D02*
X101107Y-45843D01*
X101107Y-45843D02*
X101008Y-45843D01*
X101008Y-45902D02*
X101008Y-45843D01*
X101107Y-45902D02*
X101008Y-45902D01*
X101107Y-45707D02*
X101107Y-45648D01*
X101107Y-45648D02*
X101008Y-45648D01*
X101008Y-45707D02*
X101008Y-45648D01*
X101107Y-45707D02*
X101008Y-45707D01*
X101107Y-45853D02*
X101107Y-45697D01*
X101107Y-45697D02*
X101038Y-45697D01*
X101038Y-45853D02*
X101038Y-45697D01*
X101107Y-45853D02*
X101038Y-45853D01*
X101696Y-45657D02*
X101696Y-45529D01*
X101696Y-45529D02*
X101499Y-45529D01*
X101499Y-45657D02*
X101499Y-45529D01*
X101696Y-45657D02*
X101499Y-45657D01*
X101696Y-46021D02*
X101696Y-45893D01*
X101696Y-45893D02*
X101499Y-45893D01*
X101499Y-46021D02*
X101499Y-45893D01*
X101696Y-46021D02*
X101499Y-46021D01*
X101598Y-45707D02*
X101598Y-45648D01*
X101598Y-45648D02*
X101499Y-45648D01*
X101499Y-45707D02*
X101499Y-45648D01*
X101598Y-45707D02*
X101499Y-45707D01*
X101598Y-45902D02*
X101598Y-45843D01*
X101598Y-45843D02*
X101499Y-45843D01*
X101499Y-45902D02*
X101499Y-45843D01*
X101598Y-45902D02*
X101499Y-45902D01*
X101568Y-45853D02*
X101568Y-45697D01*
X101568Y-45697D02*
X101499Y-45697D01*
X101499Y-45853D02*
X101499Y-45697D01*
X101568Y-45853D02*
X101499Y-45853D01*
X101303Y-45814D02*
X101303Y-45736D01*
X101303Y-45736D02*
X101225Y-45736D01*
X101225Y-45814D02*
X101225Y-45736D01*
X101303Y-45814D02*
X101225Y-45814D01*
X101107Y-46011D02*
X101107Y-45893D01*
X101107Y-45893D02*
X100989Y-45893D01*
X100989Y-46011D02*
X100989Y-45893D01*
X101107Y-46011D02*
X100989Y-46011D01*
X100939Y-46021D02*
X100939Y-45932D01*
X100939Y-45932D02*
X100910Y-45932D01*
X100910Y-46021D02*
X100910Y-45932D01*
X100939Y-46021D02*
X100910Y-46021D01*
G54D17*
X101097Y-45549D02*
X101509Y-45549D01*
X101499Y-46001D02*
X100939Y-46001D01*
G54D18*
X100997Y-45952D02*
G75*
G03X100997Y-45952I-28J0D01*
G74*
G01*
G54D17*
X100910Y-45912D02*
G75*
G03X100910Y-45638I0J137D01*
G74*
G01*
X101696Y-45638D02*
G75*
G03X101696Y-45912I0J-137D01*
G74*
G01*
G54D16*
X83953Y-64198D02*
X83913Y-64320D01*
X83913Y-64320D02*
X84100Y-64380D01*
X84140Y-64259D02*
X84100Y-64380D01*
X83953Y-64198D02*
X84140Y-64259D01*
X84028Y-63965D02*
X84010Y-64021D01*
X84010Y-64021D02*
X84104Y-64052D01*
X84122Y-63995D02*
X84104Y-64052D01*
X84028Y-63965D02*
X84122Y-63995D01*
X83968Y-64150D02*
X83950Y-64206D01*
X83950Y-64206D02*
X84044Y-64237D01*
X84062Y-64181D02*
X84044Y-64237D01*
X83968Y-64150D02*
X84062Y-64181D01*
X84013Y-64011D02*
X83965Y-64160D01*
X83965Y-64160D02*
X84031Y-64181D01*
X84079Y-64033D02*
X84031Y-64181D01*
X84013Y-64011D02*
X84079Y-64033D01*
X83392Y-64016D02*
X83353Y-64138D01*
X83353Y-64138D02*
X83540Y-64198D01*
X83580Y-64077D02*
X83540Y-64198D01*
X83392Y-64016D02*
X83580Y-64077D01*
X83505Y-63670D02*
X83465Y-63791D01*
X83465Y-63791D02*
X83653Y-63852D01*
X83692Y-63731D02*
X83653Y-63852D01*
X83505Y-63670D02*
X83692Y-63731D01*
X83501Y-63999D02*
X83483Y-64055D01*
X83483Y-64055D02*
X83577Y-64085D01*
X83595Y-64029D02*
X83577Y-64085D01*
X83501Y-63999D02*
X83595Y-64029D01*
X83561Y-63813D02*
X83543Y-63869D01*
X83543Y-63869D02*
X83637Y-63900D01*
X83655Y-63844D02*
X83637Y-63900D01*
X83561Y-63813D02*
X83655Y-63844D01*
X83575Y-63869D02*
X83527Y-64017D01*
X83527Y-64017D02*
X83592Y-64039D01*
X83640Y-63890D02*
X83592Y-64039D01*
X83575Y-63869D02*
X83640Y-63890D01*
X83815Y-63988D02*
X83791Y-64062D01*
X83791Y-64062D02*
X83865Y-64086D01*
X83889Y-64012D02*
X83865Y-64086D01*
X83815Y-63988D02*
X83889Y-64012D01*
X84062Y-63861D02*
X84026Y-63973D01*
X84026Y-63973D02*
X84138Y-64010D01*
X84174Y-63898D02*
X84138Y-64010D01*
X84062Y-63861D02*
X84174Y-63898D01*
X84225Y-63904D02*
X84197Y-63988D01*
X84197Y-63988D02*
X84225Y-63997D01*
X84252Y-63913D02*
X84225Y-63997D01*
X84225Y-63904D02*
X84252Y-63913D01*
G54D17*
X83929Y-64304D02*
X83537Y-64176D01*
X83686Y-63750D02*
X84219Y-63923D01*
G54D18*
X84203Y-63960D02*
G75*
G03X84203Y-63960I-28J0D01*
G74*
G01*
G54D17*
X84219Y-64016D02*
G75*
G03X84134Y-64277I-42J-130D01*
G74*
G01*
X83387Y-64034D02*
G75*
G03X83471Y-63773I42J130D01*
G74*
G01*
G54D16*
X100275Y-59970D02*
X100365Y-60060D01*
X100365Y-60060D02*
X100504Y-59921D01*
X100414Y-59831D02*
X100504Y-59921D01*
X100275Y-59970D02*
X100414Y-59831D01*
X100101Y-59797D02*
X100143Y-59838D01*
X100143Y-59838D02*
X100213Y-59768D01*
X100171Y-59727D02*
X100213Y-59768D01*
X100101Y-59797D02*
X100171Y-59727D01*
X100239Y-59935D02*
X100281Y-59976D01*
X100281Y-59976D02*
X100351Y-59906D01*
X100309Y-59865D02*
X100351Y-59906D01*
X100239Y-59935D02*
X100309Y-59865D01*
X100136Y-59831D02*
X100246Y-59942D01*
X100246Y-59942D02*
X100295Y-59893D01*
X100185Y-59783D02*
X100295Y-59893D01*
X100136Y-59831D02*
X100185Y-59783D01*
X99858Y-60386D02*
X99949Y-60477D01*
X99949Y-60477D02*
X100088Y-60338D01*
X99997Y-60247D02*
X100088Y-60338D01*
X99858Y-60386D02*
X99997Y-60247D01*
X99601Y-60129D02*
X99691Y-60220D01*
X99691Y-60220D02*
X99831Y-60080D01*
X99740Y-59990D02*
X99831Y-60080D01*
X99601Y-60129D02*
X99740Y-59990D01*
X99892Y-60282D02*
X99934Y-60323D01*
X99934Y-60323D02*
X100004Y-60253D01*
X99962Y-60212D02*
X100004Y-60253D01*
X99892Y-60282D02*
X99962Y-60212D01*
X99754Y-60144D02*
X99796Y-60186D01*
X99796Y-60186D02*
X99866Y-60116D01*
X99824Y-60074D02*
X99866Y-60116D01*
X99754Y-60144D02*
X99824Y-60074D01*
X99810Y-60157D02*
X99920Y-60268D01*
X99920Y-60268D02*
X99969Y-60219D01*
X99859Y-60109D02*
X99969Y-60219D01*
X99810Y-60157D02*
X99859Y-60109D01*
X100025Y-59998D02*
X100080Y-60053D01*
X100080Y-60053D02*
X100135Y-59998D01*
X100080Y-59942D02*
X100135Y-59998D01*
X100025Y-59998D02*
X100080Y-59942D01*
X100024Y-59720D02*
X100108Y-59803D01*
X100108Y-59803D02*
X100191Y-59720D01*
X100108Y-59636D02*
X100191Y-59720D01*
X100024Y-59720D02*
X100108Y-59636D01*
X100136Y-59594D02*
X100199Y-59657D01*
X100199Y-59657D02*
X100220Y-59636D01*
X100157Y-59573D02*
X100220Y-59636D01*
X100136Y-59594D02*
X100157Y-59573D01*
G54D17*
X100358Y-60039D02*
X100067Y-60331D01*
X99754Y-60004D02*
X100150Y-59608D01*
G54D18*
X100192Y-59664D02*
G75*
G03X100192Y-59664I-28J0D01*
G74*
G01*
G54D17*
X100234Y-59650D02*
G75*
G03X100427Y-59844I96J-96D01*
G74*
G01*
X99872Y-60400D02*
G75*
G03X99678Y-60206I-96J96D01*
G74*
G01*
G54D16*
X75999Y-45893D02*
X75999Y-46021D01*
X75999Y-46021D02*
X76196Y-46021D01*
X76196Y-45893D02*
X76196Y-46021D01*
X75999Y-45893D02*
X76196Y-45893D01*
X75999Y-45648D02*
X75999Y-45707D01*
X75999Y-45707D02*
X76098Y-45707D01*
X76098Y-45648D02*
X76098Y-45707D01*
X75999Y-45648D02*
X76098Y-45648D01*
X75999Y-45843D02*
X75999Y-45902D01*
X75999Y-45902D02*
X76098Y-45902D01*
X76098Y-45843D02*
X76098Y-45902D01*
X75999Y-45843D02*
X76098Y-45843D01*
X75999Y-45697D02*
X75999Y-45853D01*
X75999Y-45853D02*
X76068Y-45853D01*
X76068Y-45697D02*
X76068Y-45853D01*
X75999Y-45697D02*
X76068Y-45697D01*
X75410Y-45893D02*
X75410Y-46021D01*
X75410Y-46021D02*
X75607Y-46021D01*
X75607Y-45893D02*
X75607Y-46021D01*
X75410Y-45893D02*
X75607Y-45893D01*
X75410Y-45529D02*
X75410Y-45657D01*
X75410Y-45657D02*
X75607Y-45657D01*
X75607Y-45529D02*
X75607Y-45657D01*
X75410Y-45529D02*
X75607Y-45529D01*
X75508Y-45843D02*
X75508Y-45902D01*
X75508Y-45902D02*
X75607Y-45902D01*
X75607Y-45843D02*
X75607Y-45902D01*
X75508Y-45843D02*
X75607Y-45843D01*
X75508Y-45648D02*
X75508Y-45707D01*
X75508Y-45707D02*
X75607Y-45707D01*
X75607Y-45648D02*
X75607Y-45707D01*
X75508Y-45648D02*
X75607Y-45648D01*
X75538Y-45697D02*
X75538Y-45853D01*
X75538Y-45853D02*
X75607Y-45853D01*
X75607Y-45697D02*
X75607Y-45853D01*
X75538Y-45697D02*
X75607Y-45697D01*
X75803Y-45736D02*
X75803Y-45814D01*
X75803Y-45814D02*
X75881Y-45814D01*
X75881Y-45736D02*
X75881Y-45814D01*
X75803Y-45736D02*
X75881Y-45736D01*
X75999Y-45539D02*
X75999Y-45657D01*
X75999Y-45657D02*
X76117Y-45657D01*
X76117Y-45539D02*
X76117Y-45657D01*
X75999Y-45539D02*
X76117Y-45539D01*
X76167Y-45529D02*
X76167Y-45618D01*
X76167Y-45618D02*
X76196Y-45618D01*
X76196Y-45529D02*
X76196Y-45618D01*
X76167Y-45529D02*
X76196Y-45529D01*
G54D17*
X76009Y-46001D02*
X75597Y-46001D01*
X75607Y-45549D02*
X76167Y-45549D01*
G54D18*
X76165Y-45598D02*
G75*
G03X76165Y-45598I-28J0D01*
G74*
G01*
G54D17*
X76196Y-45638D02*
G75*
G03X76196Y-45912I0J-137D01*
G74*
G01*
X75410Y-45912D02*
G75*
G03X75410Y-45638I0J137D01*
G74*
G01*
G54D16*
X75671Y-52329D02*
X75799Y-52329D01*
X75799Y-52329D02*
X75799Y-52132D01*
X75671Y-52132D02*
X75799Y-52132D01*
X75671Y-52329D02*
X75671Y-52132D01*
X75426Y-52329D02*
X75485Y-52329D01*
X75485Y-52329D02*
X75485Y-52230D01*
X75426Y-52230D02*
X75485Y-52230D01*
X75426Y-52329D02*
X75426Y-52230D01*
X75621Y-52329D02*
X75680Y-52329D01*
X75680Y-52329D02*
X75680Y-52230D01*
X75621Y-52230D02*
X75680Y-52230D01*
X75621Y-52329D02*
X75621Y-52230D01*
X75475Y-52329D02*
X75631Y-52329D01*
X75631Y-52329D02*
X75631Y-52260D01*
X75475Y-52260D02*
X75631Y-52260D01*
X75475Y-52329D02*
X75475Y-52260D01*
X75671Y-52918D02*
X75799Y-52918D01*
X75799Y-52918D02*
X75799Y-52721D01*
X75671Y-52721D02*
X75799Y-52721D01*
X75671Y-52918D02*
X75671Y-52721D01*
X75307Y-52918D02*
X75435Y-52918D01*
X75435Y-52918D02*
X75435Y-52721D01*
X75307Y-52721D02*
X75435Y-52721D01*
X75307Y-52918D02*
X75307Y-52721D01*
X75621Y-52820D02*
X75680Y-52820D01*
X75680Y-52820D02*
X75680Y-52721D01*
X75621Y-52721D02*
X75680Y-52721D01*
X75621Y-52820D02*
X75621Y-52721D01*
X75426Y-52820D02*
X75485Y-52820D01*
X75485Y-52820D02*
X75485Y-52721D01*
X75426Y-52721D02*
X75485Y-52721D01*
X75426Y-52820D02*
X75426Y-52721D01*
X75475Y-52790D02*
X75631Y-52790D01*
X75631Y-52790D02*
X75631Y-52721D01*
X75475Y-52721D02*
X75631Y-52721D01*
X75475Y-52790D02*
X75475Y-52721D01*
X75514Y-52525D02*
X75592Y-52525D01*
X75592Y-52525D02*
X75592Y-52447D01*
X75514Y-52447D02*
X75592Y-52447D01*
X75514Y-52525D02*
X75514Y-52447D01*
X75317Y-52329D02*
X75435Y-52329D01*
X75435Y-52329D02*
X75435Y-52211D01*
X75317Y-52211D02*
X75435Y-52211D01*
X75317Y-52329D02*
X75317Y-52211D01*
X75307Y-52161D02*
X75396Y-52161D01*
X75396Y-52161D02*
X75396Y-52132D01*
X75307Y-52132D02*
X75396Y-52132D01*
X75307Y-52161D02*
X75307Y-52132D01*
G54D17*
X75779Y-52319D02*
X75779Y-52731D01*
X75327Y-52721D02*
X75327Y-52161D01*
G54D18*
X75404Y-52191D02*
G75*
G03X75404Y-52191I-28J0D01*
G74*
G01*
G54D17*
X75416Y-52132D02*
G75*
G03X75690Y-52132I137J0D01*
G74*
G01*
X75690Y-52918D02*
G75*
G03X75416Y-52918I-137J0D01*
G74*
G01*
G54D16*
X77108Y-60247D02*
X77017Y-60338D01*
X77017Y-60338D02*
X77157Y-60477D01*
X77247Y-60386D02*
X77157Y-60477D01*
X77108Y-60247D02*
X77247Y-60386D01*
X77281Y-60074D02*
X77239Y-60116D01*
X77239Y-60116D02*
X77309Y-60186D01*
X77351Y-60144D02*
X77309Y-60186D01*
X77281Y-60074D02*
X77351Y-60144D01*
X77143Y-60212D02*
X77101Y-60253D01*
X77101Y-60253D02*
X77171Y-60323D01*
X77213Y-60282D02*
X77171Y-60323D01*
X77143Y-60212D02*
X77213Y-60282D01*
X77246Y-60109D02*
X77136Y-60219D01*
X77136Y-60219D02*
X77185Y-60268D01*
X77295Y-60157D02*
X77185Y-60268D01*
X77246Y-60109D02*
X77295Y-60157D01*
X76691Y-59831D02*
X76601Y-59921D01*
X76601Y-59921D02*
X76740Y-60060D01*
X76831Y-59970D02*
X76740Y-60060D01*
X76691Y-59831D02*
X76831Y-59970D01*
X76949Y-59573D02*
X76858Y-59664D01*
X76858Y-59664D02*
X76997Y-59803D01*
X77088Y-59713D02*
X76997Y-59803D01*
X76949Y-59573D02*
X77088Y-59713D01*
X76796Y-59865D02*
X76754Y-59906D01*
X76754Y-59906D02*
X76824Y-59976D01*
X76866Y-59935D02*
X76824Y-59976D01*
X76796Y-59865D02*
X76866Y-59935D01*
X76934Y-59727D02*
X76892Y-59768D01*
X76892Y-59768D02*
X76962Y-59838D01*
X77004Y-59797D02*
X76962Y-59838D01*
X76934Y-59727D02*
X77004Y-59797D01*
X76920Y-59783D02*
X76810Y-59893D01*
X76810Y-59893D02*
X76859Y-59942D01*
X76969Y-59831D02*
X76859Y-59942D01*
X76920Y-59783D02*
X76969Y-59831D01*
X77080Y-59998D02*
X77025Y-60053D01*
X77025Y-60053D02*
X77080Y-60108D01*
X77135Y-60053D02*
X77080Y-60108D01*
X77080Y-59998D02*
X77135Y-60053D01*
X77358Y-59997D02*
X77275Y-60080D01*
X77275Y-60080D02*
X77358Y-60164D01*
X77442Y-60080D02*
X77358Y-60164D01*
X77358Y-59997D02*
X77442Y-60080D01*
X77484Y-60109D02*
X77421Y-60171D01*
X77421Y-60171D02*
X77442Y-60192D01*
X77504Y-60129D02*
X77442Y-60192D01*
X77484Y-60109D02*
X77504Y-60129D01*
G54D17*
X77039Y-60331D02*
X76747Y-60039D01*
X77074Y-59727D02*
X77470Y-60123D01*
G54D18*
X77442Y-60136D02*
G75*
G03X77442Y-60136I-28J0D01*
G74*
G01*
G54D17*
X77427Y-60206D02*
G75*
G03X77234Y-60400I-96J-96D01*
G74*
G01*
X76678Y-59844D02*
G75*
G03X76872Y-59650I96J96D01*
G74*
G01*
G54D16*
X93526Y-64077D02*
X93565Y-64198D01*
X93565Y-64198D02*
X93752Y-64138D01*
X93713Y-64016D02*
X93752Y-64138D01*
X93526Y-64077D02*
X93713Y-64016D01*
X93450Y-63844D02*
X93468Y-63900D01*
X93468Y-63900D02*
X93562Y-63869D01*
X93544Y-63813D02*
X93562Y-63869D01*
X93450Y-63844D02*
X93544Y-63813D01*
X93510Y-64029D02*
X93528Y-64085D01*
X93528Y-64085D02*
X93622Y-64055D01*
X93604Y-63999D02*
X93622Y-64055D01*
X93510Y-64029D02*
X93604Y-63999D01*
X93465Y-63890D02*
X93513Y-64039D01*
X93513Y-64039D02*
X93579Y-64017D01*
X93531Y-63869D02*
X93579Y-64017D01*
X93465Y-63890D02*
X93531Y-63869D01*
X92965Y-64259D02*
X93005Y-64380D01*
X93005Y-64380D02*
X93192Y-64320D01*
X93153Y-64198D02*
X93192Y-64320D01*
X92965Y-64259D02*
X93153Y-64198D01*
X92853Y-63913D02*
X92892Y-64034D01*
X92892Y-64034D02*
X93080Y-63973D01*
X93040Y-63852D02*
X93080Y-63973D01*
X92853Y-63913D02*
X93040Y-63852D01*
X93043Y-64181D02*
X93061Y-64237D01*
X93061Y-64237D02*
X93155Y-64206D01*
X93137Y-64150D02*
X93155Y-64206D01*
X93043Y-64181D02*
X93137Y-64150D01*
X92983Y-63995D02*
X93001Y-64052D01*
X93001Y-64052D02*
X93095Y-64021D01*
X93077Y-63965D02*
X93095Y-64021D01*
X92983Y-63995D02*
X93077Y-63965D01*
X93027Y-64033D02*
X93075Y-64181D01*
X93075Y-64181D02*
X93140Y-64160D01*
X93092Y-64011D02*
X93140Y-64160D01*
X93027Y-64033D02*
X93092Y-64011D01*
X93291Y-63988D02*
X93315Y-64062D01*
X93315Y-64062D02*
X93389Y-64038D01*
X93365Y-63964D02*
X93389Y-64038D01*
X93291Y-63988D02*
X93365Y-63964D01*
X93416Y-63740D02*
X93453Y-63852D01*
X93453Y-63852D02*
X93565Y-63816D01*
X93528Y-63704D02*
X93565Y-63816D01*
X93416Y-63740D02*
X93528Y-63704D01*
X93573Y-63679D02*
X93600Y-63763D01*
X93600Y-63763D02*
X93628Y-63754D01*
X93600Y-63670D02*
X93628Y-63754D01*
X93573Y-63679D02*
X93600Y-63670D01*
G54D17*
X93568Y-64176D02*
X93177Y-64304D01*
X93046Y-63871D02*
X93579Y-63698D01*
G54D18*
X93594Y-63754D02*
G75*
G03X93594Y-63754I-28J0D01*
G74*
G01*
G54D17*
X93634Y-63773D02*
G75*
G03X93719Y-64034I42J-130D01*
G74*
G01*
X92971Y-64277D02*
G75*
G03X92887Y-64016I-42J130D01*
G74*
G01*
G54D11*
X88001Y-47854D02*
X88208Y-47647D01*
X89173Y-47647D02*
X89173Y-47844D01*
X89173Y-48819D02*
X89173Y-48612D01*
X87991Y-47637D02*
X87991Y-47854D01*
X87991Y-47637D02*
X88208Y-47637D01*
X87991Y-48828D02*
X88208Y-48828D01*
X87991Y-48819D02*
X87991Y-48612D01*
X89173Y-48819D02*
X88956Y-48819D01*
X89173Y-47647D02*
X88956Y-47647D01*
G54D13*
X97250Y-61975D02*
X96150Y-61975D01*
X97250Y-62200D02*
X97250Y-60800D01*
X97250Y-60800D02*
X96150Y-60800D01*
X96150Y-60800D02*
X96150Y-62200D01*
X96150Y-62200D02*
X97250Y-62200D01*
X86075Y-51350D02*
X86075Y-50250D01*
X85850Y-51350D02*
X87250Y-51350D01*
X87250Y-51350D02*
X87250Y-50250D01*
X87250Y-50250D02*
X85850Y-50250D01*
X85850Y-50250D02*
X85850Y-51350D01*
X93250Y-61025D02*
X94350Y-61025D01*
X93250Y-60800D02*
X93250Y-62200D01*
X93250Y-62200D02*
X94350Y-62200D01*
X94350Y-62200D02*
X94350Y-60800D01*
X94350Y-60800D02*
X93250Y-60800D01*
X86453Y-55725D02*
X86453Y-51825D01*
X86453Y-51825D02*
X84653Y-51825D01*
X84653Y-51825D02*
X84653Y-55725D01*
X84653Y-55725D02*
X86453Y-55725D01*
X85064Y-52175D02*
G75*
G03X85064Y-52175I-111J0D01*
G74*
G01*
G54D19*
X90050Y-49900D02*
X90050Y-50900D01*
X90050Y-50900D02*
X88050Y-50900D01*
X88050Y-50900D02*
X88050Y-49900D01*
X88050Y-49900D02*
X90050Y-49900D01*
X90050Y-51150D02*
X90050Y-52150D01*
X90050Y-52150D02*
X88050Y-52150D01*
X88050Y-52150D02*
X88050Y-51150D01*
X88050Y-51150D02*
X90050Y-51150D01*
G54D20*
X76900Y-56275D02*
G75*
G03X76900Y-56275I-900J0D01*
G74*
G01*
X102050Y-56275D02*
G75*
G03X102050Y-56275I-900J0D01*
G74*
G01*
X98250Y-45975D02*
G75*
G03X98250Y-45975I-900J0D01*
G74*
G01*
X80700Y-45975D02*
G75*
G03X80700Y-45975I-900J0D01*
G74*
G01*
G54D21*
X99700Y-56081D02*
X99700Y-56262D01*
X99735Y-56081D02*
X99755Y-56081D01*
X99716Y-56093D02*
X99735Y-56081D01*
X99708Y-56101D02*
X99716Y-56093D01*
X99700Y-56128D02*
X99708Y-56101D01*
X99873Y-56262D02*
X99893Y-56250D01*
X99834Y-56262D02*
X99873Y-56262D01*
X99818Y-56250D02*
X99834Y-56262D01*
X99810Y-56223D02*
X99818Y-56250D01*
X99810Y-56116D02*
X99810Y-56223D01*
X99822Y-56093D02*
X99810Y-56116D01*
X99838Y-56081D02*
X99822Y-56093D01*
X99877Y-56081D02*
X99838Y-56081D01*
X99893Y-56097D02*
X99877Y-56081D01*
X99901Y-56124D02*
X99893Y-56097D01*
X99901Y-56172D02*
X99901Y-56124D01*
X99901Y-56172D02*
X99810Y-56172D01*
X99605Y-56116D02*
X99605Y-56262D01*
X99594Y-56093D02*
X99605Y-56116D01*
X99578Y-56081D02*
X99594Y-56093D01*
X99538Y-56081D02*
X99578Y-56081D01*
X99519Y-56093D02*
X99538Y-56081D01*
X99542Y-56156D02*
X99523Y-56168D01*
X99590Y-56156D02*
X99542Y-56156D01*
X99605Y-56144D02*
X99590Y-56156D01*
X99586Y-56262D02*
X99605Y-56246D01*
X99538Y-56262D02*
X99586Y-56262D01*
X99519Y-56246D02*
X99538Y-56262D01*
X99511Y-56223D02*
X99519Y-56246D01*
X99511Y-56195D02*
X99511Y-56223D01*
X99523Y-56168D02*
X99511Y-56195D01*
X99294Y-56081D02*
X99334Y-56262D01*
X99334Y-56262D02*
X99369Y-56128D01*
X99369Y-56128D02*
X99409Y-56262D01*
X99409Y-56262D02*
X99448Y-56081D01*
X99220Y-56250D02*
X99204Y-56262D01*
X99204Y-56262D02*
X99161Y-56262D01*
X99161Y-56262D02*
X99145Y-56250D01*
X99145Y-56250D02*
X99137Y-56238D01*
X99137Y-56238D02*
X99125Y-56211D01*
X99125Y-56211D02*
X99125Y-56132D01*
X99125Y-56132D02*
X99137Y-56105D01*
X99137Y-56105D02*
X99145Y-56093D01*
X99145Y-56093D02*
X99168Y-56077D01*
X99168Y-56077D02*
X99196Y-56077D01*
X99196Y-56077D02*
X99220Y-56093D01*
X99220Y-55987D02*
X99220Y-56262D01*
X99015Y-56128D02*
X99023Y-56101D01*
X99023Y-56101D02*
X99031Y-56093D01*
X99031Y-56093D02*
X99050Y-56081D01*
X99050Y-56081D02*
X99070Y-56081D01*
X99015Y-56081D02*
X99015Y-56262D01*
X98838Y-56168D02*
X98826Y-56195D01*
X98826Y-56195D02*
X98826Y-56223D01*
X98826Y-56223D02*
X98834Y-56246D01*
X98834Y-56246D02*
X98853Y-56262D01*
X98853Y-56262D02*
X98901Y-56262D01*
X98901Y-56262D02*
X98920Y-56246D01*
X98920Y-56144D02*
X98905Y-56156D01*
X98905Y-56156D02*
X98857Y-56156D01*
X98857Y-56156D02*
X98838Y-56168D01*
X98834Y-56093D02*
X98853Y-56081D01*
X98853Y-56081D02*
X98893Y-56081D01*
X98893Y-56081D02*
X98909Y-56093D01*
X98909Y-56093D02*
X98920Y-56116D01*
X98920Y-56116D02*
X98920Y-56262D01*
X98657Y-56109D02*
X98664Y-56093D01*
X98664Y-56093D02*
X98684Y-56081D01*
X98684Y-56081D02*
X98716Y-56081D01*
X98716Y-56081D02*
X98731Y-56093D01*
X98731Y-56093D02*
X98739Y-56116D01*
X98739Y-56116D02*
X98739Y-56262D01*
X98657Y-55987D02*
X98657Y-56262D01*
X98243Y-56172D02*
X98153Y-56172D01*
X98330Y-56105D02*
X98338Y-56093D01*
X98338Y-56093D02*
X98353Y-56081D01*
X98353Y-56081D02*
X98389Y-56081D01*
X98389Y-56081D02*
X98405Y-56093D01*
X98405Y-56093D02*
X98412Y-56116D01*
X98412Y-56116D02*
X98412Y-56262D01*
X98330Y-56081D02*
X98330Y-56262D01*
X98243Y-56172D02*
X98243Y-56124D01*
X98243Y-56124D02*
X98235Y-56097D01*
X98235Y-56097D02*
X98220Y-56081D01*
X98220Y-56081D02*
X98180Y-56081D01*
X98180Y-56081D02*
X98164Y-56093D01*
X98164Y-56093D02*
X98153Y-56116D01*
X98153Y-56116D02*
X98153Y-56223D01*
X98153Y-56223D02*
X98161Y-56250D01*
X98161Y-56250D02*
X98176Y-56262D01*
X98176Y-56262D02*
X98216Y-56262D01*
X98216Y-56262D02*
X98235Y-56250D01*
X97983Y-56093D02*
X97999Y-56081D01*
X97999Y-56081D02*
X98038Y-56081D01*
X98038Y-56081D02*
X98054Y-56093D01*
X98054Y-56093D02*
X98066Y-56105D01*
X98066Y-56105D02*
X98074Y-56128D01*
X98074Y-56128D02*
X98074Y-56215D01*
X98074Y-56215D02*
X98066Y-56238D01*
X98066Y-56238D02*
X98058Y-56250D01*
X98058Y-56250D02*
X98042Y-56262D01*
X98042Y-56262D02*
X98003Y-56262D01*
X98003Y-56262D02*
X97983Y-56250D01*
X97983Y-56357D02*
X97983Y-56081D01*
X97861Y-56081D02*
X97830Y-56081D01*
X97830Y-56081D02*
X97814Y-56093D01*
X97814Y-56093D02*
X97806Y-56105D01*
X97806Y-56105D02*
X97794Y-56132D01*
X97830Y-56262D02*
X97861Y-56262D01*
X97861Y-56262D02*
X97881Y-56250D01*
X97881Y-56250D02*
X97889Y-56238D01*
X97889Y-56238D02*
X97897Y-56211D01*
X97897Y-56211D02*
X97897Y-56132D01*
X97897Y-56132D02*
X97889Y-56109D01*
X97889Y-56109D02*
X97881Y-56097D01*
X97881Y-56097D02*
X97861Y-56081D01*
X97794Y-56132D02*
X97794Y-56211D01*
X97794Y-56211D02*
X97802Y-56235D01*
X97802Y-56235D02*
X97810Y-56246D01*
X97810Y-56246D02*
X97830Y-56262D01*
G54D22*
G36*
X98254Y-55934D02*
X98264Y-55928D01*
X98287Y-55914D01*
X98320Y-55892D01*
X98359Y-55866D01*
X98398Y-55840D01*
X98430Y-55819D01*
X98452Y-55804D01*
X98462Y-55799D01*
X98467Y-55801D01*
X98485Y-55810D01*
X98512Y-55824D01*
X98528Y-55832D01*
X98552Y-55842D01*
X98565Y-55845D01*
X98567Y-55841D01*
X98576Y-55822D01*
X98590Y-55790D01*
X98608Y-55747D01*
X98630Y-55697D01*
X98652Y-55644D01*
X98675Y-55589D01*
X98697Y-55536D01*
X98716Y-55489D01*
X98732Y-55451D01*
X98742Y-55424D01*
X98746Y-55413D01*
X98745Y-55410D01*
X98732Y-55398D01*
X98711Y-55382D01*
X98664Y-55344D01*
X98618Y-55287D01*
X98590Y-55222D01*
X98581Y-55149D01*
X98589Y-55082D01*
X98615Y-55018D01*
X98660Y-54960D01*
X98715Y-54917D01*
X98779Y-54890D01*
X98850Y-54881D01*
X98918Y-54889D01*
X98984Y-54915D01*
X99042Y-54959D01*
X99067Y-54987D01*
X99101Y-55046D01*
X99120Y-55108D01*
X99122Y-55124D01*
X99119Y-55193D01*
X99099Y-55260D01*
X99062Y-55319D01*
X99011Y-55368D01*
X99005Y-55372D01*
X98982Y-55390D01*
X98966Y-55402D01*
X98954Y-55412D01*
X99042Y-55624D01*
X99056Y-55657D01*
X99080Y-55715D01*
X99101Y-55765D01*
X99118Y-55805D01*
X99130Y-55831D01*
X99135Y-55842D01*
X99135Y-55843D01*
X99143Y-55844D01*
X99159Y-55838D01*
X99189Y-55824D01*
X99208Y-55814D01*
X99231Y-55803D01*
X99241Y-55799D01*
X99250Y-55804D01*
X99271Y-55818D01*
X99303Y-55839D01*
X99341Y-55864D01*
X99377Y-55889D01*
X99410Y-55911D01*
X99434Y-55926D01*
X99446Y-55933D01*
X99448Y-55933D01*
X99458Y-55927D01*
X99477Y-55911D01*
X99506Y-55884D01*
X99547Y-55843D01*
X99553Y-55837D01*
X99587Y-55803D01*
X99614Y-55774D01*
X99632Y-55754D01*
X99639Y-55745D01*
X99639Y-55745D01*
X99633Y-55733D01*
X99618Y-55709D01*
X99596Y-55675D01*
X99569Y-55636D01*
X99499Y-55534D01*
X99537Y-55438D01*
X99549Y-55408D01*
X99564Y-55373D01*
X99575Y-55347D01*
X99581Y-55336D01*
X99591Y-55332D01*
X99618Y-55326D01*
X99656Y-55318D01*
X99701Y-55310D01*
X99745Y-55302D01*
X99784Y-55294D01*
X99812Y-55289D01*
X99825Y-55286D01*
X99828Y-55284D01*
X99831Y-55278D01*
X99832Y-55265D01*
X99833Y-55241D01*
X99834Y-55204D01*
X99834Y-55149D01*
X99834Y-55143D01*
X99833Y-55092D01*
X99832Y-55050D01*
X99831Y-55024D01*
X99829Y-55013D01*
X99829Y-55013D01*
X99817Y-55010D01*
X99789Y-55004D01*
X99750Y-54997D01*
X99703Y-54988D01*
X99700Y-54987D01*
X99654Y-54978D01*
X99615Y-54970D01*
X99587Y-54964D01*
X99576Y-54960D01*
X99573Y-54957D01*
X99564Y-54939D01*
X99551Y-54910D01*
X99535Y-54875D01*
X99520Y-54838D01*
X99507Y-54805D01*
X99498Y-54781D01*
X99495Y-54770D01*
X99496Y-54769D01*
X99503Y-54758D01*
X99519Y-54734D01*
X99541Y-54701D01*
X99568Y-54661D01*
X99570Y-54658D01*
X99597Y-54619D01*
X99619Y-54585D01*
X99633Y-54562D01*
X99639Y-54551D01*
X99639Y-54550D01*
X99630Y-54538D01*
X99610Y-54516D01*
X99581Y-54486D01*
X99547Y-54451D01*
X99536Y-54441D01*
X99497Y-54403D01*
X99471Y-54379D01*
X99454Y-54366D01*
X99446Y-54363D01*
X99446Y-54363D01*
X99434Y-54370D01*
X99409Y-54386D01*
X99376Y-54409D01*
X99336Y-54436D01*
X99333Y-54438D01*
X99294Y-54465D01*
X99261Y-54487D01*
X99238Y-54503D01*
X99227Y-54509D01*
X99226Y-54509D01*
X99210Y-54504D01*
X99182Y-54494D01*
X99147Y-54481D01*
X99111Y-54466D01*
X99078Y-54452D01*
X99053Y-54441D01*
X99041Y-54434D01*
X99041Y-54434D01*
X99037Y-54420D01*
X99030Y-54390D01*
X99022Y-54350D01*
X99012Y-54302D01*
X99011Y-54294D01*
X99002Y-54247D01*
X98995Y-54208D01*
X98989Y-54181D01*
X98986Y-54170D01*
X98980Y-54169D01*
X98957Y-54167D01*
X98922Y-54166D01*
X98879Y-54166D01*
X98835Y-54166D01*
X98792Y-54167D01*
X98755Y-54168D01*
X98728Y-54170D01*
X98717Y-54172D01*
X98717Y-54173D01*
X98713Y-54188D01*
X98706Y-54217D01*
X98698Y-54258D01*
X98689Y-54306D01*
X98687Y-54315D01*
X98678Y-54361D01*
X98670Y-54400D01*
X98665Y-54426D01*
X98662Y-54437D01*
X98657Y-54439D01*
X98638Y-54447D01*
X98607Y-54460D01*
X98568Y-54476D01*
X98478Y-54512D01*
X98367Y-54437D01*
X98357Y-54430D01*
X98317Y-54403D01*
X98285Y-54381D01*
X98262Y-54366D01*
X98253Y-54361D01*
X98252Y-54361D01*
X98241Y-54371D01*
X98219Y-54392D01*
X98189Y-54421D01*
X98154Y-54455D01*
X98129Y-54481D01*
X98098Y-54512D01*
X98079Y-54533D01*
X98068Y-54546D01*
X98065Y-54554D01*
X98066Y-54560D01*
X98073Y-54571D01*
X98089Y-54595D01*
X98112Y-54629D01*
X98139Y-54668D01*
X98161Y-54701D01*
X98185Y-54738D01*
X98200Y-54764D01*
X98206Y-54777D01*
X98204Y-54782D01*
X98197Y-54804D01*
X98183Y-54837D01*
X98167Y-54876D01*
X98128Y-54963D01*
X98071Y-54974D01*
X98036Y-54981D01*
X97988Y-54990D01*
X97941Y-54999D01*
X97869Y-55013D01*
X97866Y-55279D01*
X97877Y-55284D01*
X97888Y-55287D01*
X97915Y-55293D01*
X97953Y-55301D01*
X97999Y-55309D01*
X98037Y-55316D01*
X98076Y-55324D01*
X98104Y-55329D01*
X98116Y-55332D01*
X98120Y-55336D01*
X98129Y-55355D01*
X98143Y-55385D01*
X98159Y-55421D01*
X98174Y-55458D01*
X98188Y-55493D01*
X98197Y-55519D01*
X98201Y-55532D01*
X98196Y-55543D01*
X98181Y-55566D01*
X98160Y-55598D01*
X98133Y-55637D01*
X98107Y-55675D01*
X98084Y-55708D01*
X98069Y-55732D01*
X98062Y-55743D01*
X98066Y-55750D01*
X98081Y-55769D01*
X98110Y-55799D01*
X98154Y-55842D01*
X98161Y-55849D01*
X98195Y-55882D01*
X98224Y-55909D01*
X98245Y-55927D01*
X98254Y-55934D01*
X98254Y-55934D01*
G37*
G54D10*
X87110Y-60512D02*
X87110Y-60767D01*
X87125Y-60797D01*
X87140Y-60812D01*
X87170Y-60827D01*
X87230Y-60827D01*
X87260Y-60812D01*
X87275Y-60797D01*
X87290Y-60767D01*
X87290Y-60512D01*
X87409Y-60512D02*
X87604Y-60512D01*
X87499Y-60632D01*
X87544Y-60632D01*
X87574Y-60647D01*
X87589Y-60662D01*
X87604Y-60692D01*
X87604Y-60767D01*
X87589Y-60797D01*
X87574Y-60812D01*
X87544Y-60827D01*
X87454Y-60827D01*
X87424Y-60812D01*
X87409Y-60797D01*
G54D14*
X92124Y-50155D02*
X92410Y-50441D01*
X92457Y-50461D01*
X92487Y-50464D01*
X92531Y-50454D01*
X92585Y-50400D01*
X92595Y-50357D01*
X92592Y-50326D01*
X92571Y-50279D01*
X92285Y-49993D01*
X92922Y-50064D02*
X92760Y-50225D01*
X92841Y-50144D02*
X92487Y-49791D01*
X92511Y-49868D01*
X92518Y-49929D01*
X92507Y-49973D01*
G54D13*
X92550Y-55857D02*
X92592Y-55871D01*
X92664Y-55871D01*
X92692Y-55857D01*
X92707Y-55842D01*
X92721Y-55814D01*
X92721Y-55785D01*
X92707Y-55757D01*
X92692Y-55742D01*
X92664Y-55728D01*
X92607Y-55714D01*
X92578Y-55700D01*
X92564Y-55685D01*
X92550Y-55657D01*
X92550Y-55628D01*
X92564Y-55600D01*
X92578Y-55585D01*
X92607Y-55571D01*
X92678Y-55571D01*
X92721Y-55585D01*
X92821Y-55571D02*
X92892Y-55871D01*
X92950Y-55657D01*
X93007Y-55871D01*
X93078Y-55571D01*
X93350Y-55871D02*
X93178Y-55871D01*
X93264Y-55871D02*
X93264Y-55571D01*
X93235Y-55614D01*
X93207Y-55642D01*
X93178Y-55657D01*
X95109Y-60001D02*
X95109Y-60203D01*
X95121Y-60227D01*
X95133Y-60239D01*
X95157Y-60251D01*
X95204Y-60251D01*
X95228Y-60239D01*
X95240Y-60227D01*
X95252Y-60203D01*
X95252Y-60001D01*
X95347Y-60001D02*
X95514Y-60001D01*
X95407Y-60251D01*
G54D14*
X82745Y-50511D02*
X82745Y-50835D01*
X82764Y-50873D01*
X82783Y-50892D01*
X82821Y-50911D01*
X82897Y-50911D01*
X82935Y-50892D01*
X82954Y-50873D01*
X82973Y-50835D01*
X82973Y-50511D01*
X83221Y-50683D02*
X83183Y-50664D01*
X83164Y-50645D01*
X83145Y-50607D01*
X83145Y-50588D01*
X83164Y-50550D01*
X83183Y-50530D01*
X83221Y-50511D01*
X83297Y-50511D01*
X83335Y-50530D01*
X83354Y-50550D01*
X83373Y-50588D01*
X83373Y-50607D01*
X83354Y-50645D01*
X83335Y-50664D01*
X83297Y-50683D01*
X83221Y-50683D01*
X83183Y-50702D01*
X83164Y-50721D01*
X83145Y-50759D01*
X83145Y-50835D01*
X83164Y-50873D01*
X83183Y-50892D01*
X83221Y-50911D01*
X83297Y-50911D01*
X83335Y-50892D01*
X83354Y-50873D01*
X83373Y-50835D01*
X83373Y-50759D01*
X83354Y-50721D01*
X83335Y-50702D01*
X83297Y-50683D01*
G54D23*
X86075Y-57924D02*
X86075Y-58163D01*
X86089Y-58191D01*
X86103Y-58205D01*
X86131Y-58219D01*
X86187Y-58219D01*
X86215Y-58205D01*
X86229Y-58191D01*
X86243Y-58163D01*
X86243Y-57924D01*
X86370Y-57952D02*
X86384Y-57938D01*
X86412Y-57924D01*
X86482Y-57924D01*
X86510Y-57938D01*
X86524Y-57952D01*
X86538Y-57980D01*
X86538Y-58008D01*
X86524Y-58050D01*
X86356Y-58219D01*
X86538Y-58219D01*
G54D24*
X91473Y-45610D02*
X91463Y-45620D01*
X91435Y-45629D01*
X91417Y-45629D01*
X91388Y-45620D01*
X91370Y-45601D01*
X91360Y-45582D01*
X91351Y-45545D01*
X91351Y-45517D01*
X91360Y-45479D01*
X91370Y-45460D01*
X91388Y-45442D01*
X91417Y-45432D01*
X91435Y-45432D01*
X91463Y-45442D01*
X91473Y-45451D01*
X91660Y-45629D02*
X91548Y-45629D01*
X91604Y-45629D02*
X91604Y-45432D01*
X91585Y-45460D01*
X91567Y-45479D01*
X91548Y-45489D01*
X91839Y-45432D02*
X91745Y-45432D01*
X91736Y-45526D01*
X91745Y-45517D01*
X91764Y-45507D01*
X91811Y-45507D01*
X91829Y-45517D01*
X91839Y-45526D01*
X91848Y-45545D01*
X91848Y-45592D01*
X91839Y-45610D01*
X91829Y-45620D01*
X91811Y-45629D01*
X91764Y-45629D01*
X91745Y-45620D01*
X91736Y-45610D01*
X98517Y-48853D02*
X98504Y-48853D01*
X98477Y-48840D01*
X98464Y-48827D01*
X98451Y-48800D01*
X98451Y-48773D01*
X98457Y-48754D01*
X98477Y-48720D01*
X98497Y-48701D01*
X98530Y-48681D01*
X98550Y-48674D01*
X98577Y-48674D01*
X98603Y-48687D01*
X98616Y-48701D01*
X98630Y-48727D01*
X98630Y-48740D01*
X98636Y-48999D02*
X98557Y-48919D01*
X98596Y-48959D02*
X98736Y-48820D01*
X98703Y-48827D01*
X98676Y-48827D01*
X98656Y-48820D01*
X98815Y-48926D02*
X98829Y-48926D01*
X98849Y-48933D01*
X98882Y-48966D01*
X98888Y-48986D01*
X98888Y-48999D01*
X98882Y-49019D01*
X98868Y-49032D01*
X98842Y-49045D01*
X98683Y-49045D01*
X98769Y-49132D01*
X92523Y-48679D02*
X92457Y-48585D01*
X92410Y-48679D02*
X92410Y-48482D01*
X92485Y-48482D01*
X92504Y-48492D01*
X92513Y-48501D01*
X92523Y-48520D01*
X92523Y-48548D01*
X92513Y-48567D01*
X92504Y-48576D01*
X92485Y-48585D01*
X92410Y-48585D01*
X92598Y-48501D02*
X92607Y-48492D01*
X92626Y-48482D01*
X92673Y-48482D01*
X92692Y-48492D01*
X92701Y-48501D01*
X92710Y-48520D01*
X92710Y-48539D01*
X92701Y-48567D01*
X92589Y-48679D01*
X92710Y-48679D01*
X92879Y-48548D02*
X92879Y-48679D01*
X92832Y-48473D02*
X92786Y-48614D01*
X92907Y-48614D01*
X99123Y-48629D02*
X99057Y-48535D01*
X99010Y-48629D02*
X99010Y-48432D01*
X99085Y-48432D01*
X99104Y-48442D01*
X99113Y-48451D01*
X99123Y-48470D01*
X99123Y-48498D01*
X99113Y-48517D01*
X99104Y-48526D01*
X99085Y-48535D01*
X99010Y-48535D01*
X99310Y-48629D02*
X99198Y-48629D01*
X99254Y-48629D02*
X99254Y-48432D01*
X99235Y-48460D01*
X99217Y-48479D01*
X99198Y-48489D01*
X99404Y-48629D02*
X99442Y-48629D01*
X99461Y-48620D01*
X99470Y-48610D01*
X99489Y-48582D01*
X99498Y-48545D01*
X99498Y-48470D01*
X99489Y-48451D01*
X99479Y-48442D01*
X99461Y-48432D01*
X99423Y-48432D01*
X99404Y-48442D01*
X99395Y-48451D01*
X99386Y-48470D01*
X99386Y-48517D01*
X99395Y-48535D01*
X99404Y-48545D01*
X99423Y-48554D01*
X99461Y-48554D01*
X99479Y-48545D01*
X99489Y-48535D01*
X99498Y-48517D01*
X87226Y-48751D02*
X87132Y-48816D01*
X87226Y-48863D02*
X87029Y-48863D01*
X87029Y-48788D01*
X87038Y-48769D01*
X87048Y-48760D01*
X87067Y-48751D01*
X87095Y-48751D01*
X87114Y-48760D01*
X87123Y-48769D01*
X87132Y-48788D01*
X87132Y-48863D01*
X87048Y-48676D02*
X87038Y-48666D01*
X87029Y-48647D01*
X87029Y-48600D01*
X87038Y-48582D01*
X87048Y-48572D01*
X87067Y-48563D01*
X87085Y-48563D01*
X87114Y-48572D01*
X87226Y-48685D01*
X87226Y-48563D01*
X87048Y-48488D02*
X87038Y-48479D01*
X87029Y-48460D01*
X87029Y-48413D01*
X87038Y-48394D01*
X87048Y-48385D01*
X87067Y-48375D01*
X87085Y-48375D01*
X87114Y-48385D01*
X87226Y-48497D01*
X87226Y-48375D01*
X87226Y-47401D02*
X87132Y-47466D01*
X87226Y-47513D02*
X87029Y-47513D01*
X87029Y-47438D01*
X87038Y-47419D01*
X87048Y-47410D01*
X87067Y-47401D01*
X87095Y-47401D01*
X87114Y-47410D01*
X87123Y-47419D01*
X87132Y-47438D01*
X87132Y-47513D01*
X87048Y-47326D02*
X87038Y-47316D01*
X87029Y-47297D01*
X87029Y-47250D01*
X87038Y-47232D01*
X87048Y-47222D01*
X87067Y-47213D01*
X87085Y-47213D01*
X87114Y-47222D01*
X87226Y-47335D01*
X87226Y-47213D01*
X87029Y-47147D02*
X87029Y-47025D01*
X87104Y-47091D01*
X87104Y-47063D01*
X87114Y-47044D01*
X87123Y-47035D01*
X87142Y-47025D01*
X87189Y-47025D01*
X87207Y-47035D01*
X87217Y-47044D01*
X87226Y-47063D01*
X87226Y-47119D01*
X87217Y-47138D01*
X87207Y-47147D01*
X82129Y-46276D02*
X82035Y-46342D01*
X82129Y-46389D02*
X81932Y-46389D01*
X81932Y-46314D01*
X81942Y-46295D01*
X81951Y-46286D01*
X81970Y-46276D01*
X81998Y-46276D01*
X82017Y-46286D01*
X82026Y-46295D01*
X82035Y-46314D01*
X82035Y-46389D01*
X81951Y-46201D02*
X81942Y-46192D01*
X81932Y-46173D01*
X81932Y-46126D01*
X81942Y-46107D01*
X81951Y-46098D01*
X81970Y-46089D01*
X81989Y-46089D01*
X82017Y-46098D01*
X82129Y-46210D01*
X82129Y-46089D01*
X81932Y-45967D02*
X81932Y-45948D01*
X81942Y-45929D01*
X81951Y-45920D01*
X81970Y-45910D01*
X82007Y-45901D01*
X82054Y-45901D01*
X82092Y-45910D01*
X82110Y-45920D01*
X82120Y-45929D01*
X82129Y-45948D01*
X82129Y-45967D01*
X82120Y-45985D01*
X82110Y-45995D01*
X82092Y-46004D01*
X82054Y-46013D01*
X82007Y-46013D01*
X81970Y-46004D01*
X81951Y-45995D01*
X81942Y-45985D01*
X81932Y-45967D01*
X84129Y-46626D02*
X84035Y-46692D01*
X84129Y-46739D02*
X83932Y-46739D01*
X83932Y-46664D01*
X83942Y-46645D01*
X83951Y-46636D01*
X83970Y-46626D01*
X83998Y-46626D01*
X84017Y-46636D01*
X84026Y-46645D01*
X84035Y-46664D01*
X84035Y-46739D01*
X83951Y-46551D02*
X83942Y-46542D01*
X83932Y-46523D01*
X83932Y-46476D01*
X83942Y-46457D01*
X83951Y-46448D01*
X83970Y-46439D01*
X83989Y-46439D01*
X84017Y-46448D01*
X84129Y-46560D01*
X84129Y-46439D01*
X84129Y-46251D02*
X84129Y-46363D01*
X84129Y-46307D02*
X83932Y-46307D01*
X83960Y-46326D01*
X83979Y-46345D01*
X83989Y-46363D01*
X84473Y-48210D02*
X84463Y-48220D01*
X84435Y-48229D01*
X84417Y-48229D01*
X84388Y-48220D01*
X84370Y-48201D01*
X84360Y-48182D01*
X84351Y-48145D01*
X84351Y-48117D01*
X84360Y-48079D01*
X84370Y-48060D01*
X84388Y-48042D01*
X84417Y-48032D01*
X84435Y-48032D01*
X84463Y-48042D01*
X84473Y-48051D01*
X84660Y-48229D02*
X84548Y-48229D01*
X84604Y-48229D02*
X84604Y-48032D01*
X84585Y-48060D01*
X84567Y-48079D01*
X84548Y-48089D01*
X84848Y-48229D02*
X84736Y-48229D01*
X84792Y-48229D02*
X84792Y-48032D01*
X84773Y-48060D01*
X84754Y-48079D01*
X84736Y-48089D01*
X82823Y-49910D02*
X82813Y-49920D01*
X82785Y-49929D01*
X82767Y-49929D01*
X82738Y-49920D01*
X82720Y-49901D01*
X82710Y-49882D01*
X82701Y-49845D01*
X82701Y-49817D01*
X82710Y-49779D01*
X82720Y-49760D01*
X82738Y-49742D01*
X82767Y-49732D01*
X82785Y-49732D01*
X82813Y-49742D01*
X82823Y-49751D01*
X83010Y-49929D02*
X82898Y-49929D01*
X82954Y-49929D02*
X82954Y-49732D01*
X82935Y-49760D01*
X82917Y-49779D01*
X82898Y-49789D01*
X83132Y-49732D02*
X83151Y-49732D01*
X83170Y-49742D01*
X83179Y-49751D01*
X83189Y-49770D01*
X83198Y-49807D01*
X83198Y-49854D01*
X83189Y-49892D01*
X83179Y-49910D01*
X83170Y-49920D01*
X83151Y-49929D01*
X83132Y-49929D01*
X83114Y-49920D01*
X83104Y-49910D01*
X83095Y-49892D01*
X83086Y-49854D01*
X83086Y-49807D01*
X83095Y-49770D01*
X83104Y-49751D01*
X83114Y-49742D01*
X83132Y-49732D01*
X89517Y-47060D02*
X89507Y-47070D01*
X89479Y-47079D01*
X89460Y-47079D01*
X89432Y-47070D01*
X89413Y-47051D01*
X89404Y-47032D01*
X89395Y-46995D01*
X89395Y-46967D01*
X89404Y-46929D01*
X89413Y-46910D01*
X89432Y-46892D01*
X89460Y-46882D01*
X89479Y-46882D01*
X89507Y-46892D01*
X89517Y-46901D01*
X89629Y-46967D02*
X89610Y-46957D01*
X89601Y-46948D01*
X89592Y-46929D01*
X89592Y-46920D01*
X89601Y-46901D01*
X89610Y-46892D01*
X89629Y-46882D01*
X89667Y-46882D01*
X89686Y-46892D01*
X89695Y-46901D01*
X89704Y-46920D01*
X89704Y-46929D01*
X89695Y-46948D01*
X89686Y-46957D01*
X89667Y-46967D01*
X89629Y-46967D01*
X89610Y-46976D01*
X89601Y-46985D01*
X89592Y-47004D01*
X89592Y-47042D01*
X89601Y-47060D01*
X89610Y-47070D01*
X89629Y-47079D01*
X89667Y-47079D01*
X89686Y-47070D01*
X89695Y-47060D01*
X89704Y-47042D01*
X89704Y-47004D01*
X89695Y-46985D01*
X89686Y-46976D01*
X89667Y-46967D01*
X94423Y-63160D02*
X94413Y-63170D01*
X94385Y-63179D01*
X94367Y-63179D01*
X94338Y-63170D01*
X94320Y-63151D01*
X94310Y-63132D01*
X94301Y-63095D01*
X94301Y-63067D01*
X94310Y-63029D01*
X94320Y-63010D01*
X94338Y-62992D01*
X94367Y-62982D01*
X94385Y-62982D01*
X94413Y-62992D01*
X94423Y-63001D01*
X94610Y-63179D02*
X94498Y-63179D01*
X94554Y-63179D02*
X94554Y-62982D01*
X94535Y-63010D01*
X94517Y-63029D01*
X94498Y-63039D01*
X94676Y-62982D02*
X94807Y-62982D01*
X94723Y-63179D01*
X90617Y-48960D02*
X90607Y-48970D01*
X90579Y-48979D01*
X90560Y-48979D01*
X90532Y-48970D01*
X90513Y-48951D01*
X90504Y-48932D01*
X90495Y-48895D01*
X90495Y-48867D01*
X90504Y-48829D01*
X90513Y-48810D01*
X90532Y-48792D01*
X90560Y-48782D01*
X90579Y-48782D01*
X90607Y-48792D01*
X90617Y-48801D01*
X90710Y-48979D02*
X90748Y-48979D01*
X90767Y-48970D01*
X90776Y-48960D01*
X90795Y-48932D01*
X90804Y-48895D01*
X90804Y-48820D01*
X90795Y-48801D01*
X90786Y-48792D01*
X90767Y-48782D01*
X90729Y-48782D01*
X90710Y-48792D01*
X90701Y-48801D01*
X90692Y-48820D01*
X90692Y-48867D01*
X90701Y-48885D01*
X90710Y-48895D01*
X90729Y-48904D01*
X90767Y-48904D01*
X90786Y-48895D01*
X90795Y-48885D01*
X90804Y-48867D01*
X92017Y-51903D02*
X92004Y-51903D01*
X91977Y-51890D01*
X91964Y-51877D01*
X91951Y-51850D01*
X91951Y-51823D01*
X91957Y-51804D01*
X91977Y-51770D01*
X91997Y-51751D01*
X92030Y-51731D01*
X92050Y-51724D01*
X92077Y-51724D01*
X92103Y-51737D01*
X92116Y-51751D01*
X92130Y-51777D01*
X92130Y-51790D01*
X92136Y-52049D02*
X92057Y-51969D01*
X92096Y-52009D02*
X92236Y-51870D01*
X92203Y-51877D01*
X92176Y-51877D01*
X92156Y-51870D01*
X92395Y-52029D02*
X92368Y-52003D01*
X92349Y-51996D01*
X92335Y-51996D01*
X92302Y-52003D01*
X92269Y-52022D01*
X92216Y-52076D01*
X92209Y-52095D01*
X92209Y-52109D01*
X92216Y-52129D01*
X92242Y-52155D01*
X92262Y-52162D01*
X92276Y-52162D01*
X92295Y-52155D01*
X92329Y-52122D01*
X92335Y-52102D01*
X92335Y-52089D01*
X92329Y-52069D01*
X92302Y-52042D01*
X92282Y-52036D01*
X92269Y-52036D01*
X92249Y-52042D01*
X93773Y-58779D02*
X93707Y-58685D01*
X93660Y-58779D02*
X93660Y-58582D01*
X93735Y-58582D01*
X93754Y-58592D01*
X93763Y-58601D01*
X93773Y-58620D01*
X93773Y-58648D01*
X93763Y-58667D01*
X93754Y-58676D01*
X93735Y-58685D01*
X93660Y-58685D01*
X93960Y-58779D02*
X93848Y-58779D01*
X93904Y-58779D02*
X93904Y-58582D01*
X93885Y-58610D01*
X93867Y-58629D01*
X93848Y-58639D01*
X94073Y-58667D02*
X94054Y-58657D01*
X94045Y-58648D01*
X94036Y-58629D01*
X94036Y-58620D01*
X94045Y-58601D01*
X94054Y-58592D01*
X94073Y-58582D01*
X94111Y-58582D01*
X94129Y-58592D01*
X94139Y-58601D01*
X94148Y-58620D01*
X94148Y-58629D01*
X94139Y-58648D01*
X94129Y-58657D01*
X94111Y-58667D01*
X94073Y-58667D01*
X94054Y-58676D01*
X94045Y-58685D01*
X94036Y-58704D01*
X94036Y-58742D01*
X94045Y-58760D01*
X94054Y-58770D01*
X94073Y-58779D01*
X94111Y-58779D01*
X94129Y-58770D01*
X94139Y-58760D01*
X94148Y-58742D01*
X94148Y-58704D01*
X94139Y-58685D01*
X94129Y-58676D01*
X94111Y-58667D01*
X86823Y-58429D02*
X86757Y-58335D01*
X86710Y-58429D02*
X86710Y-58232D01*
X86785Y-58232D01*
X86804Y-58242D01*
X86813Y-58251D01*
X86823Y-58270D01*
X86823Y-58298D01*
X86813Y-58317D01*
X86804Y-58326D01*
X86785Y-58335D01*
X86710Y-58335D01*
X87010Y-58429D02*
X86898Y-58429D01*
X86954Y-58429D02*
X86954Y-58232D01*
X86935Y-58260D01*
X86917Y-58279D01*
X86898Y-58289D01*
X87076Y-58232D02*
X87207Y-58232D01*
X87123Y-58429D01*
X89517Y-58210D02*
X89507Y-58220D01*
X89479Y-58229D01*
X89460Y-58229D01*
X89432Y-58220D01*
X89413Y-58201D01*
X89404Y-58182D01*
X89395Y-58145D01*
X89395Y-58117D01*
X89404Y-58079D01*
X89413Y-58060D01*
X89432Y-58042D01*
X89460Y-58032D01*
X89479Y-58032D01*
X89507Y-58042D01*
X89517Y-58051D01*
X89695Y-58032D02*
X89601Y-58032D01*
X89592Y-58126D01*
X89601Y-58117D01*
X89620Y-58107D01*
X89667Y-58107D01*
X89686Y-58117D01*
X89695Y-58126D01*
X89704Y-58145D01*
X89704Y-58192D01*
X89695Y-58210D01*
X89686Y-58220D01*
X89667Y-58229D01*
X89620Y-58229D01*
X89601Y-58220D01*
X89592Y-58210D01*
X90667Y-60660D02*
X90657Y-60670D01*
X90629Y-60679D01*
X90610Y-60679D01*
X90582Y-60670D01*
X90563Y-60651D01*
X90554Y-60632D01*
X90545Y-60595D01*
X90545Y-60567D01*
X90554Y-60529D01*
X90563Y-60510D01*
X90582Y-60492D01*
X90610Y-60482D01*
X90629Y-60482D01*
X90657Y-60492D01*
X90667Y-60501D01*
X90836Y-60548D02*
X90836Y-60679D01*
X90789Y-60473D02*
X90742Y-60614D01*
X90864Y-60614D01*
X87773Y-58179D02*
X87707Y-58085D01*
X87660Y-58179D02*
X87660Y-57982D01*
X87735Y-57982D01*
X87754Y-57992D01*
X87763Y-58001D01*
X87773Y-58020D01*
X87773Y-58048D01*
X87763Y-58067D01*
X87754Y-58076D01*
X87735Y-58085D01*
X87660Y-58085D01*
X87960Y-58179D02*
X87848Y-58179D01*
X87904Y-58179D02*
X87904Y-57982D01*
X87885Y-58010D01*
X87867Y-58029D01*
X87848Y-58039D01*
X88129Y-57982D02*
X88092Y-57982D01*
X88073Y-57992D01*
X88064Y-58001D01*
X88045Y-58029D01*
X88036Y-58067D01*
X88036Y-58142D01*
X88045Y-58160D01*
X88054Y-58170D01*
X88073Y-58179D01*
X88111Y-58179D01*
X88129Y-58170D01*
X88139Y-58160D01*
X88148Y-58142D01*
X88148Y-58095D01*
X88139Y-58076D01*
X88129Y-58067D01*
X88111Y-58057D01*
X88073Y-58057D01*
X88054Y-58067D01*
X88045Y-58076D01*
X88036Y-58095D01*
G54D25*
X77197Y-54345D02*
X77119Y-54233D01*
X77062Y-54345D02*
X77062Y-54109D01*
X77152Y-54109D01*
X77175Y-54120D01*
X77186Y-54131D01*
X77197Y-54154D01*
X77197Y-54188D01*
X77186Y-54210D01*
X77175Y-54221D01*
X77152Y-54233D01*
X77062Y-54233D01*
X77288Y-54131D02*
X77299Y-54120D01*
X77321Y-54109D01*
X77378Y-54109D01*
X77400Y-54120D01*
X77411Y-54131D01*
X77423Y-54154D01*
X77423Y-54176D01*
X77411Y-54210D01*
X77276Y-54345D01*
X77423Y-54345D01*
X77637Y-54109D02*
X77524Y-54109D01*
X77513Y-54221D01*
X77524Y-54210D01*
X77547Y-54199D01*
X77603Y-54199D01*
X77625Y-54210D01*
X77637Y-54221D01*
X77648Y-54244D01*
X77648Y-54300D01*
X77637Y-54323D01*
X77625Y-54334D01*
X77603Y-54345D01*
X77547Y-54345D01*
X77524Y-54334D01*
X77513Y-54323D01*
X88197Y-52495D02*
X88119Y-52383D01*
X88062Y-52495D02*
X88062Y-52259D01*
X88152Y-52259D01*
X88175Y-52270D01*
X88186Y-52281D01*
X88197Y-52304D01*
X88197Y-52338D01*
X88186Y-52360D01*
X88175Y-52371D01*
X88152Y-52383D01*
X88062Y-52383D01*
X88288Y-52281D02*
X88299Y-52270D01*
X88321Y-52259D01*
X88378Y-52259D01*
X88400Y-52270D01*
X88411Y-52281D01*
X88423Y-52304D01*
X88423Y-52326D01*
X88411Y-52360D01*
X88276Y-52495D01*
X88423Y-52495D01*
X88558Y-52360D02*
X88535Y-52349D01*
X88524Y-52338D01*
X88513Y-52315D01*
X88513Y-52304D01*
X88524Y-52281D01*
X88535Y-52270D01*
X88558Y-52259D01*
X88603Y-52259D01*
X88625Y-52270D01*
X88637Y-52281D01*
X88648Y-52304D01*
X88648Y-52315D01*
X88637Y-52338D01*
X88625Y-52349D01*
X88603Y-52360D01*
X88558Y-52360D01*
X88535Y-52371D01*
X88524Y-52383D01*
X88513Y-52405D01*
X88513Y-52450D01*
X88524Y-52473D01*
X88535Y-52484D01*
X88558Y-52495D01*
X88603Y-52495D01*
X88625Y-52484D01*
X88637Y-52473D01*
X88648Y-52450D01*
X88648Y-52405D01*
X88637Y-52383D01*
X88625Y-52371D01*
X88603Y-52360D01*
X81347Y-56445D02*
X81269Y-56333D01*
X81212Y-56445D02*
X81212Y-56209D01*
X81302Y-56209D01*
X81325Y-56220D01*
X81336Y-56231D01*
X81347Y-56254D01*
X81347Y-56288D01*
X81336Y-56310D01*
X81325Y-56321D01*
X81302Y-56333D01*
X81212Y-56333D01*
X81438Y-56231D02*
X81449Y-56220D01*
X81471Y-56209D01*
X81528Y-56209D01*
X81550Y-56220D01*
X81561Y-56231D01*
X81573Y-56254D01*
X81573Y-56276D01*
X81561Y-56310D01*
X81426Y-56445D01*
X81573Y-56445D01*
X81775Y-56209D02*
X81730Y-56209D01*
X81708Y-56220D01*
X81697Y-56231D01*
X81674Y-56265D01*
X81663Y-56310D01*
X81663Y-56400D01*
X81674Y-56423D01*
X81685Y-56434D01*
X81708Y-56445D01*
X81753Y-56445D01*
X81775Y-56434D01*
X81787Y-56423D01*
X81798Y-56400D01*
X81798Y-56344D01*
X81787Y-56321D01*
X81775Y-56310D01*
X81753Y-56299D01*
X81708Y-56299D01*
X81685Y-56310D01*
X81674Y-56321D01*
X81663Y-56344D01*
X88247Y-57045D02*
X88169Y-56933D01*
X88112Y-57045D02*
X88112Y-56809D01*
X88202Y-56809D01*
X88225Y-56820D01*
X88236Y-56831D01*
X88247Y-56854D01*
X88247Y-56888D01*
X88236Y-56910D01*
X88225Y-56921D01*
X88202Y-56933D01*
X88112Y-56933D01*
X88338Y-56831D02*
X88349Y-56820D01*
X88371Y-56809D01*
X88428Y-56809D01*
X88450Y-56820D01*
X88461Y-56831D01*
X88473Y-56854D01*
X88473Y-56876D01*
X88461Y-56910D01*
X88326Y-57045D01*
X88473Y-57045D01*
X88552Y-56809D02*
X88709Y-56809D01*
X88608Y-57045D01*
G54D10*
X95002Y-58287D02*
X94928Y-58658D01*
X95150Y-58435D02*
X94779Y-58509D01*
X95203Y-58531D02*
X95224Y-58531D01*
X95256Y-58541D01*
X95309Y-58594D01*
X95320Y-58626D01*
X95320Y-58647D01*
X95309Y-58679D01*
X95288Y-58700D01*
X95246Y-58721D01*
X94991Y-58721D01*
X95129Y-58859D01*
X79345Y-59762D02*
X79555Y-60077D01*
X79555Y-59762D02*
X79345Y-60077D01*
X79839Y-60077D02*
X79659Y-60077D01*
X79749Y-60077D02*
X79749Y-59762D01*
X79719Y-59807D01*
X79689Y-59837D01*
X79659Y-59852D01*
G54D23*
X81875Y-47674D02*
X81875Y-47913D01*
X81889Y-47941D01*
X81903Y-47955D01*
X81931Y-47969D01*
X81987Y-47969D01*
X82015Y-47955D01*
X82029Y-47941D01*
X82043Y-47913D01*
X82043Y-47674D01*
X82310Y-47772D02*
X82310Y-47969D01*
X82240Y-47660D02*
X82170Y-47871D01*
X82352Y-47871D01*
G54D13*
X100935Y-48671D02*
X100935Y-48371D01*
X101007Y-48371D01*
X101050Y-48385D01*
X101078Y-48414D01*
X101092Y-48442D01*
X101107Y-48500D01*
X101107Y-48542D01*
X101092Y-48600D01*
X101078Y-48628D01*
X101050Y-48657D01*
X101007Y-48671D01*
X100935Y-48671D01*
X101392Y-48671D02*
X101221Y-48671D01*
X101307Y-48671D02*
X101307Y-48371D01*
X101278Y-48414D01*
X101250Y-48442D01*
X101221Y-48457D01*
X101578Y-48371D02*
X101607Y-48371D01*
X101635Y-48385D01*
X101650Y-48400D01*
X101664Y-48428D01*
X101678Y-48485D01*
X101678Y-48557D01*
X101664Y-48614D01*
X101650Y-48642D01*
X101635Y-48657D01*
X101607Y-48671D01*
X101578Y-48671D01*
X101550Y-48657D01*
X101535Y-48642D01*
X101521Y-48614D01*
X101507Y-48557D01*
X101507Y-48485D01*
X101521Y-48428D01*
X101535Y-48400D01*
X101550Y-48385D01*
X101578Y-48371D01*
X91678Y-60721D02*
X91678Y-60421D01*
X91750Y-60421D01*
X91792Y-60435D01*
X91821Y-60464D01*
X91835Y-60492D01*
X91850Y-60550D01*
X91850Y-60592D01*
X91835Y-60650D01*
X91821Y-60678D01*
X91792Y-60707D01*
X91750Y-60721D01*
X91678Y-60721D01*
X91992Y-60721D02*
X92050Y-60721D01*
X92078Y-60707D01*
X92092Y-60692D01*
X92121Y-60650D01*
X92135Y-60592D01*
X92135Y-60478D01*
X92121Y-60450D01*
X92107Y-60435D01*
X92078Y-60421D01*
X92021Y-60421D01*
X91992Y-60435D01*
X91978Y-60450D01*
X91964Y-60478D01*
X91964Y-60550D01*
X91978Y-60578D01*
X91992Y-60592D01*
X92021Y-60607D01*
X92078Y-60607D01*
X92107Y-60592D01*
X92121Y-60578D01*
X92135Y-60550D01*
X100828Y-52121D02*
X100828Y-51821D01*
X100900Y-51821D01*
X100942Y-51835D01*
X100971Y-51864D01*
X100985Y-51892D01*
X101000Y-51950D01*
X101000Y-51992D01*
X100985Y-52050D01*
X100971Y-52078D01*
X100942Y-52107D01*
X100900Y-52121D01*
X100828Y-52121D01*
X101100Y-51821D02*
X101300Y-51821D01*
X101171Y-52121D01*
X101078Y-46421D02*
X101078Y-46121D01*
X101150Y-46121D01*
X101192Y-46135D01*
X101221Y-46164D01*
X101235Y-46192D01*
X101250Y-46250D01*
X101250Y-46292D01*
X101235Y-46350D01*
X101221Y-46378D01*
X101192Y-46407D01*
X101150Y-46421D01*
X101078Y-46421D01*
X101421Y-46250D02*
X101392Y-46235D01*
X101378Y-46221D01*
X101364Y-46192D01*
X101364Y-46178D01*
X101378Y-46150D01*
X101392Y-46135D01*
X101421Y-46121D01*
X101478Y-46121D01*
X101507Y-46135D01*
X101521Y-46150D01*
X101535Y-46178D01*
X101535Y-46192D01*
X101521Y-46221D01*
X101507Y-46235D01*
X101478Y-46250D01*
X101421Y-46250D01*
X101392Y-46264D01*
X101378Y-46278D01*
X101364Y-46307D01*
X101364Y-46364D01*
X101378Y-46392D01*
X101392Y-46407D01*
X101421Y-46421D01*
X101478Y-46421D01*
X101507Y-46407D01*
X101521Y-46392D01*
X101535Y-46364D01*
X101535Y-46307D01*
X101521Y-46278D01*
X101507Y-46264D01*
X101478Y-46250D01*
X83709Y-63597D02*
X83802Y-63311D01*
X83870Y-63333D01*
X83906Y-63360D01*
X83924Y-63396D01*
X83929Y-63428D01*
X83925Y-63487D01*
X83912Y-63527D01*
X83881Y-63577D01*
X83858Y-63600D01*
X83822Y-63618D01*
X83777Y-63619D01*
X83709Y-63597D01*
X84178Y-63539D02*
X84117Y-63729D01*
X84146Y-63408D02*
X84012Y-63590D01*
X84188Y-63647D01*
X99628Y-59914D02*
X99416Y-59702D01*
X99467Y-59651D01*
X99507Y-59631D01*
X99548Y-59631D01*
X99578Y-59641D01*
X99628Y-59672D01*
X99659Y-59702D01*
X99689Y-59752D01*
X99699Y-59783D01*
X99699Y-59823D01*
X99679Y-59863D01*
X99628Y-59914D01*
X99719Y-59399D02*
X99679Y-59439D01*
X99669Y-59470D01*
X99669Y-59490D01*
X99679Y-59540D01*
X99709Y-59591D01*
X99790Y-59672D01*
X99820Y-59682D01*
X99841Y-59682D01*
X99871Y-59672D01*
X99911Y-59631D01*
X99921Y-59601D01*
X99921Y-59581D01*
X99911Y-59550D01*
X99861Y-59500D01*
X99830Y-59490D01*
X99810Y-59490D01*
X99780Y-59500D01*
X99740Y-59540D01*
X99729Y-59571D01*
X99729Y-59591D01*
X99740Y-59621D01*
X75578Y-46471D02*
X75578Y-46171D01*
X75650Y-46171D01*
X75692Y-46185D01*
X75721Y-46214D01*
X75735Y-46242D01*
X75750Y-46300D01*
X75750Y-46342D01*
X75735Y-46400D01*
X75721Y-46428D01*
X75692Y-46457D01*
X75650Y-46471D01*
X75578Y-46471D01*
X76035Y-46471D02*
X75864Y-46471D01*
X75950Y-46471D02*
X75950Y-46171D01*
X75921Y-46214D01*
X75892Y-46242D01*
X75864Y-46257D01*
X75928Y-52671D02*
X75928Y-52371D01*
X76000Y-52371D01*
X76042Y-52385D01*
X76071Y-52414D01*
X76085Y-52442D01*
X76100Y-52500D01*
X76100Y-52542D01*
X76085Y-52600D01*
X76071Y-52628D01*
X76042Y-52657D01*
X76000Y-52671D01*
X75928Y-52671D01*
X76214Y-52400D02*
X76228Y-52385D01*
X76257Y-52371D01*
X76328Y-52371D01*
X76357Y-52385D01*
X76371Y-52400D01*
X76385Y-52428D01*
X76385Y-52457D01*
X76371Y-52500D01*
X76200Y-52671D01*
X76385Y-52671D01*
X77164Y-59601D02*
X77376Y-59389D01*
X77426Y-59439D01*
X77447Y-59480D01*
X77447Y-59520D01*
X77437Y-59550D01*
X77406Y-59601D01*
X77376Y-59631D01*
X77325Y-59661D01*
X77295Y-59672D01*
X77255Y-59672D01*
X77214Y-59651D01*
X77164Y-59601D01*
X77568Y-59581D02*
X77699Y-59712D01*
X77548Y-59722D01*
X77578Y-59752D01*
X77588Y-59783D01*
X77588Y-59803D01*
X77578Y-59833D01*
X77527Y-59884D01*
X77497Y-59894D01*
X77477Y-59894D01*
X77447Y-59884D01*
X77386Y-59823D01*
X77376Y-59793D01*
X77376Y-59773D01*
X92975Y-63733D02*
X92882Y-63448D01*
X92950Y-63426D01*
X92995Y-63426D01*
X93031Y-63445D01*
X93054Y-63468D01*
X93085Y-63517D01*
X93098Y-63558D01*
X93102Y-63617D01*
X93098Y-63649D01*
X93079Y-63685D01*
X93043Y-63711D01*
X92975Y-63733D01*
X93304Y-63311D02*
X93168Y-63355D01*
X93198Y-63496D01*
X93207Y-63478D01*
X93230Y-63455D01*
X93298Y-63433D01*
X93330Y-63438D01*
X93348Y-63447D01*
X93370Y-63470D01*
X93392Y-63538D01*
X93387Y-63569D01*
X93378Y-63587D01*
X93355Y-63610D01*
X93288Y-63632D01*
X93256Y-63627D01*
X93238Y-63618D01*
G54D26*
X97473Y-62460D02*
X97463Y-62470D01*
X97435Y-62479D01*
X97417Y-62479D01*
X97388Y-62470D01*
X97370Y-62451D01*
X97360Y-62432D01*
X97351Y-62395D01*
X97351Y-62367D01*
X97360Y-62329D01*
X97370Y-62310D01*
X97388Y-62292D01*
X97417Y-62282D01*
X97435Y-62282D01*
X97463Y-62292D01*
X97473Y-62301D01*
X97660Y-62479D02*
X97548Y-62479D01*
X97604Y-62479D02*
X97604Y-62282D01*
X97585Y-62310D01*
X97567Y-62329D01*
X97548Y-62339D01*
X97773Y-62367D02*
X97754Y-62357D01*
X97745Y-62348D01*
X97736Y-62329D01*
X97736Y-62320D01*
X97745Y-62301D01*
X97754Y-62292D01*
X97773Y-62282D01*
X97811Y-62282D01*
X97829Y-62292D01*
X97839Y-62301D01*
X97848Y-62320D01*
X97848Y-62329D01*
X97839Y-62348D01*
X97829Y-62357D01*
X97811Y-62367D01*
X97773Y-62367D01*
X97754Y-62376D01*
X97745Y-62385D01*
X97736Y-62404D01*
X97736Y-62442D01*
X97745Y-62460D01*
X97754Y-62470D01*
X97773Y-62479D01*
X97811Y-62479D01*
X97829Y-62470D01*
X97839Y-62460D01*
X97848Y-62442D01*
X97848Y-62404D01*
X97839Y-62385D01*
X97829Y-62376D01*
X97811Y-62367D01*
X86017Y-50110D02*
X86007Y-50120D01*
X85979Y-50129D01*
X85960Y-50129D01*
X85932Y-50120D01*
X85913Y-50101D01*
X85904Y-50082D01*
X85895Y-50045D01*
X85895Y-50017D01*
X85904Y-49979D01*
X85913Y-49960D01*
X85932Y-49942D01*
X85960Y-49932D01*
X85979Y-49932D01*
X86007Y-49942D01*
X86017Y-49951D01*
X86204Y-50129D02*
X86092Y-50129D01*
X86148Y-50129D02*
X86148Y-49932D01*
X86129Y-49960D01*
X86110Y-49979D01*
X86092Y-49989D01*
X92773Y-60760D02*
X92763Y-60770D01*
X92735Y-60779D01*
X92717Y-60779D01*
X92688Y-60770D01*
X92670Y-60751D01*
X92660Y-60732D01*
X92651Y-60695D01*
X92651Y-60667D01*
X92660Y-60629D01*
X92670Y-60610D01*
X92688Y-60592D01*
X92717Y-60582D01*
X92735Y-60582D01*
X92763Y-60592D01*
X92773Y-60601D01*
X92960Y-60779D02*
X92848Y-60779D01*
X92904Y-60779D02*
X92904Y-60582D01*
X92885Y-60610D01*
X92867Y-60629D01*
X92848Y-60639D01*
X93054Y-60779D02*
X93092Y-60779D01*
X93111Y-60770D01*
X93120Y-60760D01*
X93139Y-60732D01*
X93148Y-60695D01*
X93148Y-60620D01*
X93139Y-60601D01*
X93129Y-60592D01*
X93111Y-60582D01*
X93073Y-60582D01*
X93054Y-60592D01*
X93045Y-60601D01*
X93036Y-60620D01*
X93036Y-60667D01*
X93045Y-60685D01*
X93054Y-60695D01*
X93073Y-60704D01*
X93111Y-60704D01*
X93129Y-60695D01*
X93139Y-60685D01*
X93148Y-60667D01*
G54D23*
X83299Y-55015D02*
X83299Y-55334D01*
X83318Y-55371D01*
X83337Y-55390D01*
X83374Y-55409D01*
X83449Y-55409D01*
X83487Y-55390D01*
X83506Y-55371D01*
X83524Y-55334D01*
X83524Y-55015D01*
X83731Y-55409D02*
X83806Y-55409D01*
X83843Y-55390D01*
X83862Y-55371D01*
X83900Y-55315D01*
X83918Y-55240D01*
X83918Y-55090D01*
X83900Y-55053D01*
X83881Y-55034D01*
X83843Y-55015D01*
X83768Y-55015D01*
X83731Y-55034D01*
X83712Y-55053D01*
X83693Y-55090D01*
X83693Y-55184D01*
X83712Y-55221D01*
X83731Y-55240D01*
X83768Y-55259D01*
X83843Y-55259D01*
X83881Y-55240D01*
X83900Y-55221D01*
X83918Y-55184D01*
G54D27*
X90384Y-50725D02*
X90384Y-50044D01*
X90547Y-50044D01*
X90587Y-50077D01*
X90608Y-50109D01*
X90628Y-50174D01*
X90628Y-50271D01*
X90608Y-50336D01*
X90587Y-50368D01*
X90547Y-50401D01*
X90384Y-50401D01*
X90771Y-50044D02*
X91056Y-50044D01*
X90873Y-50725D01*
G54D19*
G54D27*
X90384Y-51975D02*
X90384Y-51294D01*
X90547Y-51294D01*
X90587Y-51327D01*
X90608Y-51359D01*
X90628Y-51424D01*
X90628Y-51521D01*
X90608Y-51586D01*
X90587Y-51618D01*
X90547Y-51651D01*
X90384Y-51651D01*
X90873Y-51586D02*
X90832Y-51554D01*
X90812Y-51521D01*
X90791Y-51456D01*
X90791Y-51424D01*
X90812Y-51359D01*
X90832Y-51327D01*
X90873Y-51294D01*
X90954Y-51294D01*
X90995Y-51327D01*
X91015Y-51359D01*
X91036Y-51424D01*
X91036Y-51456D01*
X91015Y-51521D01*
X90995Y-51554D01*
X90954Y-51586D01*
X90873Y-51586D01*
X90832Y-51618D01*
X90812Y-51651D01*
X90791Y-51716D01*
X90791Y-51845D01*
X90812Y-51910D01*
X90832Y-51943D01*
X90873Y-51975D01*
X90954Y-51975D01*
X90995Y-51943D01*
X91015Y-51910D01*
X91036Y-51845D01*
X91036Y-51716D01*
X91015Y-51651D01*
X90995Y-51618D01*
X90954Y-51586D01*
G54D19*
G54D10*
X102367Y-58653D02*
G75*
G02X92910Y-64961I-13785J10425D01*
G74*
G01*
X92913Y-64960D02*
X92125Y-64960D01*
X84251Y-64960D02*
X85039Y-64960D01*
X85039Y-61023D02*
X92125Y-61023D01*
X74797Y-58653D02*
G75*
G03X84255Y-64961I13785J10425D01*
G74*
G01*
X92125Y-61023D02*
X92125Y-64960D01*
X85039Y-61023D02*
X85039Y-64960D01*
X74803Y-58661D02*
X74803Y-45275D01*
X102362Y-45275D02*
X102362Y-58661D01*
X74803Y-45275D02*
X102362Y-45275D01*
M02*
