G04 (created by PCBNEW (2013-07-07 BZR 4022)-stable) date 2/17/2015 3:56:23 AM*
%MOIN*%
G04 Gerber Fmt 3.4, Leading zero omitted, Abs format*
%FSLAX34Y34*%
G01*
G70*
G90*
G04 APERTURE LIST*
%ADD10C,0.00590551*%
%ADD11R,0.0251968X0.05*%
%ADD12R,0.051X0.061*%
%ADD13R,0.02X0.03*%
%ADD14R,0.144X0.08*%
%ADD15R,0.04X0.08*%
%ADD16R,0.025X0.05*%
%ADD17R,0.035X0.055*%
%ADD18R,0.055X0.035*%
%ADD19R,0.055X0.055*%
%ADD20C,0.055*%
%ADD21R,0.019685X0.0255906*%
%ADD22R,0.0787X0.2165*%
%ADD23R,0.06X0.06*%
%ADD24C,0.06*%
%ADD25C,0.0787*%
%ADD26R,0.0295276X0.00984252*%
%ADD27R,0.0472X0.0472*%
%ADD28R,0.035X0.013*%
%ADD29R,0.013X0.035*%
%ADD30R,0.0984X0.0768*%
%ADD31R,0.0768X0.0984*%
%ADD32R,0.0579X0.0165*%
%ADD33C,0.141732*%
%ADD34C,0.11811*%
%ADD35C,0.0669291*%
%ADD36C,0.035*%
%ADD37C,0.01*%
%ADD38C,0.02*%
G04 APERTURE END LIST*
G54D10*
G54D11*
X87868Y-59513D03*
X88616Y-59513D03*
X88990Y-59513D03*
X88242Y-59513D03*
X89364Y-59513D03*
X89738Y-59513D03*
G54D10*
G36*
X94716Y-52704D02*
X94591Y-52579D01*
X95147Y-52022D01*
X95273Y-52147D01*
X94716Y-52704D01*
X94716Y-52704D01*
G37*
G36*
X94493Y-52481D02*
X94368Y-52356D01*
X94925Y-51799D01*
X95050Y-51925D01*
X94493Y-52481D01*
X94493Y-52481D01*
G37*
G36*
X94271Y-52258D02*
X94145Y-52133D01*
X94702Y-51577D01*
X94827Y-51702D01*
X94271Y-52258D01*
X94271Y-52258D01*
G37*
G36*
X94048Y-52036D02*
X93923Y-51910D01*
X94479Y-51354D01*
X94604Y-51479D01*
X94048Y-52036D01*
X94048Y-52036D01*
G37*
G36*
X93825Y-51813D02*
X93700Y-51688D01*
X94256Y-51131D01*
X94382Y-51256D01*
X93825Y-51813D01*
X93825Y-51813D01*
G37*
G36*
X93602Y-51590D02*
X93477Y-51465D01*
X94034Y-50909D01*
X94159Y-51034D01*
X93602Y-51590D01*
X93602Y-51590D01*
G37*
G36*
X93380Y-51367D02*
X93254Y-51242D01*
X93811Y-50686D01*
X93936Y-50811D01*
X93380Y-51367D01*
X93380Y-51367D01*
G37*
G36*
X93157Y-51145D02*
X93032Y-51020D01*
X93588Y-50463D01*
X93713Y-50588D01*
X93157Y-51145D01*
X93157Y-51145D01*
G37*
G36*
X95821Y-48483D02*
X95696Y-48358D01*
X96253Y-47801D01*
X96378Y-47927D01*
X95821Y-48483D01*
X95821Y-48483D01*
G37*
G36*
X97384Y-50046D02*
X97259Y-49921D01*
X97815Y-49364D01*
X97940Y-49489D01*
X97384Y-50046D01*
X97384Y-50046D01*
G37*
G36*
X97158Y-49820D02*
X97033Y-49694D01*
X97589Y-49138D01*
X97714Y-49263D01*
X97158Y-49820D01*
X97158Y-49820D01*
G37*
G36*
X96931Y-49593D02*
X96806Y-49468D01*
X97363Y-48912D01*
X97488Y-49037D01*
X96931Y-49593D01*
X96931Y-49593D01*
G37*
G36*
X96712Y-49374D02*
X96587Y-49249D01*
X97144Y-48692D01*
X97269Y-48818D01*
X96712Y-49374D01*
X96712Y-49374D01*
G37*
G36*
X96486Y-49148D02*
X96361Y-49023D01*
X96917Y-48466D01*
X97042Y-48591D01*
X96486Y-49148D01*
X96486Y-49148D01*
G37*
G36*
X96267Y-48929D02*
X96142Y-48803D01*
X96698Y-48247D01*
X96823Y-48372D01*
X96267Y-48929D01*
X96267Y-48929D01*
G37*
G36*
X96040Y-48702D02*
X95915Y-48577D01*
X96472Y-48021D01*
X96597Y-48146D01*
X96040Y-48702D01*
X96040Y-48702D01*
G37*
G36*
X93585Y-50033D02*
X93029Y-49477D01*
X93154Y-49351D01*
X93711Y-49908D01*
X93585Y-50033D01*
X93585Y-50033D01*
G37*
G36*
X93807Y-49811D02*
X93251Y-49255D01*
X93376Y-49129D01*
X93933Y-49686D01*
X93807Y-49811D01*
X93807Y-49811D01*
G37*
G36*
X94031Y-49588D02*
X93474Y-49031D01*
X93600Y-48906D01*
X94156Y-49462D01*
X94031Y-49588D01*
X94031Y-49588D01*
G37*
G36*
X94253Y-49366D02*
X93696Y-48809D01*
X93822Y-48684D01*
X94378Y-49240D01*
X94253Y-49366D01*
X94253Y-49366D01*
G37*
G36*
X94476Y-49142D02*
X93920Y-48586D01*
X94045Y-48461D01*
X94601Y-49017D01*
X94476Y-49142D01*
X94476Y-49142D01*
G37*
G36*
X94698Y-48920D02*
X94142Y-48364D01*
X94267Y-48238D01*
X94824Y-48795D01*
X94698Y-48920D01*
X94698Y-48920D01*
G37*
G36*
X94922Y-48697D02*
X94365Y-48140D01*
X94490Y-48015D01*
X95047Y-48572D01*
X94922Y-48697D01*
X94922Y-48697D01*
G37*
G36*
X95144Y-48475D02*
X94587Y-47918D01*
X94712Y-47793D01*
X95269Y-48350D01*
X95144Y-48475D01*
X95144Y-48475D01*
G37*
G36*
X96260Y-52705D02*
X95703Y-52148D01*
X95828Y-52023D01*
X96385Y-52579D01*
X96260Y-52705D01*
X96260Y-52705D01*
G37*
G36*
X96479Y-52485D02*
X95922Y-51929D01*
X96048Y-51804D01*
X96604Y-52360D01*
X96479Y-52485D01*
X96479Y-52485D01*
G37*
G36*
X96705Y-52259D02*
X96149Y-51703D01*
X96274Y-51577D01*
X96830Y-52134D01*
X96705Y-52259D01*
X96705Y-52259D01*
G37*
G36*
X96924Y-52040D02*
X96368Y-51483D01*
X96493Y-51358D01*
X97049Y-51915D01*
X96924Y-52040D01*
X96924Y-52040D01*
G37*
G36*
X97144Y-51821D02*
X96587Y-51264D01*
X96712Y-51139D01*
X97269Y-51696D01*
X97144Y-51821D01*
X97144Y-51821D01*
G37*
G36*
X97370Y-51594D02*
X96813Y-51038D01*
X96938Y-50913D01*
X97495Y-51469D01*
X97370Y-51594D01*
X97370Y-51594D01*
G37*
G36*
X97596Y-51368D02*
X97040Y-50812D01*
X97165Y-50686D01*
X97721Y-51243D01*
X97596Y-51368D01*
X97596Y-51368D01*
G37*
G36*
X97822Y-51142D02*
X97266Y-50585D01*
X97391Y-50460D01*
X97948Y-51017D01*
X97822Y-51142D01*
X97822Y-51142D01*
G37*
G54D12*
X92085Y-54626D03*
X92085Y-57774D03*
X90315Y-57774D03*
X90315Y-54626D03*
G54D13*
X95575Y-60700D03*
X94825Y-60700D03*
X95575Y-61700D03*
X95200Y-60700D03*
X94825Y-61700D03*
G54D14*
X81100Y-49650D03*
G54D15*
X81100Y-52250D03*
X82000Y-52250D03*
X80200Y-52250D03*
G54D16*
X82750Y-60100D03*
X83250Y-60100D03*
X83750Y-60100D03*
X84250Y-60100D03*
X84750Y-60100D03*
X85250Y-60100D03*
X85750Y-60100D03*
X85750Y-57900D03*
X85250Y-57900D03*
X84750Y-57900D03*
X84250Y-57900D03*
X83750Y-57900D03*
X83250Y-57900D03*
X82750Y-57900D03*
G54D17*
X91928Y-46025D03*
X92678Y-46025D03*
G54D10*
G36*
X98333Y-48444D02*
X97944Y-48833D01*
X97696Y-48585D01*
X98085Y-48196D01*
X98333Y-48444D01*
X98333Y-48444D01*
G37*
G36*
X97803Y-47914D02*
X97414Y-48303D01*
X97166Y-48055D01*
X97555Y-47666D01*
X97803Y-47914D01*
X97803Y-47914D01*
G37*
G54D17*
X92275Y-48050D03*
X93025Y-48050D03*
X99625Y-48000D03*
X98875Y-48000D03*
G54D18*
X86600Y-48975D03*
X86600Y-48225D03*
X86600Y-46925D03*
X86600Y-47675D03*
X82600Y-46525D03*
X82600Y-45775D03*
X83550Y-46525D03*
X83550Y-45775D03*
X84600Y-48675D03*
X84600Y-49425D03*
G54D17*
X82928Y-49275D03*
X83678Y-49275D03*
X89025Y-47000D03*
X88275Y-47000D03*
X94825Y-62500D03*
X95575Y-62500D03*
G54D18*
X90100Y-48775D03*
X90100Y-48025D03*
G54D10*
G36*
X92416Y-51805D02*
X92805Y-51416D01*
X93053Y-51664D01*
X92664Y-52053D01*
X92416Y-51805D01*
X92416Y-51805D01*
G37*
G36*
X92946Y-52335D02*
X93335Y-51946D01*
X93583Y-52194D01*
X93194Y-52583D01*
X92946Y-52335D01*
X92946Y-52335D01*
G37*
G54D18*
X93800Y-59875D03*
X93800Y-59125D03*
X87100Y-58825D03*
X87100Y-59575D03*
G54D17*
X89475Y-58650D03*
X90225Y-58650D03*
G54D18*
X90700Y-60125D03*
X90700Y-59375D03*
G54D17*
X87825Y-58600D03*
X88575Y-58600D03*
G54D19*
X86053Y-46025D03*
G54D20*
X87053Y-46025D03*
X88053Y-46025D03*
X89053Y-46025D03*
X90053Y-46025D03*
X91053Y-46025D03*
G54D19*
X101650Y-50600D03*
G54D20*
X101650Y-49600D03*
G54D19*
X85500Y-48550D03*
G54D20*
X85500Y-47550D03*
G54D19*
X80300Y-48500D03*
G54D20*
X81300Y-48500D03*
G54D19*
X77050Y-47250D03*
G54D20*
X77050Y-46250D03*
G54D19*
X90650Y-47071D03*
G54D20*
X91650Y-47071D03*
X92650Y-47071D03*
X93650Y-47071D03*
X94650Y-47071D03*
X95650Y-47071D03*
X96650Y-47071D03*
X97650Y-47071D03*
X98650Y-47071D03*
X99650Y-47071D03*
X100650Y-47071D03*
X101650Y-47071D03*
G54D19*
X101650Y-53571D03*
G54D20*
X100650Y-53571D03*
X99650Y-53571D03*
X98650Y-53571D03*
X97650Y-53571D03*
X96650Y-53571D03*
X95650Y-53571D03*
X94650Y-53571D03*
X93650Y-53571D03*
X92650Y-53571D03*
X91650Y-53571D03*
X90650Y-53571D03*
G54D21*
X77693Y-53250D03*
X76906Y-53250D03*
X77693Y-52750D03*
X76906Y-52750D03*
X77693Y-53750D03*
X77693Y-52250D03*
X76906Y-52250D03*
X76906Y-53750D03*
X88006Y-53350D03*
X88793Y-53350D03*
X88006Y-53850D03*
X88793Y-53850D03*
X88006Y-52850D03*
X88006Y-54350D03*
X88793Y-54350D03*
X88793Y-52850D03*
X81793Y-55400D03*
X81006Y-55400D03*
X81793Y-54900D03*
X81006Y-54900D03*
X81793Y-55900D03*
X81793Y-54400D03*
X81006Y-54400D03*
X81006Y-55900D03*
X88006Y-55450D03*
X88793Y-55450D03*
X88006Y-55950D03*
X88793Y-55950D03*
X88006Y-54950D03*
X88006Y-56450D03*
X88793Y-56450D03*
X88793Y-54950D03*
G54D10*
G36*
X93898Y-56054D02*
X94454Y-55498D01*
X95985Y-57029D01*
X95429Y-57585D01*
X93898Y-56054D01*
X93898Y-56054D01*
G37*
G36*
X96514Y-58670D02*
X97070Y-58114D01*
X98601Y-59645D01*
X98045Y-60201D01*
X96514Y-58670D01*
X96514Y-58670D01*
G37*
G54D22*
X80950Y-57950D03*
X80950Y-61650D03*
G54D23*
X77053Y-51275D03*
G54D24*
X78053Y-51275D03*
X79053Y-51275D03*
G54D23*
X77053Y-50275D03*
G54D24*
X78053Y-50275D03*
X79053Y-50275D03*
G54D23*
X77053Y-49275D03*
G54D24*
X78053Y-49275D03*
X79053Y-49275D03*
G54D23*
X77053Y-48275D03*
G54D24*
X78053Y-48275D03*
X79053Y-48275D03*
G54D25*
X92987Y-58187D03*
X92987Y-56612D03*
G54D26*
X83710Y-48695D03*
X83710Y-48498D03*
X83710Y-48301D03*
X83710Y-48104D03*
X82489Y-48104D03*
X82489Y-48301D03*
X82489Y-48498D03*
X82489Y-48695D03*
G54D27*
X100587Y-48000D03*
X101413Y-48000D03*
X92563Y-60100D03*
X91737Y-60100D03*
X101750Y-52413D03*
X101750Y-51587D03*
X101716Y-45775D03*
X100890Y-45775D03*
G54D10*
G36*
X83112Y-64049D02*
X83258Y-63600D01*
X83707Y-63746D01*
X83561Y-64195D01*
X83112Y-64049D01*
X83112Y-64049D01*
G37*
G36*
X83898Y-64304D02*
X84044Y-63855D01*
X84493Y-64001D01*
X84347Y-64450D01*
X83898Y-64304D01*
X83898Y-64304D01*
G37*
G36*
X99761Y-60651D02*
X99427Y-60317D01*
X99761Y-59983D01*
X100094Y-60317D01*
X99761Y-60651D01*
X99761Y-60651D01*
G37*
G36*
X100345Y-60067D02*
X100011Y-59733D01*
X100345Y-59399D01*
X100678Y-59733D01*
X100345Y-60067D01*
X100345Y-60067D01*
G37*
G54D27*
X75390Y-45775D03*
X76216Y-45775D03*
X75553Y-52938D03*
X75553Y-52112D03*
G54D10*
G36*
X76427Y-59733D02*
X76761Y-59399D01*
X77094Y-59733D01*
X76761Y-60067D01*
X76427Y-59733D01*
X76427Y-59733D01*
G37*
G36*
X77011Y-60317D02*
X77345Y-59983D01*
X77678Y-60317D01*
X77345Y-60651D01*
X77011Y-60317D01*
X77011Y-60317D01*
G37*
G36*
X92758Y-64450D02*
X92612Y-64001D01*
X93061Y-63855D01*
X93207Y-64304D01*
X92758Y-64450D01*
X92758Y-64450D01*
G37*
G36*
X93544Y-64195D02*
X93398Y-63746D01*
X93847Y-63600D01*
X93993Y-64049D01*
X93544Y-64195D01*
X93544Y-64195D01*
G37*
G54D28*
X88022Y-48128D03*
X88022Y-47928D03*
X88022Y-48328D03*
X88022Y-48528D03*
X89162Y-48128D03*
X89162Y-47928D03*
X89162Y-48328D03*
X89162Y-48528D03*
G54D29*
X88482Y-48808D03*
X88682Y-48808D03*
X88862Y-48808D03*
X88302Y-48808D03*
X88862Y-47628D03*
X88682Y-47628D03*
X88482Y-47628D03*
X88302Y-47628D03*
G54D30*
X96700Y-62100D03*
X96700Y-60900D03*
G54D31*
X85950Y-50800D03*
X87150Y-50800D03*
G54D30*
X93800Y-60900D03*
X93800Y-62100D03*
G54D32*
X84451Y-53647D03*
X84451Y-53903D03*
X84451Y-54159D03*
X84451Y-54415D03*
X86653Y-52883D03*
X84451Y-52879D03*
X84451Y-53135D03*
X84451Y-53391D03*
X86655Y-54671D03*
X86655Y-54415D03*
X86655Y-54159D03*
X86655Y-53903D03*
X86655Y-53647D03*
X86655Y-53391D03*
X84451Y-54671D03*
X86653Y-53135D03*
X84451Y-52623D03*
X84451Y-54927D03*
X86655Y-54927D03*
X86655Y-52623D03*
X84451Y-52368D03*
X84451Y-55182D03*
X86655Y-55182D03*
X86655Y-52368D03*
X84451Y-52112D03*
X84451Y-55438D03*
X86655Y-55438D03*
X86655Y-52112D03*
G54D19*
X89550Y-50400D03*
G54D20*
X88550Y-50400D03*
G54D19*
X89550Y-51650D03*
G54D20*
X88550Y-51650D03*
G54D33*
X76000Y-56275D03*
X101150Y-56275D03*
G54D34*
X97350Y-45975D03*
X79800Y-45975D03*
G54D35*
X78668Y-56249D03*
X79698Y-55219D03*
X78384Y-57696D03*
X77313Y-58768D03*
X97837Y-56884D03*
X96807Y-55854D03*
X99285Y-57168D03*
X100357Y-58239D03*
G54D36*
X83300Y-48650D03*
X85500Y-49400D03*
X85300Y-46700D03*
X80550Y-51100D03*
X81400Y-46600D03*
X97950Y-49100D03*
X92650Y-52400D03*
X91750Y-47850D03*
X94550Y-59100D03*
X97650Y-61750D03*
X82250Y-60100D03*
X87450Y-58100D03*
X85250Y-52500D03*
X81850Y-58100D03*
X95700Y-48850D03*
X96800Y-47700D03*
X95400Y-50450D03*
X96200Y-51300D03*
X96400Y-49800D03*
X96000Y-49500D03*
X97850Y-51950D03*
X98100Y-51150D03*
X93050Y-50300D03*
X100350Y-49200D03*
X99900Y-48950D03*
X96250Y-50800D03*
X93750Y-48000D03*
X91350Y-52250D03*
X86650Y-49800D03*
X89600Y-52300D03*
X94850Y-49600D03*
X89250Y-53550D03*
X91700Y-52500D03*
X85100Y-50100D03*
X88500Y-48150D03*
X89700Y-49350D03*
X92500Y-49350D03*
X96900Y-50550D03*
X100800Y-48950D03*
X100650Y-50850D03*
X99550Y-50850D03*
X98400Y-49100D03*
X94350Y-50300D03*
X85600Y-51600D03*
X84900Y-51600D03*
X92100Y-55900D03*
X90100Y-53950D03*
X84250Y-60700D03*
X86150Y-60100D03*
X96550Y-52850D03*
X87200Y-49500D03*
X83250Y-56950D03*
X82150Y-50300D03*
X84150Y-49050D03*
X100050Y-45750D03*
X101850Y-48000D03*
X95200Y-59350D03*
X92450Y-51450D03*
X90800Y-54600D03*
X99300Y-58650D03*
X90700Y-58600D03*
X87450Y-51550D03*
X89650Y-48400D03*
X83550Y-62550D03*
X84450Y-58650D03*
X85900Y-52500D03*
X97100Y-48400D03*
X88700Y-60300D03*
X82300Y-56950D03*
X80000Y-59450D03*
X75550Y-51550D03*
X94150Y-55000D03*
X94200Y-52650D03*
X95500Y-56000D03*
X84750Y-57300D03*
X95150Y-55000D03*
X95500Y-51750D03*
X98100Y-58600D03*
X85550Y-53950D03*
X92700Y-61000D03*
X90550Y-55700D03*
X99100Y-60950D03*
X91050Y-55300D03*
X101150Y-52450D03*
X89600Y-55450D03*
X99100Y-45800D03*
X90750Y-52250D03*
X94150Y-47600D03*
X81600Y-57100D03*
X82350Y-58800D03*
X81800Y-62650D03*
X83750Y-59450D03*
X85750Y-59300D03*
X85200Y-57150D03*
X82700Y-56200D03*
X82700Y-51450D03*
X95900Y-59950D03*
X94700Y-60100D03*
G54D37*
X83300Y-48650D02*
X83300Y-48600D01*
X83300Y-48600D02*
X83401Y-48498D01*
X83401Y-48498D02*
X83710Y-48498D01*
X86053Y-49150D02*
X86424Y-49150D01*
X86053Y-49150D02*
X85749Y-49150D01*
X85500Y-49400D02*
X85749Y-49150D01*
X86424Y-49150D02*
X86600Y-48975D01*
X87471Y-48128D02*
X87446Y-48128D01*
X87446Y-48128D02*
X86600Y-48975D01*
X88022Y-48128D02*
X87471Y-48128D01*
X86603Y-46900D02*
X86050Y-46900D01*
X86050Y-46900D02*
X85300Y-46700D01*
X83710Y-48498D02*
X84423Y-48498D01*
X84423Y-48498D02*
X84600Y-48675D01*
X81100Y-51350D02*
X81100Y-52250D01*
X80900Y-51150D02*
X81100Y-51350D01*
X80600Y-51150D02*
X80900Y-51150D01*
X80550Y-51100D02*
X80600Y-51150D01*
G54D38*
X82928Y-49275D02*
X82928Y-48527D01*
X82225Y-45775D02*
X81400Y-46600D01*
X82225Y-45775D02*
X82600Y-45775D01*
X82928Y-48527D02*
X82900Y-48499D01*
X83250Y-48150D02*
X83600Y-47500D01*
X83575Y-45750D02*
X83550Y-45775D01*
X84300Y-45750D02*
X83575Y-45750D01*
X84650Y-46100D02*
X84300Y-45750D01*
X84650Y-47250D02*
X84650Y-46100D01*
X84400Y-47500D02*
X84650Y-47250D01*
X83600Y-47500D02*
X84400Y-47500D01*
X83550Y-45775D02*
X82600Y-45775D01*
G54D37*
X82489Y-48498D02*
X82751Y-48498D01*
G54D38*
X82751Y-48498D02*
X82900Y-48499D01*
X82900Y-48499D02*
X83250Y-48150D01*
G54D37*
X97373Y-49479D02*
X97420Y-49479D01*
X97800Y-49100D02*
X97950Y-49100D01*
X97420Y-49479D02*
X97800Y-49100D01*
G54D38*
X93265Y-52265D02*
X93265Y-52284D01*
X93265Y-52284D02*
X93150Y-52400D01*
X93150Y-52400D02*
X92650Y-52400D01*
X93265Y-52265D02*
X93315Y-52265D01*
X93315Y-52265D02*
X93350Y-52300D01*
X93350Y-52300D02*
X94104Y-52300D01*
X94104Y-52300D02*
X94486Y-51918D01*
X94041Y-51472D02*
X94041Y-51489D01*
X94041Y-51489D02*
X93265Y-52265D01*
X92275Y-48050D02*
X91950Y-48050D01*
X91950Y-48050D02*
X91750Y-47850D01*
X93800Y-59125D02*
X94525Y-59125D01*
X94525Y-59125D02*
X94550Y-59100D01*
X96700Y-62100D02*
X97400Y-62100D01*
X97400Y-62100D02*
X97650Y-61850D01*
X97650Y-61850D02*
X97650Y-61750D01*
X95575Y-61700D02*
X95950Y-61700D01*
X96350Y-62100D02*
X96700Y-62100D01*
X95950Y-61700D02*
X96350Y-62100D01*
X85950Y-50800D02*
X85950Y-51250D01*
X85950Y-51250D02*
X86655Y-51955D01*
X86655Y-51955D02*
X86655Y-52112D01*
X82250Y-60100D02*
X82750Y-60100D01*
X87100Y-58825D02*
X87100Y-58450D01*
X87100Y-58450D02*
X87450Y-58100D01*
X86655Y-52112D02*
X85587Y-52112D01*
X85587Y-52112D02*
X85250Y-52450D01*
X85250Y-52450D02*
X85250Y-52500D01*
G54D37*
X86653Y-53135D02*
X86035Y-53135D01*
X85400Y-52500D02*
X85250Y-52500D01*
X86035Y-53135D02*
X85400Y-52500D01*
X84451Y-53135D02*
X85114Y-53135D01*
X85250Y-53000D02*
X85250Y-52500D01*
X85114Y-53135D02*
X85250Y-53000D01*
X84451Y-52879D02*
X84970Y-52879D01*
X85250Y-52600D02*
X85250Y-52500D01*
X84970Y-52879D02*
X85250Y-52600D01*
X84451Y-52623D02*
X85126Y-52623D01*
X85126Y-52623D02*
X85250Y-52500D01*
G54D38*
X87825Y-58600D02*
X87600Y-58600D01*
X87600Y-58600D02*
X87450Y-58450D01*
X87450Y-58450D02*
X87450Y-58100D01*
X81850Y-58100D02*
X81900Y-58050D01*
G54D37*
X96187Y-48362D02*
X95700Y-48850D01*
X96256Y-48362D02*
X96187Y-48362D01*
X94650Y-53571D02*
X94650Y-53599D01*
X94650Y-53599D02*
X92950Y-55300D01*
X92950Y-55300D02*
X91900Y-55300D01*
X91900Y-55300D02*
X90600Y-56600D01*
X90600Y-56600D02*
X89600Y-56600D01*
X89600Y-56600D02*
X89050Y-57150D01*
X89050Y-57150D02*
X86450Y-57150D01*
X86450Y-57150D02*
X85900Y-56600D01*
X85900Y-56600D02*
X84650Y-56600D01*
X84650Y-56600D02*
X84250Y-57000D01*
X84250Y-57000D02*
X84250Y-57900D01*
X96256Y-48362D02*
X96237Y-48362D01*
X96057Y-48142D02*
X96500Y-47700D01*
X96500Y-47700D02*
X96800Y-47700D01*
X96037Y-48142D02*
X96057Y-48142D01*
X95650Y-53571D02*
X95650Y-53450D01*
X83750Y-57217D02*
X83750Y-57900D01*
X84567Y-56399D02*
X83750Y-57217D01*
X85982Y-56399D02*
X84567Y-56399D01*
X86532Y-56949D02*
X85982Y-56399D01*
X88950Y-56949D02*
X86532Y-56949D01*
X89500Y-56399D02*
X88950Y-56949D01*
X90500Y-56399D02*
X89500Y-56399D01*
X91800Y-55099D02*
X90500Y-56399D01*
X92850Y-55099D02*
X91800Y-55099D01*
X94150Y-53800D02*
X92850Y-55099D01*
X94150Y-53350D02*
X94150Y-53800D01*
X94400Y-53100D02*
X94150Y-53350D01*
X95300Y-53100D02*
X94400Y-53100D01*
X95650Y-53450D02*
X95300Y-53100D01*
X94934Y-48134D02*
X95400Y-48600D01*
X95500Y-50300D02*
X95400Y-50450D01*
X95500Y-49200D02*
X95500Y-50300D01*
X95400Y-49100D02*
X95500Y-49200D01*
X95400Y-48600D02*
X95400Y-49100D01*
X94928Y-48134D02*
X94934Y-48134D01*
X95500Y-51300D02*
X96200Y-51300D01*
X94706Y-48356D02*
X95150Y-48800D01*
X95150Y-48800D02*
X95150Y-49350D01*
X95150Y-49350D02*
X95250Y-49450D01*
X95250Y-49450D02*
X95250Y-50100D01*
X95250Y-50100D02*
X95000Y-50350D01*
X95000Y-50350D02*
X95000Y-50800D01*
X95000Y-50800D02*
X95500Y-51300D01*
X94706Y-48356D02*
X94706Y-48356D01*
X97147Y-49252D02*
X97147Y-49252D01*
X97147Y-49252D02*
X96600Y-49800D01*
X96600Y-49800D02*
X96400Y-49800D01*
X96000Y-49400D02*
X96000Y-49500D01*
X96000Y-49050D02*
X96000Y-49400D01*
X96482Y-48588D02*
X96461Y-48588D01*
X96461Y-48588D02*
X96000Y-49050D01*
X97154Y-51254D02*
X97850Y-51950D01*
X97154Y-51254D02*
X97154Y-51254D01*
X97607Y-50801D02*
X97607Y-50807D01*
X97950Y-51150D02*
X98100Y-51150D01*
X97607Y-50807D02*
X97950Y-51150D01*
X93354Y-50804D02*
X93373Y-50804D01*
X93050Y-50500D02*
X93354Y-50804D01*
X93050Y-50300D02*
X93050Y-50500D01*
X96263Y-52145D02*
X96295Y-52145D01*
X100350Y-51250D02*
X100350Y-49200D01*
X98600Y-53000D02*
X100350Y-51250D01*
X97250Y-53000D02*
X98600Y-53000D01*
X96750Y-52500D02*
X97250Y-53000D01*
X96650Y-52500D02*
X96750Y-52500D01*
X96295Y-52145D02*
X96650Y-52500D01*
X96489Y-51918D02*
X96489Y-51939D01*
X99900Y-51350D02*
X99900Y-48950D01*
X98450Y-52800D02*
X99900Y-51350D01*
X97350Y-52800D02*
X98450Y-52800D01*
X96489Y-51939D02*
X97350Y-52800D01*
X99400Y-48550D02*
X101800Y-48550D01*
X101800Y-48550D02*
X102200Y-48150D01*
X102200Y-48150D02*
X102200Y-47550D01*
X101721Y-47071D02*
X102200Y-47550D01*
X101650Y-47071D02*
X101721Y-47071D01*
X96250Y-50800D02*
X96250Y-50600D01*
X96928Y-51478D02*
X96250Y-50800D01*
X96928Y-51478D02*
X96928Y-51480D01*
X97750Y-50200D02*
X98250Y-49700D01*
X96650Y-50200D02*
X97750Y-50200D01*
X96250Y-50600D02*
X96650Y-50200D01*
X98250Y-49700D02*
X99400Y-48550D01*
X91053Y-46025D02*
X91928Y-46025D01*
X88022Y-47928D02*
X87271Y-47928D01*
X86975Y-48225D02*
X86600Y-48225D01*
X87271Y-47928D02*
X86975Y-48225D01*
X85500Y-48550D02*
X86275Y-48550D01*
X86275Y-48550D02*
X86600Y-48225D01*
X83710Y-48301D02*
X85251Y-48301D01*
X85251Y-48301D02*
X85500Y-48550D01*
X82489Y-48301D02*
X82698Y-48301D01*
X82950Y-48000D02*
X82950Y-47125D01*
X82950Y-47125D02*
X83550Y-46525D01*
X82950Y-48050D02*
X82950Y-48000D01*
X82698Y-48301D02*
X82950Y-48050D01*
X82489Y-48301D02*
X82491Y-48300D01*
X82489Y-48301D02*
X81498Y-48301D01*
X81498Y-48301D02*
X81300Y-48500D01*
X94251Y-48801D02*
X93750Y-48300D01*
X93750Y-48300D02*
X93750Y-48000D01*
X94251Y-48801D02*
X94261Y-48801D01*
X86678Y-52600D02*
X86655Y-52623D01*
X87300Y-52600D02*
X86678Y-52600D01*
X87750Y-52150D02*
X87300Y-52600D01*
X87750Y-50000D02*
X87750Y-52150D01*
X87550Y-49800D02*
X87750Y-50000D01*
X86650Y-49800D02*
X87550Y-49800D01*
X88302Y-47628D02*
X86646Y-47628D01*
X86646Y-47628D02*
X86600Y-47675D01*
X85500Y-47550D02*
X85400Y-47550D01*
X84845Y-48104D02*
X83710Y-48104D01*
X85400Y-47550D02*
X84845Y-48104D01*
X86600Y-47675D02*
X85625Y-47675D01*
X85625Y-47675D02*
X85500Y-47550D01*
X82489Y-48104D02*
X82489Y-46635D01*
X82489Y-46635D02*
X82600Y-46525D01*
X82489Y-48104D02*
X82054Y-48104D01*
X81050Y-47750D02*
X80300Y-48500D01*
X81700Y-47750D02*
X81050Y-47750D01*
X82054Y-48104D02*
X81700Y-47750D01*
X94483Y-48579D02*
X94483Y-48583D01*
X94850Y-48950D02*
X94850Y-49600D01*
X94483Y-48583D02*
X94850Y-48950D01*
X91700Y-52500D02*
X91650Y-52500D01*
X85100Y-50100D02*
X86400Y-50100D01*
X87181Y-52368D02*
X86655Y-52368D01*
X87300Y-52250D02*
X87181Y-52368D01*
X87300Y-51900D02*
X87300Y-52250D01*
X87150Y-51750D02*
X87300Y-51900D01*
X86900Y-51750D02*
X87150Y-51750D01*
X86550Y-51400D02*
X86900Y-51750D01*
X86550Y-50250D02*
X86550Y-51400D01*
X86400Y-50100D02*
X86550Y-50250D01*
X85100Y-50100D02*
X85050Y-50100D01*
X92500Y-49350D02*
X89700Y-49350D01*
X88482Y-48132D02*
X88500Y-48150D01*
X88482Y-48132D02*
X88482Y-47628D01*
X92977Y-49300D02*
X93370Y-49692D01*
X92550Y-49300D02*
X92977Y-49300D01*
X92500Y-49350D02*
X92550Y-49300D01*
X97380Y-51027D02*
X97377Y-51027D01*
X97377Y-51027D02*
X96900Y-50550D01*
X97500Y-52500D02*
X98400Y-52500D01*
X96709Y-51709D02*
X97500Y-52500D01*
X96709Y-51699D02*
X96709Y-51709D01*
X100800Y-50700D02*
X100800Y-48950D01*
X100650Y-50850D02*
X100800Y-50700D01*
X99550Y-51350D02*
X99550Y-50850D01*
X98400Y-52500D02*
X99550Y-51350D01*
X98875Y-48000D02*
X98875Y-48625D01*
X98875Y-48625D02*
X98400Y-49100D01*
X97600Y-49705D02*
X97894Y-49705D01*
X98400Y-49200D02*
X98400Y-49100D01*
X97894Y-49705D02*
X98400Y-49200D01*
X77693Y-52750D02*
X77900Y-52750D01*
X82847Y-53647D02*
X84451Y-53647D01*
X82450Y-53250D02*
X82847Y-53647D01*
X78400Y-53250D02*
X82450Y-53250D01*
X77900Y-52750D02*
X78400Y-53250D01*
X77693Y-53750D02*
X82200Y-53750D01*
X82609Y-54159D02*
X84451Y-54159D01*
X82200Y-53750D02*
X82609Y-54159D01*
X86655Y-54159D02*
X87340Y-54159D01*
X87650Y-53850D02*
X88006Y-53850D01*
X87340Y-54159D02*
X87650Y-53850D01*
X86655Y-53647D02*
X87152Y-53647D01*
X87950Y-52850D02*
X88006Y-52850D01*
X87152Y-53647D02*
X87950Y-52850D01*
X93595Y-51027D02*
X93622Y-51027D01*
X93622Y-51027D02*
X94350Y-50300D01*
X84451Y-54415D02*
X81809Y-54415D01*
X81809Y-54415D02*
X81793Y-54400D01*
X84451Y-54671D02*
X82478Y-54671D01*
X82250Y-54900D02*
X81793Y-54900D01*
X82478Y-54671D02*
X82250Y-54900D01*
X84451Y-54927D02*
X82772Y-54927D01*
X82300Y-55400D02*
X81793Y-55400D01*
X82772Y-54927D02*
X82300Y-55400D01*
X84451Y-55182D02*
X83117Y-55182D01*
X82400Y-55900D02*
X81793Y-55900D01*
X83117Y-55182D02*
X82400Y-55900D01*
X86655Y-55438D02*
X86988Y-55438D01*
X87750Y-56450D02*
X88006Y-56450D01*
X87650Y-56350D02*
X87750Y-56450D01*
X87650Y-56100D02*
X87650Y-56350D01*
X86988Y-55438D02*
X87650Y-56100D01*
X86655Y-55182D02*
X87132Y-55182D01*
X87900Y-55950D02*
X88006Y-55950D01*
X87132Y-55182D02*
X87900Y-55950D01*
X86655Y-54927D02*
X87227Y-54927D01*
X87750Y-55450D02*
X88006Y-55450D01*
X87227Y-54927D02*
X87750Y-55450D01*
X86655Y-54671D02*
X87321Y-54671D01*
X87600Y-54950D02*
X88006Y-54950D01*
X87321Y-54671D02*
X87600Y-54950D01*
X84450Y-52111D02*
X84451Y-52112D01*
X84450Y-51450D02*
X84450Y-52111D01*
X84700Y-51200D02*
X84450Y-51450D01*
X85200Y-51200D02*
X84700Y-51200D01*
X85300Y-51300D02*
X85200Y-51200D01*
X85600Y-51600D02*
X85300Y-51300D01*
X84451Y-52368D02*
X84881Y-52368D01*
X84975Y-51675D02*
X84900Y-51600D01*
X84975Y-52275D02*
X84975Y-51675D01*
X84881Y-52368D02*
X84975Y-52275D01*
X92085Y-57774D02*
X92085Y-55915D01*
X92085Y-54585D02*
X92085Y-54626D01*
X91650Y-54150D02*
X92085Y-54585D01*
X90300Y-54150D02*
X91650Y-54150D01*
X90100Y-53950D02*
X90300Y-54150D01*
X92678Y-46025D02*
X92678Y-47044D01*
X93025Y-48012D02*
X94037Y-49025D01*
X93025Y-47391D02*
X93025Y-48012D01*
X92678Y-47044D02*
X93025Y-47391D01*
X92085Y-57774D02*
X92085Y-57585D01*
X85750Y-59950D02*
X85750Y-60100D01*
X86300Y-59400D02*
X85750Y-59950D01*
X86300Y-58650D02*
X86300Y-59400D01*
X87200Y-57750D02*
X86300Y-58650D01*
X89150Y-57750D02*
X87200Y-57750D01*
X89750Y-57150D02*
X89150Y-57750D01*
X91650Y-57150D02*
X89750Y-57150D01*
X92085Y-57585D02*
X91650Y-57150D01*
X84250Y-60100D02*
X84250Y-60700D01*
X85750Y-60100D02*
X86150Y-60100D01*
X91650Y-48400D02*
X91150Y-47900D01*
X93797Y-49247D02*
X93250Y-48700D01*
X93250Y-48700D02*
X91950Y-48700D01*
X91950Y-48700D02*
X91650Y-48400D01*
X93815Y-49247D02*
X93797Y-49247D01*
X91650Y-47199D02*
X91650Y-47071D01*
X91150Y-47700D02*
X91650Y-47199D01*
X91150Y-47900D02*
X91150Y-47700D01*
X77693Y-52250D02*
X77950Y-52250D01*
X78700Y-53000D02*
X80700Y-53000D01*
X77950Y-52250D02*
X78700Y-53000D01*
X84451Y-53391D02*
X83191Y-53391D01*
X82750Y-52950D02*
X80700Y-53000D01*
X83191Y-53391D02*
X82750Y-52950D01*
X77693Y-53250D02*
X77950Y-53250D01*
X82753Y-53903D02*
X84451Y-53903D01*
X82350Y-53500D02*
X82753Y-53903D01*
X78200Y-53500D02*
X82350Y-53500D01*
X77950Y-53250D02*
X78200Y-53500D01*
X86655Y-54415D02*
X87634Y-54415D01*
X87700Y-54350D02*
X88006Y-54350D01*
X87634Y-54415D02*
X87700Y-54350D01*
X86655Y-53903D02*
X87196Y-53903D01*
X87750Y-53350D02*
X88006Y-53350D01*
X87196Y-53903D02*
X87750Y-53350D01*
X90053Y-46025D02*
X90053Y-46903D01*
X90221Y-47071D02*
X90650Y-47071D01*
X90053Y-46903D02*
X90221Y-47071D01*
X93592Y-49470D02*
X93570Y-49470D01*
X90650Y-47950D02*
X90650Y-47071D01*
X91650Y-48950D02*
X90650Y-47950D01*
X93050Y-48950D02*
X91650Y-48950D01*
X93570Y-49470D02*
X93050Y-48950D01*
X96064Y-52364D02*
X96550Y-52850D01*
X96044Y-52364D02*
X96064Y-52364D01*
X84150Y-50300D02*
X84650Y-49800D01*
X84650Y-49800D02*
X86150Y-49800D01*
X86150Y-49800D02*
X86450Y-49500D01*
X86450Y-49500D02*
X87200Y-49500D01*
X83950Y-50300D02*
X82150Y-50300D01*
X83950Y-50300D02*
X84150Y-50300D01*
X82150Y-48900D02*
X82150Y-50300D01*
X82354Y-48695D02*
X82150Y-48900D01*
X83250Y-57900D02*
X83250Y-56950D01*
X82354Y-48695D02*
X82489Y-48695D01*
X83678Y-49275D02*
X83924Y-49275D01*
X83924Y-49275D02*
X84150Y-49050D01*
X84525Y-49425D02*
X84600Y-49425D01*
X84150Y-49050D02*
X84525Y-49425D01*
X83710Y-48695D02*
X83710Y-49243D01*
X83710Y-49243D02*
X83678Y-49275D01*
X101413Y-48000D02*
X101750Y-48000D01*
X101750Y-48000D02*
X101850Y-48000D01*
X101013Y-51587D02*
X100650Y-51950D01*
X101750Y-51587D02*
X101013Y-51587D01*
X100650Y-53571D02*
X100650Y-53571D01*
X100650Y-51950D02*
X100650Y-53571D01*
X76216Y-45775D02*
X76575Y-45775D01*
X89738Y-59513D02*
X89936Y-59513D01*
X90075Y-59375D02*
X90700Y-59375D01*
X89936Y-59513D02*
X90075Y-59375D01*
X95575Y-62500D02*
X95575Y-63025D01*
X94702Y-63897D02*
X93695Y-63897D01*
X95575Y-63025D02*
X94702Y-63897D01*
X93800Y-62100D02*
X93850Y-62100D01*
X95200Y-61000D02*
X95200Y-60700D01*
X95050Y-61150D02*
X95200Y-61000D01*
X94800Y-61150D02*
X95050Y-61150D01*
X93850Y-62100D02*
X94800Y-61150D01*
X93695Y-63897D02*
X93695Y-62204D01*
X93695Y-62204D02*
X93800Y-62100D01*
X96700Y-60900D02*
X96250Y-60900D01*
X96250Y-60900D02*
X96000Y-61150D01*
X96000Y-61150D02*
X95400Y-61150D01*
X95400Y-61150D02*
X95200Y-60950D01*
X95200Y-60950D02*
X95200Y-60700D01*
X95200Y-60700D02*
X95200Y-59350D01*
X79300Y-52250D02*
X79050Y-52000D01*
X80200Y-52250D02*
X79300Y-52250D01*
X79050Y-51278D02*
X79053Y-51275D01*
X79050Y-52000D02*
X79050Y-51278D01*
X84451Y-55438D02*
X84011Y-55438D01*
X82500Y-56950D02*
X82300Y-56950D01*
X84011Y-55438D02*
X82500Y-56950D01*
X92734Y-51734D02*
X92450Y-51450D01*
X93818Y-51249D02*
X93800Y-51249D01*
X93315Y-51734D02*
X92734Y-51734D01*
X93800Y-51249D02*
X93315Y-51734D01*
X90315Y-54626D02*
X90774Y-54626D01*
X90774Y-54626D02*
X90800Y-54600D01*
X100345Y-59733D02*
X100345Y-59695D01*
X100345Y-59695D02*
X99300Y-58650D01*
X100890Y-45775D02*
X100075Y-45775D01*
X88275Y-47000D02*
X87400Y-47000D01*
X87053Y-46653D02*
X87053Y-46025D01*
X87400Y-47000D02*
X87053Y-46653D01*
X90700Y-59375D02*
X91175Y-59375D01*
X91737Y-59937D02*
X91737Y-60100D01*
X91175Y-59375D02*
X91737Y-59937D01*
X87150Y-50800D02*
X87150Y-51250D01*
X87150Y-51250D02*
X87450Y-51550D01*
X89162Y-48528D02*
X89521Y-48528D01*
X89478Y-48128D02*
X89650Y-48300D01*
X89650Y-48300D02*
X89650Y-48400D01*
X89478Y-48128D02*
X89162Y-48128D01*
X89521Y-48528D02*
X89650Y-48400D01*
X84195Y-64153D02*
X84195Y-63195D01*
X84195Y-63195D02*
X83550Y-62550D01*
X77345Y-60317D02*
X77482Y-60317D01*
X78350Y-59450D02*
X80000Y-59450D01*
X77482Y-60317D02*
X78350Y-59450D01*
X90315Y-57774D02*
X90374Y-57774D01*
X90700Y-58100D02*
X90700Y-58600D01*
X90374Y-57774D02*
X90700Y-58100D01*
X90700Y-59375D02*
X90700Y-58600D01*
X86653Y-52883D02*
X86083Y-52883D01*
X85900Y-52700D02*
X85900Y-52500D01*
X86083Y-52883D02*
X85900Y-52700D01*
X97484Y-47984D02*
X97484Y-48015D01*
X96702Y-48797D02*
X97100Y-48400D01*
X96702Y-48797D02*
X96702Y-48807D01*
X97484Y-48015D02*
X97100Y-48400D01*
X90225Y-58650D02*
X90700Y-58650D01*
X88990Y-59513D02*
X88990Y-60009D01*
X88990Y-60009D02*
X88700Y-60300D01*
X82750Y-57400D02*
X82750Y-57900D01*
X82300Y-56950D02*
X82750Y-57400D01*
X80000Y-59450D02*
X80000Y-59400D01*
X75553Y-52112D02*
X75553Y-51553D01*
X75553Y-51553D02*
X75550Y-51550D01*
X93818Y-51249D02*
X93818Y-51231D01*
X94750Y-51209D02*
X94263Y-51695D01*
X94750Y-51100D02*
X94750Y-51209D01*
X94450Y-50800D02*
X94750Y-51100D01*
X94250Y-50800D02*
X94450Y-50800D01*
X93818Y-51231D02*
X94250Y-50800D01*
X76575Y-45775D02*
X77050Y-46250D01*
X94150Y-55000D02*
X94600Y-55000D01*
X94600Y-55000D02*
X95500Y-55900D01*
X95500Y-56000D02*
X95500Y-55900D01*
X94709Y-52140D02*
X94709Y-52140D01*
X94709Y-52140D02*
X94200Y-52650D01*
X94941Y-56541D02*
X94958Y-56541D01*
X94958Y-56541D02*
X95500Y-56000D01*
X84750Y-57300D02*
X84750Y-57900D01*
X98100Y-58600D02*
X96100Y-56600D01*
X96100Y-55500D02*
X96100Y-56600D01*
X95150Y-55000D02*
X95600Y-55000D01*
X95600Y-55000D02*
X96100Y-55500D01*
X94932Y-52317D02*
X95500Y-51750D01*
X94932Y-52317D02*
X94932Y-52363D01*
X94932Y-52382D02*
X94932Y-52363D01*
X97558Y-59158D02*
X97558Y-59141D01*
X97558Y-59141D02*
X98100Y-58600D01*
X86646Y-53400D02*
X86655Y-53391D01*
X86100Y-53400D02*
X86646Y-53400D01*
X85550Y-53950D02*
X86100Y-53400D01*
X92563Y-60100D02*
X93000Y-60100D01*
X93775Y-59850D02*
X93800Y-59875D01*
X93250Y-59850D02*
X93775Y-59850D01*
X93000Y-60100D02*
X93250Y-59850D01*
X87868Y-59513D02*
X87161Y-59513D01*
X87175Y-59500D02*
X87400Y-59500D01*
X87161Y-59513D02*
X87175Y-59500D01*
X81006Y-54400D02*
X76700Y-54375D01*
X75390Y-46490D02*
X75390Y-45775D01*
X75950Y-47150D02*
X75390Y-46490D01*
X75950Y-53625D02*
X75950Y-47150D01*
X76700Y-54375D02*
X75950Y-53625D01*
X81006Y-54900D02*
X80650Y-54900D01*
X75550Y-53625D02*
X75553Y-52938D01*
X76500Y-54575D02*
X75550Y-53625D01*
X80300Y-54575D02*
X76500Y-54575D01*
X80650Y-54900D02*
X80300Y-54575D01*
X76761Y-59733D02*
X77216Y-59733D01*
X80900Y-55400D02*
X81006Y-55400D01*
X79600Y-56700D02*
X80900Y-55400D01*
X79600Y-58300D02*
X79600Y-56700D01*
X78700Y-59200D02*
X79600Y-58300D01*
X77750Y-59200D02*
X78700Y-59200D01*
X77216Y-59733D02*
X77750Y-59200D01*
X81006Y-55900D02*
X80850Y-55900D01*
X83410Y-63660D02*
X83410Y-63897D01*
X81700Y-61950D02*
X83410Y-63660D01*
X81700Y-60400D02*
X81700Y-61950D01*
X81500Y-60200D02*
X81700Y-60400D01*
X80500Y-60200D02*
X81500Y-60200D01*
X80350Y-60050D02*
X80500Y-60200D01*
X80350Y-56400D02*
X80350Y-60050D01*
X80850Y-55900D02*
X80350Y-56400D01*
X92910Y-64060D02*
X92700Y-63850D01*
X92700Y-63850D02*
X92700Y-61000D01*
X92910Y-64153D02*
X92910Y-64060D01*
X89050Y-56450D02*
X88793Y-56450D01*
X89350Y-56150D02*
X89050Y-56450D01*
X90100Y-56150D02*
X89350Y-56150D01*
X90550Y-55700D02*
X90100Y-56150D01*
X88793Y-55950D02*
X89650Y-55950D01*
X99732Y-60317D02*
X99761Y-60317D01*
X99100Y-60950D02*
X99732Y-60317D01*
X90300Y-55300D02*
X91050Y-55300D01*
X89650Y-55950D02*
X90300Y-55300D01*
X88793Y-55450D02*
X89600Y-55450D01*
X101187Y-52413D02*
X101750Y-52413D01*
X101150Y-52450D02*
X101187Y-52413D01*
X96928Y-49033D02*
X96966Y-49033D01*
X97680Y-48850D02*
X98015Y-48515D01*
X97600Y-48850D02*
X97680Y-48850D01*
X97450Y-48700D02*
X97600Y-48850D01*
X97300Y-48700D02*
X97450Y-48700D01*
X96966Y-49033D02*
X97300Y-48700D01*
X99100Y-45800D02*
X99600Y-46300D01*
X99600Y-46300D02*
X101450Y-46300D01*
X101450Y-46300D02*
X101716Y-46033D01*
X101716Y-46033D02*
X101716Y-45775D01*
X89500Y-54950D02*
X89750Y-54700D01*
X89750Y-54700D02*
X89800Y-54650D01*
X89800Y-54650D02*
X89800Y-53100D01*
X89800Y-53100D02*
X90650Y-52250D01*
X90650Y-52250D02*
X90750Y-52250D01*
X88793Y-54950D02*
X89500Y-54950D01*
X94150Y-47600D02*
X94150Y-47550D01*
X88793Y-53350D02*
X89000Y-53350D01*
X89300Y-51900D02*
X89550Y-51650D01*
X89300Y-53050D02*
X89300Y-51900D01*
X89000Y-53350D02*
X89300Y-53050D01*
X88793Y-54350D02*
X88950Y-54350D01*
X90300Y-51150D02*
X89550Y-50400D01*
X90300Y-52000D02*
X90300Y-51150D01*
X89600Y-52700D02*
X90300Y-52000D01*
X89600Y-53700D02*
X89600Y-52700D01*
X88950Y-54350D02*
X89600Y-53700D01*
X88793Y-53850D02*
X88650Y-53850D01*
X87950Y-51000D02*
X88550Y-50400D01*
X87950Y-52100D02*
X87950Y-51000D01*
X88400Y-52550D02*
X87950Y-52100D01*
X88400Y-53600D02*
X88400Y-52550D01*
X88650Y-53850D02*
X88400Y-53600D01*
X88793Y-52850D02*
X88793Y-51893D01*
X88793Y-51893D02*
X88550Y-51650D01*
X88616Y-59513D02*
X88616Y-59883D01*
X84750Y-60400D02*
X84750Y-60100D01*
X85150Y-60800D02*
X84750Y-60400D01*
X87700Y-60800D02*
X85150Y-60800D01*
X88616Y-59883D02*
X87700Y-60800D01*
X94825Y-61700D02*
X94825Y-62500D01*
X88862Y-47628D02*
X88862Y-47587D01*
X89025Y-47425D02*
X89025Y-47000D01*
X88862Y-47587D02*
X89025Y-47425D01*
X89162Y-48328D02*
X88878Y-48328D01*
X88862Y-47887D02*
X88862Y-47628D01*
X88800Y-47950D02*
X88862Y-47887D01*
X88800Y-48250D02*
X88800Y-47950D01*
X88878Y-48328D02*
X88800Y-48250D01*
X100587Y-48000D02*
X99625Y-48000D01*
X88862Y-48808D02*
X90066Y-48808D01*
X90066Y-48808D02*
X90100Y-48775D01*
X90100Y-48025D02*
X89825Y-48025D01*
X89728Y-47928D02*
X89162Y-47928D01*
X89825Y-48025D02*
X89728Y-47928D01*
X76906Y-52750D02*
X76650Y-52750D01*
X76650Y-51678D02*
X77053Y-51275D01*
X76650Y-52749D02*
X76650Y-51678D01*
X76650Y-52750D02*
X76650Y-52749D01*
X77053Y-49275D02*
X76524Y-49275D01*
X76550Y-53250D02*
X76906Y-53250D01*
X76400Y-53100D02*
X76550Y-53250D01*
X76400Y-49399D02*
X76400Y-53100D01*
X76524Y-49275D02*
X76400Y-49399D01*
X76906Y-53750D02*
X76500Y-53750D01*
X76574Y-48275D02*
X77053Y-48275D01*
X76200Y-48650D02*
X76574Y-48275D01*
X76200Y-53449D02*
X76200Y-48650D01*
X76500Y-53750D02*
X76200Y-53449D01*
X76906Y-52250D02*
X77150Y-52250D01*
X77550Y-50772D02*
X77053Y-50275D01*
X77550Y-51850D02*
X77550Y-50772D01*
X77150Y-52250D02*
X77550Y-51850D01*
X88242Y-59513D02*
X88242Y-59907D01*
X85250Y-60400D02*
X85250Y-60100D01*
X85400Y-60550D02*
X85250Y-60400D01*
X87600Y-60550D02*
X85400Y-60550D01*
X88242Y-59907D02*
X87600Y-60550D01*
X80950Y-57950D02*
X80950Y-57750D01*
X80950Y-57750D02*
X81600Y-57100D01*
X83250Y-60100D02*
X83250Y-59500D01*
X82550Y-58800D02*
X82350Y-58800D01*
X83250Y-59500D02*
X82550Y-58800D01*
X80950Y-61650D02*
X80950Y-61800D01*
X80950Y-61800D02*
X81800Y-62650D01*
X83750Y-60100D02*
X83750Y-59450D01*
X90700Y-60125D02*
X90700Y-60450D01*
X89364Y-60164D02*
X89364Y-59513D01*
X89950Y-60750D02*
X89364Y-60164D01*
X90400Y-60750D02*
X89950Y-60750D01*
X90700Y-60450D02*
X90400Y-60750D01*
X89364Y-59513D02*
X89364Y-58760D01*
X89364Y-58760D02*
X89475Y-58650D01*
X89475Y-58650D02*
X88625Y-58650D01*
X88625Y-58650D02*
X88575Y-58600D01*
X89364Y-58760D02*
X89475Y-58650D01*
X85750Y-59300D02*
X85750Y-57900D01*
X85250Y-57200D02*
X85250Y-57900D01*
X85200Y-57150D02*
X85250Y-57200D01*
X82000Y-52150D02*
X82000Y-52250D01*
X82700Y-51450D02*
X82000Y-52150D01*
X95575Y-60275D02*
X95900Y-59950D01*
X95575Y-60275D02*
X95575Y-60700D01*
X94700Y-60100D02*
X94600Y-60100D01*
X94600Y-60100D02*
X93800Y-60900D01*
X94825Y-60700D02*
X94825Y-60225D01*
X94825Y-60225D02*
X94700Y-60100D01*
G54D10*
X102367Y-58653D02*
G75*
G02X92910Y-64961I-13785J10425D01*
G74*
G01*
X92913Y-64960D02*
X92125Y-64960D01*
X84251Y-64960D02*
X85039Y-64960D01*
X85039Y-61023D02*
X92125Y-61023D01*
X74797Y-58653D02*
G75*
G03X84255Y-64961I13785J10425D01*
G74*
G01*
X92125Y-61023D02*
X92125Y-64960D01*
X85039Y-61023D02*
X85039Y-64960D01*
X74803Y-58661D02*
X74803Y-45275D01*
X102362Y-45275D02*
X102362Y-58661D01*
X74803Y-45275D02*
X102362Y-45275D01*
M02*
