G04 (created by PCBNEW (2013-07-07 BZR 4022)-stable) date 2/19/2015 5:20:46 AM*
%MOIN*%
G04 Gerber Fmt 3.4, Leading zero omitted, Abs format*
%FSLAX34Y34*%
G01*
G70*
G90*
G04 APERTURE LIST*
%ADD10C,0.00590551*%
%ADD11C,0.00393701*%
%ADD12R,0.0371654X0.0619685*%
%ADD13R,0.0629685X0.0729685*%
%ADD14R,0.0319685X0.0419685*%
%ADD15R,0.155968X0.0919685*%
%ADD16R,0.0519685X0.0919685*%
%ADD17R,0.0369685X0.0619685*%
%ADD18R,0.0469685X0.0669685*%
%ADD19R,0.0669685X0.0469685*%
%ADD20R,0.0669685X0.0669685*%
%ADD21C,0.0669685*%
%ADD22R,0.0316535X0.0375591*%
%ADD23R,0.0906685X0.228468*%
%ADD24R,0.0719685X0.0719685*%
%ADD25C,0.0719685*%
%ADD26C,0.0906685*%
%ADD27R,0.0414961X0.021811*%
%ADD28R,0.0591685X0.0591685*%
%ADD29R,0.0469685X0.0249685*%
%ADD30R,0.0249685X0.0469685*%
%ADD31R,0.110369X0.0887685*%
%ADD32R,0.0887685X0.110369*%
%ADD33R,0.0698685X0.0284685*%
%ADD34C,0.153701*%
%ADD35C,0.130079*%
%ADD36C,0.0769291*%
G04 APERTURE END LIST*
G54D10*
G54D11*
X102367Y-58653D02*
G75*
G02X92910Y-64961I-13785J10425D01*
G74*
G01*
X92913Y-64960D02*
X92125Y-64960D01*
X84251Y-64960D02*
X85039Y-64960D01*
X85039Y-61023D02*
X92125Y-61023D01*
X74797Y-58653D02*
G75*
G03X84255Y-64961I13785J10425D01*
G74*
G01*
X92125Y-61023D02*
X92125Y-64960D01*
X85039Y-61023D02*
X85039Y-64960D01*
X74803Y-58661D02*
X74803Y-45275D01*
X102362Y-45275D02*
X102362Y-58661D01*
X74803Y-45275D02*
X102362Y-45275D01*
G54D12*
X87868Y-59513D03*
X88616Y-59513D03*
X88990Y-59513D03*
X88242Y-59513D03*
X89364Y-59513D03*
X89738Y-59513D03*
G54D10*
G36*
X94716Y-52788D02*
X94506Y-52579D01*
X95147Y-51938D01*
X95357Y-52147D01*
X94716Y-52788D01*
X94716Y-52788D01*
G37*
G36*
X94493Y-52566D02*
X94283Y-52356D01*
X94925Y-51715D01*
X95134Y-51925D01*
X94493Y-52566D01*
X94493Y-52566D01*
G37*
G36*
X94271Y-52343D02*
X94061Y-52133D01*
X94702Y-51492D01*
X94912Y-51702D01*
X94271Y-52343D01*
X94271Y-52343D01*
G37*
G36*
X94048Y-52120D02*
X93838Y-51910D01*
X94479Y-51269D01*
X94689Y-51479D01*
X94048Y-52120D01*
X94048Y-52120D01*
G37*
G36*
X93825Y-51898D02*
X93615Y-51688D01*
X94256Y-51047D01*
X94466Y-51256D01*
X93825Y-51898D01*
X93825Y-51898D01*
G37*
G36*
X93602Y-51675D02*
X93393Y-51465D01*
X94034Y-50824D01*
X94243Y-51034D01*
X93602Y-51675D01*
X93602Y-51675D01*
G37*
G36*
X93380Y-51452D02*
X93170Y-51242D01*
X93811Y-50601D01*
X94021Y-50811D01*
X93380Y-51452D01*
X93380Y-51452D01*
G37*
G36*
X93157Y-51229D02*
X92947Y-51020D01*
X93588Y-50378D01*
X93798Y-50588D01*
X93157Y-51229D01*
X93157Y-51229D01*
G37*
G36*
X95821Y-48568D02*
X95611Y-48358D01*
X96253Y-47717D01*
X96462Y-47927D01*
X95821Y-48568D01*
X95821Y-48568D01*
G37*
G36*
X97384Y-50130D02*
X97174Y-49921D01*
X97815Y-49280D01*
X98025Y-49489D01*
X97384Y-50130D01*
X97384Y-50130D01*
G37*
G36*
X97158Y-49904D02*
X96948Y-49694D01*
X97589Y-49053D01*
X97799Y-49263D01*
X97158Y-49904D01*
X97158Y-49904D01*
G37*
G36*
X96931Y-49678D02*
X96722Y-49468D01*
X97363Y-48827D01*
X97573Y-49037D01*
X96931Y-49678D01*
X96931Y-49678D01*
G37*
G36*
X96712Y-49459D02*
X96502Y-49249D01*
X97144Y-48608D01*
X97353Y-48818D01*
X96712Y-49459D01*
X96712Y-49459D01*
G37*
G36*
X96486Y-49232D02*
X96276Y-49023D01*
X96917Y-48382D01*
X97127Y-48591D01*
X96486Y-49232D01*
X96486Y-49232D01*
G37*
G36*
X96267Y-49013D02*
X96057Y-48803D01*
X96698Y-48162D01*
X96908Y-48372D01*
X96267Y-49013D01*
X96267Y-49013D01*
G37*
G36*
X96040Y-48787D02*
X95831Y-48577D01*
X96472Y-47936D01*
X96682Y-48146D01*
X96040Y-48787D01*
X96040Y-48787D01*
G37*
G36*
X93585Y-50118D02*
X92944Y-49477D01*
X93154Y-49267D01*
X93795Y-49908D01*
X93585Y-50118D01*
X93585Y-50118D01*
G37*
G36*
X93807Y-49896D02*
X93166Y-49255D01*
X93376Y-49045D01*
X94017Y-49686D01*
X93807Y-49896D01*
X93807Y-49896D01*
G37*
G36*
X94031Y-49672D02*
X93390Y-49031D01*
X93600Y-48821D01*
X94241Y-49462D01*
X94031Y-49672D01*
X94031Y-49672D01*
G37*
G36*
X94253Y-49450D02*
X93612Y-48809D01*
X93822Y-48599D01*
X94463Y-49240D01*
X94253Y-49450D01*
X94253Y-49450D01*
G37*
G36*
X94476Y-49227D02*
X93835Y-48586D01*
X94045Y-48376D01*
X94686Y-49017D01*
X94476Y-49227D01*
X94476Y-49227D01*
G37*
G36*
X94698Y-49005D02*
X94057Y-48364D01*
X94267Y-48154D01*
X94908Y-48795D01*
X94698Y-49005D01*
X94698Y-49005D01*
G37*
G36*
X94922Y-48781D02*
X94281Y-48140D01*
X94490Y-47930D01*
X95132Y-48572D01*
X94922Y-48781D01*
X94922Y-48781D01*
G37*
G36*
X95144Y-48559D02*
X94503Y-47918D01*
X94712Y-47708D01*
X95354Y-48350D01*
X95144Y-48559D01*
X95144Y-48559D01*
G37*
G36*
X96260Y-52789D02*
X95619Y-52148D01*
X95828Y-51938D01*
X96469Y-52579D01*
X96260Y-52789D01*
X96260Y-52789D01*
G37*
G36*
X96479Y-52570D02*
X95838Y-51929D01*
X96048Y-51719D01*
X96689Y-52360D01*
X96479Y-52570D01*
X96479Y-52570D01*
G37*
G36*
X96705Y-52344D02*
X96064Y-51703D01*
X96274Y-51493D01*
X96915Y-52134D01*
X96705Y-52344D01*
X96705Y-52344D01*
G37*
G36*
X96924Y-52125D02*
X96283Y-51483D01*
X96493Y-51274D01*
X97134Y-51915D01*
X96924Y-52125D01*
X96924Y-52125D01*
G37*
G36*
X97144Y-51905D02*
X96502Y-51264D01*
X96712Y-51054D01*
X97353Y-51696D01*
X97144Y-51905D01*
X97144Y-51905D01*
G37*
G36*
X97370Y-51679D02*
X96729Y-51038D01*
X96938Y-50828D01*
X97580Y-51469D01*
X97370Y-51679D01*
X97370Y-51679D01*
G37*
G36*
X97596Y-51453D02*
X96955Y-50812D01*
X97165Y-50602D01*
X97806Y-51243D01*
X97596Y-51453D01*
X97596Y-51453D01*
G37*
G36*
X97822Y-51226D02*
X97181Y-50585D01*
X97391Y-50376D01*
X98032Y-51017D01*
X97822Y-51226D01*
X97822Y-51226D01*
G37*
G54D13*
X92085Y-54626D03*
X92085Y-57774D03*
X90315Y-57774D03*
X90315Y-54626D03*
G54D14*
X95575Y-60700D03*
X94825Y-60700D03*
X95575Y-61700D03*
X95200Y-60700D03*
X94825Y-61700D03*
G54D15*
X81100Y-49650D03*
G54D16*
X81100Y-52250D03*
X82000Y-52250D03*
X80200Y-52250D03*
G54D17*
X82750Y-60100D03*
X83250Y-60100D03*
X83750Y-60100D03*
X84250Y-60100D03*
X84750Y-60100D03*
X85250Y-60100D03*
X85750Y-60100D03*
X85750Y-57900D03*
X85250Y-57900D03*
X84750Y-57900D03*
X84250Y-57900D03*
X83750Y-57900D03*
X83250Y-57900D03*
X82750Y-57900D03*
G54D18*
X91928Y-46025D03*
X92678Y-46025D03*
G54D10*
G36*
X98417Y-48444D02*
X97944Y-48917D01*
X97612Y-48585D01*
X98085Y-48112D01*
X98417Y-48444D01*
X98417Y-48444D01*
G37*
G36*
X97887Y-47914D02*
X97414Y-48387D01*
X97082Y-48055D01*
X97555Y-47582D01*
X97887Y-47914D01*
X97887Y-47914D01*
G37*
G54D18*
X92275Y-48050D03*
X93025Y-48050D03*
X99625Y-48000D03*
X98875Y-48000D03*
G54D19*
X86600Y-48975D03*
X86600Y-48225D03*
X86600Y-46925D03*
X86600Y-47675D03*
X82600Y-46525D03*
X82600Y-45775D03*
X83550Y-46525D03*
X83550Y-45775D03*
X84600Y-48675D03*
X84600Y-49425D03*
G54D18*
X82928Y-49275D03*
X83678Y-49275D03*
X89025Y-47000D03*
X88275Y-47000D03*
X94825Y-62500D03*
X95575Y-62500D03*
G54D19*
X90100Y-48775D03*
X90100Y-48025D03*
G54D10*
G36*
X92332Y-51805D02*
X92805Y-51332D01*
X93137Y-51664D01*
X92664Y-52137D01*
X92332Y-51805D01*
X92332Y-51805D01*
G37*
G36*
X92862Y-52335D02*
X93335Y-51862D01*
X93667Y-52194D01*
X93194Y-52667D01*
X92862Y-52335D01*
X92862Y-52335D01*
G37*
G54D19*
X93800Y-59875D03*
X93800Y-59125D03*
X87100Y-58825D03*
X87100Y-59575D03*
G54D18*
X89475Y-58650D03*
X90225Y-58650D03*
G54D19*
X90700Y-60125D03*
X90700Y-59375D03*
G54D18*
X87825Y-58600D03*
X88575Y-58600D03*
G54D20*
X86053Y-46025D03*
G54D21*
X87053Y-46025D03*
X88053Y-46025D03*
X89053Y-46025D03*
X90053Y-46025D03*
X91053Y-46025D03*
G54D20*
X101650Y-50600D03*
G54D21*
X101650Y-49600D03*
G54D20*
X85500Y-48550D03*
G54D21*
X85500Y-47550D03*
G54D20*
X80300Y-48500D03*
G54D21*
X81300Y-48500D03*
G54D20*
X77050Y-47250D03*
G54D21*
X77050Y-46250D03*
G54D20*
X90650Y-47071D03*
G54D21*
X91650Y-47071D03*
X92650Y-47071D03*
X93650Y-47071D03*
X94650Y-47071D03*
X95650Y-47071D03*
X96650Y-47071D03*
X97650Y-47071D03*
X98650Y-47071D03*
X99650Y-47071D03*
X100650Y-47071D03*
X101650Y-47071D03*
G54D20*
X101650Y-53571D03*
G54D21*
X100650Y-53571D03*
X99650Y-53571D03*
X98650Y-53571D03*
X97650Y-53571D03*
X96650Y-53571D03*
X95650Y-53571D03*
X94650Y-53571D03*
X93650Y-53571D03*
X92650Y-53571D03*
X91650Y-53571D03*
X90650Y-53571D03*
G54D22*
X77693Y-53250D03*
X76906Y-53250D03*
X77693Y-52750D03*
X76906Y-52750D03*
X77693Y-53750D03*
X77693Y-52250D03*
X76906Y-52250D03*
X76906Y-53750D03*
X88006Y-53350D03*
X88793Y-53350D03*
X88006Y-53850D03*
X88793Y-53850D03*
X88006Y-52850D03*
X88006Y-54350D03*
X88793Y-54350D03*
X88793Y-52850D03*
X81793Y-55400D03*
X81006Y-55400D03*
X81793Y-54900D03*
X81006Y-54900D03*
X81793Y-55900D03*
X81793Y-54400D03*
X81006Y-54400D03*
X81006Y-55900D03*
X88006Y-55450D03*
X88793Y-55450D03*
X88006Y-55950D03*
X88793Y-55950D03*
X88006Y-54950D03*
X88006Y-56450D03*
X88793Y-56450D03*
X88793Y-54950D03*
G54D10*
G36*
X93813Y-56054D02*
X94454Y-55413D01*
X96070Y-57029D01*
X95429Y-57670D01*
X93813Y-56054D01*
X93813Y-56054D01*
G37*
G36*
X96429Y-58670D02*
X97070Y-58029D01*
X98686Y-59645D01*
X98045Y-60286D01*
X96429Y-58670D01*
X96429Y-58670D01*
G37*
G54D23*
X80950Y-57950D03*
X80950Y-61650D03*
G54D24*
X77053Y-51275D03*
G54D25*
X78053Y-51275D03*
X79053Y-51275D03*
G54D24*
X77053Y-50275D03*
G54D25*
X78053Y-50275D03*
X79053Y-50275D03*
G54D24*
X77053Y-49275D03*
G54D25*
X78053Y-49275D03*
X79053Y-49275D03*
G54D24*
X77053Y-48275D03*
G54D25*
X78053Y-48275D03*
X79053Y-48275D03*
G54D26*
X92987Y-58187D03*
X92987Y-56612D03*
G54D27*
X83710Y-48695D03*
X83710Y-48498D03*
X83710Y-48301D03*
X83710Y-48104D03*
X82489Y-48104D03*
X82489Y-48301D03*
X82489Y-48498D03*
X82489Y-48695D03*
G54D28*
X100587Y-48000D03*
X101413Y-48000D03*
X92563Y-60100D03*
X91737Y-60100D03*
X101750Y-52413D03*
X101750Y-51587D03*
X101716Y-45775D03*
X100890Y-45775D03*
G54D10*
G36*
X83037Y-64087D02*
X83220Y-63525D01*
X83783Y-63708D01*
X83600Y-64270D01*
X83037Y-64087D01*
X83037Y-64087D01*
G37*
G36*
X83823Y-64343D02*
X84005Y-63780D01*
X84568Y-63963D01*
X84385Y-64525D01*
X83823Y-64343D01*
X83823Y-64343D01*
G37*
G36*
X99761Y-60736D02*
X99342Y-60317D01*
X99761Y-59899D01*
X100179Y-60317D01*
X99761Y-60736D01*
X99761Y-60736D01*
G37*
G36*
X100345Y-60151D02*
X99926Y-59733D01*
X100345Y-59315D01*
X100763Y-59733D01*
X100345Y-60151D01*
X100345Y-60151D01*
G37*
G54D28*
X75390Y-45775D03*
X76216Y-45775D03*
X75553Y-52938D03*
X75553Y-52112D03*
G54D10*
G36*
X76342Y-59733D02*
X76761Y-59315D01*
X77179Y-59733D01*
X76761Y-60151D01*
X76342Y-59733D01*
X76342Y-59733D01*
G37*
G36*
X76926Y-60317D02*
X77345Y-59899D01*
X77763Y-60317D01*
X77345Y-60736D01*
X76926Y-60317D01*
X76926Y-60317D01*
G37*
G36*
X92720Y-64525D02*
X92537Y-63963D01*
X93100Y-63780D01*
X93283Y-64343D01*
X92720Y-64525D01*
X92720Y-64525D01*
G37*
G36*
X93505Y-64270D02*
X93323Y-63708D01*
X93885Y-63525D01*
X94068Y-64087D01*
X93505Y-64270D01*
X93505Y-64270D01*
G37*
G54D29*
X88022Y-48128D03*
X88022Y-47928D03*
X88022Y-48328D03*
X88022Y-48528D03*
X89162Y-48128D03*
X89162Y-47928D03*
X89162Y-48328D03*
X89162Y-48528D03*
G54D30*
X88482Y-48808D03*
X88682Y-48808D03*
X88862Y-48808D03*
X88302Y-48808D03*
X88862Y-47628D03*
X88682Y-47628D03*
X88482Y-47628D03*
X88302Y-47628D03*
G54D31*
X96700Y-62100D03*
X96700Y-60900D03*
G54D32*
X85950Y-50800D03*
X87150Y-50800D03*
G54D31*
X93800Y-60900D03*
X93800Y-62100D03*
G54D33*
X84451Y-53647D03*
X84451Y-53903D03*
X84451Y-54159D03*
X84451Y-54415D03*
X86653Y-52883D03*
X84451Y-52879D03*
X84451Y-53135D03*
X84451Y-53391D03*
X86655Y-54671D03*
X86655Y-54415D03*
X86655Y-54159D03*
X86655Y-53903D03*
X86655Y-53647D03*
X86655Y-53391D03*
X84451Y-54671D03*
X86653Y-53135D03*
X84451Y-52623D03*
X84451Y-54927D03*
X86655Y-54927D03*
X86655Y-52623D03*
X84451Y-52368D03*
X84451Y-55182D03*
X86655Y-55182D03*
X86655Y-52368D03*
X84451Y-52112D03*
X84451Y-55438D03*
X86655Y-55438D03*
X86655Y-52112D03*
G54D20*
X89550Y-50400D03*
G54D21*
X88550Y-50400D03*
G54D20*
X89550Y-51650D03*
G54D21*
X88550Y-51650D03*
G54D34*
X76000Y-56275D03*
X101150Y-56275D03*
G54D35*
X97350Y-45975D03*
X79800Y-45975D03*
G54D36*
X78668Y-56249D03*
X79698Y-55219D03*
X78384Y-57696D03*
X77313Y-58768D03*
X97837Y-56884D03*
X96807Y-55854D03*
X99285Y-57168D03*
X100357Y-58239D03*
M02*
