G04 (created by PCBNEW (2013-07-07 BZR 4022)-stable) date 2/17/2015 3:57:08 AM*
%MOIN*%
G04 Gerber Fmt 3.4, Leading zero omitted, Abs format*
%FSLAX34Y34*%
G01*
G70*
G90*
G04 APERTURE LIST*
%ADD10C,0.005*%
%ADD11C,0.00393701*%
%ADD12C,0.00787402*%
%ADD13C,0.011811*%
G04 APERTURE END LIST*
G54D10*
G54D11*
X102367Y-58653D02*
G75*
G02X92910Y-64961I-13785J10425D01*
G74*
G01*
X92913Y-64960D02*
X92125Y-64960D01*
X84251Y-64960D02*
X85039Y-64960D01*
X85039Y-61023D02*
X92125Y-61023D01*
X74797Y-58653D02*
G75*
G03X84255Y-64961I13785J10425D01*
G74*
G01*
X92125Y-61023D02*
X92125Y-64960D01*
X85039Y-61023D02*
X85039Y-64960D01*
X74803Y-58661D02*
X74803Y-45275D01*
X102362Y-45275D02*
X102362Y-58661D01*
X74803Y-45275D02*
X102362Y-45275D01*
G54D12*
X75425Y-51425D02*
X75675Y-51675D01*
X75675Y-51425D02*
X75425Y-51675D01*
X79875Y-59325D02*
X80125Y-59575D01*
X80125Y-59325D02*
X79875Y-59575D01*
X80425Y-50975D02*
X80675Y-51225D01*
X80675Y-50975D02*
X80425Y-51225D01*
X81275Y-46475D02*
X81525Y-46725D01*
X81525Y-46475D02*
X81275Y-46725D01*
X81475Y-56975D02*
X81725Y-57225D01*
X81725Y-56975D02*
X81475Y-57225D01*
X81675Y-62525D02*
X81925Y-62775D01*
X81925Y-62525D02*
X81675Y-62775D01*
X81725Y-57975D02*
X81975Y-58225D01*
X81975Y-57975D02*
X81725Y-58225D01*
X82025Y-50175D02*
X82275Y-50425D01*
X82275Y-50175D02*
X82025Y-50425D01*
X82125Y-59975D02*
X82375Y-60225D01*
X82375Y-59975D02*
X82125Y-60225D01*
X82175Y-56825D02*
X82425Y-57075D01*
X82425Y-56825D02*
X82175Y-57075D01*
X82225Y-58675D02*
X82475Y-58925D01*
X82475Y-58675D02*
X82225Y-58925D01*
X82575Y-51325D02*
X82825Y-51575D01*
X82825Y-51325D02*
X82575Y-51575D01*
X82575Y-56075D02*
X82825Y-56325D01*
X82825Y-56075D02*
X82575Y-56325D01*
X83125Y-56825D02*
X83375Y-57075D01*
X83375Y-56825D02*
X83125Y-57075D01*
X83175Y-48525D02*
X83425Y-48775D01*
X83425Y-48525D02*
X83175Y-48775D01*
X83425Y-62425D02*
X83675Y-62675D01*
X83675Y-62425D02*
X83425Y-62675D01*
X83625Y-59325D02*
X83875Y-59575D01*
X83875Y-59325D02*
X83625Y-59575D01*
X84025Y-48925D02*
X84275Y-49175D01*
X84275Y-48925D02*
X84025Y-49175D01*
X84125Y-60575D02*
X84375Y-60825D01*
X84375Y-60575D02*
X84125Y-60825D01*
X84325Y-58525D02*
X84575Y-58775D01*
X84575Y-58525D02*
X84325Y-58775D01*
X84625Y-57175D02*
X84875Y-57425D01*
X84875Y-57175D02*
X84625Y-57425D01*
X84775Y-51475D02*
X85025Y-51725D01*
X85025Y-51475D02*
X84775Y-51725D01*
X84975Y-49975D02*
X85225Y-50225D01*
X85225Y-49975D02*
X84975Y-50225D01*
X85075Y-57025D02*
X85325Y-57275D01*
X85325Y-57025D02*
X85075Y-57275D01*
X85125Y-52375D02*
X85375Y-52625D01*
X85375Y-52375D02*
X85125Y-52625D01*
X85175Y-46575D02*
X85425Y-46825D01*
X85425Y-46575D02*
X85175Y-46825D01*
X85375Y-49275D02*
X85625Y-49525D01*
X85625Y-49275D02*
X85375Y-49525D01*
X85425Y-53825D02*
X85675Y-54075D01*
X85675Y-53825D02*
X85425Y-54075D01*
X85475Y-51475D02*
X85725Y-51725D01*
X85725Y-51475D02*
X85475Y-51725D01*
X85625Y-59175D02*
X85875Y-59425D01*
X85875Y-59175D02*
X85625Y-59425D01*
X85775Y-52375D02*
X86025Y-52625D01*
X86025Y-52375D02*
X85775Y-52625D01*
X86025Y-59975D02*
X86275Y-60225D01*
X86275Y-59975D02*
X86025Y-60225D01*
X86525Y-49675D02*
X86775Y-49925D01*
X86775Y-49675D02*
X86525Y-49925D01*
X87075Y-49375D02*
X87325Y-49625D01*
X87325Y-49375D02*
X87075Y-49625D01*
X87325Y-51425D02*
X87575Y-51675D01*
X87575Y-51425D02*
X87325Y-51675D01*
X87325Y-57975D02*
X87575Y-58225D01*
X87575Y-57975D02*
X87325Y-58225D01*
X88375Y-48025D02*
X88625Y-48275D01*
X88625Y-48025D02*
X88375Y-48275D01*
X88575Y-60175D02*
X88825Y-60425D01*
X88825Y-60175D02*
X88575Y-60425D01*
X89125Y-53425D02*
X89375Y-53675D01*
X89375Y-53425D02*
X89125Y-53675D01*
X89475Y-52175D02*
X89725Y-52425D01*
X89725Y-52175D02*
X89475Y-52425D01*
X89475Y-55325D02*
X89725Y-55575D01*
X89725Y-55325D02*
X89475Y-55575D01*
X89525Y-48275D02*
X89775Y-48525D01*
X89775Y-48275D02*
X89525Y-48525D01*
X89575Y-49225D02*
X89825Y-49475D01*
X89825Y-49225D02*
X89575Y-49475D01*
X89975Y-53825D02*
X90225Y-54075D01*
X90225Y-53825D02*
X89975Y-54075D01*
X90425Y-55575D02*
X90675Y-55825D01*
X90675Y-55575D02*
X90425Y-55825D01*
X90575Y-58475D02*
X90825Y-58725D01*
X90825Y-58475D02*
X90575Y-58725D01*
X90625Y-52125D02*
X90875Y-52375D01*
X90875Y-52125D02*
X90625Y-52375D01*
X90675Y-54475D02*
X90925Y-54725D01*
X90925Y-54475D02*
X90675Y-54725D01*
X90925Y-55175D02*
X91175Y-55425D01*
X91175Y-55175D02*
X90925Y-55425D01*
X91225Y-52125D02*
X91475Y-52375D01*
X91475Y-52125D02*
X91225Y-52375D01*
X91575Y-52375D02*
X91825Y-52625D01*
X91825Y-52375D02*
X91575Y-52625D01*
X91625Y-47725D02*
X91875Y-47975D01*
X91875Y-47725D02*
X91625Y-47975D01*
X91975Y-55775D02*
X92225Y-56025D01*
X92225Y-55775D02*
X91975Y-56025D01*
X92325Y-51325D02*
X92575Y-51575D01*
X92575Y-51325D02*
X92325Y-51575D01*
X92375Y-49225D02*
X92625Y-49475D01*
X92625Y-49225D02*
X92375Y-49475D01*
X92525Y-52275D02*
X92775Y-52525D01*
X92775Y-52275D02*
X92525Y-52525D01*
X92575Y-60875D02*
X92825Y-61125D01*
X92825Y-60875D02*
X92575Y-61125D01*
X92925Y-50175D02*
X93175Y-50425D01*
X93175Y-50175D02*
X92925Y-50425D01*
X93625Y-47875D02*
X93875Y-48125D01*
X93875Y-47875D02*
X93625Y-48125D01*
X94025Y-47475D02*
X94275Y-47725D01*
X94275Y-47475D02*
X94025Y-47725D01*
X94025Y-54875D02*
X94275Y-55125D01*
X94275Y-54875D02*
X94025Y-55125D01*
X94075Y-52525D02*
X94325Y-52775D01*
X94325Y-52525D02*
X94075Y-52775D01*
X94225Y-50175D02*
X94475Y-50425D01*
X94475Y-50175D02*
X94225Y-50425D01*
X94425Y-58975D02*
X94675Y-59225D01*
X94675Y-58975D02*
X94425Y-59225D01*
X94575Y-59975D02*
X94825Y-60225D01*
X94825Y-59975D02*
X94575Y-60225D01*
X94725Y-49475D02*
X94975Y-49725D01*
X94975Y-49475D02*
X94725Y-49725D01*
X95025Y-54875D02*
X95275Y-55125D01*
X95275Y-54875D02*
X95025Y-55125D01*
X95075Y-59225D02*
X95325Y-59475D01*
X95325Y-59225D02*
X95075Y-59475D01*
X95275Y-50325D02*
X95525Y-50575D01*
X95525Y-50325D02*
X95275Y-50575D01*
X95375Y-51625D02*
X95625Y-51875D01*
X95625Y-51625D02*
X95375Y-51875D01*
X95375Y-55875D02*
X95625Y-56125D01*
X95625Y-55875D02*
X95375Y-56125D01*
X95575Y-48725D02*
X95825Y-48975D01*
X95825Y-48725D02*
X95575Y-48975D01*
X95775Y-59825D02*
X96025Y-60075D01*
X96025Y-59825D02*
X95775Y-60075D01*
X95875Y-49375D02*
X96125Y-49625D01*
X96125Y-49375D02*
X95875Y-49625D01*
X96075Y-51175D02*
X96325Y-51425D01*
X96325Y-51175D02*
X96075Y-51425D01*
X96125Y-50675D02*
X96375Y-50925D01*
X96375Y-50675D02*
X96125Y-50925D01*
X96275Y-49675D02*
X96525Y-49925D01*
X96525Y-49675D02*
X96275Y-49925D01*
X96425Y-52725D02*
X96675Y-52975D01*
X96675Y-52725D02*
X96425Y-52975D01*
X96675Y-47575D02*
X96925Y-47825D01*
X96925Y-47575D02*
X96675Y-47825D01*
X96775Y-50425D02*
X97025Y-50675D01*
X97025Y-50425D02*
X96775Y-50675D01*
X96975Y-48275D02*
X97225Y-48525D01*
X97225Y-48275D02*
X96975Y-48525D01*
X97525Y-61625D02*
X97775Y-61875D01*
X97775Y-61625D02*
X97525Y-61875D01*
X97725Y-51825D02*
X97975Y-52075D01*
X97975Y-51825D02*
X97725Y-52075D01*
X97825Y-48975D02*
X98075Y-49225D01*
X98075Y-48975D02*
X97825Y-49225D01*
X97975Y-51025D02*
X98225Y-51275D01*
X98225Y-51025D02*
X97975Y-51275D01*
X97975Y-58475D02*
X98225Y-58725D01*
X98225Y-58475D02*
X97975Y-58725D01*
X98275Y-48975D02*
X98525Y-49225D01*
X98525Y-48975D02*
X98275Y-49225D01*
X98975Y-45675D02*
X99225Y-45925D01*
X99225Y-45675D02*
X98975Y-45925D01*
X98975Y-60825D02*
X99225Y-61075D01*
X99225Y-60825D02*
X98975Y-61075D01*
X99175Y-58525D02*
X99425Y-58775D01*
X99425Y-58525D02*
X99175Y-58775D01*
X99425Y-50725D02*
X99675Y-50975D01*
X99675Y-50725D02*
X99425Y-50975D01*
X99775Y-48825D02*
X100025Y-49075D01*
X100025Y-48825D02*
X99775Y-49075D01*
X99925Y-45625D02*
X100175Y-45875D01*
X100175Y-45625D02*
X99925Y-45875D01*
X100225Y-49075D02*
X100475Y-49325D01*
X100475Y-49075D02*
X100225Y-49325D01*
X100525Y-50725D02*
X100775Y-50975D01*
X100775Y-50725D02*
X100525Y-50975D01*
X100675Y-48825D02*
X100925Y-49075D01*
X100925Y-48825D02*
X100675Y-49075D01*
X101025Y-52325D02*
X101275Y-52575D01*
X101275Y-52325D02*
X101025Y-52575D01*
X101725Y-47875D02*
X101975Y-48125D01*
X101975Y-47875D02*
X101725Y-48125D01*
X77210Y-46250D02*
G75*
G03X77210Y-46250I-160J0D01*
G74*
G01*
X77210Y-47250D02*
G75*
G03X77210Y-47250I-160J0D01*
G74*
G01*
X80460Y-48500D02*
G75*
G03X80460Y-48500I-160J0D01*
G74*
G01*
X81460Y-48500D02*
G75*
G03X81460Y-48500I-160J0D01*
G74*
G01*
X85660Y-47550D02*
G75*
G03X85660Y-47550I-160J0D01*
G74*
G01*
X85660Y-48550D02*
G75*
G03X85660Y-48550I-160J0D01*
G74*
G01*
X86213Y-46025D02*
G75*
G03X86213Y-46025I-160J0D01*
G74*
G01*
X87213Y-46025D02*
G75*
G03X87213Y-46025I-160J0D01*
G74*
G01*
X88213Y-46025D02*
G75*
G03X88213Y-46025I-160J0D01*
G74*
G01*
X88710Y-50400D02*
G75*
G03X88710Y-50400I-160J0D01*
G74*
G01*
X88710Y-51650D02*
G75*
G03X88710Y-51650I-160J0D01*
G74*
G01*
X89213Y-46025D02*
G75*
G03X89213Y-46025I-160J0D01*
G74*
G01*
X89710Y-50400D02*
G75*
G03X89710Y-50400I-160J0D01*
G74*
G01*
X89710Y-51650D02*
G75*
G03X89710Y-51650I-160J0D01*
G74*
G01*
X90213Y-46025D02*
G75*
G03X90213Y-46025I-160J0D01*
G74*
G01*
X90810Y-47071D02*
G75*
G03X90810Y-47071I-160J0D01*
G74*
G01*
X90810Y-53571D02*
G75*
G03X90810Y-53571I-160J0D01*
G74*
G01*
X91213Y-46025D02*
G75*
G03X91213Y-46025I-160J0D01*
G74*
G01*
X91810Y-47071D02*
G75*
G03X91810Y-47071I-160J0D01*
G74*
G01*
X91810Y-53571D02*
G75*
G03X91810Y-53571I-160J0D01*
G74*
G01*
X92810Y-47071D02*
G75*
G03X92810Y-47071I-160J0D01*
G74*
G01*
X92810Y-53571D02*
G75*
G03X92810Y-53571I-160J0D01*
G74*
G01*
X93810Y-47071D02*
G75*
G03X93810Y-47071I-160J0D01*
G74*
G01*
X93810Y-53571D02*
G75*
G03X93810Y-53571I-160J0D01*
G74*
G01*
X94810Y-47071D02*
G75*
G03X94810Y-47071I-160J0D01*
G74*
G01*
X94810Y-53571D02*
G75*
G03X94810Y-53571I-160J0D01*
G74*
G01*
X95810Y-47071D02*
G75*
G03X95810Y-47071I-160J0D01*
G74*
G01*
X95810Y-53571D02*
G75*
G03X95810Y-53571I-160J0D01*
G74*
G01*
X96810Y-47071D02*
G75*
G03X96810Y-47071I-160J0D01*
G74*
G01*
X96810Y-53571D02*
G75*
G03X96810Y-53571I-160J0D01*
G74*
G01*
X97810Y-47071D02*
G75*
G03X97810Y-47071I-160J0D01*
G74*
G01*
X97810Y-53571D02*
G75*
G03X97810Y-53571I-160J0D01*
G74*
G01*
X98810Y-47071D02*
G75*
G03X98810Y-47071I-160J0D01*
G74*
G01*
X98810Y-53571D02*
G75*
G03X98810Y-53571I-160J0D01*
G74*
G01*
X99810Y-47071D02*
G75*
G03X99810Y-47071I-160J0D01*
G74*
G01*
X99810Y-53571D02*
G75*
G03X99810Y-53571I-160J0D01*
G74*
G01*
X100810Y-47071D02*
G75*
G03X100810Y-47071I-160J0D01*
G74*
G01*
X100810Y-53571D02*
G75*
G03X100810Y-53571I-160J0D01*
G74*
G01*
X101810Y-49600D02*
G75*
G03X101810Y-49600I-160J0D01*
G74*
G01*
X101810Y-50600D02*
G75*
G03X101810Y-50600I-160J0D01*
G74*
G01*
X101810Y-47071D02*
G75*
G03X101810Y-47071I-160J0D01*
G74*
G01*
X101810Y-53571D02*
G75*
G03X101810Y-53571I-160J0D01*
G74*
G01*
X92987Y-56435D02*
X92987Y-56789D01*
X92809Y-56612D02*
X93164Y-56612D01*
X92987Y-58010D02*
X92987Y-58364D01*
X92809Y-58187D02*
X93164Y-58187D01*
X77194Y-48417D02*
X77194Y-48134D01*
X76911Y-48134D01*
X76911Y-48417D01*
X77194Y-48417D01*
X77194Y-49417D02*
X77194Y-49134D01*
X76911Y-49134D01*
X76911Y-49417D01*
X77194Y-49417D01*
X77194Y-50417D02*
X77194Y-50134D01*
X76911Y-50134D01*
X76911Y-50417D01*
X77194Y-50417D01*
X77194Y-51417D02*
X77194Y-51134D01*
X76911Y-51134D01*
X76911Y-51417D01*
X77194Y-51417D01*
X78194Y-48417D02*
X78194Y-48134D01*
X77911Y-48134D01*
X77911Y-48417D01*
X78194Y-48417D01*
X78194Y-49417D02*
X78194Y-49134D01*
X77911Y-49134D01*
X77911Y-49417D01*
X78194Y-49417D01*
X78194Y-50417D02*
X78194Y-50134D01*
X77911Y-50134D01*
X77911Y-50417D01*
X78194Y-50417D01*
X78194Y-51417D02*
X78194Y-51134D01*
X77911Y-51134D01*
X77911Y-51417D01*
X78194Y-51417D01*
X79194Y-48417D02*
X79194Y-48134D01*
X78911Y-48134D01*
X78911Y-48417D01*
X79194Y-48417D01*
X79194Y-49417D02*
X79194Y-49134D01*
X78911Y-49134D01*
X78911Y-49417D01*
X79194Y-49417D01*
X79194Y-50417D02*
X79194Y-50134D01*
X78911Y-50134D01*
X78911Y-50417D01*
X79194Y-50417D01*
X79194Y-51417D02*
X79194Y-51134D01*
X78911Y-51134D01*
X78911Y-51417D01*
X79194Y-51417D01*
X77313Y-58969D02*
X77513Y-58768D01*
X77313Y-58567D01*
X77112Y-58768D01*
X77313Y-58969D01*
X78384Y-57897D02*
X78585Y-57696D01*
X78384Y-57496D01*
X78184Y-57696D01*
X78384Y-57897D01*
X78668Y-56450D02*
X78869Y-56249D01*
X78668Y-56048D01*
X78468Y-56249D01*
X78668Y-56450D01*
X79698Y-55420D02*
X79899Y-55219D01*
X79698Y-55018D01*
X79498Y-55219D01*
X79698Y-55420D01*
X96807Y-56054D02*
X97008Y-55854D01*
X96807Y-55653D01*
X96607Y-55854D01*
X96807Y-56054D01*
X97837Y-57085D02*
X98038Y-56884D01*
X97837Y-56683D01*
X97637Y-56884D01*
X97837Y-57085D01*
X99285Y-57368D02*
X99486Y-57168D01*
X99285Y-56967D01*
X99084Y-57168D01*
X99285Y-57368D01*
X100357Y-58440D02*
X100558Y-58239D01*
X100357Y-58039D01*
X100156Y-58239D01*
X100357Y-58440D01*
X75547Y-55822D02*
X76452Y-56727D01*
X76452Y-55822D02*
X75547Y-56727D01*
X76452Y-56275D02*
G75*
G03X76452Y-56275I-452J0D01*
G74*
G01*
X79347Y-45522D02*
X80252Y-46427D01*
X80252Y-45522D02*
X79347Y-46427D01*
X80252Y-45975D02*
G75*
G03X80252Y-45975I-452J0D01*
G74*
G01*
X96897Y-45522D02*
X97802Y-46427D01*
X97802Y-45522D02*
X96897Y-46427D01*
X97802Y-45975D02*
G75*
G03X97802Y-45975I-452J0D01*
G74*
G01*
X100697Y-55822D02*
X101602Y-56727D01*
X101602Y-55822D02*
X100697Y-56727D01*
X101602Y-56275D02*
G75*
G03X101602Y-56275I-452J0D01*
G74*
G01*
G54D13*
X75844Y-66757D02*
X75844Y-65576D01*
X76125Y-65576D01*
X76294Y-65632D01*
X76406Y-65745D01*
X76463Y-65857D01*
X76519Y-66082D01*
X76519Y-66251D01*
X76463Y-66476D01*
X76406Y-66588D01*
X76294Y-66701D01*
X76125Y-66757D01*
X75844Y-66757D01*
X77025Y-66757D02*
X77025Y-65970D01*
X77025Y-66195D02*
X77081Y-66082D01*
X77138Y-66026D01*
X77250Y-65970D01*
X77362Y-65970D01*
X77756Y-66757D02*
X77756Y-65970D01*
X77756Y-65576D02*
X77700Y-65632D01*
X77756Y-65688D01*
X77812Y-65632D01*
X77756Y-65576D01*
X77756Y-65688D01*
X78487Y-66757D02*
X78375Y-66701D01*
X78319Y-66588D01*
X78319Y-65576D01*
X79106Y-66757D02*
X78994Y-66701D01*
X78937Y-66588D01*
X78937Y-65576D01*
X80456Y-66757D02*
X80456Y-65576D01*
X80850Y-66420D01*
X81243Y-65576D01*
X81243Y-66757D01*
X82312Y-66757D02*
X82312Y-66138D01*
X82256Y-66026D01*
X82143Y-65970D01*
X81918Y-65970D01*
X81806Y-66026D01*
X82312Y-66701D02*
X82199Y-66757D01*
X81918Y-66757D01*
X81806Y-66701D01*
X81749Y-66588D01*
X81749Y-66476D01*
X81806Y-66363D01*
X81918Y-66307D01*
X82199Y-66307D01*
X82312Y-66251D01*
X82874Y-65970D02*
X82874Y-67151D01*
X82874Y-66026D02*
X82987Y-65970D01*
X83212Y-65970D01*
X83324Y-66026D01*
X83380Y-66082D01*
X83437Y-66195D01*
X83437Y-66532D01*
X83380Y-66645D01*
X83324Y-66701D01*
X83212Y-66757D01*
X82987Y-66757D01*
X82874Y-66701D01*
X83943Y-66645D02*
X83999Y-66701D01*
X83943Y-66757D01*
X83887Y-66701D01*
X83943Y-66645D01*
X83943Y-66757D01*
X83943Y-66026D02*
X83999Y-66082D01*
X83943Y-66138D01*
X83887Y-66082D01*
X83943Y-66026D01*
X83943Y-66138D01*
X74525Y-68634D02*
X74775Y-68884D01*
X74775Y-68634D02*
X74525Y-68884D01*
X76069Y-68056D02*
X76181Y-68056D01*
X76294Y-68113D01*
X76350Y-68169D01*
X76406Y-68281D01*
X76463Y-68506D01*
X76463Y-68787D01*
X76406Y-69012D01*
X76350Y-69125D01*
X76294Y-69181D01*
X76181Y-69237D01*
X76069Y-69237D01*
X75956Y-69181D01*
X75900Y-69125D01*
X75844Y-69012D01*
X75788Y-68787D01*
X75788Y-68506D01*
X75844Y-68281D01*
X75900Y-68169D01*
X75956Y-68113D01*
X76069Y-68056D01*
X76969Y-69125D02*
X77025Y-69181D01*
X76969Y-69237D01*
X76913Y-69181D01*
X76969Y-69125D01*
X76969Y-69237D01*
X78037Y-68056D02*
X77812Y-68056D01*
X77700Y-68113D01*
X77644Y-68169D01*
X77531Y-68338D01*
X77475Y-68562D01*
X77475Y-69012D01*
X77531Y-69125D01*
X77587Y-69181D01*
X77700Y-69237D01*
X77925Y-69237D01*
X78037Y-69181D01*
X78094Y-69125D01*
X78150Y-69012D01*
X78150Y-68731D01*
X78094Y-68619D01*
X78037Y-68562D01*
X77925Y-68506D01*
X77700Y-68506D01*
X77587Y-68562D01*
X77531Y-68619D01*
X77475Y-68731D01*
X79162Y-68450D02*
X79162Y-69237D01*
X78881Y-68000D02*
X78600Y-68844D01*
X79331Y-68844D01*
X79781Y-69237D02*
X79781Y-68450D01*
X79781Y-68562D02*
X79837Y-68506D01*
X79950Y-68450D01*
X80118Y-68450D01*
X80231Y-68506D01*
X80287Y-68619D01*
X80287Y-69237D01*
X80287Y-68619D02*
X80343Y-68506D01*
X80456Y-68450D01*
X80625Y-68450D01*
X80737Y-68506D01*
X80793Y-68619D01*
X80793Y-69237D01*
X81356Y-69237D02*
X81356Y-68450D01*
X81356Y-68562D02*
X81412Y-68506D01*
X81524Y-68450D01*
X81693Y-68450D01*
X81806Y-68506D01*
X81862Y-68619D01*
X81862Y-69237D01*
X81862Y-68619D02*
X81918Y-68506D01*
X82031Y-68450D01*
X82199Y-68450D01*
X82312Y-68506D01*
X82368Y-68619D01*
X82368Y-69237D01*
X84674Y-68000D02*
X83662Y-69519D01*
X86193Y-68056D02*
X86305Y-68056D01*
X86418Y-68113D01*
X86474Y-68169D01*
X86530Y-68281D01*
X86586Y-68506D01*
X86586Y-68787D01*
X86530Y-69012D01*
X86474Y-69125D01*
X86418Y-69181D01*
X86305Y-69237D01*
X86193Y-69237D01*
X86080Y-69181D01*
X86024Y-69125D01*
X85968Y-69012D01*
X85911Y-68787D01*
X85911Y-68506D01*
X85968Y-68281D01*
X86024Y-68169D01*
X86080Y-68113D01*
X86193Y-68056D01*
X87093Y-69125D02*
X87149Y-69181D01*
X87093Y-69237D01*
X87036Y-69181D01*
X87093Y-69125D01*
X87093Y-69237D01*
X87880Y-68056D02*
X87992Y-68056D01*
X88105Y-68113D01*
X88161Y-68169D01*
X88217Y-68281D01*
X88274Y-68506D01*
X88274Y-68787D01*
X88217Y-69012D01*
X88161Y-69125D01*
X88105Y-69181D01*
X87992Y-69237D01*
X87880Y-69237D01*
X87767Y-69181D01*
X87711Y-69125D01*
X87655Y-69012D01*
X87599Y-68787D01*
X87599Y-68506D01*
X87655Y-68281D01*
X87711Y-68169D01*
X87767Y-68113D01*
X87880Y-68056D01*
X88724Y-68169D02*
X88780Y-68113D01*
X88892Y-68056D01*
X89174Y-68056D01*
X89286Y-68113D01*
X89342Y-68169D01*
X89398Y-68281D01*
X89398Y-68394D01*
X89342Y-68562D01*
X88667Y-69237D01*
X89398Y-69237D01*
X90467Y-68056D02*
X89905Y-68056D01*
X89848Y-68619D01*
X89905Y-68562D01*
X90017Y-68506D01*
X90298Y-68506D01*
X90411Y-68562D01*
X90467Y-68619D01*
X90523Y-68731D01*
X90523Y-69012D01*
X90467Y-69125D01*
X90411Y-69181D01*
X90298Y-69237D01*
X90017Y-69237D01*
X89905Y-69181D01*
X89848Y-69125D01*
X90973Y-68056D02*
X90973Y-68281D01*
X91423Y-68056D02*
X91423Y-68281D01*
X93167Y-69687D02*
X93111Y-69631D01*
X92998Y-69462D01*
X92942Y-69350D01*
X92886Y-69181D01*
X92829Y-68900D01*
X92829Y-68675D01*
X92886Y-68394D01*
X92942Y-68225D01*
X92998Y-68113D01*
X93111Y-67944D01*
X93167Y-67888D01*
X93673Y-69237D02*
X93898Y-69237D01*
X94010Y-69181D01*
X94067Y-69125D01*
X94179Y-68956D01*
X94235Y-68731D01*
X94235Y-68281D01*
X94179Y-68169D01*
X94123Y-68113D01*
X94010Y-68056D01*
X93785Y-68056D01*
X93673Y-68113D01*
X93617Y-68169D01*
X93560Y-68281D01*
X93560Y-68562D01*
X93617Y-68675D01*
X93673Y-68731D01*
X93785Y-68787D01*
X94010Y-68787D01*
X94123Y-68731D01*
X94179Y-68675D01*
X94235Y-68562D01*
X94910Y-68562D02*
X94798Y-68506D01*
X94742Y-68450D01*
X94685Y-68338D01*
X94685Y-68281D01*
X94742Y-68169D01*
X94798Y-68113D01*
X94910Y-68056D01*
X95135Y-68056D01*
X95248Y-68113D01*
X95304Y-68169D01*
X95360Y-68281D01*
X95360Y-68338D01*
X95304Y-68450D01*
X95248Y-68506D01*
X95135Y-68562D01*
X94910Y-68562D01*
X94798Y-68619D01*
X94742Y-68675D01*
X94685Y-68787D01*
X94685Y-69012D01*
X94742Y-69125D01*
X94798Y-69181D01*
X94910Y-69237D01*
X95135Y-69237D01*
X95248Y-69181D01*
X95304Y-69125D01*
X95360Y-69012D01*
X95360Y-68787D01*
X95304Y-68675D01*
X95248Y-68619D01*
X95135Y-68562D01*
X96766Y-69237D02*
X96766Y-68056D01*
X97273Y-69237D02*
X97273Y-68619D01*
X97216Y-68506D01*
X97104Y-68450D01*
X96935Y-68450D01*
X96823Y-68506D01*
X96766Y-68562D01*
X98004Y-69237D02*
X97891Y-69181D01*
X97835Y-69125D01*
X97779Y-69012D01*
X97779Y-68675D01*
X97835Y-68562D01*
X97891Y-68506D01*
X98004Y-68450D01*
X98172Y-68450D01*
X98285Y-68506D01*
X98341Y-68562D01*
X98397Y-68675D01*
X98397Y-69012D01*
X98341Y-69125D01*
X98285Y-69181D01*
X98172Y-69237D01*
X98004Y-69237D01*
X99072Y-69237D02*
X98960Y-69181D01*
X98904Y-69069D01*
X98904Y-68056D01*
X99972Y-69181D02*
X99860Y-69237D01*
X99635Y-69237D01*
X99522Y-69181D01*
X99466Y-69069D01*
X99466Y-68619D01*
X99522Y-68506D01*
X99635Y-68450D01*
X99860Y-68450D01*
X99972Y-68506D01*
X100028Y-68619D01*
X100028Y-68731D01*
X99466Y-68844D01*
X100478Y-69181D02*
X100591Y-69237D01*
X100816Y-69237D01*
X100928Y-69181D01*
X100985Y-69069D01*
X100985Y-69012D01*
X100928Y-68900D01*
X100816Y-68844D01*
X100647Y-68844D01*
X100535Y-68787D01*
X100478Y-68675D01*
X100478Y-68619D01*
X100535Y-68506D01*
X100647Y-68450D01*
X100816Y-68450D01*
X100928Y-68506D01*
X101378Y-69687D02*
X101434Y-69631D01*
X101547Y-69462D01*
X101603Y-69350D01*
X101659Y-69181D01*
X101716Y-68900D01*
X101716Y-68675D01*
X101659Y-68394D01*
X101603Y-68225D01*
X101547Y-68113D01*
X101434Y-67944D01*
X101378Y-67888D01*
G54D12*
X74775Y-70318D02*
G75*
G03X74775Y-70318I-160J0D01*
G74*
G01*
G54D13*
X76069Y-69615D02*
X76181Y-69615D01*
X76294Y-69672D01*
X76350Y-69728D01*
X76406Y-69840D01*
X76463Y-70065D01*
X76463Y-70347D01*
X76406Y-70571D01*
X76350Y-70684D01*
X76294Y-70740D01*
X76181Y-70796D01*
X76069Y-70796D01*
X75956Y-70740D01*
X75900Y-70684D01*
X75844Y-70571D01*
X75788Y-70347D01*
X75788Y-70065D01*
X75844Y-69840D01*
X75900Y-69728D01*
X75956Y-69672D01*
X76069Y-69615D01*
X76969Y-70684D02*
X77025Y-70740D01*
X76969Y-70796D01*
X76913Y-70740D01*
X76969Y-70684D01*
X76969Y-70796D01*
X77700Y-70122D02*
X77587Y-70065D01*
X77531Y-70009D01*
X77475Y-69897D01*
X77475Y-69840D01*
X77531Y-69728D01*
X77587Y-69672D01*
X77700Y-69615D01*
X77925Y-69615D01*
X78037Y-69672D01*
X78094Y-69728D01*
X78150Y-69840D01*
X78150Y-69897D01*
X78094Y-70009D01*
X78037Y-70065D01*
X77925Y-70122D01*
X77700Y-70122D01*
X77587Y-70178D01*
X77531Y-70234D01*
X77475Y-70347D01*
X77475Y-70571D01*
X77531Y-70684D01*
X77587Y-70740D01*
X77700Y-70796D01*
X77925Y-70796D01*
X78037Y-70740D01*
X78094Y-70684D01*
X78150Y-70571D01*
X78150Y-70347D01*
X78094Y-70234D01*
X78037Y-70178D01*
X77925Y-70122D01*
X79275Y-70796D02*
X78600Y-70796D01*
X78937Y-70796D02*
X78937Y-69615D01*
X78825Y-69784D01*
X78712Y-69897D01*
X78600Y-69953D01*
X79781Y-70796D02*
X79781Y-70009D01*
X79781Y-70122D02*
X79837Y-70065D01*
X79950Y-70009D01*
X80118Y-70009D01*
X80231Y-70065D01*
X80287Y-70178D01*
X80287Y-70796D01*
X80287Y-70178D02*
X80343Y-70065D01*
X80456Y-70009D01*
X80625Y-70009D01*
X80737Y-70065D01*
X80793Y-70178D01*
X80793Y-70796D01*
X81356Y-70796D02*
X81356Y-70009D01*
X81356Y-70122D02*
X81412Y-70065D01*
X81524Y-70009D01*
X81693Y-70009D01*
X81806Y-70065D01*
X81862Y-70178D01*
X81862Y-70796D01*
X81862Y-70178D02*
X81918Y-70065D01*
X82031Y-70009D01*
X82199Y-70009D01*
X82312Y-70065D01*
X82368Y-70178D01*
X82368Y-70796D01*
X84674Y-69559D02*
X83662Y-71078D01*
X86193Y-69615D02*
X86305Y-69615D01*
X86418Y-69672D01*
X86474Y-69728D01*
X86530Y-69840D01*
X86586Y-70065D01*
X86586Y-70347D01*
X86530Y-70571D01*
X86474Y-70684D01*
X86418Y-70740D01*
X86305Y-70796D01*
X86193Y-70796D01*
X86080Y-70740D01*
X86024Y-70684D01*
X85968Y-70571D01*
X85911Y-70347D01*
X85911Y-70065D01*
X85968Y-69840D01*
X86024Y-69728D01*
X86080Y-69672D01*
X86193Y-69615D01*
X87093Y-70684D02*
X87149Y-70740D01*
X87093Y-70796D01*
X87036Y-70740D01*
X87093Y-70684D01*
X87093Y-70796D01*
X87880Y-69615D02*
X87992Y-69615D01*
X88105Y-69672D01*
X88161Y-69728D01*
X88217Y-69840D01*
X88274Y-70065D01*
X88274Y-70347D01*
X88217Y-70571D01*
X88161Y-70684D01*
X88105Y-70740D01*
X87992Y-70796D01*
X87880Y-70796D01*
X87767Y-70740D01*
X87711Y-70684D01*
X87655Y-70571D01*
X87599Y-70347D01*
X87599Y-70065D01*
X87655Y-69840D01*
X87711Y-69728D01*
X87767Y-69672D01*
X87880Y-69615D01*
X88667Y-69615D02*
X89398Y-69615D01*
X89005Y-70065D01*
X89174Y-70065D01*
X89286Y-70122D01*
X89342Y-70178D01*
X89398Y-70290D01*
X89398Y-70571D01*
X89342Y-70684D01*
X89286Y-70740D01*
X89174Y-70796D01*
X88836Y-70796D01*
X88724Y-70740D01*
X88667Y-70684D01*
X89848Y-69728D02*
X89905Y-69672D01*
X90017Y-69615D01*
X90298Y-69615D01*
X90411Y-69672D01*
X90467Y-69728D01*
X90523Y-69840D01*
X90523Y-69953D01*
X90467Y-70122D01*
X89792Y-70796D01*
X90523Y-70796D01*
X90973Y-69615D02*
X90973Y-69840D01*
X91423Y-69615D02*
X91423Y-69840D01*
X93167Y-71246D02*
X93111Y-71190D01*
X92998Y-71021D01*
X92942Y-70909D01*
X92886Y-70740D01*
X92829Y-70459D01*
X92829Y-70234D01*
X92886Y-69953D01*
X92942Y-69784D01*
X92998Y-69672D01*
X93111Y-69503D01*
X93167Y-69447D01*
X94123Y-70009D02*
X94123Y-70796D01*
X93842Y-69559D02*
X93560Y-70403D01*
X94292Y-70403D01*
X94685Y-69728D02*
X94742Y-69672D01*
X94854Y-69615D01*
X95135Y-69615D01*
X95248Y-69672D01*
X95304Y-69728D01*
X95360Y-69840D01*
X95360Y-69953D01*
X95304Y-70122D01*
X94629Y-70796D01*
X95360Y-70796D01*
X96766Y-70796D02*
X96766Y-69615D01*
X97273Y-70796D02*
X97273Y-70178D01*
X97216Y-70065D01*
X97104Y-70009D01*
X96935Y-70009D01*
X96823Y-70065D01*
X96766Y-70122D01*
X98004Y-70796D02*
X97891Y-70740D01*
X97835Y-70684D01*
X97779Y-70571D01*
X97779Y-70234D01*
X97835Y-70122D01*
X97891Y-70065D01*
X98004Y-70009D01*
X98172Y-70009D01*
X98285Y-70065D01*
X98341Y-70122D01*
X98397Y-70234D01*
X98397Y-70571D01*
X98341Y-70684D01*
X98285Y-70740D01*
X98172Y-70796D01*
X98004Y-70796D01*
X99072Y-70796D02*
X98960Y-70740D01*
X98904Y-70628D01*
X98904Y-69615D01*
X99972Y-70740D02*
X99860Y-70796D01*
X99635Y-70796D01*
X99522Y-70740D01*
X99466Y-70628D01*
X99466Y-70178D01*
X99522Y-70065D01*
X99635Y-70009D01*
X99860Y-70009D01*
X99972Y-70065D01*
X100028Y-70178D01*
X100028Y-70290D01*
X99466Y-70403D01*
X100478Y-70740D02*
X100591Y-70796D01*
X100816Y-70796D01*
X100928Y-70740D01*
X100985Y-70628D01*
X100985Y-70571D01*
X100928Y-70459D01*
X100816Y-70403D01*
X100647Y-70403D01*
X100535Y-70347D01*
X100478Y-70234D01*
X100478Y-70178D01*
X100535Y-70065D01*
X100647Y-70009D01*
X100816Y-70009D01*
X100928Y-70065D01*
X101378Y-71246D02*
X101434Y-71190D01*
X101547Y-71021D01*
X101603Y-70909D01*
X101659Y-70740D01*
X101716Y-70459D01*
X101716Y-70234D01*
X101659Y-69953D01*
X101603Y-69784D01*
X101547Y-69672D01*
X101434Y-69503D01*
X101378Y-69447D01*
X74598Y-71700D02*
X74598Y-72055D01*
X74421Y-71877D02*
X74775Y-71877D01*
X76069Y-71174D02*
X76181Y-71174D01*
X76294Y-71231D01*
X76350Y-71287D01*
X76406Y-71399D01*
X76463Y-71624D01*
X76463Y-71906D01*
X76406Y-72131D01*
X76350Y-72243D01*
X76294Y-72299D01*
X76181Y-72356D01*
X76069Y-72356D01*
X75956Y-72299D01*
X75900Y-72243D01*
X75844Y-72131D01*
X75788Y-71906D01*
X75788Y-71624D01*
X75844Y-71399D01*
X75900Y-71287D01*
X75956Y-71231D01*
X76069Y-71174D01*
X76969Y-72243D02*
X77025Y-72299D01*
X76969Y-72356D01*
X76913Y-72299D01*
X76969Y-72243D01*
X76969Y-72356D01*
X77587Y-72356D02*
X77812Y-72356D01*
X77925Y-72299D01*
X77981Y-72243D01*
X78094Y-72074D01*
X78150Y-71849D01*
X78150Y-71399D01*
X78094Y-71287D01*
X78037Y-71231D01*
X77925Y-71174D01*
X77700Y-71174D01*
X77587Y-71231D01*
X77531Y-71287D01*
X77475Y-71399D01*
X77475Y-71681D01*
X77531Y-71793D01*
X77587Y-71849D01*
X77700Y-71906D01*
X77925Y-71906D01*
X78037Y-71849D01*
X78094Y-71793D01*
X78150Y-71681D01*
X78881Y-71174D02*
X78994Y-71174D01*
X79106Y-71231D01*
X79162Y-71287D01*
X79219Y-71399D01*
X79275Y-71624D01*
X79275Y-71906D01*
X79219Y-72131D01*
X79162Y-72243D01*
X79106Y-72299D01*
X78994Y-72356D01*
X78881Y-72356D01*
X78769Y-72299D01*
X78712Y-72243D01*
X78656Y-72131D01*
X78600Y-71906D01*
X78600Y-71624D01*
X78656Y-71399D01*
X78712Y-71287D01*
X78769Y-71231D01*
X78881Y-71174D01*
X79781Y-72356D02*
X79781Y-71568D01*
X79781Y-71681D02*
X79837Y-71624D01*
X79950Y-71568D01*
X80118Y-71568D01*
X80231Y-71624D01*
X80287Y-71737D01*
X80287Y-72356D01*
X80287Y-71737D02*
X80343Y-71624D01*
X80456Y-71568D01*
X80625Y-71568D01*
X80737Y-71624D01*
X80793Y-71737D01*
X80793Y-72356D01*
X81356Y-72356D02*
X81356Y-71568D01*
X81356Y-71681D02*
X81412Y-71624D01*
X81524Y-71568D01*
X81693Y-71568D01*
X81806Y-71624D01*
X81862Y-71737D01*
X81862Y-72356D01*
X81862Y-71737D02*
X81918Y-71624D01*
X82031Y-71568D01*
X82199Y-71568D01*
X82312Y-71624D01*
X82368Y-71737D01*
X82368Y-72356D01*
X84674Y-71118D02*
X83662Y-72637D01*
X86193Y-71174D02*
X86305Y-71174D01*
X86418Y-71231D01*
X86474Y-71287D01*
X86530Y-71399D01*
X86586Y-71624D01*
X86586Y-71906D01*
X86530Y-72131D01*
X86474Y-72243D01*
X86418Y-72299D01*
X86305Y-72356D01*
X86193Y-72356D01*
X86080Y-72299D01*
X86024Y-72243D01*
X85968Y-72131D01*
X85911Y-71906D01*
X85911Y-71624D01*
X85968Y-71399D01*
X86024Y-71287D01*
X86080Y-71231D01*
X86193Y-71174D01*
X87093Y-72243D02*
X87149Y-72299D01*
X87093Y-72356D01*
X87036Y-72299D01*
X87093Y-72243D01*
X87093Y-72356D01*
X87880Y-71174D02*
X87992Y-71174D01*
X88105Y-71231D01*
X88161Y-71287D01*
X88217Y-71399D01*
X88274Y-71624D01*
X88274Y-71906D01*
X88217Y-72131D01*
X88161Y-72243D01*
X88105Y-72299D01*
X87992Y-72356D01*
X87880Y-72356D01*
X87767Y-72299D01*
X87711Y-72243D01*
X87655Y-72131D01*
X87599Y-71906D01*
X87599Y-71624D01*
X87655Y-71399D01*
X87711Y-71287D01*
X87767Y-71231D01*
X87880Y-71174D01*
X88667Y-71174D02*
X89398Y-71174D01*
X89005Y-71624D01*
X89174Y-71624D01*
X89286Y-71681D01*
X89342Y-71737D01*
X89398Y-71849D01*
X89398Y-72131D01*
X89342Y-72243D01*
X89286Y-72299D01*
X89174Y-72356D01*
X88836Y-72356D01*
X88724Y-72299D01*
X88667Y-72243D01*
X90467Y-71174D02*
X89905Y-71174D01*
X89848Y-71737D01*
X89905Y-71681D01*
X90017Y-71624D01*
X90298Y-71624D01*
X90411Y-71681D01*
X90467Y-71737D01*
X90523Y-71849D01*
X90523Y-72131D01*
X90467Y-72243D01*
X90411Y-72299D01*
X90298Y-72356D01*
X90017Y-72356D01*
X89905Y-72299D01*
X89848Y-72243D01*
X90973Y-71174D02*
X90973Y-71399D01*
X91423Y-71174D02*
X91423Y-71399D01*
X93167Y-72805D02*
X93111Y-72749D01*
X92998Y-72580D01*
X92942Y-72468D01*
X92886Y-72299D01*
X92829Y-72018D01*
X92829Y-71793D01*
X92886Y-71512D01*
X92942Y-71343D01*
X92998Y-71231D01*
X93111Y-71062D01*
X93167Y-71006D01*
X93560Y-71287D02*
X93617Y-71231D01*
X93729Y-71174D01*
X94010Y-71174D01*
X94123Y-71231D01*
X94179Y-71287D01*
X94235Y-71399D01*
X94235Y-71512D01*
X94179Y-71681D01*
X93504Y-72356D01*
X94235Y-72356D01*
X95641Y-72356D02*
X95641Y-71174D01*
X96148Y-72356D02*
X96148Y-71737D01*
X96091Y-71624D01*
X95979Y-71568D01*
X95810Y-71568D01*
X95698Y-71624D01*
X95641Y-71681D01*
X96879Y-72356D02*
X96766Y-72299D01*
X96710Y-72243D01*
X96654Y-72131D01*
X96654Y-71793D01*
X96710Y-71681D01*
X96766Y-71624D01*
X96879Y-71568D01*
X97048Y-71568D01*
X97160Y-71624D01*
X97216Y-71681D01*
X97273Y-71793D01*
X97273Y-72131D01*
X97216Y-72243D01*
X97160Y-72299D01*
X97048Y-72356D01*
X96879Y-72356D01*
X97947Y-72356D02*
X97835Y-72299D01*
X97779Y-72187D01*
X97779Y-71174D01*
X98847Y-72299D02*
X98735Y-72356D01*
X98510Y-72356D01*
X98397Y-72299D01*
X98341Y-72187D01*
X98341Y-71737D01*
X98397Y-71624D01*
X98510Y-71568D01*
X98735Y-71568D01*
X98847Y-71624D01*
X98904Y-71737D01*
X98904Y-71849D01*
X98341Y-71962D01*
X99354Y-72299D02*
X99466Y-72356D01*
X99691Y-72356D01*
X99803Y-72299D01*
X99860Y-72187D01*
X99860Y-72131D01*
X99803Y-72018D01*
X99691Y-71962D01*
X99522Y-71962D01*
X99410Y-71906D01*
X99354Y-71793D01*
X99354Y-71737D01*
X99410Y-71624D01*
X99522Y-71568D01*
X99691Y-71568D01*
X99803Y-71624D01*
X100253Y-72805D02*
X100310Y-72749D01*
X100422Y-72580D01*
X100478Y-72468D01*
X100535Y-72299D01*
X100591Y-72018D01*
X100591Y-71793D01*
X100535Y-71512D01*
X100478Y-71343D01*
X100422Y-71231D01*
X100310Y-71062D01*
X100253Y-71006D01*
G54D12*
X74717Y-73578D02*
X74717Y-73295D01*
X74434Y-73295D01*
X74434Y-73578D01*
X74717Y-73578D01*
G54D13*
X76463Y-73915D02*
X75788Y-73915D01*
X76125Y-73915D02*
X76125Y-72733D01*
X76013Y-72902D01*
X75900Y-73015D01*
X75788Y-73071D01*
X76969Y-73802D02*
X77025Y-73858D01*
X76969Y-73915D01*
X76913Y-73858D01*
X76969Y-73802D01*
X76969Y-73915D01*
X77756Y-72733D02*
X77869Y-72733D01*
X77981Y-72790D01*
X78037Y-72846D01*
X78094Y-72958D01*
X78150Y-73183D01*
X78150Y-73465D01*
X78094Y-73690D01*
X78037Y-73802D01*
X77981Y-73858D01*
X77869Y-73915D01*
X77756Y-73915D01*
X77644Y-73858D01*
X77587Y-73802D01*
X77531Y-73690D01*
X77475Y-73465D01*
X77475Y-73183D01*
X77531Y-72958D01*
X77587Y-72846D01*
X77644Y-72790D01*
X77756Y-72733D01*
X78600Y-72846D02*
X78656Y-72790D01*
X78769Y-72733D01*
X79050Y-72733D01*
X79162Y-72790D01*
X79219Y-72846D01*
X79275Y-72958D01*
X79275Y-73071D01*
X79219Y-73240D01*
X78544Y-73915D01*
X79275Y-73915D01*
X79781Y-73915D02*
X79781Y-73127D01*
X79781Y-73240D02*
X79837Y-73183D01*
X79950Y-73127D01*
X80118Y-73127D01*
X80231Y-73183D01*
X80287Y-73296D01*
X80287Y-73915D01*
X80287Y-73296D02*
X80343Y-73183D01*
X80456Y-73127D01*
X80625Y-73127D01*
X80737Y-73183D01*
X80793Y-73296D01*
X80793Y-73915D01*
X81356Y-73915D02*
X81356Y-73127D01*
X81356Y-73240D02*
X81412Y-73183D01*
X81524Y-73127D01*
X81693Y-73127D01*
X81806Y-73183D01*
X81862Y-73296D01*
X81862Y-73915D01*
X81862Y-73296D02*
X81918Y-73183D01*
X82031Y-73127D01*
X82199Y-73127D01*
X82312Y-73183D01*
X82368Y-73296D01*
X82368Y-73915D01*
X84674Y-72677D02*
X83662Y-74196D01*
X86193Y-72733D02*
X86305Y-72733D01*
X86418Y-72790D01*
X86474Y-72846D01*
X86530Y-72958D01*
X86586Y-73183D01*
X86586Y-73465D01*
X86530Y-73690D01*
X86474Y-73802D01*
X86418Y-73858D01*
X86305Y-73915D01*
X86193Y-73915D01*
X86080Y-73858D01*
X86024Y-73802D01*
X85968Y-73690D01*
X85911Y-73465D01*
X85911Y-73183D01*
X85968Y-72958D01*
X86024Y-72846D01*
X86080Y-72790D01*
X86193Y-72733D01*
X87093Y-73802D02*
X87149Y-73858D01*
X87093Y-73915D01*
X87036Y-73858D01*
X87093Y-73802D01*
X87093Y-73915D01*
X87880Y-72733D02*
X87992Y-72733D01*
X88105Y-72790D01*
X88161Y-72846D01*
X88217Y-72958D01*
X88274Y-73183D01*
X88274Y-73465D01*
X88217Y-73690D01*
X88161Y-73802D01*
X88105Y-73858D01*
X87992Y-73915D01*
X87880Y-73915D01*
X87767Y-73858D01*
X87711Y-73802D01*
X87655Y-73690D01*
X87599Y-73465D01*
X87599Y-73183D01*
X87655Y-72958D01*
X87711Y-72846D01*
X87767Y-72790D01*
X87880Y-72733D01*
X89286Y-73127D02*
X89286Y-73915D01*
X89005Y-72677D02*
X88724Y-73521D01*
X89455Y-73521D01*
X90130Y-72733D02*
X90242Y-72733D01*
X90355Y-72790D01*
X90411Y-72846D01*
X90467Y-72958D01*
X90523Y-73183D01*
X90523Y-73465D01*
X90467Y-73690D01*
X90411Y-73802D01*
X90355Y-73858D01*
X90242Y-73915D01*
X90130Y-73915D01*
X90017Y-73858D01*
X89961Y-73802D01*
X89905Y-73690D01*
X89848Y-73465D01*
X89848Y-73183D01*
X89905Y-72958D01*
X89961Y-72846D01*
X90017Y-72790D01*
X90130Y-72733D01*
X90973Y-72733D02*
X90973Y-72958D01*
X91423Y-72733D02*
X91423Y-72958D01*
X93167Y-74365D02*
X93111Y-74308D01*
X92998Y-74140D01*
X92942Y-74027D01*
X92886Y-73858D01*
X92829Y-73577D01*
X92829Y-73352D01*
X92886Y-73071D01*
X92942Y-72902D01*
X92998Y-72790D01*
X93111Y-72621D01*
X93167Y-72565D01*
X94235Y-73915D02*
X93560Y-73915D01*
X93898Y-73915D02*
X93898Y-72733D01*
X93785Y-72902D01*
X93673Y-73015D01*
X93560Y-73071D01*
X94685Y-72846D02*
X94742Y-72790D01*
X94854Y-72733D01*
X95135Y-72733D01*
X95248Y-72790D01*
X95304Y-72846D01*
X95360Y-72958D01*
X95360Y-73071D01*
X95304Y-73240D01*
X94629Y-73915D01*
X95360Y-73915D01*
X96766Y-73915D02*
X96766Y-72733D01*
X97273Y-73915D02*
X97273Y-73296D01*
X97216Y-73183D01*
X97104Y-73127D01*
X96935Y-73127D01*
X96823Y-73183D01*
X96766Y-73240D01*
X98004Y-73915D02*
X97891Y-73858D01*
X97835Y-73802D01*
X97779Y-73690D01*
X97779Y-73352D01*
X97835Y-73240D01*
X97891Y-73183D01*
X98004Y-73127D01*
X98172Y-73127D01*
X98285Y-73183D01*
X98341Y-73240D01*
X98397Y-73352D01*
X98397Y-73690D01*
X98341Y-73802D01*
X98285Y-73858D01*
X98172Y-73915D01*
X98004Y-73915D01*
X99072Y-73915D02*
X98960Y-73858D01*
X98904Y-73746D01*
X98904Y-72733D01*
X99972Y-73858D02*
X99860Y-73915D01*
X99635Y-73915D01*
X99522Y-73858D01*
X99466Y-73746D01*
X99466Y-73296D01*
X99522Y-73183D01*
X99635Y-73127D01*
X99860Y-73127D01*
X99972Y-73183D01*
X100028Y-73296D01*
X100028Y-73408D01*
X99466Y-73521D01*
X100478Y-73858D02*
X100591Y-73915D01*
X100816Y-73915D01*
X100928Y-73858D01*
X100985Y-73746D01*
X100985Y-73690D01*
X100928Y-73577D01*
X100816Y-73521D01*
X100647Y-73521D01*
X100535Y-73465D01*
X100478Y-73352D01*
X100478Y-73296D01*
X100535Y-73183D01*
X100647Y-73127D01*
X100816Y-73127D01*
X100928Y-73183D01*
X101378Y-74365D02*
X101434Y-74308D01*
X101547Y-74140D01*
X101603Y-74027D01*
X101659Y-73858D01*
X101716Y-73577D01*
X101716Y-73352D01*
X101659Y-73071D01*
X101603Y-72902D01*
X101547Y-72790D01*
X101434Y-72621D01*
X101378Y-72565D01*
G54D12*
X74575Y-75196D02*
X74775Y-74996D01*
X74575Y-74795D01*
X74374Y-74996D01*
X74575Y-75196D01*
G54D13*
X76463Y-75474D02*
X75788Y-75474D01*
X76125Y-75474D02*
X76125Y-74293D01*
X76013Y-74461D01*
X75900Y-74574D01*
X75788Y-74630D01*
X76969Y-75361D02*
X77025Y-75417D01*
X76969Y-75474D01*
X76913Y-75417D01*
X76969Y-75361D01*
X76969Y-75474D01*
X77756Y-74293D02*
X77869Y-74293D01*
X77981Y-74349D01*
X78037Y-74405D01*
X78094Y-74517D01*
X78150Y-74742D01*
X78150Y-75024D01*
X78094Y-75249D01*
X78037Y-75361D01*
X77981Y-75417D01*
X77869Y-75474D01*
X77756Y-75474D01*
X77644Y-75417D01*
X77587Y-75361D01*
X77531Y-75249D01*
X77475Y-75024D01*
X77475Y-74742D01*
X77531Y-74517D01*
X77587Y-74405D01*
X77644Y-74349D01*
X77756Y-74293D01*
X78600Y-74405D02*
X78656Y-74349D01*
X78769Y-74293D01*
X79050Y-74293D01*
X79162Y-74349D01*
X79219Y-74405D01*
X79275Y-74517D01*
X79275Y-74630D01*
X79219Y-74799D01*
X78544Y-75474D01*
X79275Y-75474D01*
X79781Y-75474D02*
X79781Y-74686D01*
X79781Y-74799D02*
X79837Y-74742D01*
X79950Y-74686D01*
X80118Y-74686D01*
X80231Y-74742D01*
X80287Y-74855D01*
X80287Y-75474D01*
X80287Y-74855D02*
X80343Y-74742D01*
X80456Y-74686D01*
X80625Y-74686D01*
X80737Y-74742D01*
X80793Y-74855D01*
X80793Y-75474D01*
X81356Y-75474D02*
X81356Y-74686D01*
X81356Y-74799D02*
X81412Y-74742D01*
X81524Y-74686D01*
X81693Y-74686D01*
X81806Y-74742D01*
X81862Y-74855D01*
X81862Y-75474D01*
X81862Y-74855D02*
X81918Y-74742D01*
X82031Y-74686D01*
X82199Y-74686D01*
X82312Y-74742D01*
X82368Y-74855D01*
X82368Y-75474D01*
X84674Y-74236D02*
X83662Y-75755D01*
X86193Y-74293D02*
X86305Y-74293D01*
X86418Y-74349D01*
X86474Y-74405D01*
X86530Y-74517D01*
X86586Y-74742D01*
X86586Y-75024D01*
X86530Y-75249D01*
X86474Y-75361D01*
X86418Y-75417D01*
X86305Y-75474D01*
X86193Y-75474D01*
X86080Y-75417D01*
X86024Y-75361D01*
X85968Y-75249D01*
X85911Y-75024D01*
X85911Y-74742D01*
X85968Y-74517D01*
X86024Y-74405D01*
X86080Y-74349D01*
X86193Y-74293D01*
X87093Y-75361D02*
X87149Y-75417D01*
X87093Y-75474D01*
X87036Y-75417D01*
X87093Y-75361D01*
X87093Y-75474D01*
X87880Y-74293D02*
X87992Y-74293D01*
X88105Y-74349D01*
X88161Y-74405D01*
X88217Y-74517D01*
X88274Y-74742D01*
X88274Y-75024D01*
X88217Y-75249D01*
X88161Y-75361D01*
X88105Y-75417D01*
X87992Y-75474D01*
X87880Y-75474D01*
X87767Y-75417D01*
X87711Y-75361D01*
X87655Y-75249D01*
X87599Y-75024D01*
X87599Y-74742D01*
X87655Y-74517D01*
X87711Y-74405D01*
X87767Y-74349D01*
X87880Y-74293D01*
X89286Y-74686D02*
X89286Y-75474D01*
X89005Y-74236D02*
X88724Y-75080D01*
X89455Y-75080D01*
X90130Y-74293D02*
X90242Y-74293D01*
X90355Y-74349D01*
X90411Y-74405D01*
X90467Y-74517D01*
X90523Y-74742D01*
X90523Y-75024D01*
X90467Y-75249D01*
X90411Y-75361D01*
X90355Y-75417D01*
X90242Y-75474D01*
X90130Y-75474D01*
X90017Y-75417D01*
X89961Y-75361D01*
X89905Y-75249D01*
X89848Y-75024D01*
X89848Y-74742D01*
X89905Y-74517D01*
X89961Y-74405D01*
X90017Y-74349D01*
X90130Y-74293D01*
X90973Y-74293D02*
X90973Y-74517D01*
X91423Y-74293D02*
X91423Y-74517D01*
X93167Y-75924D02*
X93111Y-75867D01*
X92998Y-75699D01*
X92942Y-75586D01*
X92886Y-75417D01*
X92829Y-75136D01*
X92829Y-74911D01*
X92886Y-74630D01*
X92942Y-74461D01*
X92998Y-74349D01*
X93111Y-74180D01*
X93167Y-74124D01*
X93785Y-74799D02*
X93673Y-74742D01*
X93617Y-74686D01*
X93560Y-74574D01*
X93560Y-74517D01*
X93617Y-74405D01*
X93673Y-74349D01*
X93785Y-74293D01*
X94010Y-74293D01*
X94123Y-74349D01*
X94179Y-74405D01*
X94235Y-74517D01*
X94235Y-74574D01*
X94179Y-74686D01*
X94123Y-74742D01*
X94010Y-74799D01*
X93785Y-74799D01*
X93673Y-74855D01*
X93617Y-74911D01*
X93560Y-75024D01*
X93560Y-75249D01*
X93617Y-75361D01*
X93673Y-75417D01*
X93785Y-75474D01*
X94010Y-75474D01*
X94123Y-75417D01*
X94179Y-75361D01*
X94235Y-75249D01*
X94235Y-75024D01*
X94179Y-74911D01*
X94123Y-74855D01*
X94010Y-74799D01*
X95641Y-75474D02*
X95641Y-74293D01*
X96148Y-75474D02*
X96148Y-74855D01*
X96091Y-74742D01*
X95979Y-74686D01*
X95810Y-74686D01*
X95698Y-74742D01*
X95641Y-74799D01*
X96879Y-75474D02*
X96766Y-75417D01*
X96710Y-75361D01*
X96654Y-75249D01*
X96654Y-74911D01*
X96710Y-74799D01*
X96766Y-74742D01*
X96879Y-74686D01*
X97048Y-74686D01*
X97160Y-74742D01*
X97216Y-74799D01*
X97273Y-74911D01*
X97273Y-75249D01*
X97216Y-75361D01*
X97160Y-75417D01*
X97048Y-75474D01*
X96879Y-75474D01*
X97947Y-75474D02*
X97835Y-75417D01*
X97779Y-75305D01*
X97779Y-74293D01*
X98847Y-75417D02*
X98735Y-75474D01*
X98510Y-75474D01*
X98397Y-75417D01*
X98341Y-75305D01*
X98341Y-74855D01*
X98397Y-74742D01*
X98510Y-74686D01*
X98735Y-74686D01*
X98847Y-74742D01*
X98904Y-74855D01*
X98904Y-74967D01*
X98341Y-75080D01*
X99354Y-75417D02*
X99466Y-75474D01*
X99691Y-75474D01*
X99803Y-75417D01*
X99860Y-75305D01*
X99860Y-75249D01*
X99803Y-75136D01*
X99691Y-75080D01*
X99522Y-75080D01*
X99410Y-75024D01*
X99354Y-74911D01*
X99354Y-74855D01*
X99410Y-74742D01*
X99522Y-74686D01*
X99691Y-74686D01*
X99803Y-74742D01*
X100253Y-75924D02*
X100310Y-75867D01*
X100422Y-75699D01*
X100478Y-75586D01*
X100535Y-75417D01*
X100591Y-75136D01*
X100591Y-74911D01*
X100535Y-74630D01*
X100478Y-74461D01*
X100422Y-74349D01*
X100310Y-74180D01*
X100253Y-74124D01*
X73870Y-76102D02*
X74775Y-77007D01*
X74775Y-76102D02*
X73870Y-77007D01*
G54D12*
X74775Y-76555D02*
G75*
G03X74775Y-76555I-452J0D01*
G74*
G01*
G54D13*
X75788Y-75964D02*
X75844Y-75908D01*
X75956Y-75852D01*
X76238Y-75852D01*
X76350Y-75908D01*
X76406Y-75964D01*
X76463Y-76077D01*
X76463Y-76189D01*
X76406Y-76358D01*
X75731Y-77033D01*
X76463Y-77033D01*
X76969Y-76920D02*
X77025Y-76976D01*
X76969Y-77033D01*
X76913Y-76976D01*
X76969Y-76920D01*
X76969Y-77033D01*
X77419Y-75852D02*
X78150Y-75852D01*
X77756Y-76302D01*
X77925Y-76302D01*
X78037Y-76358D01*
X78094Y-76414D01*
X78150Y-76526D01*
X78150Y-76808D01*
X78094Y-76920D01*
X78037Y-76976D01*
X77925Y-77033D01*
X77587Y-77033D01*
X77475Y-76976D01*
X77419Y-76920D01*
X78881Y-75852D02*
X78994Y-75852D01*
X79106Y-75908D01*
X79162Y-75964D01*
X79219Y-76077D01*
X79275Y-76302D01*
X79275Y-76583D01*
X79219Y-76808D01*
X79162Y-76920D01*
X79106Y-76976D01*
X78994Y-77033D01*
X78881Y-77033D01*
X78769Y-76976D01*
X78712Y-76920D01*
X78656Y-76808D01*
X78600Y-76583D01*
X78600Y-76302D01*
X78656Y-76077D01*
X78712Y-75964D01*
X78769Y-75908D01*
X78881Y-75852D01*
X79781Y-77033D02*
X79781Y-76245D01*
X79781Y-76358D02*
X79837Y-76302D01*
X79950Y-76245D01*
X80118Y-76245D01*
X80231Y-76302D01*
X80287Y-76414D01*
X80287Y-77033D01*
X80287Y-76414D02*
X80343Y-76302D01*
X80456Y-76245D01*
X80625Y-76245D01*
X80737Y-76302D01*
X80793Y-76414D01*
X80793Y-77033D01*
X81356Y-77033D02*
X81356Y-76245D01*
X81356Y-76358D02*
X81412Y-76302D01*
X81524Y-76245D01*
X81693Y-76245D01*
X81806Y-76302D01*
X81862Y-76414D01*
X81862Y-77033D01*
X81862Y-76414D02*
X81918Y-76302D01*
X82031Y-76245D01*
X82199Y-76245D01*
X82312Y-76302D01*
X82368Y-76414D01*
X82368Y-77033D01*
X84674Y-75795D02*
X83662Y-77314D01*
X86193Y-75852D02*
X86305Y-75852D01*
X86418Y-75908D01*
X86474Y-75964D01*
X86530Y-76077D01*
X86586Y-76302D01*
X86586Y-76583D01*
X86530Y-76808D01*
X86474Y-76920D01*
X86418Y-76976D01*
X86305Y-77033D01*
X86193Y-77033D01*
X86080Y-76976D01*
X86024Y-76920D01*
X85968Y-76808D01*
X85911Y-76583D01*
X85911Y-76302D01*
X85968Y-76077D01*
X86024Y-75964D01*
X86080Y-75908D01*
X86193Y-75852D01*
X87093Y-76920D02*
X87149Y-76976D01*
X87093Y-77033D01*
X87036Y-76976D01*
X87093Y-76920D01*
X87093Y-77033D01*
X87880Y-75852D02*
X87992Y-75852D01*
X88105Y-75908D01*
X88161Y-75964D01*
X88217Y-76077D01*
X88274Y-76302D01*
X88274Y-76583D01*
X88217Y-76808D01*
X88161Y-76920D01*
X88105Y-76976D01*
X87992Y-77033D01*
X87880Y-77033D01*
X87767Y-76976D01*
X87711Y-76920D01*
X87655Y-76808D01*
X87599Y-76583D01*
X87599Y-76302D01*
X87655Y-76077D01*
X87711Y-75964D01*
X87767Y-75908D01*
X87880Y-75852D01*
X88836Y-77033D02*
X89061Y-77033D01*
X89174Y-76976D01*
X89230Y-76920D01*
X89342Y-76751D01*
X89398Y-76526D01*
X89398Y-76077D01*
X89342Y-75964D01*
X89286Y-75908D01*
X89174Y-75852D01*
X88949Y-75852D01*
X88836Y-75908D01*
X88780Y-75964D01*
X88724Y-76077D01*
X88724Y-76358D01*
X88780Y-76470D01*
X88836Y-76526D01*
X88949Y-76583D01*
X89174Y-76583D01*
X89286Y-76526D01*
X89342Y-76470D01*
X89398Y-76358D01*
X90523Y-77033D02*
X89848Y-77033D01*
X90186Y-77033D02*
X90186Y-75852D01*
X90073Y-76020D01*
X89961Y-76133D01*
X89848Y-76189D01*
X90973Y-75852D02*
X90973Y-76077D01*
X91423Y-75852D02*
X91423Y-76077D01*
X93167Y-77483D02*
X93111Y-77426D01*
X92998Y-77258D01*
X92942Y-77145D01*
X92886Y-76976D01*
X92829Y-76695D01*
X92829Y-76470D01*
X92886Y-76189D01*
X92942Y-76020D01*
X92998Y-75908D01*
X93111Y-75739D01*
X93167Y-75683D01*
X94123Y-76245D02*
X94123Y-77033D01*
X93842Y-75795D02*
X93560Y-76639D01*
X94292Y-76639D01*
X95641Y-77033D02*
X95641Y-75852D01*
X96148Y-77033D02*
X96148Y-76414D01*
X96091Y-76302D01*
X95979Y-76245D01*
X95810Y-76245D01*
X95698Y-76302D01*
X95641Y-76358D01*
X96879Y-77033D02*
X96766Y-76976D01*
X96710Y-76920D01*
X96654Y-76808D01*
X96654Y-76470D01*
X96710Y-76358D01*
X96766Y-76302D01*
X96879Y-76245D01*
X97048Y-76245D01*
X97160Y-76302D01*
X97216Y-76358D01*
X97273Y-76470D01*
X97273Y-76808D01*
X97216Y-76920D01*
X97160Y-76976D01*
X97048Y-77033D01*
X96879Y-77033D01*
X97947Y-77033D02*
X97835Y-76976D01*
X97779Y-76864D01*
X97779Y-75852D01*
X98847Y-76976D02*
X98735Y-77033D01*
X98510Y-77033D01*
X98397Y-76976D01*
X98341Y-76864D01*
X98341Y-76414D01*
X98397Y-76302D01*
X98510Y-76245D01*
X98735Y-76245D01*
X98847Y-76302D01*
X98904Y-76414D01*
X98904Y-76526D01*
X98341Y-76639D01*
X99354Y-76976D02*
X99466Y-77033D01*
X99691Y-77033D01*
X99803Y-76976D01*
X99860Y-76864D01*
X99860Y-76808D01*
X99803Y-76695D01*
X99691Y-76639D01*
X99522Y-76639D01*
X99410Y-76583D01*
X99354Y-76470D01*
X99354Y-76414D01*
X99410Y-76302D01*
X99522Y-76245D01*
X99691Y-76245D01*
X99803Y-76302D01*
X100253Y-77483D02*
X100310Y-77426D01*
X100422Y-77258D01*
X100478Y-77145D01*
X100535Y-76976D01*
X100591Y-76695D01*
X100591Y-76470D01*
X100535Y-76189D01*
X100478Y-76020D01*
X100422Y-75908D01*
X100310Y-75739D01*
X100253Y-75683D01*
G54D11*
X99556Y-60704D02*
X99922Y-60704D01*
X99725Y-60929D01*
X99809Y-60929D01*
X99865Y-60958D01*
X99893Y-60986D01*
X99922Y-61042D01*
X99922Y-61183D01*
X99893Y-61239D01*
X99865Y-61267D01*
X99809Y-61295D01*
X99640Y-61295D01*
X99584Y-61267D01*
X99556Y-61239D01*
X100175Y-61239D02*
X100203Y-61267D01*
X100175Y-61295D01*
X100147Y-61267D01*
X100175Y-61239D01*
X100175Y-61295D01*
X100568Y-60704D02*
X100625Y-60704D01*
X100681Y-60733D01*
X100709Y-60761D01*
X100737Y-60817D01*
X100765Y-60929D01*
X100765Y-61070D01*
X100737Y-61183D01*
X100709Y-61239D01*
X100681Y-61267D01*
X100625Y-61295D01*
X100568Y-61295D01*
X100512Y-61267D01*
X100484Y-61239D01*
X100456Y-61183D01*
X100428Y-61070D01*
X100428Y-60929D01*
X100456Y-60817D01*
X100484Y-60761D01*
X100512Y-60733D01*
X100568Y-60704D01*
X101271Y-60901D02*
X101271Y-61295D01*
X101131Y-60676D02*
X100990Y-61098D01*
X101356Y-61098D01*
X101665Y-60958D02*
X101609Y-60929D01*
X101581Y-60901D01*
X101553Y-60845D01*
X101553Y-60817D01*
X101581Y-60761D01*
X101609Y-60733D01*
X101665Y-60704D01*
X101778Y-60704D01*
X101834Y-60733D01*
X101862Y-60761D01*
X101890Y-60817D01*
X101890Y-60845D01*
X101862Y-60901D01*
X101834Y-60929D01*
X101778Y-60958D01*
X101665Y-60958D01*
X101609Y-60986D01*
X101581Y-61014D01*
X101553Y-61070D01*
X101553Y-61183D01*
X101581Y-61239D01*
X101609Y-61267D01*
X101665Y-61295D01*
X101778Y-61295D01*
X101834Y-61267D01*
X101862Y-61239D01*
X101890Y-61183D01*
X101890Y-61070D01*
X101862Y-61014D01*
X101834Y-60986D01*
X101778Y-60958D01*
X102593Y-61295D02*
X102593Y-60901D01*
X102593Y-60958D02*
X102621Y-60929D01*
X102678Y-60901D01*
X102762Y-60901D01*
X102818Y-60929D01*
X102846Y-60986D01*
X102846Y-61295D01*
X102846Y-60986D02*
X102874Y-60929D01*
X102931Y-60901D01*
X103015Y-60901D01*
X103071Y-60929D01*
X103099Y-60986D01*
X103099Y-61295D01*
X103381Y-61295D02*
X103381Y-60901D01*
X103381Y-60958D02*
X103409Y-60929D01*
X103465Y-60901D01*
X103549Y-60901D01*
X103606Y-60929D01*
X103634Y-60986D01*
X103634Y-61295D01*
X103634Y-60986D02*
X103662Y-60929D01*
X103718Y-60901D01*
X103802Y-60901D01*
X103859Y-60929D01*
X103887Y-60986D01*
X103887Y-61295D01*
X102350Y-60524D02*
X101150Y-60524D01*
X102350Y-58675D02*
X102350Y-61587D01*
X101150Y-58675D02*
X101150Y-61587D01*
X101150Y-60524D02*
X101593Y-60294D01*
X101150Y-60524D02*
X101593Y-60755D01*
X102350Y-60524D02*
X101906Y-60294D01*
X102350Y-60524D02*
X101906Y-60755D01*
X73206Y-60954D02*
X73572Y-60954D01*
X73375Y-61179D01*
X73459Y-61179D01*
X73515Y-61208D01*
X73543Y-61236D01*
X73572Y-61292D01*
X73572Y-61433D01*
X73543Y-61489D01*
X73515Y-61517D01*
X73459Y-61545D01*
X73290Y-61545D01*
X73234Y-61517D01*
X73206Y-61489D01*
X73825Y-61489D02*
X73853Y-61517D01*
X73825Y-61545D01*
X73797Y-61517D01*
X73825Y-61489D01*
X73825Y-61545D01*
X74218Y-60954D02*
X74275Y-60954D01*
X74331Y-60983D01*
X74359Y-61011D01*
X74387Y-61067D01*
X74415Y-61179D01*
X74415Y-61320D01*
X74387Y-61433D01*
X74359Y-61489D01*
X74331Y-61517D01*
X74275Y-61545D01*
X74218Y-61545D01*
X74162Y-61517D01*
X74134Y-61489D01*
X74106Y-61433D01*
X74078Y-61320D01*
X74078Y-61179D01*
X74106Y-61067D01*
X74134Y-61011D01*
X74162Y-60983D01*
X74218Y-60954D01*
X74921Y-61151D02*
X74921Y-61545D01*
X74781Y-60926D02*
X74640Y-61348D01*
X75006Y-61348D01*
X75315Y-61208D02*
X75259Y-61179D01*
X75231Y-61151D01*
X75203Y-61095D01*
X75203Y-61067D01*
X75231Y-61011D01*
X75259Y-60983D01*
X75315Y-60954D01*
X75428Y-60954D01*
X75484Y-60983D01*
X75512Y-61011D01*
X75540Y-61067D01*
X75540Y-61095D01*
X75512Y-61151D01*
X75484Y-61179D01*
X75428Y-61208D01*
X75315Y-61208D01*
X75259Y-61236D01*
X75231Y-61264D01*
X75203Y-61320D01*
X75203Y-61433D01*
X75231Y-61489D01*
X75259Y-61517D01*
X75315Y-61545D01*
X75428Y-61545D01*
X75484Y-61517D01*
X75512Y-61489D01*
X75540Y-61433D01*
X75540Y-61320D01*
X75512Y-61264D01*
X75484Y-61236D01*
X75428Y-61208D01*
X76243Y-61545D02*
X76243Y-61151D01*
X76243Y-61208D02*
X76271Y-61179D01*
X76328Y-61151D01*
X76412Y-61151D01*
X76468Y-61179D01*
X76496Y-61236D01*
X76496Y-61545D01*
X76496Y-61236D02*
X76524Y-61179D01*
X76581Y-61151D01*
X76665Y-61151D01*
X76721Y-61179D01*
X76749Y-61236D01*
X76749Y-61545D01*
X77031Y-61545D02*
X77031Y-61151D01*
X77031Y-61208D02*
X77059Y-61179D01*
X77115Y-61151D01*
X77199Y-61151D01*
X77256Y-61179D01*
X77284Y-61236D01*
X77284Y-61545D01*
X77284Y-61236D02*
X77312Y-61179D01*
X77368Y-61151D01*
X77452Y-61151D01*
X77509Y-61179D01*
X77537Y-61236D01*
X77537Y-61545D01*
X74800Y-60774D02*
X76000Y-60774D01*
X74800Y-58675D02*
X74800Y-61837D01*
X76000Y-58675D02*
X76000Y-61837D01*
X76000Y-60774D02*
X75556Y-61005D01*
X76000Y-60774D02*
X75556Y-60544D01*
X74800Y-60774D02*
X75243Y-61005D01*
X74800Y-60774D02*
X75243Y-60544D01*
X73163Y-48328D02*
X73191Y-48356D01*
X73220Y-48412D01*
X73220Y-48553D01*
X73191Y-48609D01*
X73163Y-48637D01*
X73107Y-48665D01*
X73051Y-48665D01*
X72966Y-48637D01*
X72629Y-48300D01*
X72629Y-48665D01*
X73220Y-48862D02*
X73220Y-49256D01*
X72629Y-49003D01*
X72685Y-49481D02*
X72657Y-49509D01*
X72629Y-49481D01*
X72657Y-49453D01*
X72685Y-49481D01*
X72629Y-49481D01*
X72629Y-49790D02*
X72629Y-49903D01*
X72657Y-49959D01*
X72685Y-49987D01*
X72770Y-50043D01*
X72882Y-50071D01*
X73107Y-50071D01*
X73163Y-50043D01*
X73191Y-50015D01*
X73220Y-49959D01*
X73220Y-49846D01*
X73191Y-49790D01*
X73163Y-49762D01*
X73107Y-49734D01*
X72966Y-49734D01*
X72910Y-49762D01*
X72882Y-49790D01*
X72854Y-49846D01*
X72854Y-49959D01*
X72882Y-50015D01*
X72910Y-50043D01*
X72966Y-50071D01*
X73023Y-50578D02*
X72629Y-50578D01*
X73248Y-50437D02*
X72826Y-50296D01*
X72826Y-50662D01*
X73220Y-50999D02*
X73220Y-51056D01*
X73191Y-51112D01*
X73163Y-51140D01*
X73107Y-51168D01*
X72995Y-51196D01*
X72854Y-51196D01*
X72741Y-51168D01*
X72685Y-51140D01*
X72657Y-51112D01*
X72629Y-51056D01*
X72629Y-50999D01*
X72657Y-50943D01*
X72685Y-50915D01*
X72741Y-50887D01*
X72854Y-50859D01*
X72995Y-50859D01*
X73107Y-50887D01*
X73163Y-50915D01*
X73191Y-50943D01*
X73220Y-50999D01*
X72629Y-51899D02*
X73023Y-51899D01*
X72966Y-51899D02*
X72995Y-51927D01*
X73023Y-51984D01*
X73023Y-52068D01*
X72995Y-52124D01*
X72938Y-52152D01*
X72629Y-52152D01*
X72938Y-52152D02*
X72995Y-52181D01*
X73023Y-52237D01*
X73023Y-52321D01*
X72995Y-52377D01*
X72938Y-52406D01*
X72629Y-52406D01*
X72629Y-52687D02*
X73023Y-52687D01*
X72966Y-52687D02*
X72995Y-52715D01*
X73023Y-52771D01*
X73023Y-52855D01*
X72995Y-52912D01*
X72938Y-52940D01*
X72629Y-52940D01*
X72938Y-52940D02*
X72995Y-52968D01*
X73023Y-53024D01*
X73023Y-53109D01*
X72995Y-53165D01*
X72938Y-53193D01*
X72629Y-53193D01*
X73400Y-45275D02*
X73400Y-56275D01*
X74800Y-45275D02*
X72337Y-45275D01*
X74800Y-56275D02*
X72337Y-56275D01*
X73400Y-56275D02*
X73169Y-55831D01*
X73400Y-56275D02*
X73630Y-55831D01*
X73400Y-45275D02*
X73169Y-45718D01*
X73400Y-45275D02*
X73630Y-45718D01*
X97740Y-43332D02*
X97403Y-43332D01*
X97572Y-43332D02*
X97572Y-42741D01*
X97515Y-42826D01*
X97459Y-42882D01*
X97403Y-42910D01*
X97965Y-42798D02*
X97993Y-42770D01*
X98050Y-42741D01*
X98190Y-42741D01*
X98247Y-42770D01*
X98275Y-42798D01*
X98303Y-42854D01*
X98303Y-42910D01*
X98275Y-42995D01*
X97937Y-43332D01*
X98303Y-43332D01*
X98556Y-43276D02*
X98584Y-43304D01*
X98556Y-43332D01*
X98528Y-43304D01*
X98556Y-43276D01*
X98556Y-43332D01*
X98781Y-42741D02*
X99175Y-42741D01*
X98921Y-43332D01*
X99512Y-42741D02*
X99568Y-42741D01*
X99625Y-42770D01*
X99653Y-42798D01*
X99681Y-42854D01*
X99709Y-42966D01*
X99709Y-43107D01*
X99681Y-43220D01*
X99653Y-43276D01*
X99625Y-43304D01*
X99568Y-43332D01*
X99512Y-43332D01*
X99456Y-43304D01*
X99428Y-43276D01*
X99400Y-43220D01*
X99371Y-43107D01*
X99371Y-42966D01*
X99400Y-42854D01*
X99428Y-42798D01*
X99456Y-42770D01*
X99512Y-42741D01*
X100074Y-42741D02*
X100131Y-42741D01*
X100187Y-42770D01*
X100215Y-42798D01*
X100243Y-42854D01*
X100271Y-42966D01*
X100271Y-43107D01*
X100243Y-43220D01*
X100215Y-43276D01*
X100187Y-43304D01*
X100131Y-43332D01*
X100074Y-43332D01*
X100018Y-43304D01*
X99990Y-43276D01*
X99962Y-43220D01*
X99934Y-43107D01*
X99934Y-42966D01*
X99962Y-42854D01*
X99990Y-42798D01*
X100018Y-42770D01*
X100074Y-42741D01*
X100974Y-43332D02*
X100974Y-42938D01*
X100974Y-42995D02*
X101002Y-42966D01*
X101059Y-42938D01*
X101143Y-42938D01*
X101199Y-42966D01*
X101227Y-43023D01*
X101227Y-43332D01*
X101227Y-43023D02*
X101256Y-42966D01*
X101312Y-42938D01*
X101396Y-42938D01*
X101452Y-42966D01*
X101481Y-43023D01*
X101481Y-43332D01*
X101762Y-43332D02*
X101762Y-42938D01*
X101762Y-42995D02*
X101790Y-42966D01*
X101846Y-42938D01*
X101930Y-42938D01*
X101987Y-42966D01*
X102015Y-43023D01*
X102015Y-43332D01*
X102015Y-43023D02*
X102043Y-42966D01*
X102099Y-42938D01*
X102184Y-42938D01*
X102240Y-42966D01*
X102268Y-43023D01*
X102268Y-43332D01*
X102350Y-43625D02*
X97350Y-43625D01*
X102350Y-45275D02*
X102350Y-42562D01*
X97350Y-45275D02*
X97350Y-42562D01*
X97350Y-43625D02*
X97793Y-43394D01*
X97350Y-43625D02*
X97793Y-43855D01*
X102350Y-43625D02*
X101906Y-43394D01*
X102350Y-43625D02*
X101906Y-43855D01*
X75190Y-42282D02*
X74853Y-42282D01*
X75022Y-42282D02*
X75022Y-41691D01*
X74965Y-41776D01*
X74909Y-41832D01*
X74853Y-41860D01*
X75415Y-41748D02*
X75443Y-41720D01*
X75500Y-41691D01*
X75640Y-41691D01*
X75697Y-41720D01*
X75725Y-41748D01*
X75753Y-41804D01*
X75753Y-41860D01*
X75725Y-41945D01*
X75387Y-42282D01*
X75753Y-42282D01*
X76006Y-42226D02*
X76034Y-42254D01*
X76006Y-42282D01*
X75978Y-42254D01*
X76006Y-42226D01*
X76006Y-42282D01*
X76231Y-41691D02*
X76625Y-41691D01*
X76371Y-42282D01*
X76962Y-41691D02*
X77018Y-41691D01*
X77075Y-41720D01*
X77103Y-41748D01*
X77131Y-41804D01*
X77159Y-41916D01*
X77159Y-42057D01*
X77131Y-42170D01*
X77103Y-42226D01*
X77075Y-42254D01*
X77018Y-42282D01*
X76962Y-42282D01*
X76906Y-42254D01*
X76878Y-42226D01*
X76850Y-42170D01*
X76821Y-42057D01*
X76821Y-41916D01*
X76850Y-41804D01*
X76878Y-41748D01*
X76906Y-41720D01*
X76962Y-41691D01*
X77524Y-41691D02*
X77581Y-41691D01*
X77637Y-41720D01*
X77665Y-41748D01*
X77693Y-41804D01*
X77721Y-41916D01*
X77721Y-42057D01*
X77693Y-42170D01*
X77665Y-42226D01*
X77637Y-42254D01*
X77581Y-42282D01*
X77524Y-42282D01*
X77468Y-42254D01*
X77440Y-42226D01*
X77412Y-42170D01*
X77384Y-42057D01*
X77384Y-41916D01*
X77412Y-41804D01*
X77440Y-41748D01*
X77468Y-41720D01*
X77524Y-41691D01*
X78424Y-42282D02*
X78424Y-41888D01*
X78424Y-41945D02*
X78452Y-41916D01*
X78509Y-41888D01*
X78593Y-41888D01*
X78649Y-41916D01*
X78677Y-41973D01*
X78677Y-42282D01*
X78677Y-41973D02*
X78706Y-41916D01*
X78762Y-41888D01*
X78846Y-41888D01*
X78902Y-41916D01*
X78931Y-41973D01*
X78931Y-42282D01*
X79212Y-42282D02*
X79212Y-41888D01*
X79212Y-41945D02*
X79240Y-41916D01*
X79296Y-41888D01*
X79380Y-41888D01*
X79437Y-41916D01*
X79465Y-41973D01*
X79465Y-42282D01*
X79465Y-41973D02*
X79493Y-41916D01*
X79549Y-41888D01*
X79634Y-41888D01*
X79690Y-41916D01*
X79718Y-41973D01*
X79718Y-42282D01*
X74800Y-42575D02*
X79800Y-42575D01*
X74800Y-45275D02*
X74800Y-41512D01*
X79800Y-45275D02*
X79800Y-41512D01*
X79800Y-42575D02*
X79356Y-42805D01*
X79800Y-42575D02*
X79356Y-42344D01*
X74800Y-42575D02*
X75243Y-42805D01*
X74800Y-42575D02*
X75243Y-42344D01*
M02*
