G04 (created by PCBNEW (2013-07-07 BZR 4022)-stable) date 2/17/2015 3:56:23 AM*
%MOIN*%
G04 Gerber Fmt 3.4, Leading zero omitted, Abs format*
%FSLAX34Y34*%
G01*
G70*
G90*
G04 APERTURE LIST*
%ADD10C,0.00590551*%
%ADD11R,0.0251968X0.05*%
%ADD12R,0.051X0.061*%
%ADD13R,0.02X0.03*%
%ADD14R,0.144X0.08*%
%ADD15R,0.04X0.08*%
%ADD16R,0.025X0.05*%
%ADD17R,0.035X0.055*%
%ADD18R,0.055X0.035*%
%ADD19R,0.055X0.055*%
%ADD20C,0.055*%
%ADD21R,0.019685X0.0255906*%
%ADD22R,0.0787X0.2165*%
%ADD23R,0.06X0.06*%
%ADD24C,0.06*%
%ADD25C,0.0787*%
%ADD26R,0.0295276X0.00984252*%
%ADD27R,0.0472X0.0472*%
%ADD28R,0.035X0.013*%
%ADD29R,0.013X0.035*%
%ADD30R,0.0984X0.0768*%
%ADD31R,0.0768X0.0984*%
%ADD32R,0.0579X0.0165*%
%ADD33C,0.141732*%
%ADD34C,0.11811*%
%ADD35C,0.0769291*%
G04 APERTURE END LIST*
G54D10*
G54D11*
X87868Y-59513D03*
X88616Y-59513D03*
X88990Y-59513D03*
X88242Y-59513D03*
X89364Y-59513D03*
X89738Y-59513D03*
G54D10*
G36*
X94716Y-52704D02*
X94591Y-52579D01*
X95147Y-52022D01*
X95273Y-52147D01*
X94716Y-52704D01*
X94716Y-52704D01*
G37*
G36*
X94493Y-52481D02*
X94368Y-52356D01*
X94925Y-51799D01*
X95050Y-51925D01*
X94493Y-52481D01*
X94493Y-52481D01*
G37*
G36*
X94271Y-52258D02*
X94145Y-52133D01*
X94702Y-51577D01*
X94827Y-51702D01*
X94271Y-52258D01*
X94271Y-52258D01*
G37*
G36*
X94048Y-52036D02*
X93923Y-51910D01*
X94479Y-51354D01*
X94604Y-51479D01*
X94048Y-52036D01*
X94048Y-52036D01*
G37*
G36*
X93825Y-51813D02*
X93700Y-51688D01*
X94256Y-51131D01*
X94382Y-51256D01*
X93825Y-51813D01*
X93825Y-51813D01*
G37*
G36*
X93602Y-51590D02*
X93477Y-51465D01*
X94034Y-50909D01*
X94159Y-51034D01*
X93602Y-51590D01*
X93602Y-51590D01*
G37*
G36*
X93380Y-51367D02*
X93254Y-51242D01*
X93811Y-50686D01*
X93936Y-50811D01*
X93380Y-51367D01*
X93380Y-51367D01*
G37*
G36*
X93157Y-51145D02*
X93032Y-51020D01*
X93588Y-50463D01*
X93713Y-50588D01*
X93157Y-51145D01*
X93157Y-51145D01*
G37*
G36*
X95821Y-48483D02*
X95696Y-48358D01*
X96253Y-47801D01*
X96378Y-47927D01*
X95821Y-48483D01*
X95821Y-48483D01*
G37*
G36*
X97384Y-50046D02*
X97259Y-49921D01*
X97815Y-49364D01*
X97940Y-49489D01*
X97384Y-50046D01*
X97384Y-50046D01*
G37*
G36*
X97158Y-49820D02*
X97033Y-49694D01*
X97589Y-49138D01*
X97714Y-49263D01*
X97158Y-49820D01*
X97158Y-49820D01*
G37*
G36*
X96931Y-49593D02*
X96806Y-49468D01*
X97363Y-48912D01*
X97488Y-49037D01*
X96931Y-49593D01*
X96931Y-49593D01*
G37*
G36*
X96712Y-49374D02*
X96587Y-49249D01*
X97144Y-48692D01*
X97269Y-48818D01*
X96712Y-49374D01*
X96712Y-49374D01*
G37*
G36*
X96486Y-49148D02*
X96361Y-49023D01*
X96917Y-48466D01*
X97042Y-48591D01*
X96486Y-49148D01*
X96486Y-49148D01*
G37*
G36*
X96267Y-48929D02*
X96142Y-48803D01*
X96698Y-48247D01*
X96823Y-48372D01*
X96267Y-48929D01*
X96267Y-48929D01*
G37*
G36*
X96040Y-48702D02*
X95915Y-48577D01*
X96472Y-48021D01*
X96597Y-48146D01*
X96040Y-48702D01*
X96040Y-48702D01*
G37*
G36*
X93585Y-50033D02*
X93029Y-49477D01*
X93154Y-49351D01*
X93711Y-49908D01*
X93585Y-50033D01*
X93585Y-50033D01*
G37*
G36*
X93807Y-49811D02*
X93251Y-49255D01*
X93376Y-49129D01*
X93933Y-49686D01*
X93807Y-49811D01*
X93807Y-49811D01*
G37*
G36*
X94031Y-49588D02*
X93474Y-49031D01*
X93600Y-48906D01*
X94156Y-49462D01*
X94031Y-49588D01*
X94031Y-49588D01*
G37*
G36*
X94253Y-49366D02*
X93696Y-48809D01*
X93822Y-48684D01*
X94378Y-49240D01*
X94253Y-49366D01*
X94253Y-49366D01*
G37*
G36*
X94476Y-49142D02*
X93920Y-48586D01*
X94045Y-48461D01*
X94601Y-49017D01*
X94476Y-49142D01*
X94476Y-49142D01*
G37*
G36*
X94698Y-48920D02*
X94142Y-48364D01*
X94267Y-48238D01*
X94824Y-48795D01*
X94698Y-48920D01*
X94698Y-48920D01*
G37*
G36*
X94922Y-48697D02*
X94365Y-48140D01*
X94490Y-48015D01*
X95047Y-48572D01*
X94922Y-48697D01*
X94922Y-48697D01*
G37*
G36*
X95144Y-48475D02*
X94587Y-47918D01*
X94712Y-47793D01*
X95269Y-48350D01*
X95144Y-48475D01*
X95144Y-48475D01*
G37*
G36*
X96260Y-52705D02*
X95703Y-52148D01*
X95828Y-52023D01*
X96385Y-52579D01*
X96260Y-52705D01*
X96260Y-52705D01*
G37*
G36*
X96479Y-52485D02*
X95922Y-51929D01*
X96048Y-51804D01*
X96604Y-52360D01*
X96479Y-52485D01*
X96479Y-52485D01*
G37*
G36*
X96705Y-52259D02*
X96149Y-51703D01*
X96274Y-51577D01*
X96830Y-52134D01*
X96705Y-52259D01*
X96705Y-52259D01*
G37*
G36*
X96924Y-52040D02*
X96368Y-51483D01*
X96493Y-51358D01*
X97049Y-51915D01*
X96924Y-52040D01*
X96924Y-52040D01*
G37*
G36*
X97144Y-51821D02*
X96587Y-51264D01*
X96712Y-51139D01*
X97269Y-51696D01*
X97144Y-51821D01*
X97144Y-51821D01*
G37*
G36*
X97370Y-51594D02*
X96813Y-51038D01*
X96938Y-50913D01*
X97495Y-51469D01*
X97370Y-51594D01*
X97370Y-51594D01*
G37*
G36*
X97596Y-51368D02*
X97040Y-50812D01*
X97165Y-50686D01*
X97721Y-51243D01*
X97596Y-51368D01*
X97596Y-51368D01*
G37*
G36*
X97822Y-51142D02*
X97266Y-50585D01*
X97391Y-50460D01*
X97948Y-51017D01*
X97822Y-51142D01*
X97822Y-51142D01*
G37*
G54D12*
X92085Y-54626D03*
X92085Y-57774D03*
X90315Y-57774D03*
X90315Y-54626D03*
G54D13*
X95575Y-60700D03*
X94825Y-60700D03*
X95575Y-61700D03*
X95200Y-60700D03*
X94825Y-61700D03*
G54D14*
X81100Y-49650D03*
G54D15*
X81100Y-52250D03*
X82000Y-52250D03*
X80200Y-52250D03*
G54D16*
X82750Y-60100D03*
X83250Y-60100D03*
X83750Y-60100D03*
X84250Y-60100D03*
X84750Y-60100D03*
X85250Y-60100D03*
X85750Y-60100D03*
X85750Y-57900D03*
X85250Y-57900D03*
X84750Y-57900D03*
X84250Y-57900D03*
X83750Y-57900D03*
X83250Y-57900D03*
X82750Y-57900D03*
G54D17*
X91928Y-46025D03*
X92678Y-46025D03*
G54D10*
G36*
X98333Y-48444D02*
X97944Y-48833D01*
X97696Y-48585D01*
X98085Y-48196D01*
X98333Y-48444D01*
X98333Y-48444D01*
G37*
G36*
X97803Y-47914D02*
X97414Y-48303D01*
X97166Y-48055D01*
X97555Y-47666D01*
X97803Y-47914D01*
X97803Y-47914D01*
G37*
G54D17*
X92275Y-48050D03*
X93025Y-48050D03*
X99625Y-48000D03*
X98875Y-48000D03*
G54D18*
X86600Y-48975D03*
X86600Y-48225D03*
X86600Y-46925D03*
X86600Y-47675D03*
X82600Y-46525D03*
X82600Y-45775D03*
X83550Y-46525D03*
X83550Y-45775D03*
X84600Y-48675D03*
X84600Y-49425D03*
G54D17*
X82928Y-49275D03*
X83678Y-49275D03*
X89025Y-47000D03*
X88275Y-47000D03*
X94825Y-62500D03*
X95575Y-62500D03*
G54D18*
X90100Y-48775D03*
X90100Y-48025D03*
G54D10*
G36*
X92416Y-51805D02*
X92805Y-51416D01*
X93053Y-51664D01*
X92664Y-52053D01*
X92416Y-51805D01*
X92416Y-51805D01*
G37*
G36*
X92946Y-52335D02*
X93335Y-51946D01*
X93583Y-52194D01*
X93194Y-52583D01*
X92946Y-52335D01*
X92946Y-52335D01*
G37*
G54D18*
X93800Y-59875D03*
X93800Y-59125D03*
X87100Y-58825D03*
X87100Y-59575D03*
G54D17*
X89475Y-58650D03*
X90225Y-58650D03*
G54D18*
X90700Y-60125D03*
X90700Y-59375D03*
G54D17*
X87825Y-58600D03*
X88575Y-58600D03*
G54D19*
X86053Y-46025D03*
G54D20*
X87053Y-46025D03*
X88053Y-46025D03*
X89053Y-46025D03*
X90053Y-46025D03*
X91053Y-46025D03*
G54D19*
X101650Y-50600D03*
G54D20*
X101650Y-49600D03*
G54D19*
X85500Y-48550D03*
G54D20*
X85500Y-47550D03*
G54D19*
X80300Y-48500D03*
G54D20*
X81300Y-48500D03*
G54D19*
X77050Y-47250D03*
G54D20*
X77050Y-46250D03*
G54D19*
X90650Y-47071D03*
G54D20*
X91650Y-47071D03*
X92650Y-47071D03*
X93650Y-47071D03*
X94650Y-47071D03*
X95650Y-47071D03*
X96650Y-47071D03*
X97650Y-47071D03*
X98650Y-47071D03*
X99650Y-47071D03*
X100650Y-47071D03*
X101650Y-47071D03*
G54D19*
X101650Y-53571D03*
G54D20*
X100650Y-53571D03*
X99650Y-53571D03*
X98650Y-53571D03*
X97650Y-53571D03*
X96650Y-53571D03*
X95650Y-53571D03*
X94650Y-53571D03*
X93650Y-53571D03*
X92650Y-53571D03*
X91650Y-53571D03*
X90650Y-53571D03*
G54D21*
X77693Y-53250D03*
X76906Y-53250D03*
X77693Y-52750D03*
X76906Y-52750D03*
X77693Y-53750D03*
X77693Y-52250D03*
X76906Y-52250D03*
X76906Y-53750D03*
X88006Y-53350D03*
X88793Y-53350D03*
X88006Y-53850D03*
X88793Y-53850D03*
X88006Y-52850D03*
X88006Y-54350D03*
X88793Y-54350D03*
X88793Y-52850D03*
X81793Y-55400D03*
X81006Y-55400D03*
X81793Y-54900D03*
X81006Y-54900D03*
X81793Y-55900D03*
X81793Y-54400D03*
X81006Y-54400D03*
X81006Y-55900D03*
X88006Y-55450D03*
X88793Y-55450D03*
X88006Y-55950D03*
X88793Y-55950D03*
X88006Y-54950D03*
X88006Y-56450D03*
X88793Y-56450D03*
X88793Y-54950D03*
G54D10*
G36*
X93898Y-56054D02*
X94454Y-55498D01*
X95985Y-57029D01*
X95429Y-57585D01*
X93898Y-56054D01*
X93898Y-56054D01*
G37*
G36*
X96514Y-58670D02*
X97070Y-58114D01*
X98601Y-59645D01*
X98045Y-60201D01*
X96514Y-58670D01*
X96514Y-58670D01*
G37*
G54D22*
X80950Y-57950D03*
X80950Y-61650D03*
G54D23*
X77053Y-51275D03*
G54D24*
X78053Y-51275D03*
X79053Y-51275D03*
G54D23*
X77053Y-50275D03*
G54D24*
X78053Y-50275D03*
X79053Y-50275D03*
G54D23*
X77053Y-49275D03*
G54D24*
X78053Y-49275D03*
X79053Y-49275D03*
G54D23*
X77053Y-48275D03*
G54D24*
X78053Y-48275D03*
X79053Y-48275D03*
G54D25*
X92987Y-58187D03*
X92987Y-56612D03*
G54D26*
X83710Y-48695D03*
X83710Y-48498D03*
X83710Y-48301D03*
X83710Y-48104D03*
X82489Y-48104D03*
X82489Y-48301D03*
X82489Y-48498D03*
X82489Y-48695D03*
G54D27*
X100587Y-48000D03*
X101413Y-48000D03*
X92563Y-60100D03*
X91737Y-60100D03*
X101750Y-52413D03*
X101750Y-51587D03*
X101716Y-45775D03*
X100890Y-45775D03*
G54D10*
G36*
X83112Y-64049D02*
X83258Y-63600D01*
X83707Y-63746D01*
X83561Y-64195D01*
X83112Y-64049D01*
X83112Y-64049D01*
G37*
G36*
X83898Y-64304D02*
X84044Y-63855D01*
X84493Y-64001D01*
X84347Y-64450D01*
X83898Y-64304D01*
X83898Y-64304D01*
G37*
G36*
X99761Y-60651D02*
X99427Y-60317D01*
X99761Y-59983D01*
X100094Y-60317D01*
X99761Y-60651D01*
X99761Y-60651D01*
G37*
G36*
X100345Y-60067D02*
X100011Y-59733D01*
X100345Y-59399D01*
X100678Y-59733D01*
X100345Y-60067D01*
X100345Y-60067D01*
G37*
G54D27*
X75390Y-45775D03*
X76216Y-45775D03*
X75553Y-52938D03*
X75553Y-52112D03*
G54D10*
G36*
X76427Y-59733D02*
X76761Y-59399D01*
X77094Y-59733D01*
X76761Y-60067D01*
X76427Y-59733D01*
X76427Y-59733D01*
G37*
G36*
X77011Y-60317D02*
X77345Y-59983D01*
X77678Y-60317D01*
X77345Y-60651D01*
X77011Y-60317D01*
X77011Y-60317D01*
G37*
G36*
X92758Y-64450D02*
X92612Y-64001D01*
X93061Y-63855D01*
X93207Y-64304D01*
X92758Y-64450D01*
X92758Y-64450D01*
G37*
G36*
X93544Y-64195D02*
X93398Y-63746D01*
X93847Y-63600D01*
X93993Y-64049D01*
X93544Y-64195D01*
X93544Y-64195D01*
G37*
G54D28*
X88022Y-48128D03*
X88022Y-47928D03*
X88022Y-48328D03*
X88022Y-48528D03*
X89162Y-48128D03*
X89162Y-47928D03*
X89162Y-48328D03*
X89162Y-48528D03*
G54D29*
X88482Y-48808D03*
X88682Y-48808D03*
X88862Y-48808D03*
X88302Y-48808D03*
X88862Y-47628D03*
X88682Y-47628D03*
X88482Y-47628D03*
X88302Y-47628D03*
G54D30*
X96700Y-62100D03*
X96700Y-60900D03*
G54D31*
X85950Y-50800D03*
X87150Y-50800D03*
G54D30*
X93800Y-60900D03*
X93800Y-62100D03*
G54D32*
X84451Y-53647D03*
X84451Y-53903D03*
X84451Y-54159D03*
X84451Y-54415D03*
X86653Y-52883D03*
X84451Y-52879D03*
X84451Y-53135D03*
X84451Y-53391D03*
X86655Y-54671D03*
X86655Y-54415D03*
X86655Y-54159D03*
X86655Y-53903D03*
X86655Y-53647D03*
X86655Y-53391D03*
X84451Y-54671D03*
X86653Y-53135D03*
X84451Y-52623D03*
X84451Y-54927D03*
X86655Y-54927D03*
X86655Y-52623D03*
X84451Y-52368D03*
X84451Y-55182D03*
X86655Y-55182D03*
X86655Y-52368D03*
X84451Y-52112D03*
X84451Y-55438D03*
X86655Y-55438D03*
X86655Y-52112D03*
G54D19*
X89550Y-50400D03*
G54D20*
X88550Y-50400D03*
G54D19*
X89550Y-51650D03*
G54D20*
X88550Y-51650D03*
G54D33*
X76000Y-56275D03*
X101150Y-56275D03*
G54D34*
X97350Y-45975D03*
X79800Y-45975D03*
G54D35*
X78668Y-56249D03*
X79698Y-55219D03*
X78384Y-57696D03*
X77313Y-58768D03*
X97837Y-56884D03*
X96807Y-55854D03*
X99285Y-57168D03*
X100357Y-58239D03*
M02*
