G04 (created by PCBNEW (2013-07-07 BZR 4022)-stable) date 7/26/2015 4:19:23 PM*
%MOIN*%
G04 Gerber Fmt 3.4, Leading zero omitted, Abs format*
%FSLAX34Y34*%
G01*
G70*
G90*
G04 APERTURE LIST*
%ADD10C,0.00590551*%
%ADD11C,0.00393701*%
%ADD12R,0.055X0.055*%
%ADD13C,0.055*%
%ADD14R,0.06X0.06*%
%ADD15C,0.06*%
%ADD16C,0.0787*%
%ADD17C,0.141732*%
%ADD18C,0.11811*%
%ADD19C,0.0669291*%
%ADD20C,0.0787402*%
%ADD21C,0.035*%
%ADD22C,0.01*%
%ADD23C,0.05*%
G04 APERTURE END LIST*
G54D10*
G54D11*
X102367Y-58653D02*
G75*
G02X92910Y-64961I-13785J10425D01*
G74*
G01*
X92913Y-64960D02*
X92125Y-64960D01*
X84251Y-64960D02*
X85039Y-64960D01*
X85039Y-61023D02*
X92125Y-61023D01*
X74797Y-58653D02*
G75*
G03X84255Y-64961I13785J10425D01*
G74*
G01*
X92125Y-61023D02*
X92125Y-64960D01*
X85039Y-61023D02*
X85039Y-64960D01*
X74803Y-58661D02*
X74803Y-45275D01*
X102362Y-45275D02*
X102362Y-58661D01*
X74803Y-45275D02*
X102362Y-45275D01*
G54D12*
X86053Y-46025D03*
G54D13*
X87053Y-46025D03*
X88053Y-46025D03*
X89053Y-46025D03*
X90053Y-46025D03*
X91053Y-46025D03*
G54D12*
X101650Y-49600D03*
G54D13*
X101650Y-50600D03*
G54D12*
X82700Y-48650D03*
G54D13*
X83700Y-48650D03*
G54D12*
X76000Y-47250D03*
G54D13*
X76000Y-48250D03*
G54D12*
X90650Y-47071D03*
G54D13*
X91650Y-47071D03*
X92650Y-47071D03*
X93650Y-47071D03*
X94650Y-47071D03*
X95650Y-47071D03*
X96650Y-47071D03*
X97650Y-47071D03*
X98650Y-47071D03*
X99650Y-47071D03*
X100650Y-47071D03*
X101650Y-47071D03*
G54D12*
X101650Y-53571D03*
G54D13*
X100650Y-53571D03*
X99650Y-53571D03*
X98650Y-53571D03*
X97650Y-53571D03*
X96650Y-53571D03*
X95650Y-53571D03*
X94650Y-53571D03*
X93650Y-53571D03*
X92650Y-53571D03*
X91650Y-53571D03*
X90650Y-53571D03*
G54D14*
X77050Y-50250D03*
G54D15*
X78050Y-50250D03*
X79050Y-50250D03*
G54D14*
X77050Y-51250D03*
G54D15*
X78050Y-51250D03*
X79050Y-51250D03*
G54D14*
X77053Y-49275D03*
G54D15*
X78053Y-49275D03*
X79053Y-49275D03*
G54D14*
X77053Y-48275D03*
G54D15*
X78053Y-48275D03*
X79053Y-48275D03*
G54D16*
X92987Y-58187D03*
X92987Y-56612D03*
G54D12*
X78050Y-52350D03*
G54D13*
X77050Y-52350D03*
G54D12*
X78050Y-53350D03*
G54D13*
X77050Y-53350D03*
G54D17*
X76000Y-56275D03*
X101150Y-56275D03*
G54D18*
X97350Y-45975D03*
X79800Y-45975D03*
G54D19*
X78668Y-56249D03*
X79698Y-55219D03*
X78384Y-57696D03*
X77313Y-58768D03*
X97837Y-56884D03*
X96807Y-55854D03*
X99285Y-57168D03*
X100357Y-58239D03*
G54D20*
X85050Y-47350D03*
X85050Y-48350D03*
X85050Y-49350D03*
X85050Y-50350D03*
X85050Y-51350D03*
G54D21*
X83350Y-54090D03*
X85000Y-54050D03*
X91880Y-48040D03*
X81800Y-53380D03*
X83080Y-46000D03*
X83650Y-51800D03*
X94150Y-59250D03*
X86650Y-52950D03*
X82850Y-58650D03*
X97800Y-49050D03*
X92650Y-52400D03*
X97650Y-61750D03*
X87100Y-58400D03*
X82250Y-60100D03*
X96720Y-47740D03*
X95940Y-49280D03*
X95900Y-50900D03*
X96200Y-51300D03*
X98250Y-48700D03*
X97120Y-47420D03*
X98600Y-51150D03*
X98100Y-51150D03*
X92550Y-50000D03*
X100350Y-49200D03*
X99900Y-48950D03*
X93540Y-48000D03*
X94000Y-48100D03*
X89900Y-49520D03*
X97850Y-51500D03*
X100650Y-48800D03*
X98400Y-49100D03*
X85350Y-55650D03*
X80160Y-53100D03*
X85100Y-55000D03*
X80680Y-54080D03*
X92250Y-50450D03*
X85600Y-53150D03*
X85450Y-54100D03*
X85100Y-56000D03*
X79880Y-52660D03*
X85650Y-55300D03*
X80400Y-53760D03*
X83250Y-57500D03*
X90150Y-54100D03*
X96500Y-52800D03*
X97100Y-48400D03*
X82240Y-61820D03*
X83400Y-56760D03*
X79000Y-59450D03*
X82300Y-58000D03*
X95060Y-47640D03*
X94540Y-50040D03*
X90440Y-52360D03*
X91620Y-52360D03*
X84480Y-45940D03*
X81820Y-45960D03*
X75425Y-54675D03*
X76900Y-45800D03*
X81850Y-50050D03*
X95200Y-61150D03*
X89050Y-52750D03*
X91850Y-59550D03*
X84200Y-62250D03*
X93350Y-55100D03*
X92450Y-51450D03*
X101850Y-48000D03*
X99300Y-58650D03*
X84450Y-58650D03*
X85900Y-54050D03*
X84750Y-57400D03*
X77200Y-54000D03*
X98300Y-58850D03*
X90000Y-55400D03*
X90400Y-60060D03*
X90100Y-55900D03*
X101150Y-52450D03*
X90000Y-54900D03*
X90200Y-50880D03*
X99100Y-45800D03*
X93820Y-47600D03*
X85750Y-59300D03*
X85200Y-57400D03*
X92775Y-60900D03*
X80075Y-49425D03*
G54D22*
X99150Y-51700D02*
X98600Y-51150D01*
X91578Y-54500D02*
X90650Y-53571D01*
X98650Y-54500D02*
X91578Y-54500D01*
X99150Y-54000D02*
X98650Y-54500D01*
X99150Y-52850D02*
X99150Y-54000D01*
X99150Y-52850D02*
X99150Y-51700D01*
X92650Y-53571D02*
X92650Y-53950D01*
X98150Y-51200D02*
X98100Y-51150D01*
X98150Y-54000D02*
X98150Y-51200D01*
X97850Y-54300D02*
X98150Y-54000D01*
X93000Y-54300D02*
X97850Y-54300D01*
X92650Y-53950D02*
X93000Y-54300D01*
X92550Y-50000D02*
X93300Y-50000D01*
X95650Y-47649D02*
X95650Y-47071D01*
X93300Y-50000D02*
X95650Y-47649D01*
X97150Y-53800D02*
X97150Y-52200D01*
X91650Y-53571D02*
X91678Y-53571D01*
X93300Y-54050D02*
X96900Y-54050D01*
X93150Y-53900D02*
X93300Y-54050D01*
X93150Y-53350D02*
X93150Y-53900D01*
X92900Y-53100D02*
X93150Y-53350D01*
X92150Y-53100D02*
X92900Y-53100D01*
X91678Y-53571D02*
X92150Y-53100D01*
X96900Y-54050D02*
X97150Y-53800D01*
X97150Y-52200D02*
X97850Y-51500D01*
X98400Y-49100D02*
X98400Y-50080D01*
X94162Y-53060D02*
X93650Y-53571D01*
X95420Y-53060D02*
X94162Y-53060D01*
X98400Y-50080D02*
X95420Y-53060D01*
X92250Y-50450D02*
X93190Y-50450D01*
X96568Y-47071D02*
X96650Y-47071D01*
X93190Y-50450D02*
X96568Y-47071D01*
X91700Y-50450D02*
X91150Y-51000D01*
X92250Y-50450D02*
X91700Y-50450D01*
X90012Y-56612D02*
X92987Y-56612D01*
X88600Y-55200D02*
X90012Y-56612D01*
X88600Y-54400D02*
X88600Y-55200D01*
X88850Y-54150D02*
X88600Y-54400D01*
X89900Y-53100D02*
X88850Y-54150D01*
X91150Y-51000D02*
X91150Y-52450D01*
X91150Y-52450D02*
X91150Y-52500D01*
X91150Y-52500D02*
X90850Y-52800D01*
X90200Y-52800D02*
X89900Y-53100D01*
X90850Y-52800D02*
X90200Y-52800D01*
X98900Y-49540D02*
X98900Y-49900D01*
X96500Y-52300D02*
X96500Y-52800D01*
X98900Y-49900D02*
X96500Y-52300D01*
X98900Y-48321D02*
X97650Y-47071D01*
X98900Y-49550D02*
X98900Y-49540D01*
X98900Y-49540D02*
X98900Y-48321D01*
G54D23*
X79000Y-59450D02*
X80850Y-59450D01*
X80850Y-59450D02*
X81740Y-60340D01*
X81740Y-61320D02*
X82240Y-61820D01*
X81740Y-60340D02*
X81740Y-61320D01*
X80850Y-59450D02*
X82300Y-58000D01*
G54D22*
X93650Y-47071D02*
X93911Y-47071D01*
X95060Y-47640D02*
X94480Y-47640D01*
X94460Y-47620D02*
X94480Y-47640D01*
X93911Y-47071D02*
X94460Y-47620D01*
X96200Y-46050D02*
X97275Y-46050D01*
X97275Y-46050D02*
X97350Y-45975D01*
X96200Y-45900D02*
X97275Y-45900D01*
X97275Y-45900D02*
X97350Y-45975D01*
X97350Y-45975D02*
X94747Y-45975D01*
X94747Y-45975D02*
X93650Y-47071D01*
X100050Y-45750D02*
X100050Y-46500D01*
X100650Y-45750D02*
X101150Y-46250D01*
X101150Y-46250D02*
X101150Y-47650D01*
X101150Y-47650D02*
X101500Y-48000D01*
X101500Y-48000D02*
X101850Y-48000D01*
X100050Y-45750D02*
X100650Y-45750D01*
X100500Y-48000D02*
X101850Y-48000D01*
X100150Y-47650D02*
X100500Y-48000D01*
X100150Y-46600D02*
X100150Y-47650D01*
X100050Y-46500D02*
X100150Y-46600D01*
X101150Y-52450D02*
X100550Y-52450D01*
X100550Y-52450D02*
X100150Y-52850D01*
X100150Y-52850D02*
X100150Y-54150D01*
X100150Y-54150D02*
X99600Y-54700D01*
X99600Y-54700D02*
X90200Y-54700D01*
X90200Y-54700D02*
X90010Y-54880D01*
X90010Y-54890D02*
X90000Y-54900D01*
X90010Y-54880D02*
X90010Y-54890D01*
G54D10*
G36*
X98600Y-48449D02*
X98491Y-48339D01*
X98334Y-48275D01*
X98165Y-48274D01*
X98009Y-48339D01*
X97889Y-48458D01*
X97825Y-48615D01*
X97825Y-48625D01*
X97715Y-48624D01*
X97559Y-48689D01*
X97439Y-48808D01*
X97375Y-48965D01*
X97374Y-49134D01*
X97439Y-49290D01*
X97558Y-49410D01*
X97715Y-49474D01*
X97884Y-49475D01*
X98040Y-49410D01*
X98074Y-49375D01*
X98100Y-49401D01*
X98100Y-49955D01*
X96592Y-51463D01*
X96624Y-51384D01*
X96625Y-51215D01*
X96560Y-51059D01*
X96441Y-50939D01*
X96365Y-50908D01*
X96365Y-49195D01*
X96300Y-49039D01*
X96181Y-48919D01*
X96024Y-48855D01*
X95855Y-48854D01*
X95699Y-48919D01*
X95579Y-49038D01*
X95515Y-49195D01*
X95514Y-49364D01*
X95579Y-49520D01*
X95698Y-49640D01*
X95855Y-49704D01*
X96024Y-49705D01*
X96180Y-49640D01*
X96300Y-49521D01*
X96364Y-49364D01*
X96365Y-49195D01*
X96365Y-50908D01*
X96325Y-50891D01*
X96325Y-50815D01*
X96260Y-50659D01*
X96141Y-50539D01*
X95984Y-50475D01*
X95815Y-50474D01*
X95659Y-50539D01*
X95539Y-50658D01*
X95475Y-50815D01*
X95474Y-50984D01*
X95539Y-51140D01*
X95658Y-51260D01*
X95774Y-51308D01*
X95774Y-51384D01*
X95839Y-51540D01*
X95958Y-51660D01*
X96115Y-51724D01*
X96284Y-51725D01*
X96363Y-51692D01*
X95295Y-52760D01*
X94162Y-52760D01*
X94047Y-52782D01*
X93950Y-52847D01*
X93751Y-53046D01*
X93546Y-53046D01*
X93353Y-53126D01*
X93352Y-53127D01*
X93112Y-52887D01*
X93014Y-52822D01*
X92900Y-52800D01*
X92794Y-52800D01*
X92890Y-52760D01*
X93010Y-52641D01*
X93074Y-52484D01*
X93075Y-52315D01*
X93010Y-52159D01*
X92891Y-52039D01*
X92734Y-51975D01*
X92565Y-51974D01*
X92409Y-52039D01*
X92289Y-52158D01*
X92225Y-52315D01*
X92224Y-52484D01*
X92289Y-52640D01*
X92408Y-52760D01*
X92505Y-52800D01*
X92150Y-52800D01*
X92035Y-52822D01*
X91937Y-52887D01*
X91771Y-53053D01*
X91755Y-53046D01*
X91546Y-53046D01*
X91353Y-53126D01*
X91205Y-53274D01*
X91150Y-53407D01*
X91095Y-53274D01*
X90948Y-53127D01*
X90872Y-53095D01*
X90964Y-53077D01*
X90964Y-53077D01*
X91062Y-53012D01*
X91362Y-52712D01*
X91362Y-52712D01*
X91427Y-52614D01*
X91449Y-52500D01*
X91450Y-52500D01*
X91450Y-52450D01*
X91450Y-51124D01*
X91824Y-50750D01*
X91948Y-50750D01*
X92008Y-50810D01*
X92165Y-50874D01*
X92334Y-50875D01*
X92490Y-50810D01*
X92551Y-50750D01*
X93190Y-50750D01*
X93190Y-50749D01*
X93304Y-50727D01*
X93304Y-50727D01*
X93402Y-50662D01*
X96294Y-47769D01*
X96294Y-47824D01*
X96359Y-47980D01*
X96478Y-48100D01*
X96635Y-48164D01*
X96804Y-48165D01*
X96960Y-48100D01*
X97080Y-47981D01*
X97136Y-47845D01*
X97204Y-47845D01*
X97360Y-47780D01*
X97480Y-47661D01*
X97512Y-47582D01*
X97545Y-47596D01*
X97751Y-47596D01*
X98600Y-48445D01*
X98600Y-48449D01*
X98600Y-48449D01*
G37*
G54D22*
X98600Y-48449D02*
X98491Y-48339D01*
X98334Y-48275D01*
X98165Y-48274D01*
X98009Y-48339D01*
X97889Y-48458D01*
X97825Y-48615D01*
X97825Y-48625D01*
X97715Y-48624D01*
X97559Y-48689D01*
X97439Y-48808D01*
X97375Y-48965D01*
X97374Y-49134D01*
X97439Y-49290D01*
X97558Y-49410D01*
X97715Y-49474D01*
X97884Y-49475D01*
X98040Y-49410D01*
X98074Y-49375D01*
X98100Y-49401D01*
X98100Y-49955D01*
X96592Y-51463D01*
X96624Y-51384D01*
X96625Y-51215D01*
X96560Y-51059D01*
X96441Y-50939D01*
X96365Y-50908D01*
X96365Y-49195D01*
X96300Y-49039D01*
X96181Y-48919D01*
X96024Y-48855D01*
X95855Y-48854D01*
X95699Y-48919D01*
X95579Y-49038D01*
X95515Y-49195D01*
X95514Y-49364D01*
X95579Y-49520D01*
X95698Y-49640D01*
X95855Y-49704D01*
X96024Y-49705D01*
X96180Y-49640D01*
X96300Y-49521D01*
X96364Y-49364D01*
X96365Y-49195D01*
X96365Y-50908D01*
X96325Y-50891D01*
X96325Y-50815D01*
X96260Y-50659D01*
X96141Y-50539D01*
X95984Y-50475D01*
X95815Y-50474D01*
X95659Y-50539D01*
X95539Y-50658D01*
X95475Y-50815D01*
X95474Y-50984D01*
X95539Y-51140D01*
X95658Y-51260D01*
X95774Y-51308D01*
X95774Y-51384D01*
X95839Y-51540D01*
X95958Y-51660D01*
X96115Y-51724D01*
X96284Y-51725D01*
X96363Y-51692D01*
X95295Y-52760D01*
X94162Y-52760D01*
X94047Y-52782D01*
X93950Y-52847D01*
X93751Y-53046D01*
X93546Y-53046D01*
X93353Y-53126D01*
X93352Y-53127D01*
X93112Y-52887D01*
X93014Y-52822D01*
X92900Y-52800D01*
X92794Y-52800D01*
X92890Y-52760D01*
X93010Y-52641D01*
X93074Y-52484D01*
X93075Y-52315D01*
X93010Y-52159D01*
X92891Y-52039D01*
X92734Y-51975D01*
X92565Y-51974D01*
X92409Y-52039D01*
X92289Y-52158D01*
X92225Y-52315D01*
X92224Y-52484D01*
X92289Y-52640D01*
X92408Y-52760D01*
X92505Y-52800D01*
X92150Y-52800D01*
X92035Y-52822D01*
X91937Y-52887D01*
X91771Y-53053D01*
X91755Y-53046D01*
X91546Y-53046D01*
X91353Y-53126D01*
X91205Y-53274D01*
X91150Y-53407D01*
X91095Y-53274D01*
X90948Y-53127D01*
X90872Y-53095D01*
X90964Y-53077D01*
X90964Y-53077D01*
X91062Y-53012D01*
X91362Y-52712D01*
X91362Y-52712D01*
X91427Y-52614D01*
X91449Y-52500D01*
X91450Y-52500D01*
X91450Y-52450D01*
X91450Y-51124D01*
X91824Y-50750D01*
X91948Y-50750D01*
X92008Y-50810D01*
X92165Y-50874D01*
X92334Y-50875D01*
X92490Y-50810D01*
X92551Y-50750D01*
X93190Y-50750D01*
X93190Y-50749D01*
X93304Y-50727D01*
X93304Y-50727D01*
X93402Y-50662D01*
X96294Y-47769D01*
X96294Y-47824D01*
X96359Y-47980D01*
X96478Y-48100D01*
X96635Y-48164D01*
X96804Y-48165D01*
X96960Y-48100D01*
X97080Y-47981D01*
X97136Y-47845D01*
X97204Y-47845D01*
X97360Y-47780D01*
X97480Y-47661D01*
X97512Y-47582D01*
X97545Y-47596D01*
X97751Y-47596D01*
X98600Y-48445D01*
X98600Y-48449D01*
G54D10*
G36*
X102092Y-46771D02*
X101948Y-46627D01*
X101755Y-46546D01*
X101546Y-46546D01*
X101353Y-46626D01*
X101205Y-46774D01*
X101150Y-46907D01*
X101095Y-46774D01*
X100948Y-46627D01*
X100755Y-46546D01*
X100546Y-46546D01*
X100353Y-46626D01*
X100205Y-46774D01*
X100150Y-46907D01*
X100095Y-46774D01*
X99948Y-46627D01*
X99755Y-46546D01*
X99546Y-46546D01*
X99353Y-46626D01*
X99205Y-46774D01*
X99150Y-46907D01*
X99095Y-46774D01*
X98948Y-46627D01*
X98755Y-46546D01*
X98546Y-46546D01*
X98353Y-46626D01*
X98205Y-46774D01*
X98150Y-46907D01*
X98095Y-46774D01*
X97948Y-46627D01*
X97864Y-46592D01*
X97875Y-46571D01*
X97350Y-46045D01*
X97344Y-46051D01*
X97273Y-45980D01*
X97279Y-45975D01*
X97273Y-45969D01*
X97344Y-45898D01*
X97350Y-45904D01*
X97355Y-45898D01*
X97426Y-45969D01*
X97420Y-45975D01*
X97946Y-46500D01*
X98071Y-46437D01*
X98193Y-46126D01*
X98187Y-45791D01*
X98085Y-45545D01*
X98753Y-45545D01*
X98739Y-45558D01*
X98675Y-45715D01*
X98674Y-45884D01*
X98739Y-46040D01*
X98858Y-46160D01*
X99015Y-46224D01*
X99184Y-46225D01*
X99340Y-46160D01*
X99460Y-46041D01*
X99524Y-45884D01*
X99525Y-45715D01*
X99460Y-45559D01*
X99446Y-45545D01*
X102092Y-45545D01*
X102092Y-46771D01*
X102092Y-46771D01*
G37*
G54D22*
X102092Y-46771D02*
X101948Y-46627D01*
X101755Y-46546D01*
X101546Y-46546D01*
X101353Y-46626D01*
X101205Y-46774D01*
X101150Y-46907D01*
X101095Y-46774D01*
X100948Y-46627D01*
X100755Y-46546D01*
X100546Y-46546D01*
X100353Y-46626D01*
X100205Y-46774D01*
X100150Y-46907D01*
X100095Y-46774D01*
X99948Y-46627D01*
X99755Y-46546D01*
X99546Y-46546D01*
X99353Y-46626D01*
X99205Y-46774D01*
X99150Y-46907D01*
X99095Y-46774D01*
X98948Y-46627D01*
X98755Y-46546D01*
X98546Y-46546D01*
X98353Y-46626D01*
X98205Y-46774D01*
X98150Y-46907D01*
X98095Y-46774D01*
X97948Y-46627D01*
X97864Y-46592D01*
X97875Y-46571D01*
X97350Y-46045D01*
X97344Y-46051D01*
X97273Y-45980D01*
X97279Y-45975D01*
X97273Y-45969D01*
X97344Y-45898D01*
X97350Y-45904D01*
X97355Y-45898D01*
X97426Y-45969D01*
X97420Y-45975D01*
X97946Y-46500D01*
X98071Y-46437D01*
X98193Y-46126D01*
X98187Y-45791D01*
X98085Y-45545D01*
X98753Y-45545D01*
X98739Y-45558D01*
X98675Y-45715D01*
X98674Y-45884D01*
X98739Y-46040D01*
X98858Y-46160D01*
X99015Y-46224D01*
X99184Y-46225D01*
X99340Y-46160D01*
X99460Y-46041D01*
X99524Y-45884D01*
X99525Y-45715D01*
X99460Y-45559D01*
X99446Y-45545D01*
X102092Y-45545D01*
X102092Y-46771D01*
G54D10*
G36*
X102092Y-58531D02*
X100942Y-59556D01*
X100942Y-58124D01*
X100853Y-57909D01*
X100688Y-57744D01*
X100474Y-57655D01*
X100241Y-57655D01*
X100026Y-57744D01*
X99870Y-57900D01*
X99870Y-57052D01*
X99781Y-56837D01*
X99617Y-56672D01*
X99402Y-56583D01*
X99169Y-56583D01*
X98954Y-56672D01*
X98790Y-56836D01*
X98700Y-57051D01*
X98700Y-57283D01*
X98789Y-57498D01*
X98953Y-57663D01*
X99168Y-57752D01*
X99401Y-57752D01*
X99616Y-57664D01*
X99780Y-57499D01*
X99870Y-57285D01*
X99870Y-57052D01*
X99870Y-57900D01*
X99861Y-57908D01*
X99772Y-58123D01*
X99772Y-58355D01*
X99861Y-58570D01*
X100025Y-58735D01*
X100240Y-58824D01*
X100473Y-58824D01*
X100688Y-58735D01*
X100852Y-58571D01*
X100941Y-58356D01*
X100942Y-58124D01*
X100942Y-59556D01*
X98725Y-61531D01*
X98725Y-58765D01*
X98660Y-58609D01*
X98541Y-58489D01*
X98422Y-58440D01*
X98422Y-56768D01*
X98333Y-56553D01*
X98169Y-56388D01*
X97954Y-56299D01*
X97722Y-56299D01*
X97507Y-56388D01*
X97342Y-56552D01*
X97253Y-56767D01*
X97253Y-57000D01*
X97341Y-57214D01*
X97506Y-57379D01*
X97721Y-57468D01*
X97953Y-57468D01*
X98168Y-57380D01*
X98333Y-57215D01*
X98422Y-57001D01*
X98422Y-56768D01*
X98422Y-58440D01*
X98384Y-58425D01*
X98215Y-58424D01*
X98059Y-58489D01*
X97939Y-58608D01*
X97875Y-58765D01*
X97874Y-58934D01*
X97939Y-59090D01*
X98058Y-59210D01*
X98215Y-59274D01*
X98384Y-59275D01*
X98540Y-59210D01*
X98660Y-59091D01*
X98724Y-58934D01*
X98725Y-58765D01*
X98725Y-61531D01*
X98075Y-62110D01*
X98075Y-61665D01*
X98010Y-61509D01*
X97891Y-61389D01*
X97734Y-61325D01*
X97565Y-61324D01*
X97409Y-61389D01*
X97289Y-61508D01*
X97225Y-61665D01*
X97224Y-61834D01*
X97289Y-61990D01*
X97408Y-62110D01*
X97565Y-62174D01*
X97734Y-62175D01*
X97890Y-62110D01*
X98010Y-61991D01*
X98074Y-61834D01*
X98075Y-61665D01*
X98075Y-62110D01*
X97193Y-62895D01*
X94575Y-63980D01*
X94575Y-59165D01*
X94510Y-59009D01*
X94391Y-58889D01*
X94234Y-58825D01*
X94065Y-58824D01*
X93909Y-58889D01*
X93789Y-59008D01*
X93725Y-59165D01*
X93724Y-59334D01*
X93789Y-59490D01*
X93908Y-59610D01*
X94065Y-59674D01*
X94234Y-59675D01*
X94390Y-59610D01*
X94510Y-59491D01*
X94574Y-59334D01*
X94575Y-59165D01*
X94575Y-63980D01*
X93634Y-64369D01*
X93634Y-58291D01*
X93625Y-58035D01*
X93545Y-57843D01*
X93440Y-57804D01*
X93369Y-57875D01*
X93369Y-57733D01*
X93331Y-57628D01*
X93091Y-57539D01*
X92835Y-57549D01*
X92642Y-57628D01*
X92604Y-57733D01*
X92987Y-58116D01*
X93369Y-57733D01*
X93369Y-57875D01*
X93057Y-58187D01*
X93440Y-58570D01*
X93545Y-58531D01*
X93634Y-58291D01*
X93634Y-64369D01*
X93369Y-64479D01*
X93369Y-58641D01*
X92987Y-58258D01*
X92916Y-58328D01*
X92916Y-58187D01*
X92533Y-57804D01*
X92428Y-57843D01*
X92339Y-58083D01*
X92348Y-58339D01*
X92428Y-58531D01*
X92533Y-58570D01*
X92916Y-58187D01*
X92916Y-58328D01*
X92604Y-58641D01*
X92642Y-58746D01*
X92882Y-58835D01*
X93138Y-58825D01*
X93331Y-58746D01*
X93369Y-58641D01*
X93369Y-64479D01*
X92859Y-64690D01*
X92395Y-64690D01*
X92395Y-61094D01*
X92414Y-61140D01*
X92533Y-61260D01*
X92690Y-61324D01*
X92859Y-61325D01*
X93015Y-61260D01*
X93135Y-61141D01*
X93199Y-60984D01*
X93200Y-60815D01*
X93135Y-60659D01*
X93016Y-60539D01*
X92859Y-60475D01*
X92690Y-60474D01*
X92534Y-60539D01*
X92414Y-60658D01*
X92350Y-60815D01*
X92350Y-60882D01*
X92316Y-60832D01*
X92229Y-60774D01*
X92125Y-60753D01*
X90825Y-60753D01*
X90825Y-59975D01*
X90760Y-59819D01*
X90641Y-59699D01*
X90484Y-59635D01*
X90315Y-59634D01*
X90159Y-59699D01*
X90039Y-59818D01*
X89975Y-59975D01*
X89974Y-60144D01*
X90039Y-60300D01*
X90158Y-60420D01*
X90315Y-60484D01*
X90484Y-60485D01*
X90640Y-60420D01*
X90760Y-60301D01*
X90824Y-60144D01*
X90825Y-59975D01*
X90825Y-60753D01*
X87525Y-60753D01*
X87525Y-58315D01*
X87460Y-58159D01*
X87350Y-58049D01*
X87350Y-46393D01*
X87053Y-46096D01*
X86756Y-46393D01*
X86780Y-46486D01*
X86977Y-46555D01*
X87185Y-46544D01*
X87325Y-46486D01*
X87350Y-46393D01*
X87350Y-58049D01*
X87341Y-58039D01*
X87184Y-57975D01*
X87075Y-57974D01*
X87075Y-52865D01*
X87010Y-52709D01*
X86891Y-52589D01*
X86734Y-52525D01*
X86565Y-52524D01*
X86409Y-52589D01*
X86289Y-52708D01*
X86225Y-52865D01*
X86224Y-53034D01*
X86289Y-53190D01*
X86408Y-53310D01*
X86565Y-53374D01*
X86734Y-53375D01*
X86890Y-53310D01*
X87010Y-53191D01*
X87074Y-53034D01*
X87075Y-52865D01*
X87075Y-57974D01*
X87015Y-57974D01*
X86859Y-58039D01*
X86739Y-58158D01*
X86675Y-58315D01*
X86674Y-58484D01*
X86739Y-58640D01*
X86858Y-58760D01*
X87015Y-58824D01*
X87184Y-58825D01*
X87340Y-58760D01*
X87460Y-58641D01*
X87524Y-58484D01*
X87525Y-58315D01*
X87525Y-60753D01*
X86175Y-60753D01*
X86175Y-59215D01*
X86110Y-59059D01*
X86075Y-59024D01*
X86075Y-55215D01*
X86025Y-55094D01*
X86025Y-53065D01*
X86003Y-53012D01*
X86003Y-46488D01*
X86003Y-46075D01*
X85590Y-46075D01*
X85528Y-46138D01*
X85528Y-46251D01*
X85528Y-46350D01*
X85566Y-46442D01*
X85636Y-46512D01*
X85728Y-46550D01*
X85940Y-46550D01*
X86003Y-46488D01*
X86003Y-53012D01*
X85960Y-52909D01*
X85841Y-52789D01*
X85697Y-52730D01*
X85697Y-48454D01*
X85693Y-48341D01*
X85693Y-47222D01*
X85596Y-46985D01*
X85415Y-46804D01*
X85178Y-46706D01*
X84922Y-46706D01*
X84685Y-46803D01*
X84504Y-46984D01*
X84406Y-47221D01*
X84406Y-47477D01*
X84503Y-47714D01*
X84672Y-47882D01*
X84666Y-47896D01*
X85050Y-48279D01*
X85433Y-47896D01*
X85427Y-47882D01*
X85595Y-47715D01*
X85693Y-47478D01*
X85693Y-47222D01*
X85693Y-48341D01*
X85688Y-48198D01*
X85608Y-48005D01*
X85503Y-47966D01*
X85120Y-48350D01*
X85503Y-48733D01*
X85608Y-48694D01*
X85697Y-48454D01*
X85697Y-52730D01*
X85693Y-52728D01*
X85693Y-51222D01*
X85596Y-50985D01*
X85460Y-50849D01*
X85595Y-50715D01*
X85693Y-50478D01*
X85693Y-50222D01*
X85596Y-49985D01*
X85460Y-49849D01*
X85595Y-49715D01*
X85693Y-49478D01*
X85693Y-49222D01*
X85596Y-48985D01*
X85427Y-48817D01*
X85433Y-48803D01*
X85050Y-48420D01*
X84979Y-48491D01*
X84979Y-48350D01*
X84596Y-47966D01*
X84491Y-48005D01*
X84402Y-48245D01*
X84411Y-48501D01*
X84491Y-48694D01*
X84596Y-48733D01*
X84979Y-48350D01*
X84979Y-48491D01*
X84666Y-48803D01*
X84672Y-48817D01*
X84504Y-48984D01*
X84406Y-49221D01*
X84406Y-49477D01*
X84503Y-49714D01*
X84639Y-49850D01*
X84504Y-49984D01*
X84406Y-50221D01*
X84406Y-50477D01*
X84503Y-50714D01*
X84639Y-50850D01*
X84504Y-50984D01*
X84406Y-51221D01*
X84406Y-51477D01*
X84503Y-51714D01*
X84684Y-51895D01*
X84921Y-51993D01*
X85177Y-51993D01*
X85414Y-51896D01*
X85595Y-51715D01*
X85693Y-51478D01*
X85693Y-51222D01*
X85693Y-52728D01*
X85684Y-52725D01*
X85515Y-52724D01*
X85359Y-52789D01*
X85239Y-52908D01*
X85175Y-53065D01*
X85174Y-53234D01*
X85239Y-53390D01*
X85358Y-53510D01*
X85515Y-53574D01*
X85684Y-53575D01*
X85840Y-53510D01*
X85960Y-53391D01*
X86024Y-53234D01*
X86025Y-53065D01*
X86025Y-55094D01*
X86010Y-55059D01*
X85891Y-54939D01*
X85875Y-54933D01*
X85875Y-54015D01*
X85810Y-53859D01*
X85691Y-53739D01*
X85534Y-53675D01*
X85365Y-53674D01*
X85266Y-53715D01*
X85241Y-53689D01*
X85084Y-53625D01*
X84915Y-53624D01*
X84759Y-53689D01*
X84639Y-53808D01*
X84575Y-53965D01*
X84574Y-54134D01*
X84639Y-54290D01*
X84758Y-54410D01*
X84915Y-54474D01*
X85084Y-54475D01*
X85183Y-54434D01*
X85208Y-54460D01*
X85365Y-54524D01*
X85534Y-54525D01*
X85690Y-54460D01*
X85810Y-54341D01*
X85874Y-54184D01*
X85875Y-54015D01*
X85875Y-54933D01*
X85734Y-54875D01*
X85565Y-54874D01*
X85516Y-54895D01*
X85460Y-54759D01*
X85341Y-54639D01*
X85184Y-54575D01*
X85015Y-54574D01*
X84859Y-54639D01*
X84739Y-54758D01*
X84675Y-54915D01*
X84674Y-55084D01*
X84739Y-55240D01*
X84858Y-55360D01*
X84987Y-55413D01*
X84925Y-55565D01*
X84925Y-55612D01*
X84859Y-55639D01*
X84739Y-55758D01*
X84675Y-55915D01*
X84674Y-56084D01*
X84739Y-56240D01*
X84858Y-56360D01*
X85015Y-56424D01*
X85184Y-56425D01*
X85340Y-56360D01*
X85460Y-56241D01*
X85524Y-56084D01*
X85524Y-56037D01*
X85590Y-56010D01*
X85710Y-55891D01*
X85774Y-55734D01*
X85774Y-55708D01*
X85890Y-55660D01*
X86010Y-55541D01*
X86074Y-55384D01*
X86075Y-55215D01*
X86075Y-59024D01*
X85991Y-58939D01*
X85834Y-58875D01*
X85665Y-58874D01*
X85625Y-58891D01*
X85625Y-57315D01*
X85560Y-57159D01*
X85441Y-57039D01*
X85284Y-56975D01*
X85115Y-56974D01*
X84974Y-57033D01*
X84834Y-56975D01*
X84665Y-56974D01*
X84509Y-57039D01*
X84389Y-57158D01*
X84325Y-57315D01*
X84324Y-57484D01*
X84389Y-57640D01*
X84508Y-57760D01*
X84665Y-57824D01*
X84834Y-57825D01*
X84975Y-57766D01*
X85115Y-57824D01*
X85284Y-57825D01*
X85440Y-57760D01*
X85560Y-57641D01*
X85624Y-57484D01*
X85625Y-57315D01*
X85625Y-58891D01*
X85509Y-58939D01*
X85389Y-59058D01*
X85325Y-59215D01*
X85324Y-59384D01*
X85389Y-59540D01*
X85508Y-59660D01*
X85665Y-59724D01*
X85834Y-59725D01*
X85990Y-59660D01*
X86110Y-59541D01*
X86174Y-59384D01*
X86175Y-59215D01*
X86175Y-60753D01*
X85039Y-60753D01*
X84936Y-60774D01*
X84848Y-60832D01*
X84790Y-60920D01*
X84769Y-61023D01*
X84769Y-64690D01*
X84303Y-64690D01*
X84225Y-64653D01*
X84225Y-48546D01*
X84145Y-48353D01*
X83997Y-48205D01*
X83804Y-48125D01*
X83596Y-48124D01*
X83505Y-48162D01*
X83505Y-45915D01*
X83440Y-45759D01*
X83321Y-45639D01*
X83164Y-45575D01*
X82995Y-45574D01*
X82839Y-45639D01*
X82719Y-45758D01*
X82655Y-45915D01*
X82654Y-46084D01*
X82719Y-46240D01*
X82838Y-46360D01*
X82995Y-46424D01*
X83164Y-46425D01*
X83320Y-46360D01*
X83440Y-46241D01*
X83504Y-46084D01*
X83505Y-45915D01*
X83505Y-48162D01*
X83403Y-48204D01*
X83255Y-48352D01*
X83225Y-48424D01*
X83225Y-48325D01*
X83187Y-48233D01*
X83116Y-48163D01*
X83024Y-48125D01*
X82925Y-48124D01*
X82375Y-48124D01*
X82283Y-48162D01*
X82213Y-48233D01*
X82175Y-48325D01*
X82174Y-48424D01*
X82174Y-48974D01*
X82212Y-49066D01*
X82283Y-49136D01*
X82375Y-49174D01*
X82474Y-49175D01*
X83024Y-49175D01*
X83116Y-49137D01*
X83186Y-49066D01*
X83224Y-48974D01*
X83225Y-48875D01*
X83225Y-48875D01*
X83254Y-48947D01*
X83402Y-49094D01*
X83595Y-49174D01*
X83803Y-49175D01*
X83997Y-49095D01*
X84144Y-48947D01*
X84224Y-48754D01*
X84225Y-48546D01*
X84225Y-64653D01*
X84075Y-64580D01*
X84075Y-51715D01*
X84010Y-51559D01*
X83891Y-51439D01*
X83734Y-51375D01*
X83565Y-51374D01*
X83409Y-51439D01*
X83289Y-51558D01*
X83225Y-51715D01*
X83224Y-51884D01*
X83289Y-52040D01*
X83408Y-52160D01*
X83565Y-52224D01*
X83734Y-52225D01*
X83890Y-52160D01*
X84010Y-52041D01*
X84074Y-51884D01*
X84075Y-51715D01*
X84075Y-64580D01*
X83775Y-64435D01*
X83775Y-54005D01*
X83710Y-53849D01*
X83591Y-53729D01*
X83434Y-53665D01*
X83265Y-53664D01*
X83109Y-53729D01*
X82989Y-53848D01*
X82925Y-54005D01*
X82924Y-54174D01*
X82989Y-54330D01*
X83108Y-54450D01*
X83265Y-54514D01*
X83434Y-54515D01*
X83590Y-54450D01*
X83710Y-54331D01*
X83774Y-54174D01*
X83775Y-54005D01*
X83775Y-64435D01*
X80495Y-62850D01*
X82970Y-62850D01*
X82957Y-59065D01*
X83090Y-59010D01*
X83210Y-58891D01*
X83274Y-58734D01*
X83275Y-58565D01*
X83210Y-58409D01*
X83091Y-58289D01*
X82954Y-58233D01*
X82953Y-57804D01*
X83008Y-57860D01*
X83165Y-57924D01*
X83334Y-57925D01*
X83490Y-57860D01*
X83610Y-57741D01*
X83674Y-57584D01*
X83675Y-57415D01*
X83610Y-57259D01*
X83491Y-57139D01*
X83334Y-57075D01*
X83165Y-57074D01*
X83009Y-57139D01*
X82951Y-57197D01*
X82949Y-56759D01*
X82900Y-56709D01*
X82225Y-56721D01*
X82225Y-53295D01*
X82160Y-53139D01*
X82041Y-53019D01*
X81884Y-52955D01*
X81715Y-52954D01*
X81559Y-53019D01*
X81439Y-53138D01*
X81375Y-53295D01*
X81374Y-53464D01*
X81439Y-53620D01*
X81558Y-53740D01*
X81715Y-53804D01*
X81884Y-53805D01*
X82040Y-53740D01*
X82160Y-53621D01*
X82224Y-53464D01*
X82225Y-53295D01*
X82225Y-56721D01*
X81105Y-56739D01*
X81105Y-53995D01*
X81040Y-53839D01*
X80921Y-53719D01*
X80825Y-53680D01*
X80825Y-53675D01*
X80760Y-53519D01*
X80641Y-53399D01*
X80513Y-53347D01*
X80520Y-53341D01*
X80584Y-53184D01*
X80585Y-53015D01*
X80520Y-52859D01*
X80500Y-52839D01*
X80500Y-49340D01*
X80435Y-49184D01*
X80316Y-49064D01*
X80159Y-49000D01*
X79990Y-48999D01*
X79834Y-49064D01*
X79714Y-49183D01*
X79650Y-49340D01*
X79649Y-49509D01*
X79714Y-49665D01*
X79833Y-49785D01*
X79990Y-49849D01*
X80159Y-49850D01*
X80315Y-49785D01*
X80435Y-49666D01*
X80499Y-49509D01*
X80500Y-49340D01*
X80500Y-52839D01*
X80401Y-52739D01*
X80304Y-52700D01*
X80305Y-52575D01*
X80240Y-52419D01*
X80121Y-52299D01*
X79964Y-52235D01*
X79795Y-52234D01*
X79639Y-52299D01*
X79607Y-52331D01*
X79607Y-49357D01*
X79607Y-48357D01*
X79596Y-48138D01*
X79534Y-47987D01*
X79439Y-47960D01*
X79368Y-48031D01*
X79368Y-47889D01*
X79341Y-47794D01*
X79134Y-47720D01*
X78916Y-47731D01*
X78765Y-47794D01*
X78737Y-47889D01*
X79053Y-48204D01*
X79368Y-47889D01*
X79368Y-48031D01*
X79123Y-48275D01*
X79439Y-48590D01*
X79534Y-48563D01*
X79607Y-48357D01*
X79607Y-49357D01*
X79596Y-49138D01*
X79534Y-48987D01*
X79439Y-48960D01*
X79368Y-49031D01*
X79368Y-48889D01*
X79341Y-48794D01*
X79292Y-48776D01*
X79341Y-48756D01*
X79368Y-48661D01*
X79053Y-48346D01*
X78737Y-48661D01*
X78765Y-48756D01*
X78813Y-48774D01*
X78765Y-48794D01*
X78737Y-48889D01*
X79053Y-49204D01*
X79368Y-48889D01*
X79368Y-49031D01*
X79123Y-49275D01*
X79439Y-49590D01*
X79534Y-49563D01*
X79607Y-49357D01*
X79607Y-52331D01*
X79604Y-52334D01*
X79604Y-51331D01*
X79604Y-50331D01*
X79593Y-50113D01*
X79531Y-49962D01*
X79435Y-49934D01*
X79368Y-50002D01*
X79368Y-49661D01*
X79053Y-49346D01*
X78982Y-49417D01*
X78982Y-49275D01*
X78667Y-48960D01*
X78571Y-48987D01*
X78552Y-49043D01*
X78519Y-48964D01*
X78365Y-48809D01*
X78283Y-48775D01*
X78364Y-48742D01*
X78519Y-48587D01*
X78550Y-48511D01*
X78571Y-48563D01*
X78667Y-48590D01*
X78982Y-48275D01*
X78667Y-47960D01*
X78571Y-47987D01*
X78552Y-48043D01*
X78519Y-47964D01*
X78365Y-47809D01*
X78163Y-47725D01*
X77944Y-47725D01*
X77742Y-47809D01*
X77603Y-47947D01*
X77603Y-47926D01*
X77565Y-47834D01*
X77494Y-47763D01*
X77403Y-47725D01*
X77303Y-47725D01*
X76703Y-47725D01*
X76611Y-47763D01*
X76541Y-47833D01*
X76525Y-47873D01*
X76525Y-47475D01*
X76525Y-46925D01*
X76487Y-46833D01*
X76416Y-46763D01*
X76324Y-46725D01*
X76225Y-46724D01*
X75675Y-46724D01*
X75583Y-46762D01*
X75513Y-46833D01*
X75475Y-46925D01*
X75474Y-47024D01*
X75474Y-47574D01*
X75512Y-47666D01*
X75583Y-47736D01*
X75675Y-47774D01*
X75762Y-47775D01*
X75727Y-47789D01*
X75702Y-47882D01*
X76000Y-48179D01*
X76297Y-47882D01*
X76272Y-47789D01*
X76231Y-47775D01*
X76324Y-47775D01*
X76416Y-47737D01*
X76486Y-47666D01*
X76524Y-47574D01*
X76525Y-47475D01*
X76525Y-47873D01*
X76503Y-47925D01*
X76503Y-48025D01*
X76503Y-48079D01*
X76460Y-47977D01*
X76367Y-47952D01*
X76070Y-48250D01*
X76367Y-48547D01*
X76460Y-48522D01*
X76503Y-48401D01*
X76503Y-48625D01*
X76541Y-48717D01*
X76599Y-48775D01*
X76541Y-48833D01*
X76503Y-48925D01*
X76503Y-49025D01*
X76503Y-49625D01*
X76541Y-49717D01*
X76585Y-49761D01*
X76538Y-49808D01*
X76500Y-49900D01*
X76499Y-49999D01*
X76499Y-50599D01*
X76537Y-50691D01*
X76596Y-50750D01*
X76538Y-50808D01*
X76500Y-50900D01*
X76499Y-50999D01*
X76499Y-51599D01*
X76537Y-51691D01*
X76608Y-51761D01*
X76700Y-51799D01*
X76799Y-51800D01*
X77399Y-51800D01*
X77491Y-51762D01*
X77561Y-51691D01*
X77599Y-51599D01*
X77599Y-51577D01*
X77738Y-51715D01*
X77940Y-51799D01*
X78158Y-51800D01*
X78361Y-51716D01*
X78515Y-51561D01*
X78547Y-51486D01*
X78568Y-51537D01*
X78664Y-51565D01*
X78979Y-51250D01*
X78664Y-50934D01*
X78568Y-50962D01*
X78549Y-51017D01*
X78516Y-50938D01*
X78361Y-50784D01*
X78280Y-50750D01*
X78361Y-50716D01*
X78515Y-50561D01*
X78547Y-50486D01*
X78568Y-50537D01*
X78664Y-50565D01*
X78979Y-50250D01*
X78664Y-49934D01*
X78568Y-49962D01*
X78549Y-50017D01*
X78516Y-49938D01*
X78361Y-49784D01*
X78312Y-49763D01*
X78364Y-49742D01*
X78519Y-49587D01*
X78550Y-49511D01*
X78571Y-49563D01*
X78667Y-49590D01*
X78982Y-49275D01*
X78982Y-49417D01*
X78737Y-49661D01*
X78765Y-49756D01*
X78779Y-49761D01*
X78762Y-49768D01*
X78734Y-49864D01*
X79050Y-50179D01*
X79365Y-49864D01*
X79337Y-49768D01*
X79324Y-49763D01*
X79341Y-49756D01*
X79368Y-49661D01*
X79368Y-50002D01*
X79120Y-50250D01*
X79435Y-50565D01*
X79531Y-50537D01*
X79604Y-50331D01*
X79604Y-51331D01*
X79593Y-51113D01*
X79531Y-50962D01*
X79435Y-50934D01*
X79365Y-51005D01*
X79365Y-50864D01*
X79337Y-50768D01*
X79289Y-50751D01*
X79337Y-50731D01*
X79365Y-50635D01*
X79050Y-50320D01*
X78734Y-50635D01*
X78762Y-50731D01*
X78810Y-50748D01*
X78762Y-50768D01*
X78734Y-50864D01*
X79050Y-51179D01*
X79365Y-50864D01*
X79365Y-51005D01*
X79120Y-51250D01*
X79435Y-51565D01*
X79531Y-51537D01*
X79604Y-51331D01*
X79604Y-52334D01*
X79519Y-52418D01*
X79455Y-52575D01*
X79454Y-52744D01*
X79519Y-52900D01*
X79638Y-53020D01*
X79735Y-53059D01*
X79734Y-53184D01*
X79799Y-53340D01*
X79918Y-53460D01*
X80046Y-53512D01*
X80039Y-53518D01*
X79975Y-53675D01*
X79974Y-53844D01*
X80039Y-54000D01*
X80158Y-54120D01*
X80254Y-54159D01*
X80254Y-54164D01*
X80319Y-54320D01*
X80438Y-54440D01*
X80595Y-54504D01*
X80764Y-54505D01*
X80920Y-54440D01*
X81040Y-54321D01*
X81104Y-54164D01*
X81105Y-53995D01*
X81105Y-56739D01*
X80450Y-56750D01*
X80450Y-62828D01*
X80283Y-62747D01*
X80283Y-55103D01*
X80194Y-54888D01*
X80030Y-54723D01*
X79815Y-54634D01*
X79583Y-54634D01*
X79368Y-54723D01*
X79365Y-54726D01*
X79365Y-51635D01*
X79050Y-51320D01*
X78734Y-51635D01*
X78762Y-51731D01*
X78968Y-51804D01*
X79186Y-51793D01*
X79337Y-51731D01*
X79365Y-51635D01*
X79365Y-54726D01*
X79203Y-54887D01*
X79114Y-55102D01*
X79114Y-55335D01*
X79203Y-55549D01*
X79367Y-55714D01*
X79582Y-55803D01*
X79814Y-55803D01*
X80029Y-55715D01*
X80194Y-55550D01*
X80283Y-55336D01*
X80283Y-55103D01*
X80283Y-62747D01*
X79253Y-62249D01*
X79253Y-56133D01*
X79164Y-55918D01*
X79000Y-55753D01*
X78785Y-55664D01*
X78575Y-55664D01*
X78575Y-53575D01*
X78575Y-53025D01*
X78537Y-52933D01*
X78466Y-52863D01*
X78435Y-52850D01*
X78466Y-52837D01*
X78536Y-52766D01*
X78574Y-52674D01*
X78575Y-52575D01*
X78575Y-52025D01*
X78537Y-51933D01*
X78466Y-51863D01*
X78374Y-51825D01*
X78275Y-51824D01*
X77725Y-51824D01*
X77633Y-51862D01*
X77563Y-51933D01*
X77525Y-52025D01*
X77524Y-52124D01*
X77524Y-52124D01*
X77495Y-52053D01*
X77347Y-51905D01*
X77154Y-51825D01*
X76946Y-51824D01*
X76753Y-51904D01*
X76605Y-52052D01*
X76525Y-52245D01*
X76524Y-52453D01*
X76604Y-52647D01*
X76752Y-52794D01*
X76885Y-52850D01*
X76753Y-52904D01*
X76605Y-53052D01*
X76525Y-53245D01*
X76524Y-53453D01*
X76604Y-53647D01*
X76752Y-53794D01*
X76814Y-53820D01*
X76775Y-53915D01*
X76774Y-54084D01*
X76839Y-54240D01*
X76958Y-54360D01*
X77115Y-54424D01*
X77284Y-54425D01*
X77440Y-54360D01*
X77560Y-54241D01*
X77624Y-54084D01*
X77625Y-53915D01*
X77563Y-53767D01*
X77633Y-53836D01*
X77725Y-53874D01*
X77824Y-53875D01*
X78374Y-53875D01*
X78466Y-53837D01*
X78536Y-53766D01*
X78574Y-53674D01*
X78575Y-53575D01*
X78575Y-55664D01*
X78553Y-55664D01*
X78338Y-55753D01*
X78173Y-55917D01*
X78084Y-56132D01*
X78084Y-56365D01*
X78172Y-56580D01*
X78337Y-56744D01*
X78552Y-56833D01*
X78784Y-56834D01*
X78999Y-56745D01*
X79164Y-56580D01*
X79253Y-56366D01*
X79253Y-56133D01*
X79253Y-62249D01*
X78969Y-62112D01*
X78969Y-57581D01*
X78880Y-57366D01*
X78716Y-57201D01*
X78501Y-57112D01*
X78269Y-57112D01*
X78054Y-57200D01*
X77889Y-57365D01*
X77800Y-57580D01*
X77800Y-57812D01*
X77889Y-58027D01*
X78053Y-58192D01*
X78268Y-58281D01*
X78500Y-58281D01*
X78715Y-58192D01*
X78880Y-58028D01*
X78969Y-57813D01*
X78969Y-57581D01*
X78969Y-62112D01*
X78328Y-61802D01*
X77897Y-61372D01*
X77897Y-58652D01*
X77809Y-58437D01*
X77644Y-58273D01*
X77429Y-58184D01*
X77197Y-58183D01*
X76982Y-58272D01*
X76817Y-58437D01*
X76728Y-58651D01*
X76728Y-58884D01*
X76817Y-59099D01*
X76981Y-59264D01*
X77196Y-59353D01*
X77428Y-59353D01*
X77643Y-59264D01*
X77808Y-59100D01*
X77897Y-58885D01*
X77897Y-58652D01*
X77897Y-61372D01*
X75072Y-58547D01*
X75072Y-56541D01*
X75186Y-56817D01*
X75456Y-57087D01*
X75808Y-57233D01*
X76189Y-57233D01*
X76542Y-57088D01*
X76812Y-56818D01*
X76958Y-56466D01*
X76958Y-56085D01*
X76813Y-55732D01*
X76543Y-55462D01*
X76297Y-55360D01*
X76297Y-48617D01*
X76000Y-48320D01*
X75929Y-48391D01*
X75929Y-48250D01*
X75632Y-47952D01*
X75539Y-47977D01*
X75470Y-48174D01*
X75481Y-48382D01*
X75539Y-48522D01*
X75632Y-48547D01*
X75929Y-48250D01*
X75929Y-48391D01*
X75702Y-48617D01*
X75727Y-48710D01*
X75924Y-48779D01*
X76132Y-48768D01*
X76272Y-48710D01*
X76297Y-48617D01*
X76297Y-55360D01*
X76191Y-55316D01*
X75810Y-55316D01*
X75457Y-55461D01*
X75187Y-55731D01*
X75072Y-56008D01*
X75072Y-45545D01*
X79068Y-45545D01*
X78959Y-45807D01*
X78959Y-46141D01*
X79087Y-46450D01*
X79323Y-46687D01*
X79632Y-46815D01*
X79966Y-46815D01*
X80275Y-46688D01*
X80512Y-46451D01*
X80640Y-46142D01*
X80640Y-45808D01*
X80531Y-45545D01*
X85629Y-45545D01*
X85566Y-45608D01*
X85528Y-45700D01*
X85528Y-45800D01*
X85528Y-45913D01*
X85590Y-45975D01*
X86003Y-45975D01*
X86003Y-45967D01*
X86103Y-45967D01*
X86103Y-45975D01*
X86111Y-45975D01*
X86111Y-46075D01*
X86103Y-46075D01*
X86103Y-46488D01*
X86165Y-46550D01*
X86377Y-46550D01*
X86469Y-46512D01*
X86539Y-46442D01*
X86578Y-46350D01*
X86578Y-46263D01*
X86592Y-46298D01*
X86685Y-46322D01*
X86982Y-46025D01*
X86685Y-45728D01*
X86592Y-45752D01*
X86578Y-45793D01*
X86578Y-45700D01*
X86539Y-45608D01*
X86476Y-45545D01*
X86828Y-45545D01*
X86780Y-45565D01*
X86756Y-45657D01*
X87053Y-45954D01*
X87350Y-45657D01*
X87325Y-45565D01*
X87269Y-45545D01*
X87840Y-45545D01*
X87756Y-45580D01*
X87608Y-45727D01*
X87555Y-45854D01*
X87513Y-45752D01*
X87420Y-45728D01*
X87123Y-46025D01*
X87420Y-46322D01*
X87513Y-46298D01*
X87552Y-46188D01*
X87607Y-46322D01*
X87755Y-46470D01*
X87948Y-46550D01*
X88157Y-46550D01*
X88350Y-46470D01*
X88497Y-46323D01*
X88553Y-46190D01*
X88607Y-46322D01*
X88755Y-46470D01*
X88948Y-46550D01*
X89157Y-46550D01*
X89350Y-46470D01*
X89497Y-46323D01*
X89553Y-46190D01*
X89607Y-46322D01*
X89755Y-46470D01*
X89948Y-46550D01*
X90157Y-46550D01*
X90350Y-46470D01*
X90497Y-46323D01*
X90553Y-46190D01*
X90607Y-46322D01*
X90755Y-46470D01*
X90939Y-46546D01*
X90876Y-46546D01*
X90326Y-46546D01*
X90234Y-46584D01*
X90163Y-46655D01*
X90125Y-46746D01*
X90125Y-46846D01*
X90125Y-47396D01*
X90163Y-47488D01*
X90233Y-47558D01*
X90325Y-47596D01*
X90425Y-47596D01*
X90975Y-47596D01*
X91067Y-47558D01*
X91137Y-47488D01*
X91175Y-47396D01*
X91175Y-47297D01*
X91175Y-47297D01*
X91205Y-47368D01*
X91352Y-47516D01*
X91545Y-47596D01*
X91754Y-47596D01*
X91947Y-47517D01*
X92095Y-47369D01*
X92150Y-47236D01*
X92205Y-47368D01*
X92352Y-47516D01*
X92545Y-47596D01*
X92754Y-47596D01*
X92947Y-47517D01*
X93095Y-47369D01*
X93147Y-47243D01*
X93190Y-47344D01*
X93282Y-47368D01*
X93579Y-47071D01*
X93282Y-46774D01*
X93190Y-46799D01*
X93151Y-46908D01*
X93095Y-46774D01*
X92948Y-46627D01*
X92755Y-46546D01*
X92546Y-46546D01*
X92353Y-46626D01*
X92205Y-46774D01*
X92150Y-46907D01*
X92095Y-46774D01*
X91948Y-46627D01*
X91755Y-46546D01*
X91546Y-46546D01*
X91353Y-46626D01*
X91205Y-46774D01*
X91175Y-46846D01*
X91175Y-46747D01*
X91137Y-46655D01*
X91067Y-46585D01*
X90984Y-46550D01*
X91157Y-46550D01*
X91350Y-46470D01*
X91497Y-46323D01*
X91578Y-46130D01*
X91578Y-45921D01*
X91498Y-45728D01*
X91350Y-45580D01*
X91265Y-45545D01*
X96615Y-45545D01*
X96506Y-45823D01*
X96512Y-46158D01*
X96628Y-46437D01*
X96753Y-46500D01*
X96709Y-46544D01*
X96711Y-46546D01*
X96546Y-46546D01*
X96353Y-46626D01*
X96205Y-46774D01*
X96150Y-46907D01*
X96095Y-46774D01*
X95948Y-46627D01*
X95755Y-46546D01*
X95546Y-46546D01*
X95353Y-46626D01*
X95205Y-46774D01*
X95150Y-46907D01*
X95095Y-46774D01*
X94948Y-46627D01*
X94755Y-46546D01*
X94546Y-46546D01*
X94353Y-46626D01*
X94205Y-46774D01*
X94153Y-46900D01*
X94111Y-46799D01*
X94018Y-46774D01*
X93947Y-46845D01*
X93947Y-46704D01*
X93923Y-46611D01*
X93726Y-46541D01*
X93517Y-46553D01*
X93377Y-46611D01*
X93353Y-46704D01*
X93650Y-47001D01*
X93947Y-46704D01*
X93947Y-46845D01*
X93721Y-47071D01*
X93726Y-47077D01*
X93656Y-47148D01*
X93650Y-47142D01*
X93353Y-47439D01*
X93377Y-47532D01*
X93395Y-47538D01*
X93394Y-47600D01*
X93299Y-47639D01*
X93179Y-47758D01*
X93115Y-47915D01*
X93114Y-48084D01*
X93179Y-48240D01*
X93298Y-48360D01*
X93455Y-48424D01*
X93624Y-48425D01*
X93694Y-48395D01*
X93758Y-48460D01*
X93915Y-48524D01*
X94084Y-48525D01*
X94240Y-48460D01*
X94360Y-48341D01*
X94424Y-48184D01*
X94425Y-48015D01*
X94360Y-47859D01*
X94241Y-47739D01*
X94224Y-47733D01*
X94244Y-47684D01*
X94245Y-47515D01*
X94180Y-47359D01*
X94125Y-47304D01*
X94149Y-47234D01*
X94205Y-47368D01*
X94352Y-47516D01*
X94545Y-47596D01*
X94754Y-47596D01*
X94947Y-47517D01*
X95095Y-47369D01*
X95150Y-47236D01*
X95205Y-47368D01*
X95350Y-47514D01*
X95350Y-47525D01*
X93175Y-49700D01*
X92851Y-49700D01*
X92791Y-49639D01*
X92634Y-49575D01*
X92465Y-49574D01*
X92309Y-49639D01*
X92305Y-49643D01*
X92305Y-47955D01*
X92240Y-47799D01*
X92121Y-47679D01*
X91964Y-47615D01*
X91795Y-47614D01*
X91639Y-47679D01*
X91519Y-47798D01*
X91455Y-47955D01*
X91454Y-48124D01*
X91519Y-48280D01*
X91638Y-48400D01*
X91795Y-48464D01*
X91964Y-48465D01*
X92120Y-48400D01*
X92240Y-48281D01*
X92304Y-48124D01*
X92305Y-47955D01*
X92305Y-49643D01*
X92189Y-49758D01*
X92125Y-49915D01*
X92124Y-50041D01*
X92009Y-50089D01*
X91948Y-50150D01*
X91700Y-50150D01*
X91585Y-50172D01*
X91487Y-50237D01*
X90937Y-50787D01*
X90872Y-50885D01*
X90850Y-51000D01*
X90850Y-52375D01*
X90725Y-52500D01*
X90625Y-52500D01*
X90625Y-50795D01*
X90560Y-50639D01*
X90441Y-50519D01*
X90325Y-50471D01*
X90325Y-49435D01*
X90260Y-49279D01*
X90141Y-49159D01*
X89984Y-49095D01*
X89815Y-49094D01*
X89659Y-49159D01*
X89539Y-49278D01*
X89475Y-49435D01*
X89474Y-49604D01*
X89539Y-49760D01*
X89658Y-49880D01*
X89815Y-49944D01*
X89984Y-49945D01*
X90140Y-49880D01*
X90260Y-49761D01*
X90324Y-49604D01*
X90325Y-49435D01*
X90325Y-50471D01*
X90284Y-50455D01*
X90115Y-50454D01*
X89959Y-50519D01*
X89839Y-50638D01*
X89775Y-50795D01*
X89774Y-50964D01*
X89839Y-51120D01*
X89958Y-51240D01*
X90115Y-51304D01*
X90284Y-51305D01*
X90440Y-51240D01*
X90560Y-51121D01*
X90624Y-50964D01*
X90625Y-50795D01*
X90625Y-52500D01*
X90200Y-52500D01*
X90085Y-52522D01*
X89987Y-52587D01*
X89687Y-52887D01*
X89687Y-52887D01*
X88637Y-53937D01*
X88637Y-53937D01*
X88387Y-54187D01*
X88322Y-54285D01*
X88300Y-54400D01*
X88300Y-55200D01*
X88322Y-55314D01*
X88387Y-55412D01*
X89800Y-56824D01*
X89800Y-56824D01*
X89897Y-56889D01*
X90012Y-56912D01*
X92414Y-56912D01*
X92441Y-56976D01*
X92622Y-57157D01*
X92858Y-57255D01*
X93114Y-57256D01*
X93351Y-57158D01*
X93532Y-56977D01*
X93630Y-56741D01*
X93630Y-56729D01*
X96400Y-56750D01*
X96400Y-56273D01*
X96476Y-56349D01*
X96691Y-56438D01*
X96923Y-56438D01*
X97138Y-56350D01*
X97303Y-56185D01*
X97392Y-55971D01*
X97392Y-55738D01*
X97303Y-55523D01*
X97139Y-55358D01*
X96924Y-55269D01*
X96692Y-55269D01*
X96477Y-55358D01*
X96400Y-55435D01*
X96400Y-55000D01*
X99600Y-55000D01*
X99600Y-54999D01*
X99714Y-54977D01*
X99714Y-54977D01*
X99812Y-54912D01*
X100362Y-54362D01*
X100362Y-54362D01*
X100427Y-54264D01*
X100449Y-54150D01*
X100450Y-54150D01*
X100450Y-54057D01*
X100574Y-54101D01*
X100783Y-54090D01*
X100923Y-54032D01*
X100947Y-53939D01*
X100650Y-53642D01*
X100645Y-53648D01*
X100574Y-53577D01*
X100579Y-53571D01*
X100574Y-53566D01*
X100645Y-53495D01*
X100650Y-53501D01*
X100947Y-53204D01*
X100923Y-53111D01*
X100726Y-53041D01*
X100517Y-53053D01*
X100450Y-53081D01*
X100450Y-52974D01*
X100674Y-52750D01*
X100848Y-52750D01*
X100908Y-52810D01*
X101065Y-52874D01*
X101234Y-52875D01*
X101390Y-52810D01*
X101510Y-52691D01*
X101574Y-52534D01*
X101575Y-52365D01*
X101510Y-52209D01*
X101391Y-52089D01*
X101234Y-52025D01*
X101075Y-52024D01*
X101075Y-48715D01*
X101010Y-48559D01*
X100891Y-48439D01*
X100734Y-48375D01*
X100565Y-48374D01*
X100409Y-48439D01*
X100289Y-48558D01*
X100237Y-48686D01*
X100141Y-48589D01*
X99984Y-48525D01*
X99815Y-48524D01*
X99659Y-48589D01*
X99539Y-48708D01*
X99475Y-48865D01*
X99474Y-49034D01*
X99539Y-49190D01*
X99658Y-49310D01*
X99815Y-49374D01*
X99962Y-49375D01*
X99989Y-49440D01*
X100108Y-49560D01*
X100265Y-49624D01*
X100434Y-49625D01*
X100590Y-49560D01*
X100710Y-49441D01*
X100774Y-49284D01*
X100774Y-49208D01*
X100890Y-49160D01*
X101010Y-49041D01*
X101074Y-48884D01*
X101075Y-48715D01*
X101075Y-52024D01*
X101065Y-52024D01*
X100909Y-52089D01*
X100848Y-52150D01*
X100550Y-52150D01*
X100435Y-52172D01*
X100337Y-52237D01*
X99937Y-52637D01*
X99872Y-52735D01*
X99850Y-52850D01*
X99850Y-53086D01*
X99755Y-53046D01*
X99546Y-53046D01*
X99450Y-53086D01*
X99450Y-52850D01*
X99450Y-51700D01*
X99427Y-51585D01*
X99362Y-51487D01*
X99362Y-51487D01*
X99024Y-51150D01*
X99025Y-51065D01*
X98960Y-50909D01*
X98841Y-50789D01*
X98684Y-50725D01*
X98515Y-50724D01*
X98487Y-50736D01*
X99112Y-50112D01*
X99112Y-50112D01*
X99177Y-50014D01*
X99199Y-49900D01*
X99200Y-49900D01*
X99200Y-49550D01*
X99200Y-49540D01*
X99200Y-48321D01*
X99199Y-48321D01*
X99177Y-48206D01*
X99112Y-48109D01*
X99112Y-48109D01*
X98599Y-47596D01*
X98754Y-47596D01*
X98947Y-47517D01*
X99095Y-47369D01*
X99150Y-47236D01*
X99205Y-47368D01*
X99352Y-47516D01*
X99545Y-47596D01*
X99754Y-47596D01*
X99947Y-47517D01*
X100095Y-47369D01*
X100150Y-47236D01*
X100205Y-47368D01*
X100352Y-47516D01*
X100545Y-47596D01*
X100754Y-47596D01*
X100947Y-47517D01*
X101095Y-47369D01*
X101150Y-47236D01*
X101205Y-47368D01*
X101352Y-47516D01*
X101545Y-47596D01*
X101754Y-47596D01*
X101947Y-47517D01*
X102092Y-47372D01*
X102092Y-49138D01*
X102066Y-49113D01*
X101974Y-49075D01*
X101875Y-49074D01*
X101325Y-49074D01*
X101233Y-49112D01*
X101163Y-49183D01*
X101125Y-49275D01*
X101124Y-49374D01*
X101124Y-49924D01*
X101162Y-50016D01*
X101233Y-50086D01*
X101325Y-50124D01*
X101424Y-50125D01*
X101424Y-50125D01*
X101353Y-50154D01*
X101205Y-50302D01*
X101125Y-50495D01*
X101124Y-50703D01*
X101204Y-50897D01*
X101352Y-51044D01*
X101545Y-51124D01*
X101753Y-51125D01*
X101947Y-51045D01*
X102092Y-50900D01*
X102092Y-53110D01*
X102067Y-53085D01*
X101975Y-53046D01*
X101876Y-53046D01*
X101326Y-53046D01*
X101234Y-53084D01*
X101163Y-53155D01*
X101125Y-53246D01*
X101125Y-53333D01*
X101111Y-53299D01*
X101018Y-53274D01*
X100721Y-53571D01*
X101018Y-53868D01*
X101111Y-53844D01*
X101125Y-53803D01*
X101125Y-53896D01*
X101163Y-53988D01*
X101233Y-54058D01*
X101325Y-54096D01*
X101425Y-54096D01*
X101975Y-54096D01*
X102067Y-54058D01*
X102092Y-54033D01*
X102092Y-56045D01*
X101963Y-55732D01*
X101693Y-55462D01*
X101341Y-55316D01*
X100960Y-55316D01*
X100607Y-55461D01*
X100337Y-55731D01*
X100191Y-56083D01*
X100191Y-56464D01*
X100336Y-56817D01*
X100606Y-57087D01*
X100958Y-57233D01*
X101339Y-57233D01*
X101692Y-57088D01*
X101962Y-56818D01*
X102092Y-56504D01*
X102092Y-58531D01*
X102092Y-58531D01*
G37*
G54D22*
X102092Y-58531D02*
X100942Y-59556D01*
X100942Y-58124D01*
X100853Y-57909D01*
X100688Y-57744D01*
X100474Y-57655D01*
X100241Y-57655D01*
X100026Y-57744D01*
X99870Y-57900D01*
X99870Y-57052D01*
X99781Y-56837D01*
X99617Y-56672D01*
X99402Y-56583D01*
X99169Y-56583D01*
X98954Y-56672D01*
X98790Y-56836D01*
X98700Y-57051D01*
X98700Y-57283D01*
X98789Y-57498D01*
X98953Y-57663D01*
X99168Y-57752D01*
X99401Y-57752D01*
X99616Y-57664D01*
X99780Y-57499D01*
X99870Y-57285D01*
X99870Y-57052D01*
X99870Y-57900D01*
X99861Y-57908D01*
X99772Y-58123D01*
X99772Y-58355D01*
X99861Y-58570D01*
X100025Y-58735D01*
X100240Y-58824D01*
X100473Y-58824D01*
X100688Y-58735D01*
X100852Y-58571D01*
X100941Y-58356D01*
X100942Y-58124D01*
X100942Y-59556D01*
X98725Y-61531D01*
X98725Y-58765D01*
X98660Y-58609D01*
X98541Y-58489D01*
X98422Y-58440D01*
X98422Y-56768D01*
X98333Y-56553D01*
X98169Y-56388D01*
X97954Y-56299D01*
X97722Y-56299D01*
X97507Y-56388D01*
X97342Y-56552D01*
X97253Y-56767D01*
X97253Y-57000D01*
X97341Y-57214D01*
X97506Y-57379D01*
X97721Y-57468D01*
X97953Y-57468D01*
X98168Y-57380D01*
X98333Y-57215D01*
X98422Y-57001D01*
X98422Y-56768D01*
X98422Y-58440D01*
X98384Y-58425D01*
X98215Y-58424D01*
X98059Y-58489D01*
X97939Y-58608D01*
X97875Y-58765D01*
X97874Y-58934D01*
X97939Y-59090D01*
X98058Y-59210D01*
X98215Y-59274D01*
X98384Y-59275D01*
X98540Y-59210D01*
X98660Y-59091D01*
X98724Y-58934D01*
X98725Y-58765D01*
X98725Y-61531D01*
X98075Y-62110D01*
X98075Y-61665D01*
X98010Y-61509D01*
X97891Y-61389D01*
X97734Y-61325D01*
X97565Y-61324D01*
X97409Y-61389D01*
X97289Y-61508D01*
X97225Y-61665D01*
X97224Y-61834D01*
X97289Y-61990D01*
X97408Y-62110D01*
X97565Y-62174D01*
X97734Y-62175D01*
X97890Y-62110D01*
X98010Y-61991D01*
X98074Y-61834D01*
X98075Y-61665D01*
X98075Y-62110D01*
X97193Y-62895D01*
X94575Y-63980D01*
X94575Y-59165D01*
X94510Y-59009D01*
X94391Y-58889D01*
X94234Y-58825D01*
X94065Y-58824D01*
X93909Y-58889D01*
X93789Y-59008D01*
X93725Y-59165D01*
X93724Y-59334D01*
X93789Y-59490D01*
X93908Y-59610D01*
X94065Y-59674D01*
X94234Y-59675D01*
X94390Y-59610D01*
X94510Y-59491D01*
X94574Y-59334D01*
X94575Y-59165D01*
X94575Y-63980D01*
X93634Y-64369D01*
X93634Y-58291D01*
X93625Y-58035D01*
X93545Y-57843D01*
X93440Y-57804D01*
X93369Y-57875D01*
X93369Y-57733D01*
X93331Y-57628D01*
X93091Y-57539D01*
X92835Y-57549D01*
X92642Y-57628D01*
X92604Y-57733D01*
X92987Y-58116D01*
X93369Y-57733D01*
X93369Y-57875D01*
X93057Y-58187D01*
X93440Y-58570D01*
X93545Y-58531D01*
X93634Y-58291D01*
X93634Y-64369D01*
X93369Y-64479D01*
X93369Y-58641D01*
X92987Y-58258D01*
X92916Y-58328D01*
X92916Y-58187D01*
X92533Y-57804D01*
X92428Y-57843D01*
X92339Y-58083D01*
X92348Y-58339D01*
X92428Y-58531D01*
X92533Y-58570D01*
X92916Y-58187D01*
X92916Y-58328D01*
X92604Y-58641D01*
X92642Y-58746D01*
X92882Y-58835D01*
X93138Y-58825D01*
X93331Y-58746D01*
X93369Y-58641D01*
X93369Y-64479D01*
X92859Y-64690D01*
X92395Y-64690D01*
X92395Y-61094D01*
X92414Y-61140D01*
X92533Y-61260D01*
X92690Y-61324D01*
X92859Y-61325D01*
X93015Y-61260D01*
X93135Y-61141D01*
X93199Y-60984D01*
X93200Y-60815D01*
X93135Y-60659D01*
X93016Y-60539D01*
X92859Y-60475D01*
X92690Y-60474D01*
X92534Y-60539D01*
X92414Y-60658D01*
X92350Y-60815D01*
X92350Y-60882D01*
X92316Y-60832D01*
X92229Y-60774D01*
X92125Y-60753D01*
X90825Y-60753D01*
X90825Y-59975D01*
X90760Y-59819D01*
X90641Y-59699D01*
X90484Y-59635D01*
X90315Y-59634D01*
X90159Y-59699D01*
X90039Y-59818D01*
X89975Y-59975D01*
X89974Y-60144D01*
X90039Y-60300D01*
X90158Y-60420D01*
X90315Y-60484D01*
X90484Y-60485D01*
X90640Y-60420D01*
X90760Y-60301D01*
X90824Y-60144D01*
X90825Y-59975D01*
X90825Y-60753D01*
X87525Y-60753D01*
X87525Y-58315D01*
X87460Y-58159D01*
X87350Y-58049D01*
X87350Y-46393D01*
X87053Y-46096D01*
X86756Y-46393D01*
X86780Y-46486D01*
X86977Y-46555D01*
X87185Y-46544D01*
X87325Y-46486D01*
X87350Y-46393D01*
X87350Y-58049D01*
X87341Y-58039D01*
X87184Y-57975D01*
X87075Y-57974D01*
X87075Y-52865D01*
X87010Y-52709D01*
X86891Y-52589D01*
X86734Y-52525D01*
X86565Y-52524D01*
X86409Y-52589D01*
X86289Y-52708D01*
X86225Y-52865D01*
X86224Y-53034D01*
X86289Y-53190D01*
X86408Y-53310D01*
X86565Y-53374D01*
X86734Y-53375D01*
X86890Y-53310D01*
X87010Y-53191D01*
X87074Y-53034D01*
X87075Y-52865D01*
X87075Y-57974D01*
X87015Y-57974D01*
X86859Y-58039D01*
X86739Y-58158D01*
X86675Y-58315D01*
X86674Y-58484D01*
X86739Y-58640D01*
X86858Y-58760D01*
X87015Y-58824D01*
X87184Y-58825D01*
X87340Y-58760D01*
X87460Y-58641D01*
X87524Y-58484D01*
X87525Y-58315D01*
X87525Y-60753D01*
X86175Y-60753D01*
X86175Y-59215D01*
X86110Y-59059D01*
X86075Y-59024D01*
X86075Y-55215D01*
X86025Y-55094D01*
X86025Y-53065D01*
X86003Y-53012D01*
X86003Y-46488D01*
X86003Y-46075D01*
X85590Y-46075D01*
X85528Y-46138D01*
X85528Y-46251D01*
X85528Y-46350D01*
X85566Y-46442D01*
X85636Y-46512D01*
X85728Y-46550D01*
X85940Y-46550D01*
X86003Y-46488D01*
X86003Y-53012D01*
X85960Y-52909D01*
X85841Y-52789D01*
X85697Y-52730D01*
X85697Y-48454D01*
X85693Y-48341D01*
X85693Y-47222D01*
X85596Y-46985D01*
X85415Y-46804D01*
X85178Y-46706D01*
X84922Y-46706D01*
X84685Y-46803D01*
X84504Y-46984D01*
X84406Y-47221D01*
X84406Y-47477D01*
X84503Y-47714D01*
X84672Y-47882D01*
X84666Y-47896D01*
X85050Y-48279D01*
X85433Y-47896D01*
X85427Y-47882D01*
X85595Y-47715D01*
X85693Y-47478D01*
X85693Y-47222D01*
X85693Y-48341D01*
X85688Y-48198D01*
X85608Y-48005D01*
X85503Y-47966D01*
X85120Y-48350D01*
X85503Y-48733D01*
X85608Y-48694D01*
X85697Y-48454D01*
X85697Y-52730D01*
X85693Y-52728D01*
X85693Y-51222D01*
X85596Y-50985D01*
X85460Y-50849D01*
X85595Y-50715D01*
X85693Y-50478D01*
X85693Y-50222D01*
X85596Y-49985D01*
X85460Y-49849D01*
X85595Y-49715D01*
X85693Y-49478D01*
X85693Y-49222D01*
X85596Y-48985D01*
X85427Y-48817D01*
X85433Y-48803D01*
X85050Y-48420D01*
X84979Y-48491D01*
X84979Y-48350D01*
X84596Y-47966D01*
X84491Y-48005D01*
X84402Y-48245D01*
X84411Y-48501D01*
X84491Y-48694D01*
X84596Y-48733D01*
X84979Y-48350D01*
X84979Y-48491D01*
X84666Y-48803D01*
X84672Y-48817D01*
X84504Y-48984D01*
X84406Y-49221D01*
X84406Y-49477D01*
X84503Y-49714D01*
X84639Y-49850D01*
X84504Y-49984D01*
X84406Y-50221D01*
X84406Y-50477D01*
X84503Y-50714D01*
X84639Y-50850D01*
X84504Y-50984D01*
X84406Y-51221D01*
X84406Y-51477D01*
X84503Y-51714D01*
X84684Y-51895D01*
X84921Y-51993D01*
X85177Y-51993D01*
X85414Y-51896D01*
X85595Y-51715D01*
X85693Y-51478D01*
X85693Y-51222D01*
X85693Y-52728D01*
X85684Y-52725D01*
X85515Y-52724D01*
X85359Y-52789D01*
X85239Y-52908D01*
X85175Y-53065D01*
X85174Y-53234D01*
X85239Y-53390D01*
X85358Y-53510D01*
X85515Y-53574D01*
X85684Y-53575D01*
X85840Y-53510D01*
X85960Y-53391D01*
X86024Y-53234D01*
X86025Y-53065D01*
X86025Y-55094D01*
X86010Y-55059D01*
X85891Y-54939D01*
X85875Y-54933D01*
X85875Y-54015D01*
X85810Y-53859D01*
X85691Y-53739D01*
X85534Y-53675D01*
X85365Y-53674D01*
X85266Y-53715D01*
X85241Y-53689D01*
X85084Y-53625D01*
X84915Y-53624D01*
X84759Y-53689D01*
X84639Y-53808D01*
X84575Y-53965D01*
X84574Y-54134D01*
X84639Y-54290D01*
X84758Y-54410D01*
X84915Y-54474D01*
X85084Y-54475D01*
X85183Y-54434D01*
X85208Y-54460D01*
X85365Y-54524D01*
X85534Y-54525D01*
X85690Y-54460D01*
X85810Y-54341D01*
X85874Y-54184D01*
X85875Y-54015D01*
X85875Y-54933D01*
X85734Y-54875D01*
X85565Y-54874D01*
X85516Y-54895D01*
X85460Y-54759D01*
X85341Y-54639D01*
X85184Y-54575D01*
X85015Y-54574D01*
X84859Y-54639D01*
X84739Y-54758D01*
X84675Y-54915D01*
X84674Y-55084D01*
X84739Y-55240D01*
X84858Y-55360D01*
X84987Y-55413D01*
X84925Y-55565D01*
X84925Y-55612D01*
X84859Y-55639D01*
X84739Y-55758D01*
X84675Y-55915D01*
X84674Y-56084D01*
X84739Y-56240D01*
X84858Y-56360D01*
X85015Y-56424D01*
X85184Y-56425D01*
X85340Y-56360D01*
X85460Y-56241D01*
X85524Y-56084D01*
X85524Y-56037D01*
X85590Y-56010D01*
X85710Y-55891D01*
X85774Y-55734D01*
X85774Y-55708D01*
X85890Y-55660D01*
X86010Y-55541D01*
X86074Y-55384D01*
X86075Y-55215D01*
X86075Y-59024D01*
X85991Y-58939D01*
X85834Y-58875D01*
X85665Y-58874D01*
X85625Y-58891D01*
X85625Y-57315D01*
X85560Y-57159D01*
X85441Y-57039D01*
X85284Y-56975D01*
X85115Y-56974D01*
X84974Y-57033D01*
X84834Y-56975D01*
X84665Y-56974D01*
X84509Y-57039D01*
X84389Y-57158D01*
X84325Y-57315D01*
X84324Y-57484D01*
X84389Y-57640D01*
X84508Y-57760D01*
X84665Y-57824D01*
X84834Y-57825D01*
X84975Y-57766D01*
X85115Y-57824D01*
X85284Y-57825D01*
X85440Y-57760D01*
X85560Y-57641D01*
X85624Y-57484D01*
X85625Y-57315D01*
X85625Y-58891D01*
X85509Y-58939D01*
X85389Y-59058D01*
X85325Y-59215D01*
X85324Y-59384D01*
X85389Y-59540D01*
X85508Y-59660D01*
X85665Y-59724D01*
X85834Y-59725D01*
X85990Y-59660D01*
X86110Y-59541D01*
X86174Y-59384D01*
X86175Y-59215D01*
X86175Y-60753D01*
X85039Y-60753D01*
X84936Y-60774D01*
X84848Y-60832D01*
X84790Y-60920D01*
X84769Y-61023D01*
X84769Y-64690D01*
X84303Y-64690D01*
X84225Y-64653D01*
X84225Y-48546D01*
X84145Y-48353D01*
X83997Y-48205D01*
X83804Y-48125D01*
X83596Y-48124D01*
X83505Y-48162D01*
X83505Y-45915D01*
X83440Y-45759D01*
X83321Y-45639D01*
X83164Y-45575D01*
X82995Y-45574D01*
X82839Y-45639D01*
X82719Y-45758D01*
X82655Y-45915D01*
X82654Y-46084D01*
X82719Y-46240D01*
X82838Y-46360D01*
X82995Y-46424D01*
X83164Y-46425D01*
X83320Y-46360D01*
X83440Y-46241D01*
X83504Y-46084D01*
X83505Y-45915D01*
X83505Y-48162D01*
X83403Y-48204D01*
X83255Y-48352D01*
X83225Y-48424D01*
X83225Y-48325D01*
X83187Y-48233D01*
X83116Y-48163D01*
X83024Y-48125D01*
X82925Y-48124D01*
X82375Y-48124D01*
X82283Y-48162D01*
X82213Y-48233D01*
X82175Y-48325D01*
X82174Y-48424D01*
X82174Y-48974D01*
X82212Y-49066D01*
X82283Y-49136D01*
X82375Y-49174D01*
X82474Y-49175D01*
X83024Y-49175D01*
X83116Y-49137D01*
X83186Y-49066D01*
X83224Y-48974D01*
X83225Y-48875D01*
X83225Y-48875D01*
X83254Y-48947D01*
X83402Y-49094D01*
X83595Y-49174D01*
X83803Y-49175D01*
X83997Y-49095D01*
X84144Y-48947D01*
X84224Y-48754D01*
X84225Y-48546D01*
X84225Y-64653D01*
X84075Y-64580D01*
X84075Y-51715D01*
X84010Y-51559D01*
X83891Y-51439D01*
X83734Y-51375D01*
X83565Y-51374D01*
X83409Y-51439D01*
X83289Y-51558D01*
X83225Y-51715D01*
X83224Y-51884D01*
X83289Y-52040D01*
X83408Y-52160D01*
X83565Y-52224D01*
X83734Y-52225D01*
X83890Y-52160D01*
X84010Y-52041D01*
X84074Y-51884D01*
X84075Y-51715D01*
X84075Y-64580D01*
X83775Y-64435D01*
X83775Y-54005D01*
X83710Y-53849D01*
X83591Y-53729D01*
X83434Y-53665D01*
X83265Y-53664D01*
X83109Y-53729D01*
X82989Y-53848D01*
X82925Y-54005D01*
X82924Y-54174D01*
X82989Y-54330D01*
X83108Y-54450D01*
X83265Y-54514D01*
X83434Y-54515D01*
X83590Y-54450D01*
X83710Y-54331D01*
X83774Y-54174D01*
X83775Y-54005D01*
X83775Y-64435D01*
X80495Y-62850D01*
X82970Y-62850D01*
X82957Y-59065D01*
X83090Y-59010D01*
X83210Y-58891D01*
X83274Y-58734D01*
X83275Y-58565D01*
X83210Y-58409D01*
X83091Y-58289D01*
X82954Y-58233D01*
X82953Y-57804D01*
X83008Y-57860D01*
X83165Y-57924D01*
X83334Y-57925D01*
X83490Y-57860D01*
X83610Y-57741D01*
X83674Y-57584D01*
X83675Y-57415D01*
X83610Y-57259D01*
X83491Y-57139D01*
X83334Y-57075D01*
X83165Y-57074D01*
X83009Y-57139D01*
X82951Y-57197D01*
X82949Y-56759D01*
X82900Y-56709D01*
X82225Y-56721D01*
X82225Y-53295D01*
X82160Y-53139D01*
X82041Y-53019D01*
X81884Y-52955D01*
X81715Y-52954D01*
X81559Y-53019D01*
X81439Y-53138D01*
X81375Y-53295D01*
X81374Y-53464D01*
X81439Y-53620D01*
X81558Y-53740D01*
X81715Y-53804D01*
X81884Y-53805D01*
X82040Y-53740D01*
X82160Y-53621D01*
X82224Y-53464D01*
X82225Y-53295D01*
X82225Y-56721D01*
X81105Y-56739D01*
X81105Y-53995D01*
X81040Y-53839D01*
X80921Y-53719D01*
X80825Y-53680D01*
X80825Y-53675D01*
X80760Y-53519D01*
X80641Y-53399D01*
X80513Y-53347D01*
X80520Y-53341D01*
X80584Y-53184D01*
X80585Y-53015D01*
X80520Y-52859D01*
X80500Y-52839D01*
X80500Y-49340D01*
X80435Y-49184D01*
X80316Y-49064D01*
X80159Y-49000D01*
X79990Y-48999D01*
X79834Y-49064D01*
X79714Y-49183D01*
X79650Y-49340D01*
X79649Y-49509D01*
X79714Y-49665D01*
X79833Y-49785D01*
X79990Y-49849D01*
X80159Y-49850D01*
X80315Y-49785D01*
X80435Y-49666D01*
X80499Y-49509D01*
X80500Y-49340D01*
X80500Y-52839D01*
X80401Y-52739D01*
X80304Y-52700D01*
X80305Y-52575D01*
X80240Y-52419D01*
X80121Y-52299D01*
X79964Y-52235D01*
X79795Y-52234D01*
X79639Y-52299D01*
X79607Y-52331D01*
X79607Y-49357D01*
X79607Y-48357D01*
X79596Y-48138D01*
X79534Y-47987D01*
X79439Y-47960D01*
X79368Y-48031D01*
X79368Y-47889D01*
X79341Y-47794D01*
X79134Y-47720D01*
X78916Y-47731D01*
X78765Y-47794D01*
X78737Y-47889D01*
X79053Y-48204D01*
X79368Y-47889D01*
X79368Y-48031D01*
X79123Y-48275D01*
X79439Y-48590D01*
X79534Y-48563D01*
X79607Y-48357D01*
X79607Y-49357D01*
X79596Y-49138D01*
X79534Y-48987D01*
X79439Y-48960D01*
X79368Y-49031D01*
X79368Y-48889D01*
X79341Y-48794D01*
X79292Y-48776D01*
X79341Y-48756D01*
X79368Y-48661D01*
X79053Y-48346D01*
X78737Y-48661D01*
X78765Y-48756D01*
X78813Y-48774D01*
X78765Y-48794D01*
X78737Y-48889D01*
X79053Y-49204D01*
X79368Y-48889D01*
X79368Y-49031D01*
X79123Y-49275D01*
X79439Y-49590D01*
X79534Y-49563D01*
X79607Y-49357D01*
X79607Y-52331D01*
X79604Y-52334D01*
X79604Y-51331D01*
X79604Y-50331D01*
X79593Y-50113D01*
X79531Y-49962D01*
X79435Y-49934D01*
X79368Y-50002D01*
X79368Y-49661D01*
X79053Y-49346D01*
X78982Y-49417D01*
X78982Y-49275D01*
X78667Y-48960D01*
X78571Y-48987D01*
X78552Y-49043D01*
X78519Y-48964D01*
X78365Y-48809D01*
X78283Y-48775D01*
X78364Y-48742D01*
X78519Y-48587D01*
X78550Y-48511D01*
X78571Y-48563D01*
X78667Y-48590D01*
X78982Y-48275D01*
X78667Y-47960D01*
X78571Y-47987D01*
X78552Y-48043D01*
X78519Y-47964D01*
X78365Y-47809D01*
X78163Y-47725D01*
X77944Y-47725D01*
X77742Y-47809D01*
X77603Y-47947D01*
X77603Y-47926D01*
X77565Y-47834D01*
X77494Y-47763D01*
X77403Y-47725D01*
X77303Y-47725D01*
X76703Y-47725D01*
X76611Y-47763D01*
X76541Y-47833D01*
X76525Y-47873D01*
X76525Y-47475D01*
X76525Y-46925D01*
X76487Y-46833D01*
X76416Y-46763D01*
X76324Y-46725D01*
X76225Y-46724D01*
X75675Y-46724D01*
X75583Y-46762D01*
X75513Y-46833D01*
X75475Y-46925D01*
X75474Y-47024D01*
X75474Y-47574D01*
X75512Y-47666D01*
X75583Y-47736D01*
X75675Y-47774D01*
X75762Y-47775D01*
X75727Y-47789D01*
X75702Y-47882D01*
X76000Y-48179D01*
X76297Y-47882D01*
X76272Y-47789D01*
X76231Y-47775D01*
X76324Y-47775D01*
X76416Y-47737D01*
X76486Y-47666D01*
X76524Y-47574D01*
X76525Y-47475D01*
X76525Y-47873D01*
X76503Y-47925D01*
X76503Y-48025D01*
X76503Y-48079D01*
X76460Y-47977D01*
X76367Y-47952D01*
X76070Y-48250D01*
X76367Y-48547D01*
X76460Y-48522D01*
X76503Y-48401D01*
X76503Y-48625D01*
X76541Y-48717D01*
X76599Y-48775D01*
X76541Y-48833D01*
X76503Y-48925D01*
X76503Y-49025D01*
X76503Y-49625D01*
X76541Y-49717D01*
X76585Y-49761D01*
X76538Y-49808D01*
X76500Y-49900D01*
X76499Y-49999D01*
X76499Y-50599D01*
X76537Y-50691D01*
X76596Y-50750D01*
X76538Y-50808D01*
X76500Y-50900D01*
X76499Y-50999D01*
X76499Y-51599D01*
X76537Y-51691D01*
X76608Y-51761D01*
X76700Y-51799D01*
X76799Y-51800D01*
X77399Y-51800D01*
X77491Y-51762D01*
X77561Y-51691D01*
X77599Y-51599D01*
X77599Y-51577D01*
X77738Y-51715D01*
X77940Y-51799D01*
X78158Y-51800D01*
X78361Y-51716D01*
X78515Y-51561D01*
X78547Y-51486D01*
X78568Y-51537D01*
X78664Y-51565D01*
X78979Y-51250D01*
X78664Y-50934D01*
X78568Y-50962D01*
X78549Y-51017D01*
X78516Y-50938D01*
X78361Y-50784D01*
X78280Y-50750D01*
X78361Y-50716D01*
X78515Y-50561D01*
X78547Y-50486D01*
X78568Y-50537D01*
X78664Y-50565D01*
X78979Y-50250D01*
X78664Y-49934D01*
X78568Y-49962D01*
X78549Y-50017D01*
X78516Y-49938D01*
X78361Y-49784D01*
X78312Y-49763D01*
X78364Y-49742D01*
X78519Y-49587D01*
X78550Y-49511D01*
X78571Y-49563D01*
X78667Y-49590D01*
X78982Y-49275D01*
X78982Y-49417D01*
X78737Y-49661D01*
X78765Y-49756D01*
X78779Y-49761D01*
X78762Y-49768D01*
X78734Y-49864D01*
X79050Y-50179D01*
X79365Y-49864D01*
X79337Y-49768D01*
X79324Y-49763D01*
X79341Y-49756D01*
X79368Y-49661D01*
X79368Y-50002D01*
X79120Y-50250D01*
X79435Y-50565D01*
X79531Y-50537D01*
X79604Y-50331D01*
X79604Y-51331D01*
X79593Y-51113D01*
X79531Y-50962D01*
X79435Y-50934D01*
X79365Y-51005D01*
X79365Y-50864D01*
X79337Y-50768D01*
X79289Y-50751D01*
X79337Y-50731D01*
X79365Y-50635D01*
X79050Y-50320D01*
X78734Y-50635D01*
X78762Y-50731D01*
X78810Y-50748D01*
X78762Y-50768D01*
X78734Y-50864D01*
X79050Y-51179D01*
X79365Y-50864D01*
X79365Y-51005D01*
X79120Y-51250D01*
X79435Y-51565D01*
X79531Y-51537D01*
X79604Y-51331D01*
X79604Y-52334D01*
X79519Y-52418D01*
X79455Y-52575D01*
X79454Y-52744D01*
X79519Y-52900D01*
X79638Y-53020D01*
X79735Y-53059D01*
X79734Y-53184D01*
X79799Y-53340D01*
X79918Y-53460D01*
X80046Y-53512D01*
X80039Y-53518D01*
X79975Y-53675D01*
X79974Y-53844D01*
X80039Y-54000D01*
X80158Y-54120D01*
X80254Y-54159D01*
X80254Y-54164D01*
X80319Y-54320D01*
X80438Y-54440D01*
X80595Y-54504D01*
X80764Y-54505D01*
X80920Y-54440D01*
X81040Y-54321D01*
X81104Y-54164D01*
X81105Y-53995D01*
X81105Y-56739D01*
X80450Y-56750D01*
X80450Y-62828D01*
X80283Y-62747D01*
X80283Y-55103D01*
X80194Y-54888D01*
X80030Y-54723D01*
X79815Y-54634D01*
X79583Y-54634D01*
X79368Y-54723D01*
X79365Y-54726D01*
X79365Y-51635D01*
X79050Y-51320D01*
X78734Y-51635D01*
X78762Y-51731D01*
X78968Y-51804D01*
X79186Y-51793D01*
X79337Y-51731D01*
X79365Y-51635D01*
X79365Y-54726D01*
X79203Y-54887D01*
X79114Y-55102D01*
X79114Y-55335D01*
X79203Y-55549D01*
X79367Y-55714D01*
X79582Y-55803D01*
X79814Y-55803D01*
X80029Y-55715D01*
X80194Y-55550D01*
X80283Y-55336D01*
X80283Y-55103D01*
X80283Y-62747D01*
X79253Y-62249D01*
X79253Y-56133D01*
X79164Y-55918D01*
X79000Y-55753D01*
X78785Y-55664D01*
X78575Y-55664D01*
X78575Y-53575D01*
X78575Y-53025D01*
X78537Y-52933D01*
X78466Y-52863D01*
X78435Y-52850D01*
X78466Y-52837D01*
X78536Y-52766D01*
X78574Y-52674D01*
X78575Y-52575D01*
X78575Y-52025D01*
X78537Y-51933D01*
X78466Y-51863D01*
X78374Y-51825D01*
X78275Y-51824D01*
X77725Y-51824D01*
X77633Y-51862D01*
X77563Y-51933D01*
X77525Y-52025D01*
X77524Y-52124D01*
X77524Y-52124D01*
X77495Y-52053D01*
X77347Y-51905D01*
X77154Y-51825D01*
X76946Y-51824D01*
X76753Y-51904D01*
X76605Y-52052D01*
X76525Y-52245D01*
X76524Y-52453D01*
X76604Y-52647D01*
X76752Y-52794D01*
X76885Y-52850D01*
X76753Y-52904D01*
X76605Y-53052D01*
X76525Y-53245D01*
X76524Y-53453D01*
X76604Y-53647D01*
X76752Y-53794D01*
X76814Y-53820D01*
X76775Y-53915D01*
X76774Y-54084D01*
X76839Y-54240D01*
X76958Y-54360D01*
X77115Y-54424D01*
X77284Y-54425D01*
X77440Y-54360D01*
X77560Y-54241D01*
X77624Y-54084D01*
X77625Y-53915D01*
X77563Y-53767D01*
X77633Y-53836D01*
X77725Y-53874D01*
X77824Y-53875D01*
X78374Y-53875D01*
X78466Y-53837D01*
X78536Y-53766D01*
X78574Y-53674D01*
X78575Y-53575D01*
X78575Y-55664D01*
X78553Y-55664D01*
X78338Y-55753D01*
X78173Y-55917D01*
X78084Y-56132D01*
X78084Y-56365D01*
X78172Y-56580D01*
X78337Y-56744D01*
X78552Y-56833D01*
X78784Y-56834D01*
X78999Y-56745D01*
X79164Y-56580D01*
X79253Y-56366D01*
X79253Y-56133D01*
X79253Y-62249D01*
X78969Y-62112D01*
X78969Y-57581D01*
X78880Y-57366D01*
X78716Y-57201D01*
X78501Y-57112D01*
X78269Y-57112D01*
X78054Y-57200D01*
X77889Y-57365D01*
X77800Y-57580D01*
X77800Y-57812D01*
X77889Y-58027D01*
X78053Y-58192D01*
X78268Y-58281D01*
X78500Y-58281D01*
X78715Y-58192D01*
X78880Y-58028D01*
X78969Y-57813D01*
X78969Y-57581D01*
X78969Y-62112D01*
X78328Y-61802D01*
X77897Y-61372D01*
X77897Y-58652D01*
X77809Y-58437D01*
X77644Y-58273D01*
X77429Y-58184D01*
X77197Y-58183D01*
X76982Y-58272D01*
X76817Y-58437D01*
X76728Y-58651D01*
X76728Y-58884D01*
X76817Y-59099D01*
X76981Y-59264D01*
X77196Y-59353D01*
X77428Y-59353D01*
X77643Y-59264D01*
X77808Y-59100D01*
X77897Y-58885D01*
X77897Y-58652D01*
X77897Y-61372D01*
X75072Y-58547D01*
X75072Y-56541D01*
X75186Y-56817D01*
X75456Y-57087D01*
X75808Y-57233D01*
X76189Y-57233D01*
X76542Y-57088D01*
X76812Y-56818D01*
X76958Y-56466D01*
X76958Y-56085D01*
X76813Y-55732D01*
X76543Y-55462D01*
X76297Y-55360D01*
X76297Y-48617D01*
X76000Y-48320D01*
X75929Y-48391D01*
X75929Y-48250D01*
X75632Y-47952D01*
X75539Y-47977D01*
X75470Y-48174D01*
X75481Y-48382D01*
X75539Y-48522D01*
X75632Y-48547D01*
X75929Y-48250D01*
X75929Y-48391D01*
X75702Y-48617D01*
X75727Y-48710D01*
X75924Y-48779D01*
X76132Y-48768D01*
X76272Y-48710D01*
X76297Y-48617D01*
X76297Y-55360D01*
X76191Y-55316D01*
X75810Y-55316D01*
X75457Y-55461D01*
X75187Y-55731D01*
X75072Y-56008D01*
X75072Y-45545D01*
X79068Y-45545D01*
X78959Y-45807D01*
X78959Y-46141D01*
X79087Y-46450D01*
X79323Y-46687D01*
X79632Y-46815D01*
X79966Y-46815D01*
X80275Y-46688D01*
X80512Y-46451D01*
X80640Y-46142D01*
X80640Y-45808D01*
X80531Y-45545D01*
X85629Y-45545D01*
X85566Y-45608D01*
X85528Y-45700D01*
X85528Y-45800D01*
X85528Y-45913D01*
X85590Y-45975D01*
X86003Y-45975D01*
X86003Y-45967D01*
X86103Y-45967D01*
X86103Y-45975D01*
X86111Y-45975D01*
X86111Y-46075D01*
X86103Y-46075D01*
X86103Y-46488D01*
X86165Y-46550D01*
X86377Y-46550D01*
X86469Y-46512D01*
X86539Y-46442D01*
X86578Y-46350D01*
X86578Y-46263D01*
X86592Y-46298D01*
X86685Y-46322D01*
X86982Y-46025D01*
X86685Y-45728D01*
X86592Y-45752D01*
X86578Y-45793D01*
X86578Y-45700D01*
X86539Y-45608D01*
X86476Y-45545D01*
X86828Y-45545D01*
X86780Y-45565D01*
X86756Y-45657D01*
X87053Y-45954D01*
X87350Y-45657D01*
X87325Y-45565D01*
X87269Y-45545D01*
X87840Y-45545D01*
X87756Y-45580D01*
X87608Y-45727D01*
X87555Y-45854D01*
X87513Y-45752D01*
X87420Y-45728D01*
X87123Y-46025D01*
X87420Y-46322D01*
X87513Y-46298D01*
X87552Y-46188D01*
X87607Y-46322D01*
X87755Y-46470D01*
X87948Y-46550D01*
X88157Y-46550D01*
X88350Y-46470D01*
X88497Y-46323D01*
X88553Y-46190D01*
X88607Y-46322D01*
X88755Y-46470D01*
X88948Y-46550D01*
X89157Y-46550D01*
X89350Y-46470D01*
X89497Y-46323D01*
X89553Y-46190D01*
X89607Y-46322D01*
X89755Y-46470D01*
X89948Y-46550D01*
X90157Y-46550D01*
X90350Y-46470D01*
X90497Y-46323D01*
X90553Y-46190D01*
X90607Y-46322D01*
X90755Y-46470D01*
X90939Y-46546D01*
X90876Y-46546D01*
X90326Y-46546D01*
X90234Y-46584D01*
X90163Y-46655D01*
X90125Y-46746D01*
X90125Y-46846D01*
X90125Y-47396D01*
X90163Y-47488D01*
X90233Y-47558D01*
X90325Y-47596D01*
X90425Y-47596D01*
X90975Y-47596D01*
X91067Y-47558D01*
X91137Y-47488D01*
X91175Y-47396D01*
X91175Y-47297D01*
X91175Y-47297D01*
X91205Y-47368D01*
X91352Y-47516D01*
X91545Y-47596D01*
X91754Y-47596D01*
X91947Y-47517D01*
X92095Y-47369D01*
X92150Y-47236D01*
X92205Y-47368D01*
X92352Y-47516D01*
X92545Y-47596D01*
X92754Y-47596D01*
X92947Y-47517D01*
X93095Y-47369D01*
X93147Y-47243D01*
X93190Y-47344D01*
X93282Y-47368D01*
X93579Y-47071D01*
X93282Y-46774D01*
X93190Y-46799D01*
X93151Y-46908D01*
X93095Y-46774D01*
X92948Y-46627D01*
X92755Y-46546D01*
X92546Y-46546D01*
X92353Y-46626D01*
X92205Y-46774D01*
X92150Y-46907D01*
X92095Y-46774D01*
X91948Y-46627D01*
X91755Y-46546D01*
X91546Y-46546D01*
X91353Y-46626D01*
X91205Y-46774D01*
X91175Y-46846D01*
X91175Y-46747D01*
X91137Y-46655D01*
X91067Y-46585D01*
X90984Y-46550D01*
X91157Y-46550D01*
X91350Y-46470D01*
X91497Y-46323D01*
X91578Y-46130D01*
X91578Y-45921D01*
X91498Y-45728D01*
X91350Y-45580D01*
X91265Y-45545D01*
X96615Y-45545D01*
X96506Y-45823D01*
X96512Y-46158D01*
X96628Y-46437D01*
X96753Y-46500D01*
X96709Y-46544D01*
X96711Y-46546D01*
X96546Y-46546D01*
X96353Y-46626D01*
X96205Y-46774D01*
X96150Y-46907D01*
X96095Y-46774D01*
X95948Y-46627D01*
X95755Y-46546D01*
X95546Y-46546D01*
X95353Y-46626D01*
X95205Y-46774D01*
X95150Y-46907D01*
X95095Y-46774D01*
X94948Y-46627D01*
X94755Y-46546D01*
X94546Y-46546D01*
X94353Y-46626D01*
X94205Y-46774D01*
X94153Y-46900D01*
X94111Y-46799D01*
X94018Y-46774D01*
X93947Y-46845D01*
X93947Y-46704D01*
X93923Y-46611D01*
X93726Y-46541D01*
X93517Y-46553D01*
X93377Y-46611D01*
X93353Y-46704D01*
X93650Y-47001D01*
X93947Y-46704D01*
X93947Y-46845D01*
X93721Y-47071D01*
X93726Y-47077D01*
X93656Y-47148D01*
X93650Y-47142D01*
X93353Y-47439D01*
X93377Y-47532D01*
X93395Y-47538D01*
X93394Y-47600D01*
X93299Y-47639D01*
X93179Y-47758D01*
X93115Y-47915D01*
X93114Y-48084D01*
X93179Y-48240D01*
X93298Y-48360D01*
X93455Y-48424D01*
X93624Y-48425D01*
X93694Y-48395D01*
X93758Y-48460D01*
X93915Y-48524D01*
X94084Y-48525D01*
X94240Y-48460D01*
X94360Y-48341D01*
X94424Y-48184D01*
X94425Y-48015D01*
X94360Y-47859D01*
X94241Y-47739D01*
X94224Y-47733D01*
X94244Y-47684D01*
X94245Y-47515D01*
X94180Y-47359D01*
X94125Y-47304D01*
X94149Y-47234D01*
X94205Y-47368D01*
X94352Y-47516D01*
X94545Y-47596D01*
X94754Y-47596D01*
X94947Y-47517D01*
X95095Y-47369D01*
X95150Y-47236D01*
X95205Y-47368D01*
X95350Y-47514D01*
X95350Y-47525D01*
X93175Y-49700D01*
X92851Y-49700D01*
X92791Y-49639D01*
X92634Y-49575D01*
X92465Y-49574D01*
X92309Y-49639D01*
X92305Y-49643D01*
X92305Y-47955D01*
X92240Y-47799D01*
X92121Y-47679D01*
X91964Y-47615D01*
X91795Y-47614D01*
X91639Y-47679D01*
X91519Y-47798D01*
X91455Y-47955D01*
X91454Y-48124D01*
X91519Y-48280D01*
X91638Y-48400D01*
X91795Y-48464D01*
X91964Y-48465D01*
X92120Y-48400D01*
X92240Y-48281D01*
X92304Y-48124D01*
X92305Y-47955D01*
X92305Y-49643D01*
X92189Y-49758D01*
X92125Y-49915D01*
X92124Y-50041D01*
X92009Y-50089D01*
X91948Y-50150D01*
X91700Y-50150D01*
X91585Y-50172D01*
X91487Y-50237D01*
X90937Y-50787D01*
X90872Y-50885D01*
X90850Y-51000D01*
X90850Y-52375D01*
X90725Y-52500D01*
X90625Y-52500D01*
X90625Y-50795D01*
X90560Y-50639D01*
X90441Y-50519D01*
X90325Y-50471D01*
X90325Y-49435D01*
X90260Y-49279D01*
X90141Y-49159D01*
X89984Y-49095D01*
X89815Y-49094D01*
X89659Y-49159D01*
X89539Y-49278D01*
X89475Y-49435D01*
X89474Y-49604D01*
X89539Y-49760D01*
X89658Y-49880D01*
X89815Y-49944D01*
X89984Y-49945D01*
X90140Y-49880D01*
X90260Y-49761D01*
X90324Y-49604D01*
X90325Y-49435D01*
X90325Y-50471D01*
X90284Y-50455D01*
X90115Y-50454D01*
X89959Y-50519D01*
X89839Y-50638D01*
X89775Y-50795D01*
X89774Y-50964D01*
X89839Y-51120D01*
X89958Y-51240D01*
X90115Y-51304D01*
X90284Y-51305D01*
X90440Y-51240D01*
X90560Y-51121D01*
X90624Y-50964D01*
X90625Y-50795D01*
X90625Y-52500D01*
X90200Y-52500D01*
X90085Y-52522D01*
X89987Y-52587D01*
X89687Y-52887D01*
X89687Y-52887D01*
X88637Y-53937D01*
X88637Y-53937D01*
X88387Y-54187D01*
X88322Y-54285D01*
X88300Y-54400D01*
X88300Y-55200D01*
X88322Y-55314D01*
X88387Y-55412D01*
X89800Y-56824D01*
X89800Y-56824D01*
X89897Y-56889D01*
X90012Y-56912D01*
X92414Y-56912D01*
X92441Y-56976D01*
X92622Y-57157D01*
X92858Y-57255D01*
X93114Y-57256D01*
X93351Y-57158D01*
X93532Y-56977D01*
X93630Y-56741D01*
X93630Y-56729D01*
X96400Y-56750D01*
X96400Y-56273D01*
X96476Y-56349D01*
X96691Y-56438D01*
X96923Y-56438D01*
X97138Y-56350D01*
X97303Y-56185D01*
X97392Y-55971D01*
X97392Y-55738D01*
X97303Y-55523D01*
X97139Y-55358D01*
X96924Y-55269D01*
X96692Y-55269D01*
X96477Y-55358D01*
X96400Y-55435D01*
X96400Y-55000D01*
X99600Y-55000D01*
X99600Y-54999D01*
X99714Y-54977D01*
X99714Y-54977D01*
X99812Y-54912D01*
X100362Y-54362D01*
X100362Y-54362D01*
X100427Y-54264D01*
X100449Y-54150D01*
X100450Y-54150D01*
X100450Y-54057D01*
X100574Y-54101D01*
X100783Y-54090D01*
X100923Y-54032D01*
X100947Y-53939D01*
X100650Y-53642D01*
X100645Y-53648D01*
X100574Y-53577D01*
X100579Y-53571D01*
X100574Y-53566D01*
X100645Y-53495D01*
X100650Y-53501D01*
X100947Y-53204D01*
X100923Y-53111D01*
X100726Y-53041D01*
X100517Y-53053D01*
X100450Y-53081D01*
X100450Y-52974D01*
X100674Y-52750D01*
X100848Y-52750D01*
X100908Y-52810D01*
X101065Y-52874D01*
X101234Y-52875D01*
X101390Y-52810D01*
X101510Y-52691D01*
X101574Y-52534D01*
X101575Y-52365D01*
X101510Y-52209D01*
X101391Y-52089D01*
X101234Y-52025D01*
X101075Y-52024D01*
X101075Y-48715D01*
X101010Y-48559D01*
X100891Y-48439D01*
X100734Y-48375D01*
X100565Y-48374D01*
X100409Y-48439D01*
X100289Y-48558D01*
X100237Y-48686D01*
X100141Y-48589D01*
X99984Y-48525D01*
X99815Y-48524D01*
X99659Y-48589D01*
X99539Y-48708D01*
X99475Y-48865D01*
X99474Y-49034D01*
X99539Y-49190D01*
X99658Y-49310D01*
X99815Y-49374D01*
X99962Y-49375D01*
X99989Y-49440D01*
X100108Y-49560D01*
X100265Y-49624D01*
X100434Y-49625D01*
X100590Y-49560D01*
X100710Y-49441D01*
X100774Y-49284D01*
X100774Y-49208D01*
X100890Y-49160D01*
X101010Y-49041D01*
X101074Y-48884D01*
X101075Y-48715D01*
X101075Y-52024D01*
X101065Y-52024D01*
X100909Y-52089D01*
X100848Y-52150D01*
X100550Y-52150D01*
X100435Y-52172D01*
X100337Y-52237D01*
X99937Y-52637D01*
X99872Y-52735D01*
X99850Y-52850D01*
X99850Y-53086D01*
X99755Y-53046D01*
X99546Y-53046D01*
X99450Y-53086D01*
X99450Y-52850D01*
X99450Y-51700D01*
X99427Y-51585D01*
X99362Y-51487D01*
X99362Y-51487D01*
X99024Y-51150D01*
X99025Y-51065D01*
X98960Y-50909D01*
X98841Y-50789D01*
X98684Y-50725D01*
X98515Y-50724D01*
X98487Y-50736D01*
X99112Y-50112D01*
X99112Y-50112D01*
X99177Y-50014D01*
X99199Y-49900D01*
X99200Y-49900D01*
X99200Y-49550D01*
X99200Y-49540D01*
X99200Y-48321D01*
X99199Y-48321D01*
X99177Y-48206D01*
X99112Y-48109D01*
X99112Y-48109D01*
X98599Y-47596D01*
X98754Y-47596D01*
X98947Y-47517D01*
X99095Y-47369D01*
X99150Y-47236D01*
X99205Y-47368D01*
X99352Y-47516D01*
X99545Y-47596D01*
X99754Y-47596D01*
X99947Y-47517D01*
X100095Y-47369D01*
X100150Y-47236D01*
X100205Y-47368D01*
X100352Y-47516D01*
X100545Y-47596D01*
X100754Y-47596D01*
X100947Y-47517D01*
X101095Y-47369D01*
X101150Y-47236D01*
X101205Y-47368D01*
X101352Y-47516D01*
X101545Y-47596D01*
X101754Y-47596D01*
X101947Y-47517D01*
X102092Y-47372D01*
X102092Y-49138D01*
X102066Y-49113D01*
X101974Y-49075D01*
X101875Y-49074D01*
X101325Y-49074D01*
X101233Y-49112D01*
X101163Y-49183D01*
X101125Y-49275D01*
X101124Y-49374D01*
X101124Y-49924D01*
X101162Y-50016D01*
X101233Y-50086D01*
X101325Y-50124D01*
X101424Y-50125D01*
X101424Y-50125D01*
X101353Y-50154D01*
X101205Y-50302D01*
X101125Y-50495D01*
X101124Y-50703D01*
X101204Y-50897D01*
X101352Y-51044D01*
X101545Y-51124D01*
X101753Y-51125D01*
X101947Y-51045D01*
X102092Y-50900D01*
X102092Y-53110D01*
X102067Y-53085D01*
X101975Y-53046D01*
X101876Y-53046D01*
X101326Y-53046D01*
X101234Y-53084D01*
X101163Y-53155D01*
X101125Y-53246D01*
X101125Y-53333D01*
X101111Y-53299D01*
X101018Y-53274D01*
X100721Y-53571D01*
X101018Y-53868D01*
X101111Y-53844D01*
X101125Y-53803D01*
X101125Y-53896D01*
X101163Y-53988D01*
X101233Y-54058D01*
X101325Y-54096D01*
X101425Y-54096D01*
X101975Y-54096D01*
X102067Y-54058D01*
X102092Y-54033D01*
X102092Y-56045D01*
X101963Y-55732D01*
X101693Y-55462D01*
X101341Y-55316D01*
X100960Y-55316D01*
X100607Y-55461D01*
X100337Y-55731D01*
X100191Y-56083D01*
X100191Y-56464D01*
X100336Y-56817D01*
X100606Y-57087D01*
X100958Y-57233D01*
X101339Y-57233D01*
X101692Y-57088D01*
X101962Y-56818D01*
X102092Y-56504D01*
X102092Y-58531D01*
M02*
