G04 (created by PCBNEW (2013-07-07 BZR 4022)-stable) date 7/26/2015 4:19:23 PM*
%MOIN*%
G04 Gerber Fmt 3.4, Leading zero omitted, Abs format*
%FSLAX34Y34*%
G01*
G70*
G90*
G04 APERTURE LIST*
%ADD10C,0.00590551*%
%ADD11C,0.00393701*%
%ADD12C,0.006*%
%ADD13C,0.005*%
%ADD14C,0.0039*%
%ADD15C,0.0026*%
%ADD16C,0.004*%
%ADD17C,0.002*%
%ADD18C,0.015*%
%ADD19C,0.00295276*%
%ADD20C,0.0001*%
%ADD21C,0.01*%
%ADD22C,0.008*%
%ADD23C,0.0059*%
%ADD24C,0.0043*%
%ADD25C,0.0047*%
%ADD26C,0.0016*%
%ADD27R,0.0371654X0.0619685*%
%ADD28R,0.0319685X0.0419685*%
%ADD29R,0.0369685X0.0619685*%
%ADD30R,0.0469685X0.0669685*%
%ADD31R,0.0669685X0.0469685*%
%ADD32R,0.0669685X0.0669685*%
%ADD33C,0.0669685*%
%ADD34R,0.228468X0.0906685*%
%ADD35R,0.0906685X0.228468*%
%ADD36R,0.0719685X0.0719685*%
%ADD37C,0.0719685*%
%ADD38C,0.0906685*%
%ADD39R,0.0591685X0.0591685*%
%ADD40R,0.110369X0.0887685*%
%ADD41R,0.0887685X0.110369*%
%ADD42R,0.0698685X0.0284685*%
%ADD43C,0.153701*%
%ADD44C,0.130079*%
%ADD45C,0.0769291*%
%ADD46R,0.0419685X0.0289685*%
%ADD47R,0.0513685X0.0513685*%
%ADD48C,0.0907087*%
%ADD49R,0.155968X0.0919685*%
%ADD50R,0.0519685X0.0919685*%
%ADD51R,0.161968X0.0669685*%
%ADD52R,0.0985685X0.0749685*%
G04 APERTURE END LIST*
G54D10*
G54D11*
X102367Y-58653D02*
G75*
G02X92910Y-64961I-13785J10425D01*
G74*
G01*
X92913Y-64960D02*
X92125Y-64960D01*
X84251Y-64960D02*
X85039Y-64960D01*
X85039Y-61023D02*
X92125Y-61023D01*
X74797Y-58653D02*
G75*
G03X84255Y-64961I13785J10425D01*
G74*
G01*
X92125Y-61023D02*
X92125Y-64960D01*
X85039Y-61023D02*
X85039Y-64960D01*
X74803Y-58661D02*
X74803Y-45275D01*
X102362Y-45275D02*
X102362Y-58661D01*
X74803Y-45275D02*
X102362Y-45275D01*
G54D10*
X88468Y-60070D02*
X89019Y-60070D01*
X89984Y-59421D02*
X89984Y-60366D01*
X89236Y-60504D02*
G75*
G03X89984Y-60385I314J433D01*
G74*
G01*
X89019Y-60070D02*
G75*
G03X89551Y-60602I531J0D01*
G74*
G01*
X88055Y-60503D02*
G75*
G03X88488Y-60070I0J433D01*
G74*
G01*
X87622Y-60110D02*
G75*
G03X88094Y-60503I433J39D01*
G74*
G01*
X89984Y-59421D02*
X87622Y-59421D01*
X87622Y-59421D02*
X87622Y-60090D01*
G54D12*
X97670Y-49620D02*
X97352Y-49938D01*
X96129Y-48079D02*
X95818Y-48390D01*
X97670Y-49620D02*
X96129Y-48079D01*
X97380Y-50575D02*
X97684Y-50879D01*
X95825Y-52145D02*
X96122Y-52442D01*
X96115Y-52449D02*
X97692Y-50886D01*
X93322Y-49627D02*
X94849Y-48086D01*
X93505Y-50419D02*
X95507Y-52420D01*
X94863Y-48086D02*
X95153Y-48376D01*
X93513Y-50073D02*
X95478Y-48107D01*
X97670Y-50271D02*
X95521Y-48121D01*
X95514Y-52427D02*
X97635Y-50306D01*
X93307Y-50858D02*
X94877Y-52427D01*
X94877Y-52427D02*
X95195Y-52109D01*
X93501Y-50409D02*
X93501Y-50084D01*
X93309Y-50856D02*
X93628Y-50537D01*
X93640Y-49945D02*
X93320Y-49626D01*
X94101Y-50244D02*
G75*
G03X94101Y-50244I-188J0D01*
G74*
G01*
G54D13*
X94600Y-61550D02*
X94600Y-60850D01*
X94600Y-60850D02*
X95800Y-60850D01*
X95800Y-60850D02*
X95800Y-61550D01*
X95800Y-61550D02*
X94600Y-61550D01*
X82550Y-58220D02*
X82550Y-59780D01*
X82550Y-59780D02*
X85950Y-59780D01*
X85950Y-59780D02*
X85950Y-58220D01*
X85950Y-58220D02*
X82550Y-58220D01*
X83250Y-58220D02*
X83250Y-57790D01*
X83750Y-58220D02*
X83750Y-57790D01*
X84250Y-58220D02*
X84250Y-57790D01*
X82750Y-58220D02*
X82750Y-57790D01*
X84750Y-57790D02*
X84750Y-58220D01*
X85250Y-57790D02*
X85250Y-58220D01*
X85750Y-57790D02*
X85750Y-58220D01*
X85750Y-59780D02*
X85750Y-60210D01*
X85250Y-59780D02*
X85250Y-60210D01*
X82750Y-59780D02*
X82750Y-60210D01*
X83250Y-60210D02*
X83250Y-59780D01*
X84750Y-60210D02*
X84750Y-59780D01*
X84250Y-60210D02*
X84250Y-59780D01*
X83750Y-60210D02*
X83750Y-59780D01*
X83026Y-59490D02*
G75*
G03X83026Y-59490I-186J0D01*
G74*
G01*
G54D14*
X91703Y-46325D02*
G75*
G03X91703Y-46325I-50J0D01*
G74*
G01*
X92103Y-46325D02*
X91703Y-46325D01*
X91703Y-46325D02*
X91703Y-45725D01*
X91703Y-45725D02*
X92103Y-45725D01*
X92503Y-45725D02*
X92903Y-45725D01*
X92903Y-45725D02*
X92903Y-46325D01*
X92903Y-46325D02*
X92503Y-46325D01*
X98560Y-47700D02*
G75*
G03X98560Y-47700I-50J0D01*
G74*
G01*
X98060Y-47700D02*
X98460Y-47700D01*
X98460Y-47700D02*
X98460Y-48300D01*
X98460Y-48300D02*
X98060Y-48300D01*
X97660Y-48300D02*
X97260Y-48300D01*
X97260Y-48300D02*
X97260Y-47700D01*
X97260Y-47700D02*
X97660Y-47700D01*
X92050Y-48350D02*
G75*
G03X92050Y-48350I-50J0D01*
G74*
G01*
X92450Y-48350D02*
X92050Y-48350D01*
X92050Y-48350D02*
X92050Y-47750D01*
X92050Y-47750D02*
X92450Y-47750D01*
X92850Y-47750D02*
X93250Y-47750D01*
X93250Y-47750D02*
X93250Y-48350D01*
X93250Y-48350D02*
X92850Y-48350D01*
X100140Y-47700D02*
G75*
G03X100140Y-47700I-50J0D01*
G74*
G01*
X99640Y-47700D02*
X100040Y-47700D01*
X100040Y-47700D02*
X100040Y-48300D01*
X100040Y-48300D02*
X99640Y-48300D01*
X99240Y-48300D02*
X98840Y-48300D01*
X98840Y-48300D02*
X98840Y-47700D01*
X98840Y-47700D02*
X99240Y-47700D01*
X82950Y-46800D02*
G75*
G03X82950Y-46800I-50J0D01*
G74*
G01*
X82900Y-46350D02*
X82900Y-46750D01*
X82900Y-46750D02*
X82300Y-46750D01*
X82300Y-46750D02*
X82300Y-46350D01*
X82300Y-45950D02*
X82300Y-45550D01*
X82300Y-45550D02*
X82900Y-45550D01*
X82900Y-45550D02*
X82900Y-45950D01*
X83900Y-46800D02*
G75*
G03X83900Y-46800I-50J0D01*
G74*
G01*
X83850Y-46350D02*
X83850Y-46750D01*
X83850Y-46750D02*
X83250Y-46750D01*
X83250Y-46750D02*
X83250Y-46350D01*
X83250Y-45950D02*
X83250Y-45550D01*
X83250Y-45550D02*
X83850Y-45550D01*
X83850Y-45550D02*
X83850Y-45950D01*
X81700Y-62750D02*
G75*
G03X81700Y-62750I-50J0D01*
G74*
G01*
X82100Y-62750D02*
X81700Y-62750D01*
X81700Y-62750D02*
X81700Y-62150D01*
X81700Y-62150D02*
X82100Y-62150D01*
X82500Y-62150D02*
X82900Y-62150D01*
X82900Y-62150D02*
X82900Y-62750D01*
X82900Y-62750D02*
X82500Y-62750D01*
X94600Y-62800D02*
G75*
G03X94600Y-62800I-50J0D01*
G74*
G01*
X95000Y-62800D02*
X94600Y-62800D01*
X94600Y-62800D02*
X94600Y-62200D01*
X94600Y-62200D02*
X95000Y-62200D01*
X95400Y-62200D02*
X95800Y-62200D01*
X95800Y-62200D02*
X95800Y-62800D01*
X95800Y-62800D02*
X95400Y-62800D01*
X92378Y-51752D02*
G75*
G03X92378Y-51752I-49J0D01*
G74*
G01*
X92646Y-52070D02*
X92363Y-51787D01*
X92363Y-51787D02*
X92787Y-51363D01*
X92787Y-51363D02*
X93070Y-51646D01*
X93353Y-51929D02*
X93636Y-52212D01*
X93636Y-52212D02*
X93212Y-52636D01*
X93212Y-52636D02*
X92929Y-52353D01*
X93150Y-60100D02*
G75*
G03X93150Y-60100I-50J0D01*
G74*
G01*
X93550Y-60100D02*
X93150Y-60100D01*
X93150Y-60100D02*
X93150Y-59500D01*
X93150Y-59500D02*
X93550Y-59500D01*
X93950Y-59500D02*
X94350Y-59500D01*
X94350Y-59500D02*
X94350Y-60100D01*
X94350Y-60100D02*
X93950Y-60100D01*
X89100Y-54250D02*
G75*
G03X89100Y-54250I-50J0D01*
G74*
G01*
X88600Y-54250D02*
X89000Y-54250D01*
X89000Y-54250D02*
X89000Y-54850D01*
X89000Y-54850D02*
X88600Y-54850D01*
X88200Y-54850D02*
X87800Y-54850D01*
X87800Y-54850D02*
X87800Y-54250D01*
X87800Y-54250D02*
X88200Y-54250D01*
X82600Y-60550D02*
G75*
G03X82600Y-60550I-50J0D01*
G74*
G01*
X82550Y-61000D02*
X82550Y-60600D01*
X82550Y-60600D02*
X83150Y-60600D01*
X83150Y-60600D02*
X83150Y-61000D01*
X83150Y-61400D02*
X83150Y-61800D01*
X83150Y-61800D02*
X82550Y-61800D01*
X82550Y-61800D02*
X82550Y-61400D01*
X83400Y-60550D02*
G75*
G03X83400Y-60550I-50J0D01*
G74*
G01*
X83350Y-61000D02*
X83350Y-60600D01*
X83350Y-60600D02*
X83950Y-60600D01*
X83950Y-60600D02*
X83950Y-61000D01*
X83950Y-61400D02*
X83950Y-61800D01*
X83950Y-61800D02*
X83350Y-61800D01*
X83350Y-61800D02*
X83350Y-61400D01*
X91050Y-57000D02*
G75*
G03X91050Y-57000I-50J0D01*
G74*
G01*
X91450Y-57000D02*
X91050Y-57000D01*
X91050Y-57000D02*
X91050Y-56400D01*
X91050Y-56400D02*
X91450Y-56400D01*
X91850Y-56400D02*
X92250Y-56400D01*
X92250Y-56400D02*
X92250Y-57000D01*
X92250Y-57000D02*
X91850Y-57000D01*
X95600Y-56350D02*
G75*
G03X95600Y-56350I-50J0D01*
G74*
G01*
X95100Y-56350D02*
X95500Y-56350D01*
X95500Y-56350D02*
X95500Y-56950D01*
X95500Y-56950D02*
X95100Y-56950D01*
X94700Y-56950D02*
X94300Y-56950D01*
X94300Y-56950D02*
X94300Y-56350D01*
X94300Y-56350D02*
X94700Y-56350D01*
X86850Y-58550D02*
G75*
G03X86850Y-58550I-50J0D01*
G74*
G01*
X86800Y-59000D02*
X86800Y-58600D01*
X86800Y-58600D02*
X87400Y-58600D01*
X87400Y-58600D02*
X87400Y-59000D01*
X87400Y-59400D02*
X87400Y-59800D01*
X87400Y-59800D02*
X86800Y-59800D01*
X86800Y-59800D02*
X86800Y-59400D01*
X90150Y-58550D02*
G75*
G03X90150Y-58550I-50J0D01*
G74*
G01*
X90100Y-59000D02*
X90100Y-58600D01*
X90100Y-58600D02*
X90700Y-58600D01*
X90700Y-58600D02*
X90700Y-59000D01*
X90700Y-59400D02*
X90700Y-59800D01*
X90700Y-59800D02*
X90100Y-59800D01*
X90100Y-59800D02*
X90100Y-59400D01*
X90900Y-58550D02*
G75*
G03X90900Y-58550I-50J0D01*
G74*
G01*
X90850Y-59000D02*
X90850Y-58600D01*
X90850Y-58600D02*
X91450Y-58600D01*
X91450Y-58600D02*
X91450Y-59000D01*
X91450Y-59400D02*
X91450Y-59800D01*
X91450Y-59800D02*
X90850Y-59800D01*
X90850Y-59800D02*
X90850Y-59400D01*
X81700Y-57400D02*
G75*
G03X81700Y-57400I-50J0D01*
G74*
G01*
X82100Y-57400D02*
X81700Y-57400D01*
X81700Y-57400D02*
X81700Y-56800D01*
X81700Y-56800D02*
X82100Y-56800D01*
X82500Y-56800D02*
X82900Y-56800D01*
X82900Y-56800D02*
X82900Y-57400D01*
X82900Y-57400D02*
X82500Y-57400D01*
X87700Y-58950D02*
G75*
G03X87700Y-58950I-50J0D01*
G74*
G01*
X88100Y-58950D02*
X87700Y-58950D01*
X87700Y-58950D02*
X87700Y-58350D01*
X87700Y-58350D02*
X88100Y-58350D01*
X88500Y-58350D02*
X88900Y-58350D01*
X88900Y-58350D02*
X88900Y-58950D01*
X88900Y-58950D02*
X88500Y-58950D01*
G54D10*
X91350Y-54550D02*
X91350Y-54700D01*
X91350Y-55850D02*
X91350Y-55700D01*
X95250Y-55850D02*
X95250Y-55700D01*
X95250Y-54550D02*
X95250Y-54700D01*
X95550Y-54200D02*
X95550Y-54700D01*
X95550Y-56200D02*
X95550Y-55700D01*
X91050Y-56200D02*
X91050Y-55700D01*
X91050Y-54200D02*
X91050Y-54700D01*
X91350Y-55850D02*
X91600Y-56100D01*
X91600Y-56100D02*
X95000Y-56100D01*
X95000Y-56100D02*
X95250Y-55850D01*
X95250Y-54550D02*
X95000Y-54300D01*
X95000Y-54300D02*
X91600Y-54300D01*
X91600Y-54300D02*
X91350Y-54550D01*
X95550Y-56200D02*
X91050Y-56200D01*
X91050Y-54200D02*
X95550Y-54200D01*
X80300Y-61750D02*
X80450Y-61750D01*
X81600Y-61750D02*
X81450Y-61750D01*
X81600Y-57850D02*
X81450Y-57850D01*
X80300Y-57850D02*
X80450Y-57850D01*
X79950Y-57550D02*
X80450Y-57550D01*
X81950Y-57550D02*
X81450Y-57550D01*
X81950Y-62050D02*
X81450Y-62050D01*
X79950Y-62050D02*
X80450Y-62050D01*
X81600Y-61750D02*
X81850Y-61500D01*
X81850Y-61500D02*
X81850Y-58100D01*
X81850Y-58100D02*
X81600Y-57850D01*
X80300Y-57850D02*
X80050Y-58100D01*
X80050Y-58100D02*
X80050Y-61500D01*
X80050Y-61500D02*
X80300Y-61750D01*
X81950Y-57550D02*
X81950Y-62050D01*
X79950Y-62050D02*
X79950Y-57550D01*
G54D15*
X101196Y-48118D02*
X101196Y-48246D01*
X101196Y-48246D02*
X101393Y-48246D01*
X101393Y-48118D02*
X101393Y-48246D01*
X101196Y-48118D02*
X101393Y-48118D01*
X101196Y-47873D02*
X101196Y-47932D01*
X101196Y-47932D02*
X101295Y-47932D01*
X101295Y-47873D02*
X101295Y-47932D01*
X101196Y-47873D02*
X101295Y-47873D01*
X101196Y-48068D02*
X101196Y-48127D01*
X101196Y-48127D02*
X101295Y-48127D01*
X101295Y-48068D02*
X101295Y-48127D01*
X101196Y-48068D02*
X101295Y-48068D01*
X101196Y-47922D02*
X101196Y-48078D01*
X101196Y-48078D02*
X101265Y-48078D01*
X101265Y-47922D02*
X101265Y-48078D01*
X101196Y-47922D02*
X101265Y-47922D01*
X100607Y-48118D02*
X100607Y-48246D01*
X100607Y-48246D02*
X100804Y-48246D01*
X100804Y-48118D02*
X100804Y-48246D01*
X100607Y-48118D02*
X100804Y-48118D01*
X100607Y-47754D02*
X100607Y-47882D01*
X100607Y-47882D02*
X100804Y-47882D01*
X100804Y-47754D02*
X100804Y-47882D01*
X100607Y-47754D02*
X100804Y-47754D01*
X100705Y-48068D02*
X100705Y-48127D01*
X100705Y-48127D02*
X100804Y-48127D01*
X100804Y-48068D02*
X100804Y-48127D01*
X100705Y-48068D02*
X100804Y-48068D01*
X100705Y-47873D02*
X100705Y-47932D01*
X100705Y-47932D02*
X100804Y-47932D01*
X100804Y-47873D02*
X100804Y-47932D01*
X100705Y-47873D02*
X100804Y-47873D01*
X100735Y-47922D02*
X100735Y-48078D01*
X100735Y-48078D02*
X100804Y-48078D01*
X100804Y-47922D02*
X100804Y-48078D01*
X100735Y-47922D02*
X100804Y-47922D01*
X101000Y-47961D02*
X101000Y-48039D01*
X101000Y-48039D02*
X101078Y-48039D01*
X101078Y-47961D02*
X101078Y-48039D01*
X101000Y-47961D02*
X101078Y-47961D01*
X101196Y-47764D02*
X101196Y-47882D01*
X101196Y-47882D02*
X101314Y-47882D01*
X101314Y-47764D02*
X101314Y-47882D01*
X101196Y-47764D02*
X101314Y-47764D01*
X101364Y-47754D02*
X101364Y-47843D01*
X101364Y-47843D02*
X101393Y-47843D01*
X101393Y-47754D02*
X101393Y-47843D01*
X101364Y-47754D02*
X101393Y-47754D01*
G54D16*
X101206Y-48226D02*
X100794Y-48226D01*
X100804Y-47774D02*
X101364Y-47774D01*
G54D17*
X101362Y-47823D02*
G75*
G03X101362Y-47823I-28J0D01*
G74*
G01*
G54D16*
X101393Y-47863D02*
G75*
G03X101393Y-48137I0J-137D01*
G74*
G01*
X100607Y-48137D02*
G75*
G03X100607Y-47863I0J137D01*
G74*
G01*
G54D15*
X91954Y-59982D02*
X91954Y-59854D01*
X91954Y-59854D02*
X91757Y-59854D01*
X91757Y-59982D02*
X91757Y-59854D01*
X91954Y-59982D02*
X91757Y-59982D01*
X91954Y-60227D02*
X91954Y-60168D01*
X91954Y-60168D02*
X91855Y-60168D01*
X91855Y-60227D02*
X91855Y-60168D01*
X91954Y-60227D02*
X91855Y-60227D01*
X91954Y-60032D02*
X91954Y-59973D01*
X91954Y-59973D02*
X91855Y-59973D01*
X91855Y-60032D02*
X91855Y-59973D01*
X91954Y-60032D02*
X91855Y-60032D01*
X91954Y-60178D02*
X91954Y-60022D01*
X91954Y-60022D02*
X91885Y-60022D01*
X91885Y-60178D02*
X91885Y-60022D01*
X91954Y-60178D02*
X91885Y-60178D01*
X92543Y-59982D02*
X92543Y-59854D01*
X92543Y-59854D02*
X92346Y-59854D01*
X92346Y-59982D02*
X92346Y-59854D01*
X92543Y-59982D02*
X92346Y-59982D01*
X92543Y-60346D02*
X92543Y-60218D01*
X92543Y-60218D02*
X92346Y-60218D01*
X92346Y-60346D02*
X92346Y-60218D01*
X92543Y-60346D02*
X92346Y-60346D01*
X92445Y-60032D02*
X92445Y-59973D01*
X92445Y-59973D02*
X92346Y-59973D01*
X92346Y-60032D02*
X92346Y-59973D01*
X92445Y-60032D02*
X92346Y-60032D01*
X92445Y-60227D02*
X92445Y-60168D01*
X92445Y-60168D02*
X92346Y-60168D01*
X92346Y-60227D02*
X92346Y-60168D01*
X92445Y-60227D02*
X92346Y-60227D01*
X92415Y-60178D02*
X92415Y-60022D01*
X92415Y-60022D02*
X92346Y-60022D01*
X92346Y-60178D02*
X92346Y-60022D01*
X92415Y-60178D02*
X92346Y-60178D01*
X92150Y-60139D02*
X92150Y-60061D01*
X92150Y-60061D02*
X92072Y-60061D01*
X92072Y-60139D02*
X92072Y-60061D01*
X92150Y-60139D02*
X92072Y-60139D01*
X91954Y-60336D02*
X91954Y-60218D01*
X91954Y-60218D02*
X91836Y-60218D01*
X91836Y-60336D02*
X91836Y-60218D01*
X91954Y-60336D02*
X91836Y-60336D01*
X91786Y-60346D02*
X91786Y-60257D01*
X91786Y-60257D02*
X91757Y-60257D01*
X91757Y-60346D02*
X91757Y-60257D01*
X91786Y-60346D02*
X91757Y-60346D01*
G54D16*
X91944Y-59874D02*
X92356Y-59874D01*
X92346Y-60326D02*
X91786Y-60326D01*
G54D17*
X91844Y-60277D02*
G75*
G03X91844Y-60277I-28J0D01*
G74*
G01*
G54D16*
X91757Y-60237D02*
G75*
G03X91757Y-59963I0J137D01*
G74*
G01*
X92543Y-59963D02*
G75*
G03X92543Y-60237I0J-137D01*
G74*
G01*
G54D15*
X101868Y-51804D02*
X101996Y-51804D01*
X101996Y-51804D02*
X101996Y-51607D01*
X101868Y-51607D02*
X101996Y-51607D01*
X101868Y-51804D02*
X101868Y-51607D01*
X101623Y-51804D02*
X101682Y-51804D01*
X101682Y-51804D02*
X101682Y-51705D01*
X101623Y-51705D02*
X101682Y-51705D01*
X101623Y-51804D02*
X101623Y-51705D01*
X101818Y-51804D02*
X101877Y-51804D01*
X101877Y-51804D02*
X101877Y-51705D01*
X101818Y-51705D02*
X101877Y-51705D01*
X101818Y-51804D02*
X101818Y-51705D01*
X101672Y-51804D02*
X101828Y-51804D01*
X101828Y-51804D02*
X101828Y-51735D01*
X101672Y-51735D02*
X101828Y-51735D01*
X101672Y-51804D02*
X101672Y-51735D01*
X101868Y-52393D02*
X101996Y-52393D01*
X101996Y-52393D02*
X101996Y-52196D01*
X101868Y-52196D02*
X101996Y-52196D01*
X101868Y-52393D02*
X101868Y-52196D01*
X101504Y-52393D02*
X101632Y-52393D01*
X101632Y-52393D02*
X101632Y-52196D01*
X101504Y-52196D02*
X101632Y-52196D01*
X101504Y-52393D02*
X101504Y-52196D01*
X101818Y-52295D02*
X101877Y-52295D01*
X101877Y-52295D02*
X101877Y-52196D01*
X101818Y-52196D02*
X101877Y-52196D01*
X101818Y-52295D02*
X101818Y-52196D01*
X101623Y-52295D02*
X101682Y-52295D01*
X101682Y-52295D02*
X101682Y-52196D01*
X101623Y-52196D02*
X101682Y-52196D01*
X101623Y-52295D02*
X101623Y-52196D01*
X101672Y-52265D02*
X101828Y-52265D01*
X101828Y-52265D02*
X101828Y-52196D01*
X101672Y-52196D02*
X101828Y-52196D01*
X101672Y-52265D02*
X101672Y-52196D01*
X101711Y-52000D02*
X101789Y-52000D01*
X101789Y-52000D02*
X101789Y-51922D01*
X101711Y-51922D02*
X101789Y-51922D01*
X101711Y-52000D02*
X101711Y-51922D01*
X101514Y-51804D02*
X101632Y-51804D01*
X101632Y-51804D02*
X101632Y-51686D01*
X101514Y-51686D02*
X101632Y-51686D01*
X101514Y-51804D02*
X101514Y-51686D01*
X101504Y-51636D02*
X101593Y-51636D01*
X101593Y-51636D02*
X101593Y-51607D01*
X101504Y-51607D02*
X101593Y-51607D01*
X101504Y-51636D02*
X101504Y-51607D01*
G54D16*
X101976Y-51794D02*
X101976Y-52206D01*
X101524Y-52196D02*
X101524Y-51636D01*
G54D17*
X101601Y-51666D02*
G75*
G03X101601Y-51666I-28J0D01*
G74*
G01*
G54D16*
X101613Y-51607D02*
G75*
G03X101887Y-51607I137J0D01*
G74*
G01*
X101887Y-52393D02*
G75*
G03X101613Y-52393I-137J0D01*
G74*
G01*
G54D15*
X101499Y-45893D02*
X101499Y-46021D01*
X101499Y-46021D02*
X101696Y-46021D01*
X101696Y-45893D02*
X101696Y-46021D01*
X101499Y-45893D02*
X101696Y-45893D01*
X101499Y-45648D02*
X101499Y-45707D01*
X101499Y-45707D02*
X101598Y-45707D01*
X101598Y-45648D02*
X101598Y-45707D01*
X101499Y-45648D02*
X101598Y-45648D01*
X101499Y-45843D02*
X101499Y-45902D01*
X101499Y-45902D02*
X101598Y-45902D01*
X101598Y-45843D02*
X101598Y-45902D01*
X101499Y-45843D02*
X101598Y-45843D01*
X101499Y-45697D02*
X101499Y-45853D01*
X101499Y-45853D02*
X101568Y-45853D01*
X101568Y-45697D02*
X101568Y-45853D01*
X101499Y-45697D02*
X101568Y-45697D01*
X100910Y-45893D02*
X100910Y-46021D01*
X100910Y-46021D02*
X101107Y-46021D01*
X101107Y-45893D02*
X101107Y-46021D01*
X100910Y-45893D02*
X101107Y-45893D01*
X100910Y-45529D02*
X100910Y-45657D01*
X100910Y-45657D02*
X101107Y-45657D01*
X101107Y-45529D02*
X101107Y-45657D01*
X100910Y-45529D02*
X101107Y-45529D01*
X101008Y-45843D02*
X101008Y-45902D01*
X101008Y-45902D02*
X101107Y-45902D01*
X101107Y-45843D02*
X101107Y-45902D01*
X101008Y-45843D02*
X101107Y-45843D01*
X101008Y-45648D02*
X101008Y-45707D01*
X101008Y-45707D02*
X101107Y-45707D01*
X101107Y-45648D02*
X101107Y-45707D01*
X101008Y-45648D02*
X101107Y-45648D01*
X101038Y-45697D02*
X101038Y-45853D01*
X101038Y-45853D02*
X101107Y-45853D01*
X101107Y-45697D02*
X101107Y-45853D01*
X101038Y-45697D02*
X101107Y-45697D01*
X101303Y-45736D02*
X101303Y-45814D01*
X101303Y-45814D02*
X101381Y-45814D01*
X101381Y-45736D02*
X101381Y-45814D01*
X101303Y-45736D02*
X101381Y-45736D01*
X101499Y-45539D02*
X101499Y-45657D01*
X101499Y-45657D02*
X101617Y-45657D01*
X101617Y-45539D02*
X101617Y-45657D01*
X101499Y-45539D02*
X101617Y-45539D01*
X101667Y-45529D02*
X101667Y-45618D01*
X101667Y-45618D02*
X101696Y-45618D01*
X101696Y-45529D02*
X101696Y-45618D01*
X101667Y-45529D02*
X101696Y-45529D01*
G54D16*
X101509Y-46001D02*
X101097Y-46001D01*
X101107Y-45549D02*
X101667Y-45549D01*
G54D17*
X101665Y-45598D02*
G75*
G03X101665Y-45598I-28J0D01*
G74*
G01*
G54D16*
X101696Y-45638D02*
G75*
G03X101696Y-45912I0J-137D01*
G74*
G01*
X100910Y-45912D02*
G75*
G03X100910Y-45638I0J137D01*
G74*
G01*
G54D15*
X83953Y-64198D02*
X83913Y-64320D01*
X83913Y-64320D02*
X84100Y-64380D01*
X84140Y-64259D02*
X84100Y-64380D01*
X83953Y-64198D02*
X84140Y-64259D01*
X84028Y-63965D02*
X84010Y-64021D01*
X84010Y-64021D02*
X84104Y-64052D01*
X84122Y-63995D02*
X84104Y-64052D01*
X84028Y-63965D02*
X84122Y-63995D01*
X83968Y-64150D02*
X83950Y-64206D01*
X83950Y-64206D02*
X84044Y-64237D01*
X84062Y-64181D02*
X84044Y-64237D01*
X83968Y-64150D02*
X84062Y-64181D01*
X84013Y-64011D02*
X83965Y-64160D01*
X83965Y-64160D02*
X84031Y-64181D01*
X84079Y-64033D02*
X84031Y-64181D01*
X84013Y-64011D02*
X84079Y-64033D01*
X83392Y-64016D02*
X83353Y-64138D01*
X83353Y-64138D02*
X83540Y-64198D01*
X83580Y-64077D02*
X83540Y-64198D01*
X83392Y-64016D02*
X83580Y-64077D01*
X83505Y-63670D02*
X83465Y-63791D01*
X83465Y-63791D02*
X83653Y-63852D01*
X83692Y-63731D02*
X83653Y-63852D01*
X83505Y-63670D02*
X83692Y-63731D01*
X83501Y-63999D02*
X83483Y-64055D01*
X83483Y-64055D02*
X83577Y-64085D01*
X83595Y-64029D02*
X83577Y-64085D01*
X83501Y-63999D02*
X83595Y-64029D01*
X83561Y-63813D02*
X83543Y-63869D01*
X83543Y-63869D02*
X83637Y-63900D01*
X83655Y-63844D02*
X83637Y-63900D01*
X83561Y-63813D02*
X83655Y-63844D01*
X83575Y-63869D02*
X83527Y-64017D01*
X83527Y-64017D02*
X83592Y-64039D01*
X83640Y-63890D02*
X83592Y-64039D01*
X83575Y-63869D02*
X83640Y-63890D01*
X83815Y-63988D02*
X83791Y-64062D01*
X83791Y-64062D02*
X83865Y-64086D01*
X83889Y-64012D02*
X83865Y-64086D01*
X83815Y-63988D02*
X83889Y-64012D01*
X84062Y-63861D02*
X84026Y-63973D01*
X84026Y-63973D02*
X84138Y-64010D01*
X84174Y-63898D02*
X84138Y-64010D01*
X84062Y-63861D02*
X84174Y-63898D01*
X84225Y-63904D02*
X84197Y-63988D01*
X84197Y-63988D02*
X84225Y-63997D01*
X84252Y-63913D02*
X84225Y-63997D01*
X84225Y-63904D02*
X84252Y-63913D01*
G54D16*
X83929Y-64304D02*
X83537Y-64176D01*
X83686Y-63750D02*
X84219Y-63923D01*
G54D17*
X84203Y-63960D02*
G75*
G03X84203Y-63960I-28J0D01*
G74*
G01*
G54D16*
X84219Y-64016D02*
G75*
G03X84134Y-64277I-42J-130D01*
G74*
G01*
X83387Y-64034D02*
G75*
G03X83471Y-63773I42J130D01*
G74*
G01*
G54D15*
X100275Y-59970D02*
X100365Y-60060D01*
X100365Y-60060D02*
X100504Y-59921D01*
X100414Y-59831D02*
X100504Y-59921D01*
X100275Y-59970D02*
X100414Y-59831D01*
X100101Y-59797D02*
X100143Y-59838D01*
X100143Y-59838D02*
X100213Y-59768D01*
X100171Y-59727D02*
X100213Y-59768D01*
X100101Y-59797D02*
X100171Y-59727D01*
X100239Y-59935D02*
X100281Y-59976D01*
X100281Y-59976D02*
X100351Y-59906D01*
X100309Y-59865D02*
X100351Y-59906D01*
X100239Y-59935D02*
X100309Y-59865D01*
X100136Y-59831D02*
X100246Y-59942D01*
X100246Y-59942D02*
X100295Y-59893D01*
X100185Y-59783D02*
X100295Y-59893D01*
X100136Y-59831D02*
X100185Y-59783D01*
X99858Y-60386D02*
X99949Y-60477D01*
X99949Y-60477D02*
X100088Y-60338D01*
X99997Y-60247D02*
X100088Y-60338D01*
X99858Y-60386D02*
X99997Y-60247D01*
X99601Y-60129D02*
X99691Y-60220D01*
X99691Y-60220D02*
X99831Y-60080D01*
X99740Y-59990D02*
X99831Y-60080D01*
X99601Y-60129D02*
X99740Y-59990D01*
X99892Y-60282D02*
X99934Y-60323D01*
X99934Y-60323D02*
X100004Y-60253D01*
X99962Y-60212D02*
X100004Y-60253D01*
X99892Y-60282D02*
X99962Y-60212D01*
X99754Y-60144D02*
X99796Y-60186D01*
X99796Y-60186D02*
X99866Y-60116D01*
X99824Y-60074D02*
X99866Y-60116D01*
X99754Y-60144D02*
X99824Y-60074D01*
X99810Y-60157D02*
X99920Y-60268D01*
X99920Y-60268D02*
X99969Y-60219D01*
X99859Y-60109D02*
X99969Y-60219D01*
X99810Y-60157D02*
X99859Y-60109D01*
X100025Y-59998D02*
X100080Y-60053D01*
X100080Y-60053D02*
X100135Y-59998D01*
X100080Y-59942D02*
X100135Y-59998D01*
X100025Y-59998D02*
X100080Y-59942D01*
X100024Y-59720D02*
X100108Y-59803D01*
X100108Y-59803D02*
X100191Y-59720D01*
X100108Y-59636D02*
X100191Y-59720D01*
X100024Y-59720D02*
X100108Y-59636D01*
X100136Y-59594D02*
X100199Y-59657D01*
X100199Y-59657D02*
X100220Y-59636D01*
X100157Y-59573D02*
X100220Y-59636D01*
X100136Y-59594D02*
X100157Y-59573D01*
G54D16*
X100358Y-60039D02*
X100067Y-60331D01*
X99754Y-60004D02*
X100150Y-59608D01*
G54D17*
X100192Y-59664D02*
G75*
G03X100192Y-59664I-28J0D01*
G74*
G01*
G54D16*
X100234Y-59650D02*
G75*
G03X100427Y-59844I96J-96D01*
G74*
G01*
X99872Y-60400D02*
G75*
G03X99678Y-60206I-96J96D01*
G74*
G01*
G54D15*
X75999Y-45893D02*
X75999Y-46021D01*
X75999Y-46021D02*
X76196Y-46021D01*
X76196Y-45893D02*
X76196Y-46021D01*
X75999Y-45893D02*
X76196Y-45893D01*
X75999Y-45648D02*
X75999Y-45707D01*
X75999Y-45707D02*
X76098Y-45707D01*
X76098Y-45648D02*
X76098Y-45707D01*
X75999Y-45648D02*
X76098Y-45648D01*
X75999Y-45843D02*
X75999Y-45902D01*
X75999Y-45902D02*
X76098Y-45902D01*
X76098Y-45843D02*
X76098Y-45902D01*
X75999Y-45843D02*
X76098Y-45843D01*
X75999Y-45697D02*
X75999Y-45853D01*
X75999Y-45853D02*
X76068Y-45853D01*
X76068Y-45697D02*
X76068Y-45853D01*
X75999Y-45697D02*
X76068Y-45697D01*
X75410Y-45893D02*
X75410Y-46021D01*
X75410Y-46021D02*
X75607Y-46021D01*
X75607Y-45893D02*
X75607Y-46021D01*
X75410Y-45893D02*
X75607Y-45893D01*
X75410Y-45529D02*
X75410Y-45657D01*
X75410Y-45657D02*
X75607Y-45657D01*
X75607Y-45529D02*
X75607Y-45657D01*
X75410Y-45529D02*
X75607Y-45529D01*
X75508Y-45843D02*
X75508Y-45902D01*
X75508Y-45902D02*
X75607Y-45902D01*
X75607Y-45843D02*
X75607Y-45902D01*
X75508Y-45843D02*
X75607Y-45843D01*
X75508Y-45648D02*
X75508Y-45707D01*
X75508Y-45707D02*
X75607Y-45707D01*
X75607Y-45648D02*
X75607Y-45707D01*
X75508Y-45648D02*
X75607Y-45648D01*
X75538Y-45697D02*
X75538Y-45853D01*
X75538Y-45853D02*
X75607Y-45853D01*
X75607Y-45697D02*
X75607Y-45853D01*
X75538Y-45697D02*
X75607Y-45697D01*
X75803Y-45736D02*
X75803Y-45814D01*
X75803Y-45814D02*
X75881Y-45814D01*
X75881Y-45736D02*
X75881Y-45814D01*
X75803Y-45736D02*
X75881Y-45736D01*
X75999Y-45539D02*
X75999Y-45657D01*
X75999Y-45657D02*
X76117Y-45657D01*
X76117Y-45539D02*
X76117Y-45657D01*
X75999Y-45539D02*
X76117Y-45539D01*
X76167Y-45529D02*
X76167Y-45618D01*
X76167Y-45618D02*
X76196Y-45618D01*
X76196Y-45529D02*
X76196Y-45618D01*
X76167Y-45529D02*
X76196Y-45529D01*
G54D16*
X76009Y-46001D02*
X75597Y-46001D01*
X75607Y-45549D02*
X76167Y-45549D01*
G54D17*
X76165Y-45598D02*
G75*
G03X76165Y-45598I-28J0D01*
G74*
G01*
G54D16*
X76196Y-45638D02*
G75*
G03X76196Y-45912I0J-137D01*
G74*
G01*
X75410Y-45912D02*
G75*
G03X75410Y-45638I0J137D01*
G74*
G01*
G54D15*
X75671Y-52329D02*
X75799Y-52329D01*
X75799Y-52329D02*
X75799Y-52132D01*
X75671Y-52132D02*
X75799Y-52132D01*
X75671Y-52329D02*
X75671Y-52132D01*
X75426Y-52329D02*
X75485Y-52329D01*
X75485Y-52329D02*
X75485Y-52230D01*
X75426Y-52230D02*
X75485Y-52230D01*
X75426Y-52329D02*
X75426Y-52230D01*
X75621Y-52329D02*
X75680Y-52329D01*
X75680Y-52329D02*
X75680Y-52230D01*
X75621Y-52230D02*
X75680Y-52230D01*
X75621Y-52329D02*
X75621Y-52230D01*
X75475Y-52329D02*
X75631Y-52329D01*
X75631Y-52329D02*
X75631Y-52260D01*
X75475Y-52260D02*
X75631Y-52260D01*
X75475Y-52329D02*
X75475Y-52260D01*
X75671Y-52918D02*
X75799Y-52918D01*
X75799Y-52918D02*
X75799Y-52721D01*
X75671Y-52721D02*
X75799Y-52721D01*
X75671Y-52918D02*
X75671Y-52721D01*
X75307Y-52918D02*
X75435Y-52918D01*
X75435Y-52918D02*
X75435Y-52721D01*
X75307Y-52721D02*
X75435Y-52721D01*
X75307Y-52918D02*
X75307Y-52721D01*
X75621Y-52820D02*
X75680Y-52820D01*
X75680Y-52820D02*
X75680Y-52721D01*
X75621Y-52721D02*
X75680Y-52721D01*
X75621Y-52820D02*
X75621Y-52721D01*
X75426Y-52820D02*
X75485Y-52820D01*
X75485Y-52820D02*
X75485Y-52721D01*
X75426Y-52721D02*
X75485Y-52721D01*
X75426Y-52820D02*
X75426Y-52721D01*
X75475Y-52790D02*
X75631Y-52790D01*
X75631Y-52790D02*
X75631Y-52721D01*
X75475Y-52721D02*
X75631Y-52721D01*
X75475Y-52790D02*
X75475Y-52721D01*
X75514Y-52525D02*
X75592Y-52525D01*
X75592Y-52525D02*
X75592Y-52447D01*
X75514Y-52447D02*
X75592Y-52447D01*
X75514Y-52525D02*
X75514Y-52447D01*
X75317Y-52329D02*
X75435Y-52329D01*
X75435Y-52329D02*
X75435Y-52211D01*
X75317Y-52211D02*
X75435Y-52211D01*
X75317Y-52329D02*
X75317Y-52211D01*
X75307Y-52161D02*
X75396Y-52161D01*
X75396Y-52161D02*
X75396Y-52132D01*
X75307Y-52132D02*
X75396Y-52132D01*
X75307Y-52161D02*
X75307Y-52132D01*
G54D16*
X75779Y-52319D02*
X75779Y-52731D01*
X75327Y-52721D02*
X75327Y-52161D01*
G54D17*
X75404Y-52191D02*
G75*
G03X75404Y-52191I-28J0D01*
G74*
G01*
G54D16*
X75416Y-52132D02*
G75*
G03X75690Y-52132I137J0D01*
G74*
G01*
X75690Y-52918D02*
G75*
G03X75416Y-52918I-137J0D01*
G74*
G01*
G54D15*
X77108Y-60247D02*
X77017Y-60338D01*
X77017Y-60338D02*
X77157Y-60477D01*
X77247Y-60386D02*
X77157Y-60477D01*
X77108Y-60247D02*
X77247Y-60386D01*
X77281Y-60074D02*
X77239Y-60116D01*
X77239Y-60116D02*
X77309Y-60186D01*
X77351Y-60144D02*
X77309Y-60186D01*
X77281Y-60074D02*
X77351Y-60144D01*
X77143Y-60212D02*
X77101Y-60253D01*
X77101Y-60253D02*
X77171Y-60323D01*
X77213Y-60282D02*
X77171Y-60323D01*
X77143Y-60212D02*
X77213Y-60282D01*
X77246Y-60109D02*
X77136Y-60219D01*
X77136Y-60219D02*
X77185Y-60268D01*
X77295Y-60157D02*
X77185Y-60268D01*
X77246Y-60109D02*
X77295Y-60157D01*
X76691Y-59831D02*
X76601Y-59921D01*
X76601Y-59921D02*
X76740Y-60060D01*
X76831Y-59970D02*
X76740Y-60060D01*
X76691Y-59831D02*
X76831Y-59970D01*
X76949Y-59573D02*
X76858Y-59664D01*
X76858Y-59664D02*
X76997Y-59803D01*
X77088Y-59713D02*
X76997Y-59803D01*
X76949Y-59573D02*
X77088Y-59713D01*
X76796Y-59865D02*
X76754Y-59906D01*
X76754Y-59906D02*
X76824Y-59976D01*
X76866Y-59935D02*
X76824Y-59976D01*
X76796Y-59865D02*
X76866Y-59935D01*
X76934Y-59727D02*
X76892Y-59768D01*
X76892Y-59768D02*
X76962Y-59838D01*
X77004Y-59797D02*
X76962Y-59838D01*
X76934Y-59727D02*
X77004Y-59797D01*
X76920Y-59783D02*
X76810Y-59893D01*
X76810Y-59893D02*
X76859Y-59942D01*
X76969Y-59831D02*
X76859Y-59942D01*
X76920Y-59783D02*
X76969Y-59831D01*
X77080Y-59998D02*
X77025Y-60053D01*
X77025Y-60053D02*
X77080Y-60108D01*
X77135Y-60053D02*
X77080Y-60108D01*
X77080Y-59998D02*
X77135Y-60053D01*
X77358Y-59997D02*
X77275Y-60080D01*
X77275Y-60080D02*
X77358Y-60164D01*
X77442Y-60080D02*
X77358Y-60164D01*
X77358Y-59997D02*
X77442Y-60080D01*
X77484Y-60109D02*
X77421Y-60171D01*
X77421Y-60171D02*
X77442Y-60192D01*
X77504Y-60129D02*
X77442Y-60192D01*
X77484Y-60109D02*
X77504Y-60129D01*
G54D16*
X77039Y-60331D02*
X76747Y-60039D01*
X77074Y-59727D02*
X77470Y-60123D01*
G54D17*
X77442Y-60136D02*
G75*
G03X77442Y-60136I-28J0D01*
G74*
G01*
G54D16*
X77427Y-60206D02*
G75*
G03X77234Y-60400I-96J-96D01*
G74*
G01*
X76678Y-59844D02*
G75*
G03X76872Y-59650I96J96D01*
G74*
G01*
G54D15*
X93526Y-64077D02*
X93565Y-64198D01*
X93565Y-64198D02*
X93752Y-64138D01*
X93713Y-64016D02*
X93752Y-64138D01*
X93526Y-64077D02*
X93713Y-64016D01*
X93450Y-63844D02*
X93468Y-63900D01*
X93468Y-63900D02*
X93562Y-63869D01*
X93544Y-63813D02*
X93562Y-63869D01*
X93450Y-63844D02*
X93544Y-63813D01*
X93510Y-64029D02*
X93528Y-64085D01*
X93528Y-64085D02*
X93622Y-64055D01*
X93604Y-63999D02*
X93622Y-64055D01*
X93510Y-64029D02*
X93604Y-63999D01*
X93465Y-63890D02*
X93513Y-64039D01*
X93513Y-64039D02*
X93579Y-64017D01*
X93531Y-63869D02*
X93579Y-64017D01*
X93465Y-63890D02*
X93531Y-63869D01*
X92965Y-64259D02*
X93005Y-64380D01*
X93005Y-64380D02*
X93192Y-64320D01*
X93153Y-64198D02*
X93192Y-64320D01*
X92965Y-64259D02*
X93153Y-64198D01*
X92853Y-63913D02*
X92892Y-64034D01*
X92892Y-64034D02*
X93080Y-63973D01*
X93040Y-63852D02*
X93080Y-63973D01*
X92853Y-63913D02*
X93040Y-63852D01*
X93043Y-64181D02*
X93061Y-64237D01*
X93061Y-64237D02*
X93155Y-64206D01*
X93137Y-64150D02*
X93155Y-64206D01*
X93043Y-64181D02*
X93137Y-64150D01*
X92983Y-63995D02*
X93001Y-64052D01*
X93001Y-64052D02*
X93095Y-64021D01*
X93077Y-63965D02*
X93095Y-64021D01*
X92983Y-63995D02*
X93077Y-63965D01*
X93027Y-64033D02*
X93075Y-64181D01*
X93075Y-64181D02*
X93140Y-64160D01*
X93092Y-64011D02*
X93140Y-64160D01*
X93027Y-64033D02*
X93092Y-64011D01*
X93291Y-63988D02*
X93315Y-64062D01*
X93315Y-64062D02*
X93389Y-64038D01*
X93365Y-63964D02*
X93389Y-64038D01*
X93291Y-63988D02*
X93365Y-63964D01*
X93416Y-63740D02*
X93453Y-63852D01*
X93453Y-63852D02*
X93565Y-63816D01*
X93528Y-63704D02*
X93565Y-63816D01*
X93416Y-63740D02*
X93528Y-63704D01*
X93573Y-63679D02*
X93600Y-63763D01*
X93600Y-63763D02*
X93628Y-63754D01*
X93600Y-63670D02*
X93628Y-63754D01*
X93573Y-63679D02*
X93600Y-63670D01*
G54D16*
X93568Y-64176D02*
X93177Y-64304D01*
X93046Y-63871D02*
X93579Y-63698D01*
G54D17*
X93594Y-63754D02*
G75*
G03X93594Y-63754I-28J0D01*
G74*
G01*
G54D16*
X93634Y-63773D02*
G75*
G03X93719Y-64034I42J-130D01*
G74*
G01*
X92971Y-64277D02*
G75*
G03X92887Y-64016I-42J130D01*
G74*
G01*
G54D13*
X97250Y-61975D02*
X96150Y-61975D01*
X97250Y-62200D02*
X97250Y-60800D01*
X97250Y-60800D02*
X96150Y-60800D01*
X96150Y-60800D02*
X96150Y-62200D01*
X96150Y-62200D02*
X97250Y-62200D01*
X87975Y-54000D02*
X87975Y-52900D01*
X87750Y-54000D02*
X89150Y-54000D01*
X89150Y-54000D02*
X89150Y-52900D01*
X89150Y-52900D02*
X87750Y-52900D01*
X87750Y-52900D02*
X87750Y-54000D01*
X80175Y-50600D02*
X80175Y-49500D01*
X79950Y-50600D02*
X81350Y-50600D01*
X81350Y-50600D02*
X81350Y-49500D01*
X81350Y-49500D02*
X79950Y-49500D01*
X79950Y-49500D02*
X79950Y-50600D01*
X93250Y-61025D02*
X94350Y-61025D01*
X93250Y-60800D02*
X93250Y-62200D01*
X93250Y-62200D02*
X94350Y-62200D01*
X94350Y-62200D02*
X94350Y-60800D01*
X94350Y-60800D02*
X93250Y-60800D01*
X86453Y-56825D02*
X86453Y-52925D01*
X86453Y-52925D02*
X84653Y-52925D01*
X84653Y-52925D02*
X84653Y-56825D01*
X84653Y-56825D02*
X86453Y-56825D01*
X85064Y-53275D02*
G75*
G03X85064Y-53275I-111J0D01*
G74*
G01*
G54D18*
X76900Y-56275D02*
G75*
G03X76900Y-56275I-900J0D01*
G74*
G01*
X102050Y-56275D02*
G75*
G03X102050Y-56275I-900J0D01*
G74*
G01*
X98250Y-45975D02*
G75*
G03X98250Y-45975I-900J0D01*
G74*
G01*
X80700Y-45975D02*
G75*
G03X80700Y-45975I-900J0D01*
G74*
G01*
G54D19*
X90600Y-58031D02*
X90600Y-58212D01*
X90635Y-58031D02*
X90655Y-58031D01*
X90616Y-58043D02*
X90635Y-58031D01*
X90608Y-58051D02*
X90616Y-58043D01*
X90600Y-58078D02*
X90608Y-58051D01*
X90773Y-58212D02*
X90793Y-58200D01*
X90734Y-58212D02*
X90773Y-58212D01*
X90718Y-58200D02*
X90734Y-58212D01*
X90710Y-58173D02*
X90718Y-58200D01*
X90710Y-58066D02*
X90710Y-58173D01*
X90722Y-58043D02*
X90710Y-58066D01*
X90738Y-58031D02*
X90722Y-58043D01*
X90777Y-58031D02*
X90738Y-58031D01*
X90793Y-58047D02*
X90777Y-58031D01*
X90801Y-58074D02*
X90793Y-58047D01*
X90801Y-58122D02*
X90801Y-58074D01*
X90801Y-58122D02*
X90710Y-58122D01*
X90505Y-58066D02*
X90505Y-58212D01*
X90494Y-58043D02*
X90505Y-58066D01*
X90478Y-58031D02*
X90494Y-58043D01*
X90438Y-58031D02*
X90478Y-58031D01*
X90419Y-58043D02*
X90438Y-58031D01*
X90442Y-58106D02*
X90423Y-58118D01*
X90490Y-58106D02*
X90442Y-58106D01*
X90505Y-58094D02*
X90490Y-58106D01*
X90486Y-58212D02*
X90505Y-58196D01*
X90438Y-58212D02*
X90486Y-58212D01*
X90419Y-58196D02*
X90438Y-58212D01*
X90411Y-58173D02*
X90419Y-58196D01*
X90411Y-58145D02*
X90411Y-58173D01*
X90423Y-58118D02*
X90411Y-58145D01*
X90194Y-58031D02*
X90234Y-58212D01*
X90234Y-58212D02*
X90269Y-58078D01*
X90269Y-58078D02*
X90309Y-58212D01*
X90309Y-58212D02*
X90348Y-58031D01*
X90120Y-58200D02*
X90104Y-58212D01*
X90104Y-58212D02*
X90061Y-58212D01*
X90061Y-58212D02*
X90045Y-58200D01*
X90045Y-58200D02*
X90037Y-58188D01*
X90037Y-58188D02*
X90025Y-58161D01*
X90025Y-58161D02*
X90025Y-58082D01*
X90025Y-58082D02*
X90037Y-58055D01*
X90037Y-58055D02*
X90045Y-58043D01*
X90045Y-58043D02*
X90068Y-58027D01*
X90068Y-58027D02*
X90096Y-58027D01*
X90096Y-58027D02*
X90120Y-58043D01*
X90120Y-57937D02*
X90120Y-58212D01*
X89915Y-58078D02*
X89923Y-58051D01*
X89923Y-58051D02*
X89931Y-58043D01*
X89931Y-58043D02*
X89950Y-58031D01*
X89950Y-58031D02*
X89970Y-58031D01*
X89915Y-58031D02*
X89915Y-58212D01*
X89738Y-58118D02*
X89726Y-58145D01*
X89726Y-58145D02*
X89726Y-58173D01*
X89726Y-58173D02*
X89734Y-58196D01*
X89734Y-58196D02*
X89753Y-58212D01*
X89753Y-58212D02*
X89801Y-58212D01*
X89801Y-58212D02*
X89820Y-58196D01*
X89820Y-58094D02*
X89805Y-58106D01*
X89805Y-58106D02*
X89757Y-58106D01*
X89757Y-58106D02*
X89738Y-58118D01*
X89734Y-58043D02*
X89753Y-58031D01*
X89753Y-58031D02*
X89793Y-58031D01*
X89793Y-58031D02*
X89809Y-58043D01*
X89809Y-58043D02*
X89820Y-58066D01*
X89820Y-58066D02*
X89820Y-58212D01*
X89557Y-58059D02*
X89564Y-58043D01*
X89564Y-58043D02*
X89584Y-58031D01*
X89584Y-58031D02*
X89616Y-58031D01*
X89616Y-58031D02*
X89631Y-58043D01*
X89631Y-58043D02*
X89639Y-58066D01*
X89639Y-58066D02*
X89639Y-58212D01*
X89557Y-57937D02*
X89557Y-58212D01*
X89143Y-58122D02*
X89053Y-58122D01*
X89230Y-58055D02*
X89238Y-58043D01*
X89238Y-58043D02*
X89253Y-58031D01*
X89253Y-58031D02*
X89289Y-58031D01*
X89289Y-58031D02*
X89305Y-58043D01*
X89305Y-58043D02*
X89312Y-58066D01*
X89312Y-58066D02*
X89312Y-58212D01*
X89230Y-58031D02*
X89230Y-58212D01*
X89143Y-58122D02*
X89143Y-58074D01*
X89143Y-58074D02*
X89135Y-58047D01*
X89135Y-58047D02*
X89120Y-58031D01*
X89120Y-58031D02*
X89080Y-58031D01*
X89080Y-58031D02*
X89064Y-58043D01*
X89064Y-58043D02*
X89053Y-58066D01*
X89053Y-58066D02*
X89053Y-58173D01*
X89053Y-58173D02*
X89061Y-58200D01*
X89061Y-58200D02*
X89076Y-58212D01*
X89076Y-58212D02*
X89116Y-58212D01*
X89116Y-58212D02*
X89135Y-58200D01*
X88883Y-58043D02*
X88899Y-58031D01*
X88899Y-58031D02*
X88938Y-58031D01*
X88938Y-58031D02*
X88954Y-58043D01*
X88954Y-58043D02*
X88966Y-58055D01*
X88966Y-58055D02*
X88974Y-58078D01*
X88974Y-58078D02*
X88974Y-58165D01*
X88974Y-58165D02*
X88966Y-58188D01*
X88966Y-58188D02*
X88958Y-58200D01*
X88958Y-58200D02*
X88942Y-58212D01*
X88942Y-58212D02*
X88903Y-58212D01*
X88903Y-58212D02*
X88883Y-58200D01*
X88883Y-58307D02*
X88883Y-58031D01*
X88761Y-58031D02*
X88730Y-58031D01*
X88730Y-58031D02*
X88714Y-58043D01*
X88714Y-58043D02*
X88706Y-58055D01*
X88706Y-58055D02*
X88694Y-58082D01*
X88730Y-58212D02*
X88761Y-58212D01*
X88761Y-58212D02*
X88781Y-58200D01*
X88781Y-58200D02*
X88789Y-58188D01*
X88789Y-58188D02*
X88797Y-58161D01*
X88797Y-58161D02*
X88797Y-58082D01*
X88797Y-58082D02*
X88789Y-58059D01*
X88789Y-58059D02*
X88781Y-58047D01*
X88781Y-58047D02*
X88761Y-58031D01*
X88694Y-58082D02*
X88694Y-58161D01*
X88694Y-58161D02*
X88702Y-58185D01*
X88702Y-58185D02*
X88710Y-58196D01*
X88710Y-58196D02*
X88730Y-58212D01*
G54D20*
G36*
X89154Y-57884D02*
X89164Y-57878D01*
X89187Y-57864D01*
X89220Y-57842D01*
X89259Y-57816D01*
X89298Y-57790D01*
X89330Y-57769D01*
X89352Y-57754D01*
X89362Y-57749D01*
X89367Y-57751D01*
X89385Y-57760D01*
X89412Y-57774D01*
X89428Y-57782D01*
X89452Y-57792D01*
X89465Y-57795D01*
X89467Y-57791D01*
X89476Y-57772D01*
X89490Y-57740D01*
X89508Y-57697D01*
X89530Y-57647D01*
X89552Y-57594D01*
X89575Y-57539D01*
X89597Y-57486D01*
X89616Y-57439D01*
X89632Y-57401D01*
X89642Y-57374D01*
X89646Y-57363D01*
X89645Y-57360D01*
X89632Y-57348D01*
X89611Y-57332D01*
X89564Y-57294D01*
X89518Y-57237D01*
X89490Y-57172D01*
X89481Y-57099D01*
X89489Y-57032D01*
X89515Y-56968D01*
X89560Y-56910D01*
X89615Y-56867D01*
X89679Y-56840D01*
X89750Y-56831D01*
X89818Y-56839D01*
X89884Y-56865D01*
X89942Y-56909D01*
X89967Y-56937D01*
X90001Y-56996D01*
X90020Y-57058D01*
X90022Y-57074D01*
X90019Y-57143D01*
X89999Y-57210D01*
X89962Y-57269D01*
X89911Y-57318D01*
X89905Y-57322D01*
X89882Y-57340D01*
X89866Y-57352D01*
X89854Y-57362D01*
X89942Y-57574D01*
X89956Y-57607D01*
X89980Y-57665D01*
X90001Y-57715D01*
X90018Y-57755D01*
X90030Y-57781D01*
X90035Y-57792D01*
X90035Y-57793D01*
X90043Y-57794D01*
X90059Y-57788D01*
X90089Y-57774D01*
X90108Y-57764D01*
X90131Y-57753D01*
X90141Y-57749D01*
X90150Y-57754D01*
X90171Y-57768D01*
X90203Y-57789D01*
X90241Y-57814D01*
X90277Y-57839D01*
X90310Y-57861D01*
X90334Y-57876D01*
X90346Y-57883D01*
X90348Y-57883D01*
X90358Y-57877D01*
X90377Y-57861D01*
X90406Y-57834D01*
X90447Y-57793D01*
X90453Y-57787D01*
X90487Y-57753D01*
X90514Y-57724D01*
X90532Y-57704D01*
X90539Y-57695D01*
X90539Y-57695D01*
X90533Y-57683D01*
X90518Y-57659D01*
X90496Y-57625D01*
X90469Y-57586D01*
X90399Y-57484D01*
X90437Y-57388D01*
X90449Y-57358D01*
X90464Y-57323D01*
X90475Y-57297D01*
X90481Y-57286D01*
X90491Y-57282D01*
X90518Y-57276D01*
X90556Y-57268D01*
X90601Y-57260D01*
X90645Y-57252D01*
X90684Y-57244D01*
X90712Y-57239D01*
X90725Y-57236D01*
X90728Y-57234D01*
X90731Y-57228D01*
X90732Y-57215D01*
X90733Y-57191D01*
X90734Y-57154D01*
X90734Y-57099D01*
X90734Y-57093D01*
X90733Y-57042D01*
X90732Y-57000D01*
X90731Y-56974D01*
X90729Y-56963D01*
X90729Y-56963D01*
X90717Y-56960D01*
X90689Y-56954D01*
X90650Y-56947D01*
X90603Y-56938D01*
X90600Y-56937D01*
X90554Y-56928D01*
X90515Y-56920D01*
X90487Y-56914D01*
X90476Y-56910D01*
X90473Y-56907D01*
X90464Y-56889D01*
X90451Y-56860D01*
X90435Y-56825D01*
X90420Y-56788D01*
X90407Y-56755D01*
X90398Y-56731D01*
X90395Y-56720D01*
X90396Y-56719D01*
X90403Y-56708D01*
X90419Y-56684D01*
X90441Y-56651D01*
X90468Y-56611D01*
X90470Y-56608D01*
X90497Y-56569D01*
X90519Y-56535D01*
X90533Y-56512D01*
X90539Y-56501D01*
X90539Y-56500D01*
X90530Y-56488D01*
X90510Y-56466D01*
X90481Y-56436D01*
X90447Y-56401D01*
X90436Y-56391D01*
X90397Y-56353D01*
X90371Y-56329D01*
X90354Y-56316D01*
X90346Y-56313D01*
X90346Y-56313D01*
X90334Y-56320D01*
X90309Y-56336D01*
X90276Y-56359D01*
X90236Y-56386D01*
X90233Y-56388D01*
X90194Y-56415D01*
X90161Y-56437D01*
X90138Y-56453D01*
X90127Y-56459D01*
X90126Y-56459D01*
X90110Y-56454D01*
X90082Y-56444D01*
X90047Y-56431D01*
X90011Y-56416D01*
X89978Y-56402D01*
X89953Y-56391D01*
X89941Y-56384D01*
X89941Y-56384D01*
X89937Y-56370D01*
X89930Y-56340D01*
X89922Y-56300D01*
X89912Y-56252D01*
X89911Y-56244D01*
X89902Y-56197D01*
X89895Y-56158D01*
X89889Y-56131D01*
X89886Y-56120D01*
X89880Y-56119D01*
X89857Y-56117D01*
X89822Y-56116D01*
X89779Y-56116D01*
X89735Y-56116D01*
X89692Y-56117D01*
X89655Y-56118D01*
X89628Y-56120D01*
X89617Y-56122D01*
X89617Y-56123D01*
X89613Y-56138D01*
X89606Y-56167D01*
X89598Y-56208D01*
X89589Y-56256D01*
X89587Y-56265D01*
X89578Y-56311D01*
X89570Y-56350D01*
X89565Y-56376D01*
X89562Y-56387D01*
X89557Y-56389D01*
X89538Y-56397D01*
X89507Y-56410D01*
X89468Y-56426D01*
X89378Y-56462D01*
X89267Y-56387D01*
X89257Y-56380D01*
X89217Y-56353D01*
X89185Y-56331D01*
X89162Y-56316D01*
X89153Y-56311D01*
X89152Y-56311D01*
X89141Y-56321D01*
X89119Y-56342D01*
X89089Y-56371D01*
X89054Y-56405D01*
X89029Y-56431D01*
X88998Y-56462D01*
X88979Y-56483D01*
X88968Y-56496D01*
X88965Y-56504D01*
X88966Y-56510D01*
X88973Y-56521D01*
X88989Y-56545D01*
X89012Y-56579D01*
X89039Y-56618D01*
X89061Y-56651D01*
X89085Y-56688D01*
X89100Y-56714D01*
X89106Y-56727D01*
X89104Y-56732D01*
X89097Y-56754D01*
X89083Y-56787D01*
X89067Y-56826D01*
X89028Y-56913D01*
X88971Y-56924D01*
X88936Y-56931D01*
X88888Y-56940D01*
X88841Y-56949D01*
X88769Y-56963D01*
X88766Y-57229D01*
X88777Y-57234D01*
X88788Y-57237D01*
X88815Y-57243D01*
X88853Y-57251D01*
X88899Y-57259D01*
X88937Y-57266D01*
X88976Y-57274D01*
X89004Y-57279D01*
X89016Y-57282D01*
X89020Y-57286D01*
X89029Y-57305D01*
X89043Y-57335D01*
X89059Y-57371D01*
X89074Y-57408D01*
X89088Y-57443D01*
X89097Y-57469D01*
X89101Y-57482D01*
X89096Y-57493D01*
X89081Y-57516D01*
X89060Y-57548D01*
X89033Y-57587D01*
X89007Y-57625D01*
X88984Y-57658D01*
X88969Y-57682D01*
X88962Y-57693D01*
X88966Y-57700D01*
X88981Y-57719D01*
X89010Y-57749D01*
X89054Y-57792D01*
X89061Y-57799D01*
X89095Y-57832D01*
X89124Y-57859D01*
X89145Y-57877D01*
X89154Y-57884D01*
X89154Y-57884D01*
G37*
G54D13*
X82103Y-56669D02*
X82103Y-55331D01*
X82497Y-55331D02*
X82497Y-56669D01*
X82654Y-56669D02*
X82654Y-55331D01*
X81946Y-55331D02*
X81946Y-56669D01*
X82654Y-56669D02*
X81946Y-56669D01*
X82654Y-55331D02*
X81946Y-55331D01*
X82497Y-56315D02*
X82103Y-56315D01*
X82497Y-56000D02*
X82103Y-56000D01*
X82497Y-55685D02*
X82103Y-55685D01*
X82654Y-56551D02*
X82497Y-56551D01*
X82103Y-56551D02*
X81946Y-56551D01*
X82654Y-56394D02*
X82497Y-56394D01*
X82103Y-56394D02*
X81946Y-56394D01*
X81946Y-56236D02*
X82103Y-56236D01*
X82497Y-56236D02*
X82654Y-56236D01*
X82654Y-56079D02*
X82497Y-56079D01*
X82103Y-56079D02*
X81946Y-56079D01*
X81946Y-55921D02*
X82103Y-55921D01*
X82497Y-55921D02*
X82654Y-55921D01*
X82654Y-55764D02*
X82497Y-55764D01*
X82103Y-55764D02*
X81946Y-55764D01*
X82103Y-55449D02*
X81946Y-55449D01*
X82103Y-55606D02*
X81946Y-55606D01*
X82654Y-55606D02*
X82497Y-55606D01*
X82654Y-55449D02*
X82497Y-55449D01*
G54D21*
X95155Y-59291D02*
X94801Y-59291D01*
X94801Y-59291D02*
X94801Y-59566D01*
X94801Y-59566D02*
X95431Y-59566D01*
X95431Y-57834D02*
X94801Y-57834D01*
X94801Y-57834D02*
X94801Y-58109D01*
X94801Y-58109D02*
X95155Y-58109D01*
X97399Y-58109D02*
X97399Y-57834D01*
X97399Y-57834D02*
X96769Y-57834D01*
X97399Y-58109D02*
X97045Y-58109D01*
X96769Y-59566D02*
X97399Y-59566D01*
X97399Y-59566D02*
X97399Y-59291D01*
X97399Y-59291D02*
X97045Y-59291D01*
X96887Y-58306D02*
X96494Y-57913D01*
X96494Y-57913D02*
X95706Y-57913D01*
X95706Y-57913D02*
X95313Y-58306D01*
X95313Y-58306D02*
X95313Y-59094D01*
X95313Y-59094D02*
X95706Y-59487D01*
X95706Y-59487D02*
X96494Y-59487D01*
X96494Y-59487D02*
X96887Y-59094D01*
X96887Y-59094D02*
X96887Y-58306D01*
X96612Y-57676D02*
X95588Y-57676D01*
X97124Y-59212D02*
X97124Y-58188D01*
X95588Y-57676D02*
X95076Y-58188D01*
X95076Y-58188D02*
X95076Y-59212D01*
X95076Y-59212D02*
X95588Y-59724D01*
X95588Y-59724D02*
X96612Y-59724D01*
X97124Y-58188D02*
X96612Y-57676D01*
X96612Y-59724D02*
X97124Y-59212D01*
X96494Y-58700D02*
G75*
G03X96494Y-58700I-394J0D01*
G74*
G01*
G54D10*
X84294Y-52105D02*
X84294Y-46594D01*
X84294Y-46594D02*
X89805Y-46594D01*
X89805Y-46594D02*
X89805Y-52105D01*
X89805Y-52105D02*
X84294Y-52105D01*
G54D22*
X83200Y-51950D02*
X83200Y-50750D01*
X83200Y-50750D02*
X80400Y-50750D01*
X80400Y-50750D02*
X80400Y-51950D01*
X83200Y-53150D02*
X83200Y-53450D01*
X83200Y-53450D02*
X82600Y-54350D01*
X82600Y-54350D02*
X81000Y-54350D01*
X81000Y-54350D02*
X80400Y-53450D01*
X80400Y-53450D02*
X80400Y-53150D01*
G54D13*
X83525Y-49500D02*
X83525Y-50600D01*
X83750Y-49500D02*
X82350Y-49500D01*
X82350Y-49500D02*
X82350Y-50600D01*
X82350Y-50600D02*
X83750Y-50600D01*
X83750Y-50600D02*
X83750Y-49500D01*
X77853Y-55369D02*
X77853Y-54031D01*
X78247Y-54031D02*
X78247Y-55369D01*
X78404Y-55369D02*
X78404Y-54031D01*
X77696Y-54031D02*
X77696Y-55369D01*
X78404Y-55369D02*
X77696Y-55369D01*
X78404Y-54031D02*
X77696Y-54031D01*
X78247Y-55015D02*
X77853Y-55015D01*
X78247Y-54700D02*
X77853Y-54700D01*
X78247Y-54385D02*
X77853Y-54385D01*
X78404Y-55251D02*
X78247Y-55251D01*
X77853Y-55251D02*
X77696Y-55251D01*
X78404Y-55094D02*
X78247Y-55094D01*
X77853Y-55094D02*
X77696Y-55094D01*
X77696Y-54936D02*
X77853Y-54936D01*
X78247Y-54936D02*
X78404Y-54936D01*
X78404Y-54779D02*
X78247Y-54779D01*
X77853Y-54779D02*
X77696Y-54779D01*
X77696Y-54621D02*
X77853Y-54621D01*
X78247Y-54621D02*
X78404Y-54621D01*
X78404Y-54464D02*
X78247Y-54464D01*
X77853Y-54464D02*
X77696Y-54464D01*
X77853Y-54149D02*
X77696Y-54149D01*
X77853Y-54306D02*
X77696Y-54306D01*
X78404Y-54306D02*
X78247Y-54306D01*
X78404Y-54149D02*
X78247Y-54149D01*
X88447Y-55381D02*
X88447Y-56719D01*
X88053Y-56719D02*
X88053Y-55381D01*
X87896Y-55381D02*
X87896Y-56719D01*
X88604Y-56719D02*
X88604Y-55381D01*
X87896Y-55381D02*
X88604Y-55381D01*
X87896Y-56719D02*
X88604Y-56719D01*
X88053Y-55735D02*
X88447Y-55735D01*
X88053Y-56050D02*
X88447Y-56050D01*
X88053Y-56365D02*
X88447Y-56365D01*
X87896Y-55499D02*
X88053Y-55499D01*
X88447Y-55499D02*
X88604Y-55499D01*
X87896Y-55656D02*
X88053Y-55656D01*
X88447Y-55656D02*
X88604Y-55656D01*
X88604Y-55814D02*
X88447Y-55814D01*
X88053Y-55814D02*
X87896Y-55814D01*
X87896Y-55971D02*
X88053Y-55971D01*
X88447Y-55971D02*
X88604Y-55971D01*
X88604Y-56129D02*
X88447Y-56129D01*
X88053Y-56129D02*
X87896Y-56129D01*
X87896Y-56286D02*
X88053Y-56286D01*
X88447Y-56286D02*
X88604Y-56286D01*
X88447Y-56601D02*
X88604Y-56601D01*
X88447Y-56444D02*
X88604Y-56444D01*
X87896Y-56444D02*
X88053Y-56444D01*
X87896Y-56601D02*
X88053Y-56601D01*
X79053Y-54269D02*
X79053Y-52931D01*
X79447Y-52931D02*
X79447Y-54269D01*
X79604Y-54269D02*
X79604Y-52931D01*
X78896Y-52931D02*
X78896Y-54269D01*
X79604Y-54269D02*
X78896Y-54269D01*
X79604Y-52931D02*
X78896Y-52931D01*
X79447Y-53915D02*
X79053Y-53915D01*
X79447Y-53600D02*
X79053Y-53600D01*
X79447Y-53285D02*
X79053Y-53285D01*
X79604Y-54151D02*
X79447Y-54151D01*
X79053Y-54151D02*
X78896Y-54151D01*
X79604Y-53994D02*
X79447Y-53994D01*
X79053Y-53994D02*
X78896Y-53994D01*
X78896Y-53836D02*
X79053Y-53836D01*
X79447Y-53836D02*
X79604Y-53836D01*
X79604Y-53679D02*
X79447Y-53679D01*
X79053Y-53679D02*
X78896Y-53679D01*
X78896Y-53521D02*
X79053Y-53521D01*
X79447Y-53521D02*
X79604Y-53521D01*
X79604Y-53364D02*
X79447Y-53364D01*
X79053Y-53364D02*
X78896Y-53364D01*
X79053Y-53049D02*
X78896Y-53049D01*
X79053Y-53206D02*
X78896Y-53206D01*
X79604Y-53206D02*
X79447Y-53206D01*
X79604Y-53049D02*
X79447Y-53049D01*
X82020Y-49400D02*
G75*
G03X82020Y-49400I-70J0D01*
G74*
G01*
X81900Y-47500D02*
X81900Y-46850D01*
X81900Y-46850D02*
X80300Y-46850D01*
X80300Y-46850D02*
X80300Y-47500D01*
X80300Y-48700D02*
X80300Y-49350D01*
X80300Y-49350D02*
X81900Y-49350D01*
X81900Y-49350D02*
X81900Y-48700D01*
X77700Y-46250D02*
X77700Y-46170D01*
X78450Y-45650D02*
X78450Y-47450D01*
X78450Y-47450D02*
X78200Y-47450D01*
X76950Y-46810D02*
X78450Y-46810D01*
X76950Y-46940D02*
X78450Y-46940D01*
X77200Y-45650D02*
X76950Y-45650D01*
X76950Y-45650D02*
X76950Y-47450D01*
X76950Y-47450D02*
X77200Y-47450D01*
X78200Y-45650D02*
X78450Y-45650D01*
X77700Y-46500D02*
X77887Y-46250D01*
X77887Y-46250D02*
X77700Y-46250D01*
X77700Y-46250D02*
X77513Y-46250D01*
X77513Y-46250D02*
X77700Y-46500D01*
X77700Y-46500D02*
X77825Y-46500D01*
X77825Y-46500D02*
X77887Y-46438D01*
X77700Y-46500D02*
X77575Y-46500D01*
X77575Y-46500D02*
X77513Y-46562D01*
X77700Y-46500D02*
X77700Y-46937D01*
G54D10*
X87110Y-60512D02*
X87110Y-60767D01*
X87125Y-60797D01*
X87140Y-60812D01*
X87170Y-60827D01*
X87230Y-60827D01*
X87260Y-60812D01*
X87275Y-60797D01*
X87290Y-60767D01*
X87290Y-60512D01*
X87409Y-60512D02*
X87604Y-60512D01*
X87499Y-60632D01*
X87544Y-60632D01*
X87574Y-60647D01*
X87589Y-60662D01*
X87604Y-60692D01*
X87604Y-60767D01*
X87589Y-60797D01*
X87574Y-60812D01*
X87544Y-60827D01*
X87454Y-60827D01*
X87424Y-60812D01*
X87409Y-60797D01*
G54D22*
X97974Y-50455D02*
X98260Y-50741D01*
X98307Y-50761D01*
X98337Y-50764D01*
X98381Y-50754D01*
X98435Y-50700D01*
X98445Y-50657D01*
X98442Y-50626D01*
X98421Y-50579D01*
X98135Y-50293D01*
X98772Y-50364D02*
X98610Y-50525D01*
X98691Y-50444D02*
X98337Y-50091D01*
X98361Y-50168D01*
X98368Y-50229D01*
X98357Y-50273D01*
G54D13*
X95109Y-60001D02*
X95109Y-60203D01*
X95121Y-60227D01*
X95133Y-60239D01*
X95157Y-60251D01*
X95204Y-60251D01*
X95228Y-60239D01*
X95240Y-60227D01*
X95252Y-60203D01*
X95252Y-60001D01*
X95347Y-60001D02*
X95514Y-60001D01*
X95407Y-60251D01*
G54D23*
X86075Y-57924D02*
X86075Y-58163D01*
X86089Y-58191D01*
X86103Y-58205D01*
X86131Y-58219D01*
X86187Y-58219D01*
X86215Y-58205D01*
X86229Y-58191D01*
X86243Y-58163D01*
X86243Y-57924D01*
X86370Y-57952D02*
X86384Y-57938D01*
X86412Y-57924D01*
X86482Y-57924D01*
X86510Y-57938D01*
X86524Y-57952D01*
X86538Y-57980D01*
X86538Y-58008D01*
X86524Y-58050D01*
X86356Y-58219D01*
X86538Y-58219D01*
G54D24*
X91473Y-45610D02*
X91463Y-45620D01*
X91435Y-45629D01*
X91417Y-45629D01*
X91388Y-45620D01*
X91370Y-45601D01*
X91360Y-45582D01*
X91351Y-45545D01*
X91351Y-45517D01*
X91360Y-45479D01*
X91370Y-45460D01*
X91388Y-45442D01*
X91417Y-45432D01*
X91435Y-45432D01*
X91463Y-45442D01*
X91473Y-45451D01*
X91660Y-45629D02*
X91548Y-45629D01*
X91604Y-45629D02*
X91604Y-45432D01*
X91585Y-45460D01*
X91567Y-45479D01*
X91548Y-45489D01*
X91839Y-45432D02*
X91745Y-45432D01*
X91736Y-45526D01*
X91745Y-45517D01*
X91764Y-45507D01*
X91811Y-45507D01*
X91829Y-45517D01*
X91839Y-45526D01*
X91848Y-45545D01*
X91848Y-45592D01*
X91839Y-45610D01*
X91829Y-45620D01*
X91811Y-45629D01*
X91764Y-45629D01*
X91745Y-45620D01*
X91736Y-45610D01*
X97983Y-48580D02*
X97973Y-48590D01*
X97945Y-48599D01*
X97927Y-48599D01*
X97898Y-48590D01*
X97880Y-48571D01*
X97870Y-48552D01*
X97861Y-48515D01*
X97861Y-48487D01*
X97870Y-48449D01*
X97880Y-48430D01*
X97898Y-48412D01*
X97927Y-48402D01*
X97945Y-48402D01*
X97973Y-48412D01*
X97983Y-48421D01*
X98170Y-48599D02*
X98058Y-48599D01*
X98114Y-48599D02*
X98114Y-48402D01*
X98095Y-48430D01*
X98077Y-48449D01*
X98058Y-48459D01*
X98246Y-48421D02*
X98255Y-48412D01*
X98274Y-48402D01*
X98321Y-48402D01*
X98339Y-48412D01*
X98349Y-48421D01*
X98358Y-48440D01*
X98358Y-48459D01*
X98349Y-48487D01*
X98236Y-48599D01*
X98358Y-48599D01*
X92523Y-48679D02*
X92457Y-48585D01*
X92410Y-48679D02*
X92410Y-48482D01*
X92485Y-48482D01*
X92504Y-48492D01*
X92513Y-48501D01*
X92523Y-48520D01*
X92523Y-48548D01*
X92513Y-48567D01*
X92504Y-48576D01*
X92485Y-48585D01*
X92410Y-48585D01*
X92598Y-48501D02*
X92607Y-48492D01*
X92626Y-48482D01*
X92673Y-48482D01*
X92692Y-48492D01*
X92701Y-48501D01*
X92710Y-48520D01*
X92710Y-48539D01*
X92701Y-48567D01*
X92589Y-48679D01*
X92710Y-48679D01*
X92879Y-48548D02*
X92879Y-48679D01*
X92832Y-48473D02*
X92786Y-48614D01*
X92907Y-48614D01*
X99683Y-48639D02*
X99617Y-48545D01*
X99570Y-48639D02*
X99570Y-48442D01*
X99645Y-48442D01*
X99664Y-48452D01*
X99673Y-48461D01*
X99683Y-48480D01*
X99683Y-48508D01*
X99673Y-48527D01*
X99664Y-48536D01*
X99645Y-48545D01*
X99570Y-48545D01*
X99870Y-48639D02*
X99758Y-48639D01*
X99814Y-48639D02*
X99814Y-48442D01*
X99795Y-48470D01*
X99777Y-48489D01*
X99758Y-48499D01*
X99964Y-48639D02*
X100002Y-48639D01*
X100021Y-48630D01*
X100030Y-48620D01*
X100049Y-48592D01*
X100058Y-48555D01*
X100058Y-48480D01*
X100049Y-48461D01*
X100039Y-48452D01*
X100021Y-48442D01*
X99983Y-48442D01*
X99964Y-48452D01*
X99955Y-48461D01*
X99946Y-48480D01*
X99946Y-48527D01*
X99955Y-48545D01*
X99964Y-48555D01*
X99983Y-48564D01*
X100021Y-48564D01*
X100039Y-48555D01*
X100049Y-48545D01*
X100058Y-48527D01*
X82129Y-46276D02*
X82035Y-46342D01*
X82129Y-46389D02*
X81932Y-46389D01*
X81932Y-46314D01*
X81942Y-46295D01*
X81951Y-46286D01*
X81970Y-46276D01*
X81998Y-46276D01*
X82017Y-46286D01*
X82026Y-46295D01*
X82035Y-46314D01*
X82035Y-46389D01*
X81951Y-46201D02*
X81942Y-46192D01*
X81932Y-46173D01*
X81932Y-46126D01*
X81942Y-46107D01*
X81951Y-46098D01*
X81970Y-46089D01*
X81989Y-46089D01*
X82017Y-46098D01*
X82129Y-46210D01*
X82129Y-46089D01*
X81932Y-45967D02*
X81932Y-45948D01*
X81942Y-45929D01*
X81951Y-45920D01*
X81970Y-45910D01*
X82007Y-45901D01*
X82054Y-45901D01*
X82092Y-45910D01*
X82110Y-45920D01*
X82120Y-45929D01*
X82129Y-45948D01*
X82129Y-45967D01*
X82120Y-45985D01*
X82110Y-45995D01*
X82092Y-46004D01*
X82054Y-46013D01*
X82007Y-46013D01*
X81970Y-46004D01*
X81951Y-45995D01*
X81942Y-45985D01*
X81932Y-45967D01*
X84179Y-46226D02*
X84085Y-46292D01*
X84179Y-46339D02*
X83982Y-46339D01*
X83982Y-46264D01*
X83992Y-46245D01*
X84001Y-46236D01*
X84020Y-46226D01*
X84048Y-46226D01*
X84067Y-46236D01*
X84076Y-46245D01*
X84085Y-46264D01*
X84085Y-46339D01*
X84001Y-46151D02*
X83992Y-46142D01*
X83982Y-46123D01*
X83982Y-46076D01*
X83992Y-46057D01*
X84001Y-46048D01*
X84020Y-46039D01*
X84039Y-46039D01*
X84067Y-46048D01*
X84179Y-46160D01*
X84179Y-46039D01*
X84179Y-45851D02*
X84179Y-45963D01*
X84179Y-45907D02*
X83982Y-45907D01*
X84010Y-45926D01*
X84029Y-45945D01*
X84039Y-45963D01*
X81787Y-63237D02*
X81772Y-63252D01*
X81727Y-63267D01*
X81697Y-63267D01*
X81652Y-63252D01*
X81622Y-63222D01*
X81607Y-63192D01*
X81592Y-63132D01*
X81592Y-63087D01*
X81607Y-63027D01*
X81622Y-62997D01*
X81652Y-62967D01*
X81697Y-62952D01*
X81727Y-62952D01*
X81772Y-62967D01*
X81787Y-62982D01*
X81892Y-62952D02*
X82102Y-62952D01*
X81967Y-63267D01*
X94423Y-63160D02*
X94413Y-63170D01*
X94385Y-63179D01*
X94367Y-63179D01*
X94338Y-63170D01*
X94320Y-63151D01*
X94310Y-63132D01*
X94301Y-63095D01*
X94301Y-63067D01*
X94310Y-63029D01*
X94320Y-63010D01*
X94338Y-62992D01*
X94367Y-62982D01*
X94385Y-62982D01*
X94413Y-62992D01*
X94423Y-63001D01*
X94610Y-63179D02*
X94498Y-63179D01*
X94554Y-63179D02*
X94554Y-62982D01*
X94535Y-63010D01*
X94517Y-63029D01*
X94498Y-63039D01*
X94676Y-62982D02*
X94807Y-62982D01*
X94723Y-63179D01*
X92017Y-51903D02*
X92004Y-51903D01*
X91977Y-51890D01*
X91964Y-51877D01*
X91951Y-51850D01*
X91951Y-51823D01*
X91957Y-51804D01*
X91977Y-51770D01*
X91997Y-51751D01*
X92030Y-51731D01*
X92050Y-51724D01*
X92077Y-51724D01*
X92103Y-51737D01*
X92116Y-51751D01*
X92130Y-51777D01*
X92130Y-51790D01*
X92136Y-52049D02*
X92057Y-51969D01*
X92096Y-52009D02*
X92236Y-51870D01*
X92203Y-51877D01*
X92176Y-51877D01*
X92156Y-51870D01*
X92395Y-52029D02*
X92368Y-52003D01*
X92349Y-51996D01*
X92335Y-51996D01*
X92302Y-52003D01*
X92269Y-52022D01*
X92216Y-52076D01*
X92209Y-52095D01*
X92209Y-52109D01*
X92216Y-52129D01*
X92242Y-52155D01*
X92262Y-52162D01*
X92276Y-52162D01*
X92295Y-52155D01*
X92329Y-52122D01*
X92335Y-52102D01*
X92335Y-52089D01*
X92329Y-52069D01*
X92302Y-52042D01*
X92282Y-52036D01*
X92269Y-52036D01*
X92249Y-52042D01*
X93423Y-59329D02*
X93357Y-59235D01*
X93310Y-59329D02*
X93310Y-59132D01*
X93385Y-59132D01*
X93404Y-59142D01*
X93413Y-59151D01*
X93423Y-59170D01*
X93423Y-59198D01*
X93413Y-59217D01*
X93404Y-59226D01*
X93385Y-59235D01*
X93310Y-59235D01*
X93610Y-59329D02*
X93498Y-59329D01*
X93554Y-59329D02*
X93554Y-59132D01*
X93535Y-59160D01*
X93517Y-59179D01*
X93498Y-59189D01*
X93723Y-59217D02*
X93704Y-59207D01*
X93695Y-59198D01*
X93686Y-59179D01*
X93686Y-59170D01*
X93695Y-59151D01*
X93704Y-59142D01*
X93723Y-59132D01*
X93761Y-59132D01*
X93779Y-59142D01*
X93789Y-59151D01*
X93798Y-59170D01*
X93798Y-59179D01*
X93789Y-59198D01*
X93779Y-59207D01*
X93761Y-59217D01*
X93723Y-59217D01*
X93704Y-59226D01*
X93695Y-59235D01*
X93686Y-59254D01*
X93686Y-59292D01*
X93695Y-59310D01*
X93704Y-59320D01*
X93723Y-59329D01*
X93761Y-59329D01*
X93779Y-59320D01*
X93789Y-59310D01*
X93798Y-59292D01*
X93798Y-59254D01*
X93789Y-59235D01*
X93779Y-59226D01*
X93761Y-59217D01*
X87711Y-54945D02*
X87580Y-55037D01*
X87711Y-55103D02*
X87435Y-55103D01*
X87435Y-54998D01*
X87448Y-54972D01*
X87462Y-54959D01*
X87488Y-54945D01*
X87527Y-54945D01*
X87554Y-54959D01*
X87567Y-54972D01*
X87580Y-54998D01*
X87580Y-55103D01*
X87435Y-54854D02*
X87435Y-54670D01*
X87711Y-54788D01*
X82187Y-60917D02*
X82172Y-60932D01*
X82127Y-60947D01*
X82097Y-60947D01*
X82052Y-60932D01*
X82022Y-60902D01*
X82007Y-60872D01*
X81992Y-60812D01*
X81992Y-60767D01*
X82007Y-60707D01*
X82022Y-60677D01*
X82052Y-60647D01*
X82097Y-60632D01*
X82127Y-60632D01*
X82172Y-60647D01*
X82187Y-60662D01*
X82307Y-60662D02*
X82322Y-60647D01*
X82352Y-60632D01*
X82427Y-60632D01*
X82457Y-60647D01*
X82472Y-60662D01*
X82487Y-60692D01*
X82487Y-60722D01*
X82472Y-60767D01*
X82292Y-60947D01*
X82487Y-60947D01*
X84254Y-60935D02*
X84240Y-60948D01*
X84201Y-60961D01*
X84175Y-60961D01*
X84135Y-60948D01*
X84109Y-60922D01*
X84096Y-60895D01*
X84083Y-60843D01*
X84083Y-60804D01*
X84096Y-60751D01*
X84109Y-60725D01*
X84135Y-60698D01*
X84175Y-60685D01*
X84201Y-60685D01*
X84240Y-60698D01*
X84254Y-60712D01*
X84345Y-60685D02*
X84516Y-60685D01*
X84424Y-60790D01*
X84464Y-60790D01*
X84490Y-60804D01*
X84503Y-60817D01*
X84516Y-60843D01*
X84516Y-60909D01*
X84503Y-60935D01*
X84490Y-60948D01*
X84464Y-60961D01*
X84385Y-60961D01*
X84359Y-60948D01*
X84345Y-60935D01*
X91360Y-57526D02*
X91370Y-57536D01*
X91379Y-57564D01*
X91379Y-57582D01*
X91370Y-57611D01*
X91351Y-57629D01*
X91332Y-57639D01*
X91295Y-57648D01*
X91267Y-57648D01*
X91229Y-57639D01*
X91210Y-57629D01*
X91192Y-57611D01*
X91182Y-57582D01*
X91182Y-57564D01*
X91192Y-57536D01*
X91201Y-57526D01*
X91379Y-57339D02*
X91379Y-57451D01*
X91379Y-57395D02*
X91182Y-57395D01*
X91210Y-57414D01*
X91229Y-57432D01*
X91239Y-57451D01*
X91248Y-57170D02*
X91379Y-57170D01*
X91173Y-57217D02*
X91314Y-57263D01*
X91314Y-57142D01*
X95797Y-56747D02*
X95782Y-56762D01*
X95737Y-56777D01*
X95707Y-56777D01*
X95662Y-56762D01*
X95632Y-56732D01*
X95617Y-56702D01*
X95602Y-56642D01*
X95602Y-56597D01*
X95617Y-56537D01*
X95632Y-56507D01*
X95662Y-56477D01*
X95707Y-56462D01*
X95737Y-56462D01*
X95782Y-56477D01*
X95797Y-56492D01*
X96097Y-56777D02*
X95917Y-56777D01*
X96007Y-56777D02*
X96007Y-56462D01*
X95977Y-56507D01*
X95947Y-56537D01*
X95917Y-56552D01*
X96202Y-56462D02*
X96397Y-56462D01*
X96292Y-56582D01*
X96337Y-56582D01*
X96367Y-56597D01*
X96382Y-56612D01*
X96397Y-56642D01*
X96397Y-56717D01*
X96382Y-56747D01*
X96367Y-56762D01*
X96337Y-56777D01*
X96247Y-56777D01*
X96217Y-56762D01*
X96202Y-56747D01*
X86323Y-58879D02*
X86257Y-58785D01*
X86210Y-58879D02*
X86210Y-58682D01*
X86285Y-58682D01*
X86304Y-58692D01*
X86313Y-58701D01*
X86323Y-58720D01*
X86323Y-58748D01*
X86313Y-58767D01*
X86304Y-58776D01*
X86285Y-58785D01*
X86210Y-58785D01*
X86510Y-58879D02*
X86398Y-58879D01*
X86454Y-58879D02*
X86454Y-58682D01*
X86435Y-58710D01*
X86417Y-58729D01*
X86398Y-58739D01*
X86576Y-58682D02*
X86707Y-58682D01*
X86623Y-58879D01*
X89960Y-58832D02*
X89970Y-58842D01*
X89979Y-58870D01*
X89979Y-58889D01*
X89970Y-58917D01*
X89951Y-58936D01*
X89932Y-58945D01*
X89895Y-58954D01*
X89867Y-58954D01*
X89829Y-58945D01*
X89810Y-58936D01*
X89792Y-58917D01*
X89782Y-58889D01*
X89782Y-58870D01*
X89792Y-58842D01*
X89801Y-58832D01*
X89782Y-58654D02*
X89782Y-58748D01*
X89876Y-58757D01*
X89867Y-58748D01*
X89857Y-58729D01*
X89857Y-58682D01*
X89867Y-58663D01*
X89876Y-58654D01*
X89895Y-58645D01*
X89942Y-58645D01*
X89960Y-58654D01*
X89970Y-58663D01*
X89979Y-58682D01*
X89979Y-58729D01*
X89970Y-58748D01*
X89960Y-58757D01*
X91760Y-58832D02*
X91770Y-58842D01*
X91779Y-58870D01*
X91779Y-58889D01*
X91770Y-58917D01*
X91751Y-58936D01*
X91732Y-58945D01*
X91695Y-58954D01*
X91667Y-58954D01*
X91629Y-58945D01*
X91610Y-58936D01*
X91592Y-58917D01*
X91582Y-58889D01*
X91582Y-58870D01*
X91592Y-58842D01*
X91601Y-58832D01*
X91648Y-58663D02*
X91779Y-58663D01*
X91573Y-58710D02*
X91714Y-58757D01*
X91714Y-58635D01*
X81347Y-56717D02*
X81332Y-56732D01*
X81287Y-56747D01*
X81257Y-56747D01*
X81212Y-56732D01*
X81182Y-56702D01*
X81167Y-56672D01*
X81152Y-56612D01*
X81152Y-56567D01*
X81167Y-56507D01*
X81182Y-56477D01*
X81212Y-56447D01*
X81257Y-56432D01*
X81287Y-56432D01*
X81332Y-56447D01*
X81347Y-56462D01*
X81617Y-56432D02*
X81557Y-56432D01*
X81527Y-56447D01*
X81512Y-56462D01*
X81482Y-56507D01*
X81467Y-56567D01*
X81467Y-56687D01*
X81482Y-56717D01*
X81497Y-56732D01*
X81527Y-56747D01*
X81587Y-56747D01*
X81617Y-56732D01*
X81632Y-56717D01*
X81647Y-56687D01*
X81647Y-56612D01*
X81632Y-56582D01*
X81617Y-56567D01*
X81587Y-56552D01*
X81527Y-56552D01*
X81497Y-56567D01*
X81482Y-56582D01*
X81467Y-56612D01*
X87873Y-58229D02*
X87807Y-58135D01*
X87760Y-58229D02*
X87760Y-58032D01*
X87835Y-58032D01*
X87854Y-58042D01*
X87863Y-58051D01*
X87873Y-58070D01*
X87873Y-58098D01*
X87863Y-58117D01*
X87854Y-58126D01*
X87835Y-58135D01*
X87760Y-58135D01*
X88060Y-58229D02*
X87948Y-58229D01*
X88004Y-58229D02*
X88004Y-58032D01*
X87985Y-58060D01*
X87967Y-58079D01*
X87948Y-58089D01*
X88229Y-58032D02*
X88192Y-58032D01*
X88173Y-58042D01*
X88164Y-58051D01*
X88145Y-58079D01*
X88136Y-58117D01*
X88136Y-58192D01*
X88145Y-58210D01*
X88154Y-58220D01*
X88173Y-58229D01*
X88211Y-58229D01*
X88229Y-58220D01*
X88239Y-58210D01*
X88248Y-58192D01*
X88248Y-58145D01*
X88239Y-58126D01*
X88229Y-58117D01*
X88211Y-58107D01*
X88173Y-58107D01*
X88154Y-58117D01*
X88145Y-58126D01*
X88136Y-58145D01*
G54D10*
X90385Y-54272D02*
X90595Y-54587D01*
X90595Y-54272D02*
X90385Y-54587D01*
X90699Y-54302D02*
X90714Y-54287D01*
X90744Y-54272D01*
X90819Y-54272D01*
X90849Y-54287D01*
X90864Y-54302D01*
X90879Y-54332D01*
X90879Y-54362D01*
X90864Y-54407D01*
X90684Y-54587D01*
X90879Y-54587D01*
X79125Y-59732D02*
X79335Y-60047D01*
X79335Y-59732D02*
X79125Y-60047D01*
X79619Y-60047D02*
X79439Y-60047D01*
X79529Y-60047D02*
X79529Y-59732D01*
X79499Y-59777D01*
X79469Y-59807D01*
X79439Y-59822D01*
G54D13*
X101135Y-48721D02*
X101135Y-48421D01*
X101207Y-48421D01*
X101250Y-48435D01*
X101278Y-48464D01*
X101292Y-48492D01*
X101307Y-48550D01*
X101307Y-48592D01*
X101292Y-48650D01*
X101278Y-48678D01*
X101250Y-48707D01*
X101207Y-48721D01*
X101135Y-48721D01*
X101592Y-48721D02*
X101421Y-48721D01*
X101507Y-48721D02*
X101507Y-48421D01*
X101478Y-48464D01*
X101450Y-48492D01*
X101421Y-48507D01*
X101778Y-48421D02*
X101807Y-48421D01*
X101835Y-48435D01*
X101850Y-48450D01*
X101864Y-48478D01*
X101878Y-48535D01*
X101878Y-48607D01*
X101864Y-48664D01*
X101850Y-48692D01*
X101835Y-48707D01*
X101807Y-48721D01*
X101778Y-48721D01*
X101750Y-48707D01*
X101735Y-48692D01*
X101721Y-48664D01*
X101707Y-48607D01*
X101707Y-48535D01*
X101721Y-48478D01*
X101735Y-48450D01*
X101750Y-48435D01*
X101778Y-48421D01*
X91478Y-60821D02*
X91478Y-60521D01*
X91550Y-60521D01*
X91592Y-60535D01*
X91621Y-60564D01*
X91635Y-60592D01*
X91650Y-60650D01*
X91650Y-60692D01*
X91635Y-60750D01*
X91621Y-60778D01*
X91592Y-60807D01*
X91550Y-60821D01*
X91478Y-60821D01*
X91792Y-60821D02*
X91850Y-60821D01*
X91878Y-60807D01*
X91892Y-60792D01*
X91921Y-60750D01*
X91935Y-60692D01*
X91935Y-60578D01*
X91921Y-60550D01*
X91907Y-60535D01*
X91878Y-60521D01*
X91821Y-60521D01*
X91792Y-60535D01*
X91778Y-60550D01*
X91764Y-60578D01*
X91764Y-60650D01*
X91778Y-60678D01*
X91792Y-60692D01*
X91821Y-60707D01*
X91878Y-60707D01*
X91907Y-60692D01*
X91921Y-60678D01*
X91935Y-60650D01*
X100878Y-51771D02*
X100878Y-51471D01*
X100950Y-51471D01*
X100992Y-51485D01*
X101021Y-51514D01*
X101035Y-51542D01*
X101050Y-51600D01*
X101050Y-51642D01*
X101035Y-51700D01*
X101021Y-51728D01*
X100992Y-51757D01*
X100950Y-51771D01*
X100878Y-51771D01*
X101150Y-51471D02*
X101350Y-51471D01*
X101221Y-51771D01*
X101478Y-46471D02*
X101478Y-46171D01*
X101550Y-46171D01*
X101592Y-46185D01*
X101621Y-46214D01*
X101635Y-46242D01*
X101650Y-46300D01*
X101650Y-46342D01*
X101635Y-46400D01*
X101621Y-46428D01*
X101592Y-46457D01*
X101550Y-46471D01*
X101478Y-46471D01*
X101821Y-46300D02*
X101792Y-46285D01*
X101778Y-46271D01*
X101764Y-46242D01*
X101764Y-46228D01*
X101778Y-46200D01*
X101792Y-46185D01*
X101821Y-46171D01*
X101878Y-46171D01*
X101907Y-46185D01*
X101921Y-46200D01*
X101935Y-46228D01*
X101935Y-46242D01*
X101921Y-46271D01*
X101907Y-46285D01*
X101878Y-46300D01*
X101821Y-46300D01*
X101792Y-46314D01*
X101778Y-46328D01*
X101764Y-46357D01*
X101764Y-46414D01*
X101778Y-46442D01*
X101792Y-46457D01*
X101821Y-46471D01*
X101878Y-46471D01*
X101907Y-46457D01*
X101921Y-46442D01*
X101935Y-46414D01*
X101935Y-46357D01*
X101921Y-46328D01*
X101907Y-46314D01*
X101878Y-46300D01*
X84101Y-63697D02*
X84194Y-63411D01*
X84262Y-63433D01*
X84298Y-63460D01*
X84317Y-63496D01*
X84321Y-63528D01*
X84317Y-63586D01*
X84304Y-63627D01*
X84273Y-63677D01*
X84250Y-63700D01*
X84214Y-63718D01*
X84169Y-63719D01*
X84101Y-63697D01*
X84571Y-63639D02*
X84509Y-63829D01*
X84538Y-63508D02*
X84404Y-63690D01*
X84581Y-63747D01*
X99829Y-59592D02*
X99617Y-59380D01*
X99667Y-59329D01*
X99708Y-59309D01*
X99748Y-59309D01*
X99778Y-59319D01*
X99829Y-59350D01*
X99859Y-59380D01*
X99889Y-59430D01*
X99900Y-59461D01*
X99900Y-59501D01*
X99879Y-59541D01*
X99829Y-59592D01*
X99920Y-59077D02*
X99879Y-59117D01*
X99869Y-59147D01*
X99869Y-59168D01*
X99879Y-59218D01*
X99910Y-59269D01*
X99990Y-59350D01*
X100021Y-59360D01*
X100041Y-59360D01*
X100071Y-59350D01*
X100112Y-59309D01*
X100122Y-59279D01*
X100122Y-59259D01*
X100112Y-59228D01*
X100061Y-59178D01*
X100031Y-59168D01*
X100011Y-59168D01*
X99980Y-59178D01*
X99940Y-59218D01*
X99930Y-59248D01*
X99930Y-59269D01*
X99940Y-59299D01*
X75978Y-46471D02*
X75978Y-46171D01*
X76050Y-46171D01*
X76092Y-46185D01*
X76121Y-46214D01*
X76135Y-46242D01*
X76150Y-46300D01*
X76150Y-46342D01*
X76135Y-46400D01*
X76121Y-46428D01*
X76092Y-46457D01*
X76050Y-46471D01*
X75978Y-46471D01*
X76435Y-46471D02*
X76264Y-46471D01*
X76350Y-46471D02*
X76350Y-46171D01*
X76321Y-46214D01*
X76292Y-46242D01*
X76264Y-46257D01*
X75978Y-52271D02*
X75978Y-51971D01*
X76050Y-51971D01*
X76092Y-51985D01*
X76121Y-52014D01*
X76135Y-52042D01*
X76150Y-52100D01*
X76150Y-52142D01*
X76135Y-52200D01*
X76121Y-52228D01*
X76092Y-52257D01*
X76050Y-52271D01*
X75978Y-52271D01*
X76264Y-52000D02*
X76278Y-51985D01*
X76307Y-51971D01*
X76378Y-51971D01*
X76407Y-51985D01*
X76421Y-52000D01*
X76435Y-52028D01*
X76435Y-52057D01*
X76421Y-52100D01*
X76250Y-52271D01*
X76435Y-52271D01*
X77507Y-59879D02*
X77719Y-59667D01*
X77770Y-59717D01*
X77790Y-59758D01*
X77790Y-59798D01*
X77780Y-59828D01*
X77750Y-59879D01*
X77719Y-59909D01*
X77669Y-59939D01*
X77638Y-59950D01*
X77598Y-59950D01*
X77558Y-59929D01*
X77507Y-59879D01*
X77911Y-59859D02*
X78042Y-59990D01*
X77891Y-60000D01*
X77921Y-60030D01*
X77931Y-60061D01*
X77931Y-60081D01*
X77921Y-60111D01*
X77871Y-60162D01*
X77840Y-60172D01*
X77820Y-60172D01*
X77790Y-60162D01*
X77729Y-60101D01*
X77719Y-60071D01*
X77719Y-60051D01*
X93326Y-63583D02*
X93234Y-63298D01*
X93302Y-63276D01*
X93347Y-63276D01*
X93383Y-63295D01*
X93405Y-63317D01*
X93436Y-63367D01*
X93450Y-63408D01*
X93454Y-63467D01*
X93449Y-63499D01*
X93431Y-63535D01*
X93394Y-63561D01*
X93326Y-63583D01*
X93655Y-63161D02*
X93519Y-63205D01*
X93550Y-63346D01*
X93559Y-63328D01*
X93582Y-63305D01*
X93649Y-63283D01*
X93681Y-63288D01*
X93699Y-63297D01*
X93721Y-63320D01*
X93744Y-63388D01*
X93739Y-63419D01*
X93730Y-63437D01*
X93707Y-63460D01*
X93639Y-63482D01*
X93607Y-63477D01*
X93589Y-63468D01*
G54D25*
X97473Y-62460D02*
X97463Y-62470D01*
X97435Y-62479D01*
X97417Y-62479D01*
X97388Y-62470D01*
X97370Y-62451D01*
X97360Y-62432D01*
X97351Y-62395D01*
X97351Y-62367D01*
X97360Y-62329D01*
X97370Y-62310D01*
X97388Y-62292D01*
X97417Y-62282D01*
X97435Y-62282D01*
X97463Y-62292D01*
X97473Y-62301D01*
X97660Y-62479D02*
X97548Y-62479D01*
X97604Y-62479D02*
X97604Y-62282D01*
X97585Y-62310D01*
X97567Y-62329D01*
X97548Y-62339D01*
X97773Y-62367D02*
X97754Y-62357D01*
X97745Y-62348D01*
X97736Y-62329D01*
X97736Y-62320D01*
X97745Y-62301D01*
X97754Y-62292D01*
X97773Y-62282D01*
X97811Y-62282D01*
X97829Y-62292D01*
X97839Y-62301D01*
X97848Y-62320D01*
X97848Y-62329D01*
X97839Y-62348D01*
X97829Y-62357D01*
X97811Y-62367D01*
X97773Y-62367D01*
X97754Y-62376D01*
X97745Y-62385D01*
X97736Y-62404D01*
X97736Y-62442D01*
X97745Y-62460D01*
X97754Y-62470D01*
X97773Y-62479D01*
X97811Y-62479D01*
X97829Y-62470D01*
X97839Y-62460D01*
X97848Y-62442D01*
X97848Y-62404D01*
X97839Y-62385D01*
X97829Y-62376D01*
X97811Y-62367D01*
X87917Y-52710D02*
X87907Y-52720D01*
X87879Y-52729D01*
X87860Y-52729D01*
X87832Y-52720D01*
X87813Y-52701D01*
X87804Y-52682D01*
X87795Y-52645D01*
X87795Y-52617D01*
X87804Y-52579D01*
X87813Y-52560D01*
X87832Y-52542D01*
X87860Y-52532D01*
X87879Y-52532D01*
X87907Y-52542D01*
X87917Y-52551D01*
X88104Y-52729D02*
X87992Y-52729D01*
X88048Y-52729D02*
X88048Y-52532D01*
X88029Y-52560D01*
X88010Y-52579D01*
X87992Y-52589D01*
X79997Y-49202D02*
X80012Y-49217D01*
X80027Y-49262D01*
X80027Y-49292D01*
X80012Y-49337D01*
X79982Y-49367D01*
X79952Y-49382D01*
X79892Y-49397D01*
X79847Y-49397D01*
X79787Y-49382D01*
X79757Y-49367D01*
X79727Y-49337D01*
X79712Y-49292D01*
X79712Y-49262D01*
X79727Y-49217D01*
X79742Y-49202D01*
X79742Y-49082D02*
X79727Y-49067D01*
X79712Y-49037D01*
X79712Y-48962D01*
X79727Y-48932D01*
X79742Y-48917D01*
X79772Y-48902D01*
X79802Y-48902D01*
X79847Y-48917D01*
X80027Y-49097D01*
X80027Y-48902D01*
X80027Y-48602D02*
X80027Y-48782D01*
X80027Y-48692D02*
X79712Y-48692D01*
X79757Y-48722D01*
X79787Y-48752D01*
X79802Y-48782D01*
X92773Y-60760D02*
X92763Y-60770D01*
X92735Y-60779D01*
X92717Y-60779D01*
X92688Y-60770D01*
X92670Y-60751D01*
X92660Y-60732D01*
X92651Y-60695D01*
X92651Y-60667D01*
X92660Y-60629D01*
X92670Y-60610D01*
X92688Y-60592D01*
X92717Y-60582D01*
X92735Y-60582D01*
X92763Y-60592D01*
X92773Y-60601D01*
X92960Y-60779D02*
X92848Y-60779D01*
X92904Y-60779D02*
X92904Y-60582D01*
X92885Y-60610D01*
X92867Y-60629D01*
X92848Y-60639D01*
X93054Y-60779D02*
X93092Y-60779D01*
X93111Y-60770D01*
X93120Y-60760D01*
X93139Y-60732D01*
X93148Y-60695D01*
X93148Y-60620D01*
X93139Y-60601D01*
X93129Y-60592D01*
X93111Y-60582D01*
X93073Y-60582D01*
X93054Y-60592D01*
X93045Y-60601D01*
X93036Y-60620D01*
X93036Y-60667D01*
X93045Y-60685D01*
X93054Y-60695D01*
X93073Y-60704D01*
X93111Y-60704D01*
X93129Y-60695D01*
X93139Y-60685D01*
X93148Y-60667D01*
G54D23*
X83999Y-52465D02*
X83999Y-52784D01*
X84018Y-52821D01*
X84037Y-52840D01*
X84074Y-52859D01*
X84149Y-52859D01*
X84187Y-52840D01*
X84206Y-52821D01*
X84224Y-52784D01*
X84224Y-52465D01*
X84431Y-52859D02*
X84506Y-52859D01*
X84543Y-52840D01*
X84562Y-52821D01*
X84600Y-52765D01*
X84618Y-52690D01*
X84618Y-52540D01*
X84600Y-52503D01*
X84581Y-52484D01*
X84543Y-52465D01*
X84468Y-52465D01*
X84431Y-52484D01*
X84412Y-52503D01*
X84393Y-52540D01*
X84393Y-52634D01*
X84412Y-52671D01*
X84431Y-52690D01*
X84468Y-52709D01*
X84543Y-52709D01*
X84581Y-52690D01*
X84600Y-52671D01*
X84618Y-52634D01*
G54D26*
X82178Y-55243D02*
X82126Y-55168D01*
X82088Y-55243D02*
X82088Y-55086D01*
X82148Y-55086D01*
X82163Y-55093D01*
X82171Y-55101D01*
X82178Y-55116D01*
X82178Y-55138D01*
X82171Y-55153D01*
X82163Y-55161D01*
X82148Y-55168D01*
X82088Y-55168D01*
X82238Y-55101D02*
X82246Y-55093D01*
X82261Y-55086D01*
X82298Y-55086D01*
X82313Y-55093D01*
X82321Y-55101D01*
X82328Y-55116D01*
X82328Y-55131D01*
X82321Y-55153D01*
X82231Y-55243D01*
X82328Y-55243D01*
X82464Y-55086D02*
X82433Y-55086D01*
X82418Y-55093D01*
X82411Y-55101D01*
X82396Y-55123D01*
X82388Y-55153D01*
X82388Y-55213D01*
X82396Y-55228D01*
X82403Y-55236D01*
X82418Y-55243D01*
X82449Y-55243D01*
X82464Y-55236D01*
X82471Y-55228D01*
X82479Y-55213D01*
X82479Y-55176D01*
X82471Y-55161D01*
X82464Y-55153D01*
X82449Y-55146D01*
X82418Y-55146D01*
X82403Y-55153D01*
X82396Y-55161D01*
X82388Y-55176D01*
G54D12*
X97633Y-58510D02*
X97704Y-58532D01*
X97823Y-58532D01*
X97871Y-58510D01*
X97895Y-58489D01*
X97919Y-58446D01*
X97919Y-58403D01*
X97895Y-58360D01*
X97871Y-58339D01*
X97823Y-58317D01*
X97728Y-58296D01*
X97680Y-58275D01*
X97657Y-58253D01*
X97633Y-58210D01*
X97633Y-58167D01*
X97657Y-58125D01*
X97680Y-58103D01*
X97728Y-58082D01*
X97847Y-58082D01*
X97919Y-58103D01*
X98085Y-58082D02*
X98204Y-58532D01*
X98300Y-58210D01*
X98395Y-58532D01*
X98514Y-58082D01*
X98966Y-58532D02*
X98680Y-58532D01*
X98823Y-58532D02*
X98823Y-58082D01*
X98776Y-58146D01*
X98728Y-58189D01*
X98680Y-58210D01*
G54D10*
X86308Y-49184D02*
X86270Y-49165D01*
X86214Y-49165D01*
X86158Y-49184D01*
X86120Y-49221D01*
X86102Y-49259D01*
X86083Y-49334D01*
X86083Y-49390D01*
X86102Y-49465D01*
X86120Y-49503D01*
X86158Y-49540D01*
X86214Y-49559D01*
X86251Y-49559D01*
X86308Y-49540D01*
X86326Y-49521D01*
X86326Y-49390D01*
X86251Y-49390D01*
X86570Y-49371D02*
X86570Y-49559D01*
X86439Y-49165D02*
X86570Y-49371D01*
X86701Y-49165D01*
X86833Y-49409D02*
X87133Y-49409D01*
X87301Y-49203D02*
X87320Y-49184D01*
X87358Y-49165D01*
X87451Y-49165D01*
X87489Y-49184D01*
X87508Y-49203D01*
X87526Y-49240D01*
X87526Y-49278D01*
X87508Y-49334D01*
X87283Y-49559D01*
X87526Y-49559D01*
X87658Y-49165D02*
X87920Y-49165D01*
X87751Y-49559D01*
X88276Y-49559D02*
X88051Y-49559D01*
X88164Y-49559D02*
X88164Y-49165D01*
X88126Y-49221D01*
X88089Y-49259D01*
X88051Y-49278D01*
G54D22*
X79670Y-51586D02*
X79670Y-51910D01*
X79689Y-51948D01*
X79708Y-51967D01*
X79746Y-51986D01*
X79822Y-51986D01*
X79860Y-51967D01*
X79879Y-51948D01*
X79898Y-51910D01*
X79898Y-51586D01*
X80146Y-51758D02*
X80108Y-51739D01*
X80089Y-51720D01*
X80070Y-51682D01*
X80070Y-51663D01*
X80089Y-51625D01*
X80108Y-51605D01*
X80146Y-51586D01*
X80222Y-51586D01*
X80260Y-51605D01*
X80279Y-51625D01*
X80298Y-51663D01*
X80298Y-51682D01*
X80279Y-51720D01*
X80260Y-51739D01*
X80222Y-51758D01*
X80146Y-51758D01*
X80108Y-51777D01*
X80089Y-51796D01*
X80070Y-51834D01*
X80070Y-51910D01*
X80089Y-51948D01*
X80108Y-51967D01*
X80146Y-51986D01*
X80222Y-51986D01*
X80260Y-51967D01*
X80279Y-51948D01*
X80298Y-51910D01*
X80298Y-51834D01*
X80279Y-51796D01*
X80260Y-51777D01*
X80222Y-51758D01*
G54D25*
X83573Y-50960D02*
X83563Y-50970D01*
X83535Y-50979D01*
X83517Y-50979D01*
X83488Y-50970D01*
X83470Y-50951D01*
X83460Y-50932D01*
X83451Y-50895D01*
X83451Y-50867D01*
X83460Y-50829D01*
X83470Y-50810D01*
X83488Y-50792D01*
X83517Y-50782D01*
X83535Y-50782D01*
X83563Y-50792D01*
X83573Y-50801D01*
X83648Y-50801D02*
X83657Y-50792D01*
X83676Y-50782D01*
X83723Y-50782D01*
X83742Y-50792D01*
X83751Y-50801D01*
X83760Y-50820D01*
X83760Y-50839D01*
X83751Y-50867D01*
X83639Y-50979D01*
X83760Y-50979D01*
X83882Y-50782D02*
X83901Y-50782D01*
X83920Y-50792D01*
X83929Y-50801D01*
X83939Y-50820D01*
X83948Y-50857D01*
X83948Y-50904D01*
X83939Y-50942D01*
X83929Y-50960D01*
X83920Y-50970D01*
X83901Y-50979D01*
X83882Y-50979D01*
X83864Y-50970D01*
X83854Y-50960D01*
X83845Y-50942D01*
X83836Y-50904D01*
X83836Y-50857D01*
X83845Y-50820D01*
X83854Y-50801D01*
X83864Y-50792D01*
X83882Y-50782D01*
G54D26*
X77938Y-55603D02*
X77886Y-55528D01*
X77848Y-55603D02*
X77848Y-55446D01*
X77908Y-55446D01*
X77923Y-55453D01*
X77931Y-55461D01*
X77938Y-55476D01*
X77938Y-55498D01*
X77931Y-55513D01*
X77923Y-55521D01*
X77908Y-55528D01*
X77848Y-55528D01*
X77998Y-55461D02*
X78006Y-55453D01*
X78021Y-55446D01*
X78058Y-55446D01*
X78073Y-55453D01*
X78081Y-55461D01*
X78088Y-55476D01*
X78088Y-55491D01*
X78081Y-55513D01*
X77991Y-55603D01*
X78088Y-55603D01*
X78231Y-55446D02*
X78156Y-55446D01*
X78148Y-55521D01*
X78156Y-55513D01*
X78171Y-55506D01*
X78209Y-55506D01*
X78224Y-55513D01*
X78231Y-55521D01*
X78239Y-55536D01*
X78239Y-55573D01*
X78231Y-55588D01*
X78224Y-55596D01*
X78209Y-55603D01*
X78171Y-55603D01*
X78156Y-55596D01*
X78148Y-55588D01*
X88138Y-56983D02*
X88086Y-56908D01*
X88048Y-56983D02*
X88048Y-56826D01*
X88108Y-56826D01*
X88123Y-56833D01*
X88131Y-56841D01*
X88138Y-56856D01*
X88138Y-56878D01*
X88131Y-56893D01*
X88123Y-56901D01*
X88108Y-56908D01*
X88048Y-56908D01*
X88198Y-56841D02*
X88206Y-56833D01*
X88221Y-56826D01*
X88258Y-56826D01*
X88273Y-56833D01*
X88281Y-56841D01*
X88288Y-56856D01*
X88288Y-56871D01*
X88281Y-56893D01*
X88191Y-56983D01*
X88288Y-56983D01*
X88341Y-56826D02*
X88446Y-56826D01*
X88378Y-56983D01*
X79118Y-54483D02*
X79066Y-54408D01*
X79028Y-54483D02*
X79028Y-54326D01*
X79088Y-54326D01*
X79103Y-54333D01*
X79111Y-54341D01*
X79118Y-54356D01*
X79118Y-54378D01*
X79111Y-54393D01*
X79103Y-54401D01*
X79088Y-54408D01*
X79028Y-54408D01*
X79178Y-54341D02*
X79186Y-54333D01*
X79201Y-54326D01*
X79238Y-54326D01*
X79253Y-54333D01*
X79261Y-54341D01*
X79268Y-54356D01*
X79268Y-54371D01*
X79261Y-54393D01*
X79171Y-54483D01*
X79268Y-54483D01*
X79358Y-54393D02*
X79343Y-54386D01*
X79336Y-54378D01*
X79328Y-54363D01*
X79328Y-54356D01*
X79336Y-54341D01*
X79343Y-54333D01*
X79358Y-54326D01*
X79389Y-54326D01*
X79404Y-54333D01*
X79411Y-54341D01*
X79419Y-54356D01*
X79419Y-54363D01*
X79411Y-54378D01*
X79404Y-54386D01*
X79389Y-54393D01*
X79358Y-54393D01*
X79343Y-54401D01*
X79336Y-54408D01*
X79328Y-54423D01*
X79328Y-54453D01*
X79336Y-54468D01*
X79343Y-54476D01*
X79358Y-54483D01*
X79389Y-54483D01*
X79404Y-54476D01*
X79411Y-54468D01*
X79419Y-54453D01*
X79419Y-54423D01*
X79411Y-54408D01*
X79404Y-54401D01*
X79389Y-54393D01*
G54D13*
X79950Y-47702D02*
X79850Y-47702D01*
X79850Y-47911D02*
X79850Y-47511D01*
X79992Y-47511D01*
X80264Y-47911D02*
X80092Y-47911D01*
X80178Y-47911D02*
X80178Y-47511D01*
X80150Y-47569D01*
X80121Y-47607D01*
X80092Y-47626D01*
G54D25*
X78571Y-47309D02*
X78571Y-46915D01*
X78665Y-46915D01*
X78721Y-46934D01*
X78759Y-46971D01*
X78777Y-47009D01*
X78796Y-47084D01*
X78796Y-47140D01*
X78777Y-47215D01*
X78759Y-47253D01*
X78721Y-47290D01*
X78665Y-47309D01*
X78571Y-47309D01*
X79171Y-47309D02*
X78946Y-47309D01*
X79059Y-47309D02*
X79059Y-46915D01*
X79021Y-46971D01*
X78984Y-47009D01*
X78946Y-47028D01*
X79547Y-47309D02*
X79322Y-47309D01*
X79434Y-47309D02*
X79434Y-46915D01*
X79397Y-46971D01*
X79359Y-47009D01*
X79322Y-47028D01*
%LPC*%
G54D27*
X87868Y-59513D03*
X88616Y-59513D03*
X88990Y-59513D03*
X88242Y-59513D03*
X89364Y-59513D03*
X89738Y-59513D03*
G54D10*
G36*
X94716Y-52788D02*
X94506Y-52579D01*
X95147Y-51938D01*
X95357Y-52147D01*
X94716Y-52788D01*
X94716Y-52788D01*
G37*
G36*
X94493Y-52566D02*
X94283Y-52356D01*
X94925Y-51715D01*
X95134Y-51925D01*
X94493Y-52566D01*
X94493Y-52566D01*
G37*
G36*
X94271Y-52343D02*
X94061Y-52133D01*
X94702Y-51492D01*
X94912Y-51702D01*
X94271Y-52343D01*
X94271Y-52343D01*
G37*
G36*
X94048Y-52120D02*
X93838Y-51910D01*
X94479Y-51269D01*
X94689Y-51479D01*
X94048Y-52120D01*
X94048Y-52120D01*
G37*
G36*
X93825Y-51898D02*
X93615Y-51688D01*
X94256Y-51047D01*
X94466Y-51256D01*
X93825Y-51898D01*
X93825Y-51898D01*
G37*
G36*
X93602Y-51675D02*
X93393Y-51465D01*
X94034Y-50824D01*
X94243Y-51034D01*
X93602Y-51675D01*
X93602Y-51675D01*
G37*
G36*
X93380Y-51452D02*
X93170Y-51242D01*
X93811Y-50601D01*
X94021Y-50811D01*
X93380Y-51452D01*
X93380Y-51452D01*
G37*
G36*
X93157Y-51229D02*
X92947Y-51020D01*
X93588Y-50378D01*
X93798Y-50588D01*
X93157Y-51229D01*
X93157Y-51229D01*
G37*
G36*
X95821Y-48568D02*
X95611Y-48358D01*
X96253Y-47717D01*
X96462Y-47927D01*
X95821Y-48568D01*
X95821Y-48568D01*
G37*
G36*
X97384Y-50130D02*
X97174Y-49921D01*
X97815Y-49280D01*
X98025Y-49489D01*
X97384Y-50130D01*
X97384Y-50130D01*
G37*
G36*
X97158Y-49904D02*
X96948Y-49694D01*
X97589Y-49053D01*
X97799Y-49263D01*
X97158Y-49904D01*
X97158Y-49904D01*
G37*
G36*
X96931Y-49678D02*
X96722Y-49468D01*
X97363Y-48827D01*
X97573Y-49037D01*
X96931Y-49678D01*
X96931Y-49678D01*
G37*
G36*
X96712Y-49459D02*
X96502Y-49249D01*
X97144Y-48608D01*
X97353Y-48818D01*
X96712Y-49459D01*
X96712Y-49459D01*
G37*
G36*
X96486Y-49232D02*
X96276Y-49023D01*
X96917Y-48382D01*
X97127Y-48591D01*
X96486Y-49232D01*
X96486Y-49232D01*
G37*
G36*
X96267Y-49013D02*
X96057Y-48803D01*
X96698Y-48162D01*
X96908Y-48372D01*
X96267Y-49013D01*
X96267Y-49013D01*
G37*
G36*
X96040Y-48787D02*
X95831Y-48577D01*
X96472Y-47936D01*
X96682Y-48146D01*
X96040Y-48787D01*
X96040Y-48787D01*
G37*
G36*
X93585Y-50118D02*
X92944Y-49477D01*
X93154Y-49267D01*
X93795Y-49908D01*
X93585Y-50118D01*
X93585Y-50118D01*
G37*
G36*
X93807Y-49896D02*
X93166Y-49255D01*
X93376Y-49045D01*
X94017Y-49686D01*
X93807Y-49896D01*
X93807Y-49896D01*
G37*
G36*
X94031Y-49672D02*
X93390Y-49031D01*
X93600Y-48821D01*
X94241Y-49462D01*
X94031Y-49672D01*
X94031Y-49672D01*
G37*
G36*
X94253Y-49450D02*
X93612Y-48809D01*
X93822Y-48599D01*
X94463Y-49240D01*
X94253Y-49450D01*
X94253Y-49450D01*
G37*
G36*
X94476Y-49227D02*
X93835Y-48586D01*
X94045Y-48376D01*
X94686Y-49017D01*
X94476Y-49227D01*
X94476Y-49227D01*
G37*
G36*
X94698Y-49005D02*
X94057Y-48364D01*
X94267Y-48154D01*
X94908Y-48795D01*
X94698Y-49005D01*
X94698Y-49005D01*
G37*
G36*
X94922Y-48781D02*
X94281Y-48140D01*
X94490Y-47930D01*
X95132Y-48572D01*
X94922Y-48781D01*
X94922Y-48781D01*
G37*
G36*
X95144Y-48559D02*
X94503Y-47918D01*
X94712Y-47708D01*
X95354Y-48350D01*
X95144Y-48559D01*
X95144Y-48559D01*
G37*
G36*
X96260Y-52789D02*
X95619Y-52148D01*
X95828Y-51938D01*
X96469Y-52579D01*
X96260Y-52789D01*
X96260Y-52789D01*
G37*
G36*
X96479Y-52570D02*
X95838Y-51929D01*
X96048Y-51719D01*
X96689Y-52360D01*
X96479Y-52570D01*
X96479Y-52570D01*
G37*
G36*
X96705Y-52344D02*
X96064Y-51703D01*
X96274Y-51493D01*
X96915Y-52134D01*
X96705Y-52344D01*
X96705Y-52344D01*
G37*
G36*
X96924Y-52125D02*
X96283Y-51483D01*
X96493Y-51274D01*
X97134Y-51915D01*
X96924Y-52125D01*
X96924Y-52125D01*
G37*
G36*
X97144Y-51905D02*
X96502Y-51264D01*
X96712Y-51054D01*
X97353Y-51696D01*
X97144Y-51905D01*
X97144Y-51905D01*
G37*
G36*
X97370Y-51679D02*
X96729Y-51038D01*
X96938Y-50828D01*
X97580Y-51469D01*
X97370Y-51679D01*
X97370Y-51679D01*
G37*
G36*
X97596Y-51453D02*
X96955Y-50812D01*
X97165Y-50602D01*
X97806Y-51243D01*
X97596Y-51453D01*
X97596Y-51453D01*
G37*
G36*
X97822Y-51226D02*
X97181Y-50585D01*
X97391Y-50376D01*
X98032Y-51017D01*
X97822Y-51226D01*
X97822Y-51226D01*
G37*
G54D28*
X95575Y-60700D03*
X94825Y-60700D03*
X95575Y-61700D03*
X95200Y-60700D03*
X94825Y-61700D03*
G54D29*
X82750Y-60100D03*
X83250Y-60100D03*
X83750Y-60100D03*
X84250Y-60100D03*
X84750Y-60100D03*
X85250Y-60100D03*
X85750Y-60100D03*
X85750Y-57900D03*
X85250Y-57900D03*
X84750Y-57900D03*
X84250Y-57900D03*
X83750Y-57900D03*
X83250Y-57900D03*
X82750Y-57900D03*
G54D30*
X91928Y-46025D03*
X92678Y-46025D03*
X98235Y-48000D03*
X97485Y-48000D03*
X92275Y-48050D03*
X93025Y-48050D03*
X99815Y-48000D03*
X99065Y-48000D03*
G54D31*
X82600Y-46525D03*
X82600Y-45775D03*
X83550Y-46525D03*
X83550Y-45775D03*
G54D30*
X81925Y-62450D03*
X82675Y-62450D03*
X94825Y-62500D03*
X95575Y-62500D03*
G54D10*
G36*
X92332Y-51805D02*
X92805Y-51332D01*
X93137Y-51664D01*
X92664Y-52137D01*
X92332Y-51805D01*
X92332Y-51805D01*
G37*
G36*
X92862Y-52335D02*
X93335Y-51862D01*
X93667Y-52194D01*
X93194Y-52667D01*
X92862Y-52335D01*
X92862Y-52335D01*
G37*
G54D30*
X93375Y-59800D03*
X94125Y-59800D03*
X88775Y-54550D03*
X88025Y-54550D03*
G54D31*
X82850Y-60825D03*
X82850Y-61575D03*
X83650Y-60825D03*
X83650Y-61575D03*
G54D30*
X91275Y-56700D03*
X92025Y-56700D03*
X95275Y-56650D03*
X94525Y-56650D03*
G54D31*
X87100Y-58825D03*
X87100Y-59575D03*
X90400Y-58825D03*
X90400Y-59575D03*
X91150Y-58825D03*
X91150Y-59575D03*
G54D30*
X81925Y-57100D03*
X82675Y-57100D03*
X87925Y-58650D03*
X88675Y-58650D03*
G54D32*
X86053Y-46025D03*
G54D33*
X87053Y-46025D03*
X88053Y-46025D03*
X89053Y-46025D03*
X90053Y-46025D03*
X91053Y-46025D03*
G54D32*
X101650Y-49600D03*
G54D33*
X101650Y-50600D03*
G54D32*
X82700Y-48650D03*
G54D33*
X83700Y-48650D03*
G54D32*
X76000Y-47250D03*
G54D33*
X76000Y-48250D03*
G54D32*
X90650Y-47071D03*
G54D33*
X91650Y-47071D03*
X92650Y-47071D03*
X93650Y-47071D03*
X94650Y-47071D03*
X95650Y-47071D03*
X96650Y-47071D03*
X97650Y-47071D03*
X98650Y-47071D03*
X99650Y-47071D03*
X100650Y-47071D03*
X101650Y-47071D03*
G54D32*
X101650Y-53571D03*
G54D33*
X100650Y-53571D03*
X99650Y-53571D03*
X98650Y-53571D03*
X97650Y-53571D03*
X96650Y-53571D03*
X95650Y-53571D03*
X94650Y-53571D03*
X93650Y-53571D03*
X92650Y-53571D03*
X91650Y-53571D03*
X90650Y-53571D03*
G54D34*
X91450Y-55200D03*
X95150Y-55200D03*
G54D35*
X80950Y-61650D03*
X80950Y-57950D03*
G54D36*
X77050Y-50250D03*
G54D37*
X78050Y-50250D03*
X79050Y-50250D03*
G54D36*
X77050Y-51250D03*
G54D37*
X78050Y-51250D03*
X79050Y-51250D03*
G54D36*
X77053Y-49275D03*
G54D37*
X78053Y-49275D03*
X79053Y-49275D03*
G54D36*
X77053Y-48275D03*
G54D37*
X78053Y-48275D03*
X79053Y-48275D03*
G54D38*
X92987Y-58187D03*
X92987Y-56612D03*
G54D39*
X100587Y-48000D03*
X101413Y-48000D03*
X92563Y-60100D03*
X91737Y-60100D03*
X101750Y-52413D03*
X101750Y-51587D03*
X100890Y-45775D03*
X101716Y-45775D03*
G54D10*
G36*
X83037Y-64087D02*
X83220Y-63525D01*
X83783Y-63708D01*
X83600Y-64270D01*
X83037Y-64087D01*
X83037Y-64087D01*
G37*
G36*
X83823Y-64343D02*
X84005Y-63780D01*
X84568Y-63963D01*
X84385Y-64525D01*
X83823Y-64343D01*
X83823Y-64343D01*
G37*
G36*
X99761Y-60736D02*
X99342Y-60317D01*
X99761Y-59899D01*
X100179Y-60317D01*
X99761Y-60736D01*
X99761Y-60736D01*
G37*
G36*
X100345Y-60151D02*
X99926Y-59733D01*
X100345Y-59315D01*
X100763Y-59733D01*
X100345Y-60151D01*
X100345Y-60151D01*
G37*
G54D39*
X75390Y-45775D03*
X76216Y-45775D03*
X75553Y-52938D03*
X75553Y-52112D03*
G54D10*
G36*
X76342Y-59733D02*
X76761Y-59315D01*
X77179Y-59733D01*
X76761Y-60151D01*
X76342Y-59733D01*
X76342Y-59733D01*
G37*
G36*
X76926Y-60317D02*
X77345Y-59899D01*
X77763Y-60317D01*
X77345Y-60736D01*
X76926Y-60317D01*
X76926Y-60317D01*
G37*
G36*
X92720Y-64525D02*
X92537Y-63963D01*
X93100Y-63780D01*
X93283Y-64343D01*
X92720Y-64525D01*
X92720Y-64525D01*
G37*
G36*
X93505Y-64270D02*
X93323Y-63708D01*
X93885Y-63525D01*
X94068Y-64087D01*
X93505Y-64270D01*
X93505Y-64270D01*
G37*
G54D40*
X96700Y-62100D03*
X96700Y-60900D03*
G54D41*
X87850Y-53450D03*
X89050Y-53450D03*
X80050Y-50050D03*
X81250Y-50050D03*
G54D40*
X93800Y-60900D03*
X93800Y-62100D03*
G54D42*
X84451Y-54747D03*
X84451Y-55003D03*
X84451Y-55259D03*
X84451Y-55515D03*
X86653Y-53983D03*
X84451Y-53979D03*
X84451Y-54235D03*
X84451Y-54491D03*
X86655Y-55771D03*
X86655Y-55515D03*
X86655Y-55259D03*
X86655Y-55003D03*
X86655Y-54747D03*
X86655Y-54491D03*
X84451Y-55771D03*
X86653Y-54235D03*
X84451Y-53723D03*
X84451Y-56027D03*
X86655Y-56027D03*
X86655Y-53723D03*
X84451Y-53468D03*
X84451Y-56282D03*
X86655Y-56282D03*
X86655Y-53468D03*
X84451Y-53212D03*
X84451Y-56538D03*
X86655Y-56538D03*
X86655Y-53212D03*
G54D32*
X78050Y-52350D03*
G54D33*
X77050Y-52350D03*
G54D32*
X78050Y-53350D03*
G54D33*
X77050Y-53350D03*
G54D43*
X76000Y-56275D03*
X101150Y-56275D03*
G54D44*
X97350Y-45975D03*
X79800Y-45975D03*
G54D45*
X78668Y-56249D03*
X79698Y-55219D03*
X78384Y-57696D03*
X77313Y-58768D03*
X97837Y-56884D03*
X96807Y-55854D03*
X99285Y-57168D03*
X100357Y-58239D03*
G54D46*
X82000Y-55843D03*
X82600Y-55843D03*
X82000Y-56157D03*
X82600Y-56157D03*
X82000Y-55528D03*
X82000Y-56472D03*
X82600Y-56472D03*
X82600Y-55528D03*
G54D47*
X97281Y-59428D03*
X94919Y-57972D03*
X97281Y-57972D03*
X94919Y-59428D03*
G54D48*
X85050Y-47350D03*
X85050Y-48350D03*
X85050Y-49350D03*
X85050Y-50350D03*
X85050Y-51350D03*
G54D49*
X81800Y-53850D03*
G54D50*
X81800Y-51250D03*
X80900Y-51250D03*
X82700Y-51250D03*
G54D41*
X83650Y-50050D03*
X82450Y-50050D03*
G54D46*
X77750Y-54543D03*
X78350Y-54543D03*
X77750Y-54857D03*
X78350Y-54857D03*
X77750Y-54228D03*
X77750Y-55172D03*
X78350Y-55172D03*
X78350Y-54228D03*
X88550Y-56207D03*
X87950Y-56207D03*
X88550Y-55893D03*
X87950Y-55893D03*
X88550Y-56522D03*
X88550Y-55578D03*
X87950Y-55578D03*
X87950Y-56522D03*
X78950Y-53443D03*
X79550Y-53443D03*
X78950Y-53757D03*
X79550Y-53757D03*
X78950Y-53128D03*
X78950Y-54072D03*
X79550Y-54072D03*
X79550Y-53128D03*
G54D51*
X81100Y-49000D03*
X81100Y-47200D03*
G54D52*
X77700Y-45802D03*
X77700Y-47298D03*
M02*
