M48
;DRILL file {Pcbnew (2013-07-07 BZR 4022)-stable} date 7/26/2015 5:03:55 PM
;FORMAT={-:-/ absolute / inch / decimal}
FMAT,2
INCH,TZ
T1C0.025
T2C0.032
T3C0.091
%
G90
G05
M72
T1
X7.5425Y-5.4675
X7.69Y-4.58
X7.72Y-5.4
X7.9Y-5.945
X7.988Y-5.266
X8.0075Y-4.9425
X8.016Y-5.31
X8.04Y-5.376
X8.068Y-5.408
X8.18Y-5.338
X8.182Y-4.596
X8.185Y-5.005
X8.224Y-6.182
X8.225Y-6.01
X8.23Y-5.8
X8.285Y-5.865
X8.308Y-4.6
X8.325Y-5.75
X8.335Y-5.409
X8.34Y-5.676
X8.365Y-5.18
X8.42Y-6.225
X8.445Y-5.865
X8.448Y-4.594
X8.475Y-5.74
X8.5Y-5.405
X8.51Y-5.5
X8.51Y-5.6
X8.52Y-5.74
X8.535Y-5.565
X8.545Y-5.41
X8.56Y-5.315
X8.565Y-5.53
X8.575Y-5.93
X8.59Y-5.405
X8.665Y-5.295
X8.71Y-5.84
X8.905Y-5.275
X8.99Y-4.952
X9.Y-5.49
X9.Y-5.54
X9.01Y-5.59
X9.015Y-5.41
X9.02Y-5.088
X9.04Y-6.006
X9.044Y-5.236
X9.162Y-5.236
X9.185Y-5.955
X9.188Y-4.804
X9.225Y-5.045
X9.245Y-5.145
X9.255Y-5.
X9.265Y-5.24
X9.2775Y-6.09
X9.335Y-5.51
X9.354Y-4.8
X9.382Y-4.76
X9.4Y-4.81
X9.415Y-5.925
X9.454Y-5.004
X9.506Y-4.764
X9.52Y-6.115
X9.59Y-5.09
X9.594Y-4.928
X9.62Y-5.13
X9.65Y-5.28
X9.672Y-4.774
X9.71Y-4.84
X9.712Y-4.742
X9.765Y-6.175
X9.78Y-4.905
X9.785Y-5.15
X9.81Y-5.115
X9.825Y-4.87
X9.83Y-5.885
X9.84Y-4.91
X9.86Y-5.115
X9.91Y-4.58
X9.93Y-5.865
X9.99Y-4.895
X10.035Y-4.92
X10.065Y-4.88
X10.115Y-5.245
X10.185Y-4.8
T2
X7.6Y-4.725
X7.6Y-4.825
X7.705Y-5.025
X7.705Y-5.125
X7.705Y-5.235
X7.705Y-5.335
X7.7053Y-4.8276
X7.7053Y-4.9276
X7.7313Y-5.8769
X7.805Y-5.025
X7.805Y-5.125
X7.805Y-5.235
X7.805Y-5.335
X7.8053Y-4.8276
X7.8053Y-4.9276
X7.8385Y-5.7697
X7.8669Y-5.6249
X7.905Y-5.025
X7.905Y-5.125
X7.9053Y-4.8276
X7.9053Y-4.9276
X7.9699Y-5.5219
X8.27Y-4.865
X8.37Y-4.865
X8.505Y-4.735
X8.505Y-4.835
X8.505Y-4.935
X8.505Y-5.035
X8.505Y-5.135
X8.6053Y-4.6026
X8.7053Y-4.6026
X8.8053Y-4.6026
X8.9053Y-4.6026
X9.0053Y-4.6026
X9.0651Y-4.7072
X9.0651Y-5.3572
X9.1053Y-4.6026
X9.1651Y-4.7072
X9.1651Y-5.3572
X9.2651Y-4.7072
X9.2651Y-5.3572
X9.2987Y-5.6613
X9.2987Y-5.8187
X9.3651Y-4.7072
X9.3651Y-5.3572
X9.4651Y-4.7072
X9.4651Y-5.3572
X9.5651Y-4.7072
X9.5651Y-5.3572
X9.6651Y-4.7072
X9.6651Y-5.3572
X9.6808Y-5.5854
X9.7651Y-4.7072
X9.7651Y-5.3572
X9.7838Y-5.6884
X9.8651Y-4.7072
X9.8651Y-5.3572
X9.9285Y-5.7168
X9.9651Y-4.7072
X9.9651Y-5.3572
X10.0357Y-5.824
X10.0651Y-4.7072
X10.0651Y-5.3572
X10.165Y-4.96
X10.165Y-5.06
X10.1651Y-4.7072
X10.1651Y-5.3572
T3
X7.6Y-5.6275
X7.98Y-4.5975
X9.735Y-4.5975
X10.115Y-5.6275
T0
M30
