G04 #@! TF.FileFunction,Copper,L1,Top,Signal*
%FSLAX46Y46*%
G04 Gerber Fmt 4.6, Leading zero omitted, Abs format (unit mm)*
G04 Created by KiCad (PCBNEW 4.0.2-stable) date 9/4/2016 3:07:33 AM*
%MOMM*%
G01*
G04 APERTURE LIST*
%ADD10C,0.100000*%
%ADD11R,1.250000X1.500000*%
%ADD12R,1.500000X1.250000*%
%ADD13R,0.762000X0.508000*%
%ADD14R,1.727200X2.032000*%
%ADD15O,1.727200X2.032000*%
%ADD16R,1.500000X1.300000*%
%ADD17R,0.508000X1.143000*%
%ADD18R,0.640000X1.270000*%
%ADD19R,5.600700X2.100580*%
%ADD20C,0.600000*%
%ADD21C,0.250000*%
G04 APERTURE END LIST*
D10*
D11*
X141750000Y-120250000D03*
X141750000Y-122750000D03*
X141750000Y-117750000D03*
X141750000Y-115250000D03*
D12*
X152750000Y-133500000D03*
X155250000Y-133500000D03*
X152750000Y-135750000D03*
X155250000Y-135750000D03*
X151250000Y-125500000D03*
X153750000Y-125500000D03*
X146250000Y-125500000D03*
X143750000Y-125500000D03*
D13*
X155250000Y-116788800D03*
X155250000Y-117500000D03*
X155250000Y-116077600D03*
X155250000Y-119750000D03*
X155250000Y-120461200D03*
X155250000Y-119038800D03*
X155250000Y-122750000D03*
X155250000Y-123461200D03*
X155250000Y-122038800D03*
D14*
X155290000Y-111750000D03*
D15*
X152750000Y-111750000D03*
X150210000Y-111750000D03*
X147670000Y-111750000D03*
X145130000Y-111750000D03*
X142590000Y-111750000D03*
D16*
X141900000Y-133500000D03*
X144600000Y-133500000D03*
X141900000Y-135750000D03*
X144600000Y-135750000D03*
D17*
X144900000Y-122850000D03*
X146170000Y-122850000D03*
X147440000Y-122850000D03*
X148710000Y-122850000D03*
X149980000Y-122850000D03*
X151250000Y-122850000D03*
X152520000Y-122850000D03*
X152520000Y-116500000D03*
X151250000Y-116500000D03*
X148710000Y-116500000D03*
X147440000Y-116500000D03*
X146170000Y-116500000D03*
X144900000Y-116500000D03*
X149980000Y-116500000D03*
D18*
X146375000Y-137835000D03*
X148275000Y-137835000D03*
X149225000Y-137835000D03*
X147325000Y-137835000D03*
X150175000Y-137835000D03*
X151125000Y-137835000D03*
D19*
X144151140Y-129500000D03*
X153848860Y-129500000D03*
D20*
X144000000Y-123000000D03*
X156500000Y-122000000D03*
X156500000Y-119000000D03*
X156500000Y-116000000D03*
X149553087Y-135468309D03*
X152750000Y-118500000D03*
X152750000Y-120000000D03*
X155250000Y-138000000D03*
X155750000Y-125500000D03*
X141750000Y-125500000D03*
X143500000Y-116250000D03*
X152500000Y-121500000D03*
X148500000Y-134249998D03*
X148500000Y-124750000D03*
X147300000Y-134250000D03*
X150750000Y-124000000D03*
D21*
X141750000Y-120250000D02*
X141750000Y-117750000D01*
X140700000Y-121700000D02*
X141950000Y-120450000D01*
X140700000Y-132450000D02*
X140700000Y-121700000D01*
X141950000Y-133700000D02*
X140700000Y-132450000D01*
X141900000Y-133500000D02*
X141750000Y-133500000D01*
X141900000Y-135750000D02*
X141900000Y-133500000D01*
X156500000Y-119000000D02*
X156500000Y-122000000D01*
X156500000Y-116000000D02*
X156500000Y-119000000D01*
X156500000Y-113250000D02*
X156500000Y-116000000D01*
X155160000Y-111910000D02*
X156500000Y-113250000D01*
X155160000Y-111750000D02*
X155160000Y-111910000D01*
X144000000Y-123000000D02*
X143000000Y-122000000D01*
X143000000Y-122000000D02*
X143000000Y-121625000D01*
X143000000Y-121625000D02*
X141750000Y-120375000D01*
X141750000Y-120375000D02*
X141750000Y-120250000D01*
X144000000Y-123000000D02*
X144750000Y-123000000D01*
X144750000Y-123000000D02*
X144900000Y-122850000D01*
X156500000Y-122000000D02*
X155288800Y-122000000D01*
X155288800Y-122000000D02*
X155250000Y-122038800D01*
X156500000Y-119000000D02*
X155288800Y-119000000D01*
X155288800Y-119000000D02*
X155250000Y-119038800D01*
X156500000Y-116000000D02*
X155327600Y-116000000D01*
X155327600Y-116000000D02*
X155250000Y-116077600D01*
X151125000Y-137835000D02*
X151125000Y-136875000D01*
X151125000Y-136875000D02*
X151250000Y-136750000D01*
X151250000Y-136750000D02*
X151650000Y-136750000D01*
X151650000Y-136750000D02*
X152900000Y-138000000D01*
X152900000Y-138000000D02*
X155250000Y-138000000D01*
X149553087Y-136621913D02*
X149553087Y-135892573D01*
X149225000Y-136950000D02*
X149553087Y-136621913D01*
X149553087Y-135892573D02*
X149553087Y-135468309D01*
X149225000Y-137835000D02*
X149225000Y-136950000D01*
X153631000Y-117619000D02*
X152750000Y-118500000D01*
X154500000Y-117619000D02*
X153631000Y-117619000D01*
X155250000Y-117500000D02*
X154619000Y-117500000D01*
X154619000Y-117500000D02*
X154500000Y-117619000D01*
X153211200Y-120461200D02*
X152750000Y-120000000D01*
X155250000Y-120461200D02*
X153211200Y-120461200D01*
X155250000Y-135750000D02*
X155250000Y-133500000D01*
X155250000Y-138000000D02*
X155250000Y-135750000D01*
X155750000Y-125500000D02*
X153750000Y-125500000D01*
X155750000Y-124465200D02*
X155750000Y-125500000D01*
X155250000Y-123461200D02*
X155250000Y-123965200D01*
X155250000Y-123965200D02*
X155750000Y-124465200D01*
X143750000Y-125500000D02*
X141750000Y-125500000D01*
X141750000Y-122750000D02*
X141750000Y-125500000D01*
X144900000Y-116500000D02*
X143750000Y-116500000D01*
X143750000Y-116500000D02*
X143500000Y-116250000D01*
X143500000Y-116125000D02*
X143500000Y-116250000D01*
X141750000Y-115250000D02*
X142625000Y-115250000D01*
X142625000Y-115250000D02*
X143500000Y-116125000D01*
X150175000Y-137036415D02*
X150175000Y-137835000D01*
X151461415Y-135750000D02*
X150175000Y-137036415D01*
X152750000Y-135750000D02*
X151461415Y-135750000D01*
X152750000Y-133500000D02*
X152750000Y-135750000D01*
X144600000Y-133500000D02*
X152750000Y-133500000D01*
X151250000Y-125500000D02*
X148324998Y-125500000D01*
X148324998Y-125500000D02*
X147440000Y-124615002D01*
X147440000Y-124615002D02*
X147440000Y-122850000D01*
X151250000Y-125500000D02*
X151250000Y-127250000D01*
X151250000Y-127250000D02*
X150449650Y-128050350D01*
X150449650Y-128050350D02*
X150449650Y-128199710D01*
X150449650Y-128199710D02*
X151749940Y-129500000D01*
X151749940Y-129500000D02*
X153500000Y-129500000D01*
X147440000Y-122850000D02*
X147440000Y-123167500D01*
X146170000Y-122850000D02*
X146170000Y-123671500D01*
X146170000Y-123671500D02*
X145841500Y-124000000D01*
X145841500Y-124000000D02*
X145500000Y-124000000D01*
X145500000Y-124000000D02*
X145000000Y-124500000D01*
X145000000Y-124500000D02*
X145000000Y-126250000D01*
X145500000Y-126500000D02*
X146250000Y-125750000D01*
X145000000Y-126250000D02*
X145250000Y-126500000D01*
X145250000Y-126500000D02*
X145500000Y-126500000D01*
X146250000Y-125750000D02*
X146250000Y-125500000D01*
X146250000Y-125500000D02*
X146250000Y-127052280D01*
X146250000Y-127052280D02*
X146852630Y-127654910D01*
X146852630Y-127654910D02*
X146852630Y-128199710D01*
X146852630Y-128199710D02*
X145552340Y-129500000D01*
X145552340Y-129500000D02*
X143802280Y-129500000D01*
X146170000Y-125420000D02*
X146250000Y-125500000D01*
X151250000Y-116500000D02*
X151250000Y-115500000D01*
X151250000Y-115500000D02*
X151500000Y-115250000D01*
X151500000Y-115250000D02*
X153000000Y-115250000D01*
X153000000Y-115250000D02*
X154538800Y-116788800D01*
X154538800Y-116788800D02*
X155250000Y-116788800D01*
X155250000Y-119750000D02*
X153500000Y-119750000D01*
X152000000Y-118750000D02*
X152000000Y-118000000D01*
X153500000Y-119750000D02*
X153000000Y-119250000D01*
X153000000Y-119250000D02*
X152500000Y-119250000D01*
X152500000Y-119250000D02*
X152000000Y-118750000D01*
X152000000Y-118000000D02*
X152520000Y-117480000D01*
X152520000Y-117480000D02*
X152520000Y-116500000D01*
X155250000Y-122750000D02*
X154500000Y-122750000D01*
X154500000Y-122750000D02*
X154000000Y-122250000D01*
X154000000Y-122250000D02*
X154000000Y-121250000D01*
X154000000Y-121250000D02*
X153750000Y-121000000D01*
X152550003Y-120625001D02*
X152375001Y-120625001D01*
X153750000Y-121000000D02*
X152925002Y-121000000D01*
X149980000Y-118230000D02*
X149980000Y-116500000D01*
X152925002Y-121000000D02*
X152550003Y-120625001D01*
X152375001Y-120625001D02*
X149980000Y-118230000D01*
X146170000Y-114420000D02*
X145250000Y-113500000D01*
X145130000Y-111750000D02*
X145130000Y-113380000D01*
X145130000Y-113380000D02*
X145250000Y-113500000D01*
X146170000Y-116500000D02*
X146170000Y-114420000D01*
X152500000Y-121500000D02*
X149000000Y-121500000D01*
X149000000Y-121500000D02*
X148710000Y-121790000D01*
X148710000Y-121790000D02*
X148710000Y-122850000D01*
X148750000Y-122810000D02*
X148710000Y-122850000D01*
X152500000Y-121500000D02*
X152500000Y-122830000D01*
X152500000Y-122830000D02*
X152520000Y-122850000D01*
X147670000Y-111750000D02*
X147670000Y-113330000D01*
X147670000Y-113330000D02*
X147440000Y-113560000D01*
X147440000Y-113560000D02*
X147440000Y-116500000D01*
X147540000Y-111880000D02*
X147670000Y-111750000D01*
X150210000Y-111750000D02*
X150210000Y-112886000D01*
X150210000Y-112886000D02*
X150080000Y-113016000D01*
X150080000Y-113016000D02*
X148710000Y-114386000D01*
X148710000Y-114386000D02*
X148710000Y-116500000D01*
X144600000Y-135750000D02*
X145600000Y-135750000D01*
X145600000Y-135750000D02*
X146375000Y-136525000D01*
X146375000Y-136525000D02*
X146375000Y-137835000D01*
X148275000Y-137835000D02*
X148275000Y-134474998D01*
X148275000Y-134474998D02*
X148500000Y-134249998D01*
X149980000Y-122850000D02*
X149980000Y-124230000D01*
X149980000Y-124230000D02*
X149460000Y-124750000D01*
X149460000Y-124750000D02*
X148500000Y-124750000D01*
X147325000Y-134275000D02*
X147300000Y-134250000D01*
X147325000Y-137835000D02*
X147325000Y-134275000D01*
X151000000Y-123921500D02*
X150828500Y-123921500D01*
X150828500Y-123921500D02*
X150750000Y-124000000D01*
X151250000Y-122850000D02*
X151250000Y-123671500D01*
X151250000Y-123671500D02*
X151000000Y-123921500D01*
M02*
