G04 #@! TF.FileFunction,Drawing*
%FSLAX46Y46*%
G04 Gerber Fmt 4.6, Leading zero omitted, Abs format (unit mm)*
G04 Created by KiCad (PCBNEW 4.0.2-stable) date 9/4/2016 3:07:34 AM*
%MOMM*%
G01*
G04 APERTURE LIST*
%ADD10C,0.100000*%
%ADD11C,0.300000*%
G04 APERTURE END LIST*
D10*
D11*
X132578571Y-131285713D02*
X132578571Y-130357142D01*
X133150000Y-130857142D01*
X133150000Y-130642856D01*
X133221429Y-130499999D01*
X133292857Y-130428570D01*
X133435714Y-130357142D01*
X133792857Y-130357142D01*
X133935714Y-130428570D01*
X134007143Y-130499999D01*
X134078571Y-130642856D01*
X134078571Y-131071428D01*
X134007143Y-131214285D01*
X133935714Y-131285713D01*
X132578571Y-129428571D02*
X132578571Y-129285714D01*
X132650000Y-129142857D01*
X132721429Y-129071428D01*
X132864286Y-128999999D01*
X133150000Y-128928571D01*
X133507143Y-128928571D01*
X133792857Y-128999999D01*
X133935714Y-129071428D01*
X134007143Y-129142857D01*
X134078571Y-129285714D01*
X134078571Y-129428571D01*
X134007143Y-129571428D01*
X133935714Y-129642857D01*
X133792857Y-129714285D01*
X133507143Y-129785714D01*
X133150000Y-129785714D01*
X132864286Y-129714285D01*
X132721429Y-129642857D01*
X132650000Y-129571428D01*
X132578571Y-129428571D01*
X133935714Y-128285714D02*
X134007143Y-128214286D01*
X134078571Y-128285714D01*
X134007143Y-128357143D01*
X133935714Y-128285714D01*
X134078571Y-128285714D01*
X132578571Y-127285714D02*
X132578571Y-127142857D01*
X132650000Y-127000000D01*
X132721429Y-126928571D01*
X132864286Y-126857142D01*
X133150000Y-126785714D01*
X133507143Y-126785714D01*
X133792857Y-126857142D01*
X133935714Y-126928571D01*
X134007143Y-127000000D01*
X134078571Y-127142857D01*
X134078571Y-127285714D01*
X134007143Y-127428571D01*
X133935714Y-127500000D01*
X133792857Y-127571428D01*
X133507143Y-127642857D01*
X133150000Y-127642857D01*
X132864286Y-127571428D01*
X132721429Y-127500000D01*
X132650000Y-127428571D01*
X132578571Y-127285714D01*
X132578571Y-125857143D02*
X132578571Y-125714286D01*
X132650000Y-125571429D01*
X132721429Y-125500000D01*
X132864286Y-125428571D01*
X133150000Y-125357143D01*
X133507143Y-125357143D01*
X133792857Y-125428571D01*
X133935714Y-125500000D01*
X134007143Y-125571429D01*
X134078571Y-125714286D01*
X134078571Y-125857143D01*
X134007143Y-126000000D01*
X133935714Y-126071429D01*
X133792857Y-126142857D01*
X133507143Y-126214286D01*
X133150000Y-126214286D01*
X132864286Y-126142857D01*
X132721429Y-126071429D01*
X132650000Y-126000000D01*
X132578571Y-125857143D01*
X132578571Y-124428572D02*
X132578571Y-124285715D01*
X132650000Y-124142858D01*
X132721429Y-124071429D01*
X132864286Y-124000000D01*
X133150000Y-123928572D01*
X133507143Y-123928572D01*
X133792857Y-124000000D01*
X133935714Y-124071429D01*
X134007143Y-124142858D01*
X134078571Y-124285715D01*
X134078571Y-124428572D01*
X134007143Y-124571429D01*
X133935714Y-124642858D01*
X133792857Y-124714286D01*
X133507143Y-124785715D01*
X133150000Y-124785715D01*
X132864286Y-124714286D01*
X132721429Y-124642858D01*
X132650000Y-124571429D01*
X132578571Y-124428572D01*
X134078571Y-122142858D02*
X133078571Y-122142858D01*
X133221429Y-122142858D02*
X133150000Y-122071430D01*
X133078571Y-121928572D01*
X133078571Y-121714287D01*
X133150000Y-121571430D01*
X133292857Y-121500001D01*
X134078571Y-121500001D01*
X133292857Y-121500001D02*
X133150000Y-121428572D01*
X133078571Y-121285715D01*
X133078571Y-121071430D01*
X133150000Y-120928572D01*
X133292857Y-120857144D01*
X134078571Y-120857144D01*
X134078571Y-120142858D02*
X133078571Y-120142858D01*
X133221429Y-120142858D02*
X133150000Y-120071430D01*
X133078571Y-119928572D01*
X133078571Y-119714287D01*
X133150000Y-119571430D01*
X133292857Y-119500001D01*
X134078571Y-119500001D01*
X133292857Y-119500001D02*
X133150000Y-119428572D01*
X133078571Y-119285715D01*
X133078571Y-119071430D01*
X133150000Y-118928572D01*
X133292857Y-118857144D01*
X134078571Y-118857144D01*
X134750000Y-140000000D02*
X134750000Y-110000000D01*
X140000000Y-140000000D02*
X132050000Y-140000000D01*
X140000000Y-110000000D02*
X132050000Y-110000000D01*
X134750000Y-110000000D02*
X135336421Y-111126504D01*
X134750000Y-110000000D02*
X134163579Y-111126504D01*
X134750000Y-140000000D02*
X135336421Y-138873496D01*
X134750000Y-140000000D02*
X134163579Y-138873496D01*
X143642858Y-104078571D02*
X142785715Y-104078571D01*
X143214287Y-104078571D02*
X143214287Y-102578571D01*
X143071430Y-102792857D01*
X142928572Y-102935714D01*
X142785715Y-103007143D01*
X144500001Y-103221429D02*
X144357143Y-103150000D01*
X144285715Y-103078571D01*
X144214286Y-102935714D01*
X144214286Y-102864286D01*
X144285715Y-102721429D01*
X144357143Y-102650000D01*
X144500001Y-102578571D01*
X144785715Y-102578571D01*
X144928572Y-102650000D01*
X145000001Y-102721429D01*
X145071429Y-102864286D01*
X145071429Y-102935714D01*
X145000001Y-103078571D01*
X144928572Y-103150000D01*
X144785715Y-103221429D01*
X144500001Y-103221429D01*
X144357143Y-103292857D01*
X144285715Y-103364286D01*
X144214286Y-103507143D01*
X144214286Y-103792857D01*
X144285715Y-103935714D01*
X144357143Y-104007143D01*
X144500001Y-104078571D01*
X144785715Y-104078571D01*
X144928572Y-104007143D01*
X145000001Y-103935714D01*
X145071429Y-103792857D01*
X145071429Y-103507143D01*
X145000001Y-103364286D01*
X144928572Y-103292857D01*
X144785715Y-103221429D01*
X145714286Y-103935714D02*
X145785714Y-104007143D01*
X145714286Y-104078571D01*
X145642857Y-104007143D01*
X145714286Y-103935714D01*
X145714286Y-104078571D01*
X146714286Y-102578571D02*
X146857143Y-102578571D01*
X147000000Y-102650000D01*
X147071429Y-102721429D01*
X147142858Y-102864286D01*
X147214286Y-103150000D01*
X147214286Y-103507143D01*
X147142858Y-103792857D01*
X147071429Y-103935714D01*
X147000000Y-104007143D01*
X146857143Y-104078571D01*
X146714286Y-104078571D01*
X146571429Y-104007143D01*
X146500000Y-103935714D01*
X146428572Y-103792857D01*
X146357143Y-103507143D01*
X146357143Y-103150000D01*
X146428572Y-102864286D01*
X146500000Y-102721429D01*
X146571429Y-102650000D01*
X146714286Y-102578571D01*
X148142857Y-102578571D02*
X148285714Y-102578571D01*
X148428571Y-102650000D01*
X148500000Y-102721429D01*
X148571429Y-102864286D01*
X148642857Y-103150000D01*
X148642857Y-103507143D01*
X148571429Y-103792857D01*
X148500000Y-103935714D01*
X148428571Y-104007143D01*
X148285714Y-104078571D01*
X148142857Y-104078571D01*
X148000000Y-104007143D01*
X147928571Y-103935714D01*
X147857143Y-103792857D01*
X147785714Y-103507143D01*
X147785714Y-103150000D01*
X147857143Y-102864286D01*
X147928571Y-102721429D01*
X148000000Y-102650000D01*
X148142857Y-102578571D01*
X149571428Y-102578571D02*
X149714285Y-102578571D01*
X149857142Y-102650000D01*
X149928571Y-102721429D01*
X150000000Y-102864286D01*
X150071428Y-103150000D01*
X150071428Y-103507143D01*
X150000000Y-103792857D01*
X149928571Y-103935714D01*
X149857142Y-104007143D01*
X149714285Y-104078571D01*
X149571428Y-104078571D01*
X149428571Y-104007143D01*
X149357142Y-103935714D01*
X149285714Y-103792857D01*
X149214285Y-103507143D01*
X149214285Y-103150000D01*
X149285714Y-102864286D01*
X149357142Y-102721429D01*
X149428571Y-102650000D01*
X149571428Y-102578571D01*
X151857142Y-104078571D02*
X151857142Y-103078571D01*
X151857142Y-103221429D02*
X151928570Y-103150000D01*
X152071428Y-103078571D01*
X152285713Y-103078571D01*
X152428570Y-103150000D01*
X152499999Y-103292857D01*
X152499999Y-104078571D01*
X152499999Y-103292857D02*
X152571428Y-103150000D01*
X152714285Y-103078571D01*
X152928570Y-103078571D01*
X153071428Y-103150000D01*
X153142856Y-103292857D01*
X153142856Y-104078571D01*
X153857142Y-104078571D02*
X153857142Y-103078571D01*
X153857142Y-103221429D02*
X153928570Y-103150000D01*
X154071428Y-103078571D01*
X154285713Y-103078571D01*
X154428570Y-103150000D01*
X154499999Y-103292857D01*
X154499999Y-104078571D01*
X154499999Y-103292857D02*
X154571428Y-103150000D01*
X154714285Y-103078571D01*
X154928570Y-103078571D01*
X155071428Y-103150000D01*
X155142856Y-103292857D01*
X155142856Y-104078571D01*
X140000000Y-104750000D02*
X158000000Y-104750000D01*
X140000000Y-110000000D02*
X140000000Y-102050000D01*
X158000000Y-110000000D02*
X158000000Y-102050000D01*
X158000000Y-104750000D02*
X156873496Y-105336421D01*
X158000000Y-104750000D02*
X156873496Y-104163579D01*
X140000000Y-104750000D02*
X141126504Y-105336421D01*
X140000000Y-104750000D02*
X141126504Y-104163579D01*
M02*
