G04 #@! TF.FileFunction,Drawing*
%FSLAX46Y46*%
G04 Gerber Fmt 4.6, Leading zero omitted, Abs format (unit mm)*
G04 Created by KiCad (PCBNEW 4.0.2-stable) date 9/4/2016 3:00:48 AM*
%MOMM*%
G01*
G04 APERTURE LIST*
%ADD10C,0.100000*%
%ADD11C,0.300000*%
G04 APERTURE END LIST*
D10*
D11*
X110211319Y-110434285D02*
X110139890Y-110362856D01*
X110068461Y-110219999D01*
X110068461Y-109862856D01*
X110139890Y-109719999D01*
X110211319Y-109648570D01*
X110354176Y-109577142D01*
X110497033Y-109577142D01*
X110711319Y-109648570D01*
X111568461Y-110505713D01*
X111568461Y-109577142D01*
X110068461Y-108648571D02*
X110068461Y-108505714D01*
X110139890Y-108362857D01*
X110211319Y-108291428D01*
X110354176Y-108219999D01*
X110639890Y-108148571D01*
X110997033Y-108148571D01*
X111282747Y-108219999D01*
X111425604Y-108291428D01*
X111497033Y-108362857D01*
X111568461Y-108505714D01*
X111568461Y-108648571D01*
X111497033Y-108791428D01*
X111425604Y-108862857D01*
X111282747Y-108934285D01*
X110997033Y-109005714D01*
X110639890Y-109005714D01*
X110354176Y-108934285D01*
X110211319Y-108862857D01*
X110139890Y-108791428D01*
X110068461Y-108648571D01*
X111425604Y-107505714D02*
X111497033Y-107434286D01*
X111568461Y-107505714D01*
X111497033Y-107577143D01*
X111425604Y-107505714D01*
X111568461Y-107505714D01*
X110068461Y-106505714D02*
X110068461Y-106362857D01*
X110139890Y-106220000D01*
X110211319Y-106148571D01*
X110354176Y-106077142D01*
X110639890Y-106005714D01*
X110997033Y-106005714D01*
X111282747Y-106077142D01*
X111425604Y-106148571D01*
X111497033Y-106220000D01*
X111568461Y-106362857D01*
X111568461Y-106505714D01*
X111497033Y-106648571D01*
X111425604Y-106720000D01*
X111282747Y-106791428D01*
X110997033Y-106862857D01*
X110639890Y-106862857D01*
X110354176Y-106791428D01*
X110211319Y-106720000D01*
X110139890Y-106648571D01*
X110068461Y-106505714D01*
X110068461Y-105077143D02*
X110068461Y-104934286D01*
X110139890Y-104791429D01*
X110211319Y-104720000D01*
X110354176Y-104648571D01*
X110639890Y-104577143D01*
X110997033Y-104577143D01*
X111282747Y-104648571D01*
X111425604Y-104720000D01*
X111497033Y-104791429D01*
X111568461Y-104934286D01*
X111568461Y-105077143D01*
X111497033Y-105220000D01*
X111425604Y-105291429D01*
X111282747Y-105362857D01*
X110997033Y-105434286D01*
X110639890Y-105434286D01*
X110354176Y-105362857D01*
X110211319Y-105291429D01*
X110139890Y-105220000D01*
X110068461Y-105077143D01*
X110068461Y-103648572D02*
X110068461Y-103505715D01*
X110139890Y-103362858D01*
X110211319Y-103291429D01*
X110354176Y-103220000D01*
X110639890Y-103148572D01*
X110997033Y-103148572D01*
X111282747Y-103220000D01*
X111425604Y-103291429D01*
X111497033Y-103362858D01*
X111568461Y-103505715D01*
X111568461Y-103648572D01*
X111497033Y-103791429D01*
X111425604Y-103862858D01*
X111282747Y-103934286D01*
X110997033Y-104005715D01*
X110639890Y-104005715D01*
X110354176Y-103934286D01*
X110211319Y-103862858D01*
X110139890Y-103791429D01*
X110068461Y-103648572D01*
X111568461Y-101362858D02*
X110568461Y-101362858D01*
X110711319Y-101362858D02*
X110639890Y-101291430D01*
X110568461Y-101148572D01*
X110568461Y-100934287D01*
X110639890Y-100791430D01*
X110782747Y-100720001D01*
X111568461Y-100720001D01*
X110782747Y-100720001D02*
X110639890Y-100648572D01*
X110568461Y-100505715D01*
X110568461Y-100291430D01*
X110639890Y-100148572D01*
X110782747Y-100077144D01*
X111568461Y-100077144D01*
X111568461Y-99362858D02*
X110568461Y-99362858D01*
X110711319Y-99362858D02*
X110639890Y-99291430D01*
X110568461Y-99148572D01*
X110568461Y-98934287D01*
X110639890Y-98791430D01*
X110782747Y-98720001D01*
X111568461Y-98720001D01*
X110782747Y-98720001D02*
X110639890Y-98648572D01*
X110568461Y-98505715D01*
X110568461Y-98291430D01*
X110639890Y-98148572D01*
X110782747Y-98077144D01*
X111568461Y-98077144D01*
X112239890Y-114220000D02*
X112239890Y-94220000D01*
X123239890Y-114220000D02*
X109539890Y-114220000D01*
X123239890Y-94220000D02*
X109539890Y-94220000D01*
X112239890Y-94220000D02*
X112826311Y-95346504D01*
X112239890Y-94220000D02*
X111653469Y-95346504D01*
X112239890Y-114220000D02*
X112826311Y-113093496D01*
X112239890Y-114220000D02*
X111653469Y-113093496D01*
X138500001Y-86873453D02*
X138500001Y-87873453D01*
X138142858Y-86302025D02*
X137785715Y-87373453D01*
X138714287Y-87373453D01*
X139571429Y-86373453D02*
X139714286Y-86373453D01*
X139857143Y-86444882D01*
X139928572Y-86516311D01*
X140000001Y-86659168D01*
X140071429Y-86944882D01*
X140071429Y-87302025D01*
X140000001Y-87587739D01*
X139928572Y-87730596D01*
X139857143Y-87802025D01*
X139714286Y-87873453D01*
X139571429Y-87873453D01*
X139428572Y-87802025D01*
X139357143Y-87730596D01*
X139285715Y-87587739D01*
X139214286Y-87302025D01*
X139214286Y-86944882D01*
X139285715Y-86659168D01*
X139357143Y-86516311D01*
X139428572Y-86444882D01*
X139571429Y-86373453D01*
X140714286Y-87730596D02*
X140785714Y-87802025D01*
X140714286Y-87873453D01*
X140642857Y-87802025D01*
X140714286Y-87730596D01*
X140714286Y-87873453D01*
X141714286Y-86373453D02*
X141857143Y-86373453D01*
X142000000Y-86444882D01*
X142071429Y-86516311D01*
X142142858Y-86659168D01*
X142214286Y-86944882D01*
X142214286Y-87302025D01*
X142142858Y-87587739D01*
X142071429Y-87730596D01*
X142000000Y-87802025D01*
X141857143Y-87873453D01*
X141714286Y-87873453D01*
X141571429Y-87802025D01*
X141500000Y-87730596D01*
X141428572Y-87587739D01*
X141357143Y-87302025D01*
X141357143Y-86944882D01*
X141428572Y-86659168D01*
X141500000Y-86516311D01*
X141571429Y-86444882D01*
X141714286Y-86373453D01*
X143142857Y-86373453D02*
X143285714Y-86373453D01*
X143428571Y-86444882D01*
X143500000Y-86516311D01*
X143571429Y-86659168D01*
X143642857Y-86944882D01*
X143642857Y-87302025D01*
X143571429Y-87587739D01*
X143500000Y-87730596D01*
X143428571Y-87802025D01*
X143285714Y-87873453D01*
X143142857Y-87873453D01*
X143000000Y-87802025D01*
X142928571Y-87730596D01*
X142857143Y-87587739D01*
X142785714Y-87302025D01*
X142785714Y-86944882D01*
X142857143Y-86659168D01*
X142928571Y-86516311D01*
X143000000Y-86444882D01*
X143142857Y-86373453D01*
X144571428Y-86373453D02*
X144714285Y-86373453D01*
X144857142Y-86444882D01*
X144928571Y-86516311D01*
X145000000Y-86659168D01*
X145071428Y-86944882D01*
X145071428Y-87302025D01*
X145000000Y-87587739D01*
X144928571Y-87730596D01*
X144857142Y-87802025D01*
X144714285Y-87873453D01*
X144571428Y-87873453D01*
X144428571Y-87802025D01*
X144357142Y-87730596D01*
X144285714Y-87587739D01*
X144214285Y-87302025D01*
X144214285Y-86944882D01*
X144285714Y-86659168D01*
X144357142Y-86516311D01*
X144428571Y-86444882D01*
X144571428Y-86373453D01*
X146857142Y-87873453D02*
X146857142Y-86873453D01*
X146857142Y-87016311D02*
X146928570Y-86944882D01*
X147071428Y-86873453D01*
X147285713Y-86873453D01*
X147428570Y-86944882D01*
X147499999Y-87087739D01*
X147499999Y-87873453D01*
X147499999Y-87087739D02*
X147571428Y-86944882D01*
X147714285Y-86873453D01*
X147928570Y-86873453D01*
X148071428Y-86944882D01*
X148142856Y-87087739D01*
X148142856Y-87873453D01*
X148857142Y-87873453D02*
X148857142Y-86873453D01*
X148857142Y-87016311D02*
X148928570Y-86944882D01*
X149071428Y-86873453D01*
X149285713Y-86873453D01*
X149428570Y-86944882D01*
X149499999Y-87087739D01*
X149499999Y-87873453D01*
X149499999Y-87087739D02*
X149571428Y-86944882D01*
X149714285Y-86873453D01*
X149928570Y-86873453D01*
X150071428Y-86944882D01*
X150142856Y-87087739D01*
X150142856Y-87873453D01*
X124000000Y-88544882D02*
X164000000Y-88544882D01*
X124000000Y-93544882D02*
X124000000Y-85844882D01*
X164000000Y-93544882D02*
X164000000Y-85844882D01*
X164000000Y-88544882D02*
X162873496Y-89131303D01*
X164000000Y-88544882D02*
X162873496Y-87958461D01*
X124000000Y-88544882D02*
X125126504Y-89131303D01*
X124000000Y-88544882D02*
X125126504Y-87958461D01*
M02*
