G04 #@! TF.FileFunction,Copper,L2,Bot,Signal*
%FSLAX46Y46*%
G04 Gerber Fmt 4.6, Leading zero omitted, Abs format (unit mm)*
G04 Created by KiCad (PCBNEW 4.0.2-stable) date 9/4/2016 3:00:48 AM*
%MOMM*%
G01*
G04 APERTURE LIST*
%ADD10C,0.100000*%
%ADD11C,1.699260*%
%ADD12R,1.699260X1.699260*%
%ADD13C,1.998980*%
%ADD14C,4.000000*%
%ADD15R,4.000000X4.000000*%
%ADD16R,2.032000X1.727200*%
%ADD17O,2.032000X1.727200*%
%ADD18C,0.600000*%
%ADD19C,0.250000*%
%ADD20C,1.000000*%
%ADD21C,0.254000*%
G04 APERTURE END LIST*
D10*
D11*
X130810000Y-99060000D03*
D12*
X130810000Y-109220000D03*
D11*
X137160000Y-99060000D03*
D12*
X137160000Y-109220000D03*
D13*
X133985000Y-109220000D03*
X133985000Y-99060000D03*
D14*
X148590000Y-101220000D03*
D15*
X148590000Y-107220000D03*
D16*
X127000000Y-109220000D03*
D17*
X127000000Y-106680000D03*
X127000000Y-104140000D03*
D16*
X160655000Y-109982000D03*
D17*
X160655000Y-107442000D03*
X160655000Y-104902000D03*
D18*
X161500000Y-102220000D03*
X161500000Y-100220000D03*
X161500000Y-97970000D03*
X160000000Y-96470000D03*
X158000000Y-96470000D03*
X156000000Y-96470000D03*
X154000000Y-96470000D03*
X152000000Y-96470000D03*
X150000000Y-96470000D03*
X148000000Y-96470000D03*
X146000000Y-96470000D03*
X143750000Y-96470000D03*
X141750000Y-96470000D03*
X139750000Y-96470000D03*
X137750000Y-96470000D03*
X135750000Y-96470000D03*
X133750000Y-96470000D03*
X131750000Y-96470000D03*
X129750000Y-96470000D03*
X127750000Y-96470000D03*
X126500000Y-97720000D03*
X126500000Y-99470000D03*
X126500000Y-101220000D03*
X134000000Y-101720000D03*
X132000000Y-101720000D03*
X130750000Y-102970000D03*
X130750000Y-104970000D03*
X130750000Y-106720000D03*
D19*
X161500000Y-97970000D02*
X161500000Y-100220000D01*
X156000000Y-96470000D02*
X158000000Y-96470000D01*
X152000000Y-96470000D02*
X154000000Y-96470000D01*
X148000000Y-96470000D02*
X150000000Y-96470000D01*
X143750000Y-96470000D02*
X146000000Y-96470000D01*
X139750000Y-96470000D02*
X141750000Y-96470000D01*
X135750000Y-96470000D02*
X137750000Y-96470000D01*
X131750000Y-96470000D02*
X133750000Y-96470000D01*
X127750000Y-96470000D02*
X129750000Y-96470000D01*
X126500000Y-99470000D02*
X126500000Y-97720000D01*
X126500000Y-101220000D02*
X126500000Y-99470000D01*
X132000000Y-101720000D02*
X134000000Y-101720000D01*
X130750000Y-104970000D02*
X130750000Y-102970000D01*
X127000000Y-106680000D02*
X130710000Y-106680000D01*
X130710000Y-106680000D02*
X130750000Y-106720000D01*
X160655000Y-107442000D02*
X158528000Y-107442000D01*
X158528000Y-107442000D02*
X154500000Y-111470000D01*
X154500000Y-111470000D02*
X131960370Y-111470000D01*
X131960370Y-111470000D02*
X130810000Y-110319630D01*
X130810000Y-110319630D02*
X130810000Y-109220000D01*
X160500000Y-111220000D02*
X160530600Y-111220000D01*
D20*
X160530600Y-111220000D02*
X160655000Y-111095600D01*
X160655000Y-111095600D02*
X160655000Y-109982000D01*
X158500000Y-113220000D02*
X160500000Y-111220000D01*
X129000000Y-113220000D02*
X158500000Y-113220000D01*
X127000000Y-111220000D02*
X129000000Y-113220000D01*
X127000000Y-109220000D02*
X127000000Y-111220000D01*
D21*
G36*
X162873000Y-95772606D02*
X162873000Y-104667394D01*
X162447394Y-105093000D01*
X155500000Y-105093000D01*
X155450590Y-105103006D01*
X155405079Y-105135626D01*
X153407567Y-107382827D01*
X150697394Y-110093000D01*
X138644180Y-110093000D01*
X138648913Y-110069630D01*
X138648913Y-108370370D01*
X138605193Y-108138018D01*
X138467873Y-107924617D01*
X138258347Y-107781453D01*
X138009630Y-107731087D01*
X136310370Y-107731087D01*
X136078018Y-107774807D01*
X135864617Y-107912127D01*
X135721453Y-108121653D01*
X135671087Y-108370370D01*
X135671087Y-110069630D01*
X135675484Y-110093000D01*
X135383636Y-110093000D01*
X135611207Y-109544948D01*
X135611772Y-108897890D01*
X135364675Y-108299871D01*
X134907536Y-107841933D01*
X134309948Y-107593793D01*
X133662890Y-107593228D01*
X133377000Y-107711356D01*
X133377000Y-105220000D01*
X145950717Y-105220000D01*
X145950717Y-109220000D01*
X145994437Y-109452352D01*
X146131757Y-109665753D01*
X146341283Y-109808917D01*
X146590000Y-109859283D01*
X150590000Y-109859283D01*
X150822352Y-109815563D01*
X151035753Y-109678243D01*
X151178917Y-109468717D01*
X151229283Y-109220000D01*
X151229283Y-105220000D01*
X151185563Y-104987648D01*
X151048243Y-104774247D01*
X150838717Y-104631083D01*
X150590000Y-104580717D01*
X146590000Y-104580717D01*
X146357648Y-104624437D01*
X146144247Y-104761757D01*
X146001083Y-104971283D01*
X145950717Y-105220000D01*
X133377000Y-105220000D01*
X133377000Y-104772606D01*
X133722484Y-104427122D01*
X159089667Y-104427122D01*
X159192008Y-104654000D01*
X160407000Y-104654000D01*
X160407000Y-103576117D01*
X160903000Y-103576117D01*
X160903000Y-104654000D01*
X162117992Y-104654000D01*
X162220333Y-104427122D01*
X162063067Y-104107873D01*
X161663586Y-103687799D01*
X161133758Y-103452576D01*
X160903000Y-103576117D01*
X160407000Y-103576117D01*
X160176242Y-103452576D01*
X159646414Y-103687799D01*
X159246933Y-104107873D01*
X159089667Y-104427122D01*
X133722484Y-104427122D01*
X133802606Y-104347000D01*
X136000000Y-104347000D01*
X136049410Y-104336994D01*
X136091035Y-104308553D01*
X136118315Y-104266159D01*
X136127000Y-104220000D01*
X136127000Y-103169841D01*
X146990884Y-103169841D01*
X147223036Y-103523387D01*
X148208558Y-103871167D01*
X149252151Y-103815330D01*
X149956964Y-103523387D01*
X150189116Y-103169841D01*
X148590000Y-101570725D01*
X146990884Y-103169841D01*
X136127000Y-103169841D01*
X136127000Y-100838558D01*
X145938833Y-100838558D01*
X145994670Y-101882151D01*
X146286613Y-102586964D01*
X146640159Y-102819116D01*
X148239275Y-101220000D01*
X148940725Y-101220000D01*
X150539841Y-102819116D01*
X150893387Y-102586964D01*
X151241167Y-101601442D01*
X151185330Y-100557849D01*
X150893387Y-99853036D01*
X150539841Y-99620884D01*
X148940725Y-101220000D01*
X148239275Y-101220000D01*
X146640159Y-99620884D01*
X146286613Y-99853036D01*
X145938833Y-100838558D01*
X136127000Y-100838558D01*
X136127000Y-100115291D01*
X136322464Y-100311096D01*
X136864992Y-100536373D01*
X137452431Y-100536886D01*
X137995351Y-100312556D01*
X138411096Y-99897536D01*
X138636373Y-99355008D01*
X138636447Y-99270159D01*
X146990884Y-99270159D01*
X148590000Y-100869275D01*
X150189116Y-99270159D01*
X149956964Y-98916613D01*
X148971442Y-98568833D01*
X147927849Y-98624670D01*
X147223036Y-98916613D01*
X146990884Y-99270159D01*
X138636447Y-99270159D01*
X138636886Y-98767569D01*
X138412556Y-98224649D01*
X137997536Y-97808904D01*
X137455008Y-97583627D01*
X136867569Y-97583114D01*
X136324649Y-97807444D01*
X136127000Y-98004748D01*
X136127000Y-97470000D01*
X136116994Y-97420590D01*
X136088553Y-97378965D01*
X136046159Y-97351685D01*
X136000000Y-97343000D01*
X130500000Y-97343000D01*
X130450590Y-97353006D01*
X130410197Y-97380197D01*
X129988795Y-97801599D01*
X129974649Y-97807444D01*
X129558904Y-98222464D01*
X129552495Y-98237899D01*
X127910197Y-99880197D01*
X127882334Y-99922211D01*
X127873000Y-99970000D01*
X127873000Y-102865604D01*
X127478758Y-102690576D01*
X127248000Y-102814117D01*
X127248000Y-103892000D01*
X127268000Y-103892000D01*
X127268000Y-104388000D01*
X127248000Y-104388000D01*
X127248000Y-104408000D01*
X126752000Y-104408000D01*
X126752000Y-104388000D01*
X125537008Y-104388000D01*
X125434667Y-104614878D01*
X125591933Y-104934127D01*
X125743018Y-105093000D01*
X125127000Y-105093000D01*
X125127000Y-103665122D01*
X125434667Y-103665122D01*
X125537008Y-103892000D01*
X126752000Y-103892000D01*
X126752000Y-102814117D01*
X126521242Y-102690576D01*
X125991414Y-102925799D01*
X125591933Y-103345873D01*
X125434667Y-103665122D01*
X125127000Y-103665122D01*
X125127000Y-95772606D01*
X125552606Y-95347000D01*
X162447394Y-95347000D01*
X162873000Y-95772606D01*
X162873000Y-95772606D01*
G37*
X162873000Y-95772606D02*
X162873000Y-104667394D01*
X162447394Y-105093000D01*
X155500000Y-105093000D01*
X155450590Y-105103006D01*
X155405079Y-105135626D01*
X153407567Y-107382827D01*
X150697394Y-110093000D01*
X138644180Y-110093000D01*
X138648913Y-110069630D01*
X138648913Y-108370370D01*
X138605193Y-108138018D01*
X138467873Y-107924617D01*
X138258347Y-107781453D01*
X138009630Y-107731087D01*
X136310370Y-107731087D01*
X136078018Y-107774807D01*
X135864617Y-107912127D01*
X135721453Y-108121653D01*
X135671087Y-108370370D01*
X135671087Y-110069630D01*
X135675484Y-110093000D01*
X135383636Y-110093000D01*
X135611207Y-109544948D01*
X135611772Y-108897890D01*
X135364675Y-108299871D01*
X134907536Y-107841933D01*
X134309948Y-107593793D01*
X133662890Y-107593228D01*
X133377000Y-107711356D01*
X133377000Y-105220000D01*
X145950717Y-105220000D01*
X145950717Y-109220000D01*
X145994437Y-109452352D01*
X146131757Y-109665753D01*
X146341283Y-109808917D01*
X146590000Y-109859283D01*
X150590000Y-109859283D01*
X150822352Y-109815563D01*
X151035753Y-109678243D01*
X151178917Y-109468717D01*
X151229283Y-109220000D01*
X151229283Y-105220000D01*
X151185563Y-104987648D01*
X151048243Y-104774247D01*
X150838717Y-104631083D01*
X150590000Y-104580717D01*
X146590000Y-104580717D01*
X146357648Y-104624437D01*
X146144247Y-104761757D01*
X146001083Y-104971283D01*
X145950717Y-105220000D01*
X133377000Y-105220000D01*
X133377000Y-104772606D01*
X133722484Y-104427122D01*
X159089667Y-104427122D01*
X159192008Y-104654000D01*
X160407000Y-104654000D01*
X160407000Y-103576117D01*
X160903000Y-103576117D01*
X160903000Y-104654000D01*
X162117992Y-104654000D01*
X162220333Y-104427122D01*
X162063067Y-104107873D01*
X161663586Y-103687799D01*
X161133758Y-103452576D01*
X160903000Y-103576117D01*
X160407000Y-103576117D01*
X160176242Y-103452576D01*
X159646414Y-103687799D01*
X159246933Y-104107873D01*
X159089667Y-104427122D01*
X133722484Y-104427122D01*
X133802606Y-104347000D01*
X136000000Y-104347000D01*
X136049410Y-104336994D01*
X136091035Y-104308553D01*
X136118315Y-104266159D01*
X136127000Y-104220000D01*
X136127000Y-103169841D01*
X146990884Y-103169841D01*
X147223036Y-103523387D01*
X148208558Y-103871167D01*
X149252151Y-103815330D01*
X149956964Y-103523387D01*
X150189116Y-103169841D01*
X148590000Y-101570725D01*
X146990884Y-103169841D01*
X136127000Y-103169841D01*
X136127000Y-100838558D01*
X145938833Y-100838558D01*
X145994670Y-101882151D01*
X146286613Y-102586964D01*
X146640159Y-102819116D01*
X148239275Y-101220000D01*
X148940725Y-101220000D01*
X150539841Y-102819116D01*
X150893387Y-102586964D01*
X151241167Y-101601442D01*
X151185330Y-100557849D01*
X150893387Y-99853036D01*
X150539841Y-99620884D01*
X148940725Y-101220000D01*
X148239275Y-101220000D01*
X146640159Y-99620884D01*
X146286613Y-99853036D01*
X145938833Y-100838558D01*
X136127000Y-100838558D01*
X136127000Y-100115291D01*
X136322464Y-100311096D01*
X136864992Y-100536373D01*
X137452431Y-100536886D01*
X137995351Y-100312556D01*
X138411096Y-99897536D01*
X138636373Y-99355008D01*
X138636447Y-99270159D01*
X146990884Y-99270159D01*
X148590000Y-100869275D01*
X150189116Y-99270159D01*
X149956964Y-98916613D01*
X148971442Y-98568833D01*
X147927849Y-98624670D01*
X147223036Y-98916613D01*
X146990884Y-99270159D01*
X138636447Y-99270159D01*
X138636886Y-98767569D01*
X138412556Y-98224649D01*
X137997536Y-97808904D01*
X137455008Y-97583627D01*
X136867569Y-97583114D01*
X136324649Y-97807444D01*
X136127000Y-98004748D01*
X136127000Y-97470000D01*
X136116994Y-97420590D01*
X136088553Y-97378965D01*
X136046159Y-97351685D01*
X136000000Y-97343000D01*
X130500000Y-97343000D01*
X130450590Y-97353006D01*
X130410197Y-97380197D01*
X129988795Y-97801599D01*
X129974649Y-97807444D01*
X129558904Y-98222464D01*
X129552495Y-98237899D01*
X127910197Y-99880197D01*
X127882334Y-99922211D01*
X127873000Y-99970000D01*
X127873000Y-102865604D01*
X127478758Y-102690576D01*
X127248000Y-102814117D01*
X127248000Y-103892000D01*
X127268000Y-103892000D01*
X127268000Y-104388000D01*
X127248000Y-104388000D01*
X127248000Y-104408000D01*
X126752000Y-104408000D01*
X126752000Y-104388000D01*
X125537008Y-104388000D01*
X125434667Y-104614878D01*
X125591933Y-104934127D01*
X125743018Y-105093000D01*
X125127000Y-105093000D01*
X125127000Y-103665122D01*
X125434667Y-103665122D01*
X125537008Y-103892000D01*
X126752000Y-103892000D01*
X126752000Y-102814117D01*
X126521242Y-102690576D01*
X125991414Y-102925799D01*
X125591933Y-103345873D01*
X125434667Y-103665122D01*
X125127000Y-103665122D01*
X125127000Y-95772606D01*
X125552606Y-95347000D01*
X162447394Y-95347000D01*
X162873000Y-95772606D01*
G36*
X134349868Y-99045858D02*
X134335725Y-99060000D01*
X135207576Y-99931851D01*
X135373000Y-99859857D01*
X135373000Y-103167394D01*
X134947394Y-103593000D01*
X133000000Y-103593000D01*
X132950590Y-103603006D01*
X132909663Y-103630735D01*
X132243663Y-104304735D01*
X132216051Y-104346914D01*
X132207000Y-104394000D01*
X132207000Y-107135394D01*
X131773394Y-107569000D01*
X129794000Y-107569000D01*
X129790163Y-107569058D01*
X128998082Y-107593000D01*
X128295021Y-107593000D01*
X128408067Y-107474127D01*
X128565333Y-107154878D01*
X128462992Y-106928000D01*
X127248000Y-106928000D01*
X127248000Y-106948000D01*
X126752000Y-106948000D01*
X126752000Y-106928000D01*
X126732000Y-106928000D01*
X126732000Y-106432000D01*
X126752000Y-106432000D01*
X126752000Y-106412000D01*
X127248000Y-106412000D01*
X127248000Y-106432000D01*
X128462992Y-106432000D01*
X128565333Y-106205122D01*
X128408067Y-105885873D01*
X128371100Y-105847000D01*
X128750000Y-105847000D01*
X128799410Y-105836994D01*
X128841035Y-105808553D01*
X128868315Y-105766159D01*
X128876980Y-105722250D01*
X128904980Y-104142250D01*
X128905000Y-104140000D01*
X128905000Y-100382606D01*
X129114751Y-100172855D01*
X130047870Y-100172855D01*
X130137779Y-100407156D01*
X130704483Y-100561857D01*
X131287251Y-100487915D01*
X131482221Y-100407156D01*
X131530026Y-100282576D01*
X133113149Y-100282576D01*
X133221841Y-100532321D01*
X133843366Y-100712296D01*
X134486453Y-100640723D01*
X134748159Y-100532321D01*
X134856851Y-100282576D01*
X133985000Y-99410725D01*
X133113149Y-100282576D01*
X131530026Y-100282576D01*
X131572130Y-100172855D01*
X130810000Y-99410725D01*
X130047870Y-100172855D01*
X129114751Y-100172855D01*
X129529722Y-99757884D01*
X129697145Y-99822130D01*
X130459275Y-99060000D01*
X130445133Y-99045858D01*
X130795858Y-98695133D01*
X130810000Y-98709275D01*
X130824143Y-98695133D01*
X131174868Y-99045858D01*
X131160725Y-99060000D01*
X131922855Y-99822130D01*
X132157156Y-99732221D01*
X132181197Y-99644152D01*
X132425020Y-99822504D01*
X132470807Y-99843599D01*
X132521194Y-99845219D01*
X132543573Y-99836604D01*
X132762424Y-99931851D01*
X133634275Y-99060000D01*
X133620133Y-99045858D01*
X133970858Y-98695133D01*
X133985000Y-98709275D01*
X133999143Y-98695133D01*
X134349868Y-99045858D01*
X134349868Y-99045858D01*
G37*
X134349868Y-99045858D02*
X134335725Y-99060000D01*
X135207576Y-99931851D01*
X135373000Y-99859857D01*
X135373000Y-103167394D01*
X134947394Y-103593000D01*
X133000000Y-103593000D01*
X132950590Y-103603006D01*
X132909663Y-103630735D01*
X132243663Y-104304735D01*
X132216051Y-104346914D01*
X132207000Y-104394000D01*
X132207000Y-107135394D01*
X131773394Y-107569000D01*
X129794000Y-107569000D01*
X129790163Y-107569058D01*
X128998082Y-107593000D01*
X128295021Y-107593000D01*
X128408067Y-107474127D01*
X128565333Y-107154878D01*
X128462992Y-106928000D01*
X127248000Y-106928000D01*
X127248000Y-106948000D01*
X126752000Y-106948000D01*
X126752000Y-106928000D01*
X126732000Y-106928000D01*
X126732000Y-106432000D01*
X126752000Y-106432000D01*
X126752000Y-106412000D01*
X127248000Y-106412000D01*
X127248000Y-106432000D01*
X128462992Y-106432000D01*
X128565333Y-106205122D01*
X128408067Y-105885873D01*
X128371100Y-105847000D01*
X128750000Y-105847000D01*
X128799410Y-105836994D01*
X128841035Y-105808553D01*
X128868315Y-105766159D01*
X128876980Y-105722250D01*
X128904980Y-104142250D01*
X128905000Y-104140000D01*
X128905000Y-100382606D01*
X129114751Y-100172855D01*
X130047870Y-100172855D01*
X130137779Y-100407156D01*
X130704483Y-100561857D01*
X131287251Y-100487915D01*
X131482221Y-100407156D01*
X131530026Y-100282576D01*
X133113149Y-100282576D01*
X133221841Y-100532321D01*
X133843366Y-100712296D01*
X134486453Y-100640723D01*
X134748159Y-100532321D01*
X134856851Y-100282576D01*
X133985000Y-99410725D01*
X133113149Y-100282576D01*
X131530026Y-100282576D01*
X131572130Y-100172855D01*
X130810000Y-99410725D01*
X130047870Y-100172855D01*
X129114751Y-100172855D01*
X129529722Y-99757884D01*
X129697145Y-99822130D01*
X130459275Y-99060000D01*
X130445133Y-99045858D01*
X130795858Y-98695133D01*
X130810000Y-98709275D01*
X130824143Y-98695133D01*
X131174868Y-99045858D01*
X131160725Y-99060000D01*
X131922855Y-99822130D01*
X132157156Y-99732221D01*
X132181197Y-99644152D01*
X132425020Y-99822504D01*
X132470807Y-99843599D01*
X132521194Y-99845219D01*
X132543573Y-99836604D01*
X132762424Y-99931851D01*
X133634275Y-99060000D01*
X133620133Y-99045858D01*
X133970858Y-98695133D01*
X133985000Y-98709275D01*
X133999143Y-98695133D01*
X134349868Y-99045858D01*
G36*
X159129517Y-106510161D02*
X159154634Y-106553871D01*
X159194779Y-106584366D01*
X159225093Y-106594534D01*
X159286061Y-106606728D01*
X159246933Y-106647873D01*
X159089667Y-106967122D01*
X159192008Y-107194000D01*
X160373000Y-107194000D01*
X160373000Y-107690000D01*
X159192008Y-107690000D01*
X159089667Y-107916878D01*
X159246933Y-108236127D01*
X159440229Y-108439387D01*
X158959839Y-108599517D01*
X158916129Y-108624634D01*
X158885634Y-108664779D01*
X158873000Y-108720000D01*
X158873000Y-111167394D01*
X157947394Y-112093000D01*
X129552606Y-112093000D01*
X129127000Y-111667394D01*
X129127000Y-110785896D01*
X129515995Y-110511967D01*
X129605203Y-110601175D01*
X129835652Y-110696630D01*
X130405250Y-110696630D01*
X130562000Y-110539880D01*
X130562000Y-110109000D01*
X131058000Y-110109000D01*
X131058000Y-110539880D01*
X131214750Y-110696630D01*
X131784348Y-110696630D01*
X132012514Y-110602120D01*
X132244197Y-110833803D01*
X132286211Y-110861666D01*
X132334000Y-110871000D01*
X151384000Y-110871000D01*
X151433410Y-110860994D01*
X151472841Y-110834754D01*
X155801815Y-106597000D01*
X157500000Y-106597000D01*
X157549410Y-106586994D01*
X157589803Y-106559803D01*
X157839803Y-106309803D01*
X157863592Y-106276796D01*
X158078490Y-105847000D01*
X158908463Y-105847000D01*
X159129517Y-106510161D01*
X159129517Y-106510161D01*
G37*
X159129517Y-106510161D02*
X159154634Y-106553871D01*
X159194779Y-106584366D01*
X159225093Y-106594534D01*
X159286061Y-106606728D01*
X159246933Y-106647873D01*
X159089667Y-106967122D01*
X159192008Y-107194000D01*
X160373000Y-107194000D01*
X160373000Y-107690000D01*
X159192008Y-107690000D01*
X159089667Y-107916878D01*
X159246933Y-108236127D01*
X159440229Y-108439387D01*
X158959839Y-108599517D01*
X158916129Y-108624634D01*
X158885634Y-108664779D01*
X158873000Y-108720000D01*
X158873000Y-111167394D01*
X157947394Y-112093000D01*
X129552606Y-112093000D01*
X129127000Y-111667394D01*
X129127000Y-110785896D01*
X129515995Y-110511967D01*
X129605203Y-110601175D01*
X129835652Y-110696630D01*
X130405250Y-110696630D01*
X130562000Y-110539880D01*
X130562000Y-110109000D01*
X131058000Y-110109000D01*
X131058000Y-110539880D01*
X131214750Y-110696630D01*
X131784348Y-110696630D01*
X132012514Y-110602120D01*
X132244197Y-110833803D01*
X132286211Y-110861666D01*
X132334000Y-110871000D01*
X151384000Y-110871000D01*
X151433410Y-110860994D01*
X151472841Y-110834754D01*
X155801815Y-106597000D01*
X157500000Y-106597000D01*
X157549410Y-106586994D01*
X157589803Y-106559803D01*
X157839803Y-106309803D01*
X157863592Y-106276796D01*
X158078490Y-105847000D01*
X158908463Y-105847000D01*
X159129517Y-106510161D01*
M02*
