%FSLAX45Y45*%
G04 Gerber Fmt 4.5, Leading zero omitted, Abs format (unit mm)*
G04 Created by KiCad (PCBNEW 4.0.2-stable) date 9/4/2016 3:01:29 AM*
%MOMM*%
G01*
G04 APERTURE LIST*
%ADD10C,0.127000*%
%ADD11C,0.150000*%
%ADD12C,0.200000*%
%ADD13C,0.300000*%
G04 APERTURE END LIST*
D10*
D11*
X16400000Y-11422000D02*
X12400000Y-11422000D01*
X16400000Y-9422000D02*
X16400000Y-11422000D01*
X12400000Y-9422000D02*
X16400000Y-9422000D01*
X12400000Y-11422000D02*
X12400000Y-9422000D01*
D12*
X12630000Y-9752000D02*
X12670000Y-9792000D01*
X12670000Y-9752000D02*
X12630000Y-9792000D01*
X12630000Y-9927000D02*
X12670000Y-9967000D01*
X12670000Y-9927000D02*
X12630000Y-9967000D01*
X12630000Y-10102000D02*
X12670000Y-10142000D01*
X12670000Y-10102000D02*
X12630000Y-10142000D01*
X12755000Y-9627000D02*
X12795000Y-9667000D01*
X12795000Y-9627000D02*
X12755000Y-9667000D01*
X12955000Y-9627000D02*
X12995000Y-9667000D01*
X12995000Y-9627000D02*
X12955000Y-9667000D01*
X13055000Y-10277000D02*
X13095000Y-10317000D01*
X13095000Y-10277000D02*
X13055000Y-10317000D01*
X13055000Y-10477000D02*
X13095000Y-10517000D01*
X13095000Y-10477000D02*
X13055000Y-10517000D01*
X13055000Y-10652000D02*
X13095000Y-10692000D01*
X13095000Y-10652000D02*
X13055000Y-10692000D01*
X13155000Y-9627000D02*
X13195000Y-9667000D01*
X13195000Y-9627000D02*
X13155000Y-9667000D01*
X13180000Y-10152000D02*
X13220000Y-10192000D01*
X13220000Y-10152000D02*
X13180000Y-10192000D01*
X13355000Y-9627000D02*
X13395000Y-9667000D01*
X13395000Y-9627000D02*
X13355000Y-9667000D01*
X13380000Y-10152000D02*
X13420000Y-10192000D01*
X13420000Y-10152000D02*
X13380000Y-10192000D01*
X13555000Y-9627000D02*
X13595000Y-9667000D01*
X13595000Y-9627000D02*
X13555000Y-9667000D01*
X13755000Y-9627000D02*
X13795000Y-9667000D01*
X13795000Y-9627000D02*
X13755000Y-9667000D01*
X13955000Y-9627000D02*
X13995000Y-9667000D01*
X13995000Y-9627000D02*
X13955000Y-9667000D01*
X14155000Y-9627000D02*
X14195000Y-9667000D01*
X14195000Y-9627000D02*
X14155000Y-9667000D01*
X14355000Y-9627000D02*
X14395000Y-9667000D01*
X14395000Y-9627000D02*
X14355000Y-9667000D01*
X14580000Y-9627000D02*
X14620000Y-9667000D01*
X14620000Y-9627000D02*
X14580000Y-9667000D01*
X14780000Y-9627000D02*
X14820000Y-9667000D01*
X14820000Y-9627000D02*
X14780000Y-9667000D01*
X14980000Y-9627000D02*
X15020000Y-9667000D01*
X15020000Y-9627000D02*
X14980000Y-9667000D01*
X15180000Y-9627000D02*
X15220000Y-9667000D01*
X15220000Y-9627000D02*
X15180000Y-9667000D01*
X15380000Y-9627000D02*
X15420000Y-9667000D01*
X15420000Y-9627000D02*
X15380000Y-9667000D01*
X15580000Y-9627000D02*
X15620000Y-9667000D01*
X15620000Y-9627000D02*
X15580000Y-9667000D01*
X15780000Y-9627000D02*
X15820000Y-9667000D01*
X15820000Y-9627000D02*
X15780000Y-9667000D01*
X15980000Y-9627000D02*
X16020000Y-9667000D01*
X16020000Y-9627000D02*
X15980000Y-9667000D01*
X16130000Y-9777000D02*
X16170000Y-9817000D01*
X16170000Y-9777000D02*
X16130000Y-9817000D01*
X16130000Y-10002000D02*
X16170000Y-10042000D01*
X16170000Y-10002000D02*
X16130000Y-10042000D01*
X16130000Y-10202000D02*
X16170000Y-10242000D01*
X16170000Y-10202000D02*
X16130000Y-10242000D01*
X13116052Y-9906000D02*
G75*
G03X13116052Y-9906000I-35052J0D01*
G01*
X13116052Y-10922000D02*
G75*
G03X13116052Y-10922000I-35052J0D01*
G01*
X13751052Y-9906000D02*
G75*
G03X13751052Y-9906000I-35052J0D01*
G01*
X13751052Y-10922000D02*
G75*
G03X13751052Y-10922000I-35052J0D01*
G01*
X13398500Y-9855962D02*
X13398500Y-9956038D01*
X13348462Y-9906000D02*
X13448538Y-9906000D01*
X13398500Y-10871962D02*
X13398500Y-10972038D01*
X13348462Y-10922000D02*
X13448538Y-10922000D01*
X12735921Y-10449921D02*
X12735921Y-10378079D01*
X12664079Y-10378079D01*
X12664079Y-10449921D01*
X12735921Y-10449921D01*
X12735921Y-10703921D02*
X12735921Y-10632079D01*
X12664079Y-10632079D01*
X12664079Y-10703921D01*
X12735921Y-10703921D01*
X12735921Y-10957921D02*
X12735921Y-10886079D01*
X12664079Y-10886079D01*
X12664079Y-10957921D01*
X12735921Y-10957921D01*
X16101421Y-10526121D02*
X16101421Y-10454279D01*
X16029579Y-10454279D01*
X16029579Y-10526121D01*
X16101421Y-10526121D01*
X16101421Y-10780121D02*
X16101421Y-10708279D01*
X16029579Y-10708279D01*
X16029579Y-10780121D01*
X16101421Y-10780121D01*
X16101421Y-11034121D02*
X16101421Y-10962279D01*
X16029579Y-10962279D01*
X16029579Y-11034121D01*
X16101421Y-11034121D01*
X14859000Y-10205500D02*
X14942500Y-10122000D01*
X14859000Y-10038500D01*
X14775500Y-10122000D01*
X14859000Y-10205500D01*
X14859000Y-10805500D02*
X14942500Y-10722000D01*
X14859000Y-10638500D01*
X14775500Y-10722000D01*
X14859000Y-10805500D01*
D13*
X12663928Y-11895214D02*
X12663928Y-11595214D01*
X12735357Y-11595214D01*
X12778214Y-11609500D01*
X12806786Y-11638071D01*
X12821071Y-11666643D01*
X12835357Y-11723786D01*
X12835357Y-11766643D01*
X12821071Y-11823786D01*
X12806786Y-11852357D01*
X12778214Y-11880929D01*
X12735357Y-11895214D01*
X12663928Y-11895214D01*
X12963928Y-11895214D02*
X12963928Y-11695214D01*
X12963928Y-11752357D02*
X12978214Y-11723786D01*
X12992500Y-11709500D01*
X13021071Y-11695214D01*
X13049643Y-11695214D01*
X13149643Y-11895214D02*
X13149643Y-11695214D01*
X13149643Y-11595214D02*
X13135357Y-11609500D01*
X13149643Y-11623786D01*
X13163928Y-11609500D01*
X13149643Y-11595214D01*
X13149643Y-11623786D01*
X13335357Y-11895214D02*
X13306786Y-11880929D01*
X13292500Y-11852357D01*
X13292500Y-11595214D01*
X13492500Y-11895214D02*
X13463928Y-11880929D01*
X13449643Y-11852357D01*
X13449643Y-11595214D01*
X13835357Y-11895214D02*
X13835357Y-11595214D01*
X13935357Y-11809500D01*
X14035357Y-11595214D01*
X14035357Y-11895214D01*
X14306786Y-11895214D02*
X14306786Y-11738071D01*
X14292500Y-11709500D01*
X14263928Y-11695214D01*
X14206786Y-11695214D01*
X14178214Y-11709500D01*
X14306786Y-11880929D02*
X14278214Y-11895214D01*
X14206786Y-11895214D01*
X14178214Y-11880929D01*
X14163928Y-11852357D01*
X14163928Y-11823786D01*
X14178214Y-11795214D01*
X14206786Y-11780929D01*
X14278214Y-11780929D01*
X14306786Y-11766643D01*
X14449643Y-11695214D02*
X14449643Y-11995214D01*
X14449643Y-11709500D02*
X14478214Y-11695214D01*
X14535357Y-11695214D01*
X14563928Y-11709500D01*
X14578214Y-11723786D01*
X14592500Y-11752357D01*
X14592500Y-11838071D01*
X14578214Y-11866643D01*
X14563928Y-11880929D01*
X14535357Y-11895214D01*
X14478214Y-11895214D01*
X14449643Y-11880929D01*
X14721071Y-11866643D02*
X14735357Y-11880929D01*
X14721071Y-11895214D01*
X14706786Y-11880929D01*
X14721071Y-11866643D01*
X14721071Y-11895214D01*
X14721071Y-11709500D02*
X14735357Y-11723786D01*
X14721071Y-11738071D01*
X14706786Y-11723786D01*
X14721071Y-11709500D01*
X14721071Y-11738071D01*
X12352500Y-12369500D02*
X12392500Y-12409500D01*
X12392500Y-12369500D02*
X12352500Y-12409500D01*
X12721071Y-12225214D02*
X12749643Y-12225214D01*
X12778214Y-12239500D01*
X12792500Y-12253786D01*
X12806786Y-12282357D01*
X12821071Y-12339500D01*
X12821071Y-12410929D01*
X12806786Y-12468071D01*
X12792500Y-12496643D01*
X12778214Y-12510929D01*
X12749643Y-12525214D01*
X12721071Y-12525214D01*
X12692500Y-12510929D01*
X12678214Y-12496643D01*
X12663928Y-12468071D01*
X12649643Y-12410929D01*
X12649643Y-12339500D01*
X12663928Y-12282357D01*
X12678214Y-12253786D01*
X12692500Y-12239500D01*
X12721071Y-12225214D01*
X12949643Y-12496643D02*
X12963928Y-12510929D01*
X12949643Y-12525214D01*
X12935357Y-12510929D01*
X12949643Y-12496643D01*
X12949643Y-12525214D01*
X13221071Y-12325214D02*
X13221071Y-12525214D01*
X13149643Y-12210929D02*
X13078214Y-12425214D01*
X13263928Y-12425214D01*
X13435357Y-12225214D02*
X13463928Y-12225214D01*
X13492500Y-12239500D01*
X13506786Y-12253786D01*
X13521071Y-12282357D01*
X13535357Y-12339500D01*
X13535357Y-12410929D01*
X13521071Y-12468071D01*
X13506786Y-12496643D01*
X13492500Y-12510929D01*
X13463928Y-12525214D01*
X13435357Y-12525214D01*
X13406786Y-12510929D01*
X13392500Y-12496643D01*
X13378214Y-12468071D01*
X13363928Y-12410929D01*
X13363928Y-12339500D01*
X13378214Y-12282357D01*
X13392500Y-12253786D01*
X13406786Y-12239500D01*
X13435357Y-12225214D01*
X13663928Y-12525214D02*
X13663928Y-12325214D01*
X13663928Y-12353786D02*
X13678214Y-12339500D01*
X13706786Y-12325214D01*
X13749643Y-12325214D01*
X13778214Y-12339500D01*
X13792500Y-12368071D01*
X13792500Y-12525214D01*
X13792500Y-12368071D02*
X13806786Y-12339500D01*
X13835357Y-12325214D01*
X13878214Y-12325214D01*
X13906786Y-12339500D01*
X13921071Y-12368071D01*
X13921071Y-12525214D01*
X14063928Y-12525214D02*
X14063928Y-12325214D01*
X14063928Y-12353786D02*
X14078214Y-12339500D01*
X14106786Y-12325214D01*
X14149643Y-12325214D01*
X14178214Y-12339500D01*
X14192500Y-12368071D01*
X14192500Y-12525214D01*
X14192500Y-12368071D02*
X14206786Y-12339500D01*
X14235357Y-12325214D01*
X14278214Y-12325214D01*
X14306786Y-12339500D01*
X14321071Y-12368071D01*
X14321071Y-12525214D01*
X14906786Y-12210929D02*
X14649643Y-12596643D01*
X15292500Y-12225214D02*
X15321071Y-12225214D01*
X15349643Y-12239500D01*
X15363928Y-12253786D01*
X15378214Y-12282357D01*
X15392500Y-12339500D01*
X15392500Y-12410929D01*
X15378214Y-12468071D01*
X15363928Y-12496643D01*
X15349643Y-12510929D01*
X15321071Y-12525214D01*
X15292500Y-12525214D01*
X15263928Y-12510929D01*
X15249643Y-12496643D01*
X15235357Y-12468071D01*
X15221071Y-12410929D01*
X15221071Y-12339500D01*
X15235357Y-12282357D01*
X15249643Y-12253786D01*
X15263928Y-12239500D01*
X15292500Y-12225214D01*
X15521071Y-12496643D02*
X15535357Y-12510929D01*
X15521071Y-12525214D01*
X15506786Y-12510929D01*
X15521071Y-12496643D01*
X15521071Y-12525214D01*
X15721071Y-12225214D02*
X15749643Y-12225214D01*
X15778214Y-12239500D01*
X15792500Y-12253786D01*
X15806785Y-12282357D01*
X15821071Y-12339500D01*
X15821071Y-12410929D01*
X15806785Y-12468071D01*
X15792500Y-12496643D01*
X15778214Y-12510929D01*
X15749643Y-12525214D01*
X15721071Y-12525214D01*
X15692500Y-12510929D01*
X15678214Y-12496643D01*
X15663928Y-12468071D01*
X15649643Y-12410929D01*
X15649643Y-12339500D01*
X15663928Y-12282357D01*
X15678214Y-12253786D01*
X15692500Y-12239500D01*
X15721071Y-12225214D01*
X16106785Y-12525214D02*
X15935357Y-12525214D01*
X16021071Y-12525214D02*
X16021071Y-12225214D01*
X15992500Y-12268071D01*
X15963928Y-12296643D01*
X15935357Y-12310929D01*
X16363928Y-12225214D02*
X16306785Y-12225214D01*
X16278214Y-12239500D01*
X16263928Y-12253786D01*
X16235357Y-12296643D01*
X16221071Y-12353786D01*
X16221071Y-12468071D01*
X16235357Y-12496643D01*
X16249643Y-12510929D01*
X16278214Y-12525214D01*
X16335357Y-12525214D01*
X16363928Y-12510929D01*
X16378214Y-12496643D01*
X16392500Y-12468071D01*
X16392500Y-12396643D01*
X16378214Y-12368071D01*
X16363928Y-12353786D01*
X16335357Y-12339500D01*
X16278214Y-12339500D01*
X16249643Y-12353786D01*
X16235357Y-12368071D01*
X16221071Y-12396643D01*
X16506786Y-12225214D02*
X16506786Y-12282357D01*
X16621071Y-12225214D02*
X16621071Y-12282357D01*
X17063928Y-12639500D02*
X17049643Y-12625214D01*
X17021071Y-12582357D01*
X17006786Y-12553786D01*
X16992500Y-12510929D01*
X16978214Y-12439500D01*
X16978214Y-12382357D01*
X16992500Y-12310929D01*
X17006786Y-12268071D01*
X17021071Y-12239500D01*
X17049643Y-12196643D01*
X17063928Y-12182357D01*
X17163928Y-12253786D02*
X17178214Y-12239500D01*
X17206786Y-12225214D01*
X17278214Y-12225214D01*
X17306786Y-12239500D01*
X17321071Y-12253786D01*
X17335357Y-12282357D01*
X17335357Y-12310929D01*
X17321071Y-12353786D01*
X17149643Y-12525214D01*
X17335357Y-12525214D01*
X17506786Y-12353786D02*
X17478214Y-12339500D01*
X17463928Y-12325214D01*
X17449643Y-12296643D01*
X17449643Y-12282357D01*
X17463928Y-12253786D01*
X17478214Y-12239500D01*
X17506786Y-12225214D01*
X17563928Y-12225214D01*
X17592500Y-12239500D01*
X17606786Y-12253786D01*
X17621071Y-12282357D01*
X17621071Y-12296643D01*
X17606786Y-12325214D01*
X17592500Y-12339500D01*
X17563928Y-12353786D01*
X17506786Y-12353786D01*
X17478214Y-12368071D01*
X17463928Y-12382357D01*
X17449643Y-12410929D01*
X17449643Y-12468071D01*
X17463928Y-12496643D01*
X17478214Y-12510929D01*
X17506786Y-12525214D01*
X17563928Y-12525214D01*
X17592500Y-12510929D01*
X17606786Y-12496643D01*
X17621071Y-12468071D01*
X17621071Y-12410929D01*
X17606786Y-12382357D01*
X17592500Y-12368071D01*
X17563928Y-12353786D01*
X17978214Y-12525214D02*
X17978214Y-12225214D01*
X18106786Y-12525214D02*
X18106786Y-12368071D01*
X18092500Y-12339500D01*
X18063928Y-12325214D01*
X18021071Y-12325214D01*
X17992500Y-12339500D01*
X17978214Y-12353786D01*
X18292500Y-12525214D02*
X18263928Y-12510929D01*
X18249643Y-12496643D01*
X18235357Y-12468071D01*
X18235357Y-12382357D01*
X18249643Y-12353786D01*
X18263928Y-12339500D01*
X18292500Y-12325214D01*
X18335357Y-12325214D01*
X18363928Y-12339500D01*
X18378214Y-12353786D01*
X18392500Y-12382357D01*
X18392500Y-12468071D01*
X18378214Y-12496643D01*
X18363928Y-12510929D01*
X18335357Y-12525214D01*
X18292500Y-12525214D01*
X18563928Y-12525214D02*
X18535357Y-12510929D01*
X18521071Y-12482357D01*
X18521071Y-12225214D01*
X18792500Y-12510929D02*
X18763929Y-12525214D01*
X18706786Y-12525214D01*
X18678214Y-12510929D01*
X18663929Y-12482357D01*
X18663929Y-12368071D01*
X18678214Y-12339500D01*
X18706786Y-12325214D01*
X18763929Y-12325214D01*
X18792500Y-12339500D01*
X18806786Y-12368071D01*
X18806786Y-12396643D01*
X18663929Y-12425214D01*
X18921071Y-12510929D02*
X18949643Y-12525214D01*
X19006786Y-12525214D01*
X19035357Y-12510929D01*
X19049643Y-12482357D01*
X19049643Y-12468071D01*
X19035357Y-12439500D01*
X19006786Y-12425214D01*
X18963929Y-12425214D01*
X18935357Y-12410929D01*
X18921071Y-12382357D01*
X18921071Y-12368071D01*
X18935357Y-12339500D01*
X18963929Y-12325214D01*
X19006786Y-12325214D01*
X19035357Y-12339500D01*
X19149643Y-12639500D02*
X19163929Y-12625214D01*
X19192500Y-12582357D01*
X19206786Y-12553786D01*
X19221071Y-12510929D01*
X19235357Y-12439500D01*
X19235357Y-12382357D01*
X19221071Y-12310929D01*
X19206786Y-12268071D01*
X19192500Y-12239500D01*
X19163929Y-12196643D01*
X19149643Y-12182357D01*
X12392500Y-12785500D02*
G75*
G03X12392500Y-12785500I-35052J0D01*
G01*
X12721071Y-12621214D02*
X12749643Y-12621214D01*
X12778214Y-12635500D01*
X12792500Y-12649786D01*
X12806786Y-12678357D01*
X12821071Y-12735500D01*
X12821071Y-12806929D01*
X12806786Y-12864071D01*
X12792500Y-12892643D01*
X12778214Y-12906929D01*
X12749643Y-12921214D01*
X12721071Y-12921214D01*
X12692500Y-12906929D01*
X12678214Y-12892643D01*
X12663928Y-12864071D01*
X12649643Y-12806929D01*
X12649643Y-12735500D01*
X12663928Y-12678357D01*
X12678214Y-12649786D01*
X12692500Y-12635500D01*
X12721071Y-12621214D01*
X12949643Y-12892643D02*
X12963928Y-12906929D01*
X12949643Y-12921214D01*
X12935357Y-12906929D01*
X12949643Y-12892643D01*
X12949643Y-12921214D01*
X13063928Y-12621214D02*
X13263928Y-12621214D01*
X13135357Y-12921214D01*
X13435357Y-12621214D02*
X13463928Y-12621214D01*
X13492500Y-12635500D01*
X13506786Y-12649786D01*
X13521071Y-12678357D01*
X13535357Y-12735500D01*
X13535357Y-12806929D01*
X13521071Y-12864071D01*
X13506786Y-12892643D01*
X13492500Y-12906929D01*
X13463928Y-12921214D01*
X13435357Y-12921214D01*
X13406786Y-12906929D01*
X13392500Y-12892643D01*
X13378214Y-12864071D01*
X13363928Y-12806929D01*
X13363928Y-12735500D01*
X13378214Y-12678357D01*
X13392500Y-12649786D01*
X13406786Y-12635500D01*
X13435357Y-12621214D01*
X13663928Y-12921214D02*
X13663928Y-12721214D01*
X13663928Y-12749786D02*
X13678214Y-12735500D01*
X13706786Y-12721214D01*
X13749643Y-12721214D01*
X13778214Y-12735500D01*
X13792500Y-12764071D01*
X13792500Y-12921214D01*
X13792500Y-12764071D02*
X13806786Y-12735500D01*
X13835357Y-12721214D01*
X13878214Y-12721214D01*
X13906786Y-12735500D01*
X13921071Y-12764071D01*
X13921071Y-12921214D01*
X14063928Y-12921214D02*
X14063928Y-12721214D01*
X14063928Y-12749786D02*
X14078214Y-12735500D01*
X14106786Y-12721214D01*
X14149643Y-12721214D01*
X14178214Y-12735500D01*
X14192500Y-12764071D01*
X14192500Y-12921214D01*
X14192500Y-12764071D02*
X14206786Y-12735500D01*
X14235357Y-12721214D01*
X14278214Y-12721214D01*
X14306786Y-12735500D01*
X14321071Y-12764071D01*
X14321071Y-12921214D01*
X14906786Y-12606929D02*
X14649643Y-12992643D01*
X15292500Y-12621214D02*
X15321071Y-12621214D01*
X15349643Y-12635500D01*
X15363928Y-12649786D01*
X15378214Y-12678357D01*
X15392500Y-12735500D01*
X15392500Y-12806929D01*
X15378214Y-12864071D01*
X15363928Y-12892643D01*
X15349643Y-12906929D01*
X15321071Y-12921214D01*
X15292500Y-12921214D01*
X15263928Y-12906929D01*
X15249643Y-12892643D01*
X15235357Y-12864071D01*
X15221071Y-12806929D01*
X15221071Y-12735500D01*
X15235357Y-12678357D01*
X15249643Y-12649786D01*
X15263928Y-12635500D01*
X15292500Y-12621214D01*
X15521071Y-12892643D02*
X15535357Y-12906929D01*
X15521071Y-12921214D01*
X15506786Y-12906929D01*
X15521071Y-12892643D01*
X15521071Y-12921214D01*
X15721071Y-12621214D02*
X15749643Y-12621214D01*
X15778214Y-12635500D01*
X15792500Y-12649786D01*
X15806785Y-12678357D01*
X15821071Y-12735500D01*
X15821071Y-12806929D01*
X15806785Y-12864071D01*
X15792500Y-12892643D01*
X15778214Y-12906929D01*
X15749643Y-12921214D01*
X15721071Y-12921214D01*
X15692500Y-12906929D01*
X15678214Y-12892643D01*
X15663928Y-12864071D01*
X15649643Y-12806929D01*
X15649643Y-12735500D01*
X15663928Y-12678357D01*
X15678214Y-12649786D01*
X15692500Y-12635500D01*
X15721071Y-12621214D01*
X15935357Y-12649786D02*
X15949643Y-12635500D01*
X15978214Y-12621214D01*
X16049643Y-12621214D01*
X16078214Y-12635500D01*
X16092500Y-12649786D01*
X16106785Y-12678357D01*
X16106785Y-12706929D01*
X16092500Y-12749786D01*
X15921071Y-12921214D01*
X16106785Y-12921214D01*
X16278214Y-12749786D02*
X16249643Y-12735500D01*
X16235357Y-12721214D01*
X16221071Y-12692643D01*
X16221071Y-12678357D01*
X16235357Y-12649786D01*
X16249643Y-12635500D01*
X16278214Y-12621214D01*
X16335357Y-12621214D01*
X16363928Y-12635500D01*
X16378214Y-12649786D01*
X16392500Y-12678357D01*
X16392500Y-12692643D01*
X16378214Y-12721214D01*
X16363928Y-12735500D01*
X16335357Y-12749786D01*
X16278214Y-12749786D01*
X16249643Y-12764071D01*
X16235357Y-12778357D01*
X16221071Y-12806929D01*
X16221071Y-12864071D01*
X16235357Y-12892643D01*
X16249643Y-12906929D01*
X16278214Y-12921214D01*
X16335357Y-12921214D01*
X16363928Y-12906929D01*
X16378214Y-12892643D01*
X16392500Y-12864071D01*
X16392500Y-12806929D01*
X16378214Y-12778357D01*
X16363928Y-12764071D01*
X16335357Y-12749786D01*
X16506786Y-12621214D02*
X16506786Y-12678357D01*
X16621071Y-12621214D02*
X16621071Y-12678357D01*
X17063928Y-13035500D02*
X17049643Y-13021214D01*
X17021071Y-12978357D01*
X17006786Y-12949786D01*
X16992500Y-12906929D01*
X16978214Y-12835500D01*
X16978214Y-12778357D01*
X16992500Y-12706929D01*
X17006786Y-12664071D01*
X17021071Y-12635500D01*
X17049643Y-12592643D01*
X17063928Y-12578357D01*
X17306786Y-12721214D02*
X17306786Y-12921214D01*
X17235357Y-12606929D02*
X17163928Y-12821214D01*
X17349643Y-12821214D01*
X17692500Y-12921214D02*
X17692500Y-12621214D01*
X17821071Y-12921214D02*
X17821071Y-12764071D01*
X17806786Y-12735500D01*
X17778214Y-12721214D01*
X17735357Y-12721214D01*
X17706786Y-12735500D01*
X17692500Y-12749786D01*
X18006786Y-12921214D02*
X17978214Y-12906929D01*
X17963928Y-12892643D01*
X17949643Y-12864071D01*
X17949643Y-12778357D01*
X17963928Y-12749786D01*
X17978214Y-12735500D01*
X18006786Y-12721214D01*
X18049643Y-12721214D01*
X18078214Y-12735500D01*
X18092500Y-12749786D01*
X18106786Y-12778357D01*
X18106786Y-12864071D01*
X18092500Y-12892643D01*
X18078214Y-12906929D01*
X18049643Y-12921214D01*
X18006786Y-12921214D01*
X18278214Y-12921214D02*
X18249643Y-12906929D01*
X18235357Y-12878357D01*
X18235357Y-12621214D01*
X18506786Y-12906929D02*
X18478214Y-12921214D01*
X18421071Y-12921214D01*
X18392500Y-12906929D01*
X18378214Y-12878357D01*
X18378214Y-12764071D01*
X18392500Y-12735500D01*
X18421071Y-12721214D01*
X18478214Y-12721214D01*
X18506786Y-12735500D01*
X18521071Y-12764071D01*
X18521071Y-12792643D01*
X18378214Y-12821214D01*
X18635357Y-12906929D02*
X18663929Y-12921214D01*
X18721071Y-12921214D01*
X18749643Y-12906929D01*
X18763929Y-12878357D01*
X18763929Y-12864071D01*
X18749643Y-12835500D01*
X18721071Y-12821214D01*
X18678214Y-12821214D01*
X18649643Y-12806929D01*
X18635357Y-12778357D01*
X18635357Y-12764071D01*
X18649643Y-12735500D01*
X18678214Y-12721214D01*
X18721071Y-12721214D01*
X18749643Y-12735500D01*
X18863928Y-13035500D02*
X18878214Y-13021214D01*
X18906786Y-12978357D01*
X18921071Y-12949786D01*
X18935357Y-12906929D01*
X18949643Y-12835500D01*
X18949643Y-12778357D01*
X18935357Y-12706929D01*
X18921071Y-12664071D01*
X18906786Y-12635500D01*
X18878214Y-12592643D01*
X18863928Y-12578357D01*
X12342462Y-13131462D02*
X12342462Y-13231538D01*
X12292424Y-13181500D02*
X12392500Y-13181500D01*
X12821071Y-13317214D02*
X12649643Y-13317214D01*
X12735357Y-13317214D02*
X12735357Y-13017214D01*
X12706786Y-13060071D01*
X12678214Y-13088643D01*
X12649643Y-13102929D01*
X12949643Y-13288643D02*
X12963928Y-13302929D01*
X12949643Y-13317214D01*
X12935357Y-13302929D01*
X12949643Y-13288643D01*
X12949643Y-13317214D01*
X13149643Y-13017214D02*
X13178214Y-13017214D01*
X13206786Y-13031500D01*
X13221071Y-13045786D01*
X13235357Y-13074357D01*
X13249643Y-13131500D01*
X13249643Y-13202929D01*
X13235357Y-13260071D01*
X13221071Y-13288643D01*
X13206786Y-13302929D01*
X13178214Y-13317214D01*
X13149643Y-13317214D01*
X13121071Y-13302929D01*
X13106786Y-13288643D01*
X13092500Y-13260071D01*
X13078214Y-13202929D01*
X13078214Y-13131500D01*
X13092500Y-13074357D01*
X13106786Y-13045786D01*
X13121071Y-13031500D01*
X13149643Y-13017214D01*
X13435357Y-13017214D02*
X13463928Y-13017214D01*
X13492500Y-13031500D01*
X13506786Y-13045786D01*
X13521071Y-13074357D01*
X13535357Y-13131500D01*
X13535357Y-13202929D01*
X13521071Y-13260071D01*
X13506786Y-13288643D01*
X13492500Y-13302929D01*
X13463928Y-13317214D01*
X13435357Y-13317214D01*
X13406786Y-13302929D01*
X13392500Y-13288643D01*
X13378214Y-13260071D01*
X13363928Y-13202929D01*
X13363928Y-13131500D01*
X13378214Y-13074357D01*
X13392500Y-13045786D01*
X13406786Y-13031500D01*
X13435357Y-13017214D01*
X13663928Y-13317214D02*
X13663928Y-13117214D01*
X13663928Y-13145786D02*
X13678214Y-13131500D01*
X13706786Y-13117214D01*
X13749643Y-13117214D01*
X13778214Y-13131500D01*
X13792500Y-13160071D01*
X13792500Y-13317214D01*
X13792500Y-13160071D02*
X13806786Y-13131500D01*
X13835357Y-13117214D01*
X13878214Y-13117214D01*
X13906786Y-13131500D01*
X13921071Y-13160071D01*
X13921071Y-13317214D01*
X14063928Y-13317214D02*
X14063928Y-13117214D01*
X14063928Y-13145786D02*
X14078214Y-13131500D01*
X14106786Y-13117214D01*
X14149643Y-13117214D01*
X14178214Y-13131500D01*
X14192500Y-13160071D01*
X14192500Y-13317214D01*
X14192500Y-13160071D02*
X14206786Y-13131500D01*
X14235357Y-13117214D01*
X14278214Y-13117214D01*
X14306786Y-13131500D01*
X14321071Y-13160071D01*
X14321071Y-13317214D01*
X14906786Y-13002929D02*
X14649643Y-13388643D01*
X15292500Y-13017214D02*
X15321071Y-13017214D01*
X15349643Y-13031500D01*
X15363928Y-13045786D01*
X15378214Y-13074357D01*
X15392500Y-13131500D01*
X15392500Y-13202929D01*
X15378214Y-13260071D01*
X15363928Y-13288643D01*
X15349643Y-13302929D01*
X15321071Y-13317214D01*
X15292500Y-13317214D01*
X15263928Y-13302929D01*
X15249643Y-13288643D01*
X15235357Y-13260071D01*
X15221071Y-13202929D01*
X15221071Y-13131500D01*
X15235357Y-13074357D01*
X15249643Y-13045786D01*
X15263928Y-13031500D01*
X15292500Y-13017214D01*
X15521071Y-13288643D02*
X15535357Y-13302929D01*
X15521071Y-13317214D01*
X15506786Y-13302929D01*
X15521071Y-13288643D01*
X15521071Y-13317214D01*
X15721071Y-13017214D02*
X15749643Y-13017214D01*
X15778214Y-13031500D01*
X15792500Y-13045786D01*
X15806785Y-13074357D01*
X15821071Y-13131500D01*
X15821071Y-13202929D01*
X15806785Y-13260071D01*
X15792500Y-13288643D01*
X15778214Y-13302929D01*
X15749643Y-13317214D01*
X15721071Y-13317214D01*
X15692500Y-13302929D01*
X15678214Y-13288643D01*
X15663928Y-13260071D01*
X15649643Y-13202929D01*
X15649643Y-13131500D01*
X15663928Y-13074357D01*
X15678214Y-13045786D01*
X15692500Y-13031500D01*
X15721071Y-13017214D01*
X15921071Y-13017214D02*
X16106785Y-13017214D01*
X16006785Y-13131500D01*
X16049643Y-13131500D01*
X16078214Y-13145786D01*
X16092500Y-13160071D01*
X16106785Y-13188643D01*
X16106785Y-13260071D01*
X16092500Y-13288643D01*
X16078214Y-13302929D01*
X16049643Y-13317214D01*
X15963928Y-13317214D01*
X15935357Y-13302929D01*
X15921071Y-13288643D01*
X16249643Y-13317214D02*
X16306785Y-13317214D01*
X16335357Y-13302929D01*
X16349643Y-13288643D01*
X16378214Y-13245786D01*
X16392500Y-13188643D01*
X16392500Y-13074357D01*
X16378214Y-13045786D01*
X16363928Y-13031500D01*
X16335357Y-13017214D01*
X16278214Y-13017214D01*
X16249643Y-13031500D01*
X16235357Y-13045786D01*
X16221071Y-13074357D01*
X16221071Y-13145786D01*
X16235357Y-13174357D01*
X16249643Y-13188643D01*
X16278214Y-13202929D01*
X16335357Y-13202929D01*
X16363928Y-13188643D01*
X16378214Y-13174357D01*
X16392500Y-13145786D01*
X16506786Y-13017214D02*
X16506786Y-13074357D01*
X16621071Y-13017214D02*
X16621071Y-13074357D01*
X17063928Y-13431500D02*
X17049643Y-13417214D01*
X17021071Y-13374357D01*
X17006786Y-13345786D01*
X16992500Y-13302929D01*
X16978214Y-13231500D01*
X16978214Y-13174357D01*
X16992500Y-13102929D01*
X17006786Y-13060071D01*
X17021071Y-13031500D01*
X17049643Y-12988643D01*
X17063928Y-12974357D01*
X17163928Y-13045786D02*
X17178214Y-13031500D01*
X17206786Y-13017214D01*
X17278214Y-13017214D01*
X17306786Y-13031500D01*
X17321071Y-13045786D01*
X17335357Y-13074357D01*
X17335357Y-13102929D01*
X17321071Y-13145786D01*
X17149643Y-13317214D01*
X17335357Y-13317214D01*
X17692500Y-13317214D02*
X17692500Y-13017214D01*
X17821071Y-13317214D02*
X17821071Y-13160071D01*
X17806786Y-13131500D01*
X17778214Y-13117214D01*
X17735357Y-13117214D01*
X17706786Y-13131500D01*
X17692500Y-13145786D01*
X18006786Y-13317214D02*
X17978214Y-13302929D01*
X17963928Y-13288643D01*
X17949643Y-13260071D01*
X17949643Y-13174357D01*
X17963928Y-13145786D01*
X17978214Y-13131500D01*
X18006786Y-13117214D01*
X18049643Y-13117214D01*
X18078214Y-13131500D01*
X18092500Y-13145786D01*
X18106786Y-13174357D01*
X18106786Y-13260071D01*
X18092500Y-13288643D01*
X18078214Y-13302929D01*
X18049643Y-13317214D01*
X18006786Y-13317214D01*
X18278214Y-13317214D02*
X18249643Y-13302929D01*
X18235357Y-13274357D01*
X18235357Y-13017214D01*
X18506786Y-13302929D02*
X18478214Y-13317214D01*
X18421071Y-13317214D01*
X18392500Y-13302929D01*
X18378214Y-13274357D01*
X18378214Y-13160071D01*
X18392500Y-13131500D01*
X18421071Y-13117214D01*
X18478214Y-13117214D01*
X18506786Y-13131500D01*
X18521071Y-13160071D01*
X18521071Y-13188643D01*
X18378214Y-13217214D01*
X18635357Y-13302929D02*
X18663929Y-13317214D01*
X18721071Y-13317214D01*
X18749643Y-13302929D01*
X18763929Y-13274357D01*
X18763929Y-13260071D01*
X18749643Y-13231500D01*
X18721071Y-13217214D01*
X18678214Y-13217214D01*
X18649643Y-13202929D01*
X18635357Y-13174357D01*
X18635357Y-13160071D01*
X18649643Y-13131500D01*
X18678214Y-13117214D01*
X18721071Y-13117214D01*
X18749643Y-13131500D01*
X18863928Y-13431500D02*
X18878214Y-13417214D01*
X18906786Y-13374357D01*
X18921071Y-13345786D01*
X18935357Y-13302929D01*
X18949643Y-13231500D01*
X18949643Y-13174357D01*
X18935357Y-13102929D01*
X18921071Y-13060071D01*
X18906786Y-13031500D01*
X18878214Y-12988643D01*
X18863928Y-12974357D01*
X12377621Y-13613421D02*
X12377621Y-13541579D01*
X12305778Y-13541579D01*
X12305778Y-13613421D01*
X12377621Y-13613421D01*
X12821071Y-13713214D02*
X12649643Y-13713214D01*
X12735357Y-13713214D02*
X12735357Y-13413214D01*
X12706786Y-13456071D01*
X12678214Y-13484643D01*
X12649643Y-13498929D01*
X12949643Y-13684643D02*
X12963928Y-13698929D01*
X12949643Y-13713214D01*
X12935357Y-13698929D01*
X12949643Y-13684643D01*
X12949643Y-13713214D01*
X13149643Y-13413214D02*
X13178214Y-13413214D01*
X13206786Y-13427500D01*
X13221071Y-13441786D01*
X13235357Y-13470357D01*
X13249643Y-13527500D01*
X13249643Y-13598929D01*
X13235357Y-13656071D01*
X13221071Y-13684643D01*
X13206786Y-13698929D01*
X13178214Y-13713214D01*
X13149643Y-13713214D01*
X13121071Y-13698929D01*
X13106786Y-13684643D01*
X13092500Y-13656071D01*
X13078214Y-13598929D01*
X13078214Y-13527500D01*
X13092500Y-13470357D01*
X13106786Y-13441786D01*
X13121071Y-13427500D01*
X13149643Y-13413214D01*
X13363928Y-13441786D02*
X13378214Y-13427500D01*
X13406786Y-13413214D01*
X13478214Y-13413214D01*
X13506786Y-13427500D01*
X13521071Y-13441786D01*
X13535357Y-13470357D01*
X13535357Y-13498929D01*
X13521071Y-13541786D01*
X13349643Y-13713214D01*
X13535357Y-13713214D01*
X13663928Y-13713214D02*
X13663928Y-13513214D01*
X13663928Y-13541786D02*
X13678214Y-13527500D01*
X13706786Y-13513214D01*
X13749643Y-13513214D01*
X13778214Y-13527500D01*
X13792500Y-13556071D01*
X13792500Y-13713214D01*
X13792500Y-13556071D02*
X13806786Y-13527500D01*
X13835357Y-13513214D01*
X13878214Y-13513214D01*
X13906786Y-13527500D01*
X13921071Y-13556071D01*
X13921071Y-13713214D01*
X14063928Y-13713214D02*
X14063928Y-13513214D01*
X14063928Y-13541786D02*
X14078214Y-13527500D01*
X14106786Y-13513214D01*
X14149643Y-13513214D01*
X14178214Y-13527500D01*
X14192500Y-13556071D01*
X14192500Y-13713214D01*
X14192500Y-13556071D02*
X14206786Y-13527500D01*
X14235357Y-13513214D01*
X14278214Y-13513214D01*
X14306786Y-13527500D01*
X14321071Y-13556071D01*
X14321071Y-13713214D01*
X14906786Y-13398929D02*
X14649643Y-13784643D01*
X15292500Y-13413214D02*
X15321071Y-13413214D01*
X15349643Y-13427500D01*
X15363928Y-13441786D01*
X15378214Y-13470357D01*
X15392500Y-13527500D01*
X15392500Y-13598929D01*
X15378214Y-13656071D01*
X15363928Y-13684643D01*
X15349643Y-13698929D01*
X15321071Y-13713214D01*
X15292500Y-13713214D01*
X15263928Y-13698929D01*
X15249643Y-13684643D01*
X15235357Y-13656071D01*
X15221071Y-13598929D01*
X15221071Y-13527500D01*
X15235357Y-13470357D01*
X15249643Y-13441786D01*
X15263928Y-13427500D01*
X15292500Y-13413214D01*
X15521071Y-13684643D02*
X15535357Y-13698929D01*
X15521071Y-13713214D01*
X15506786Y-13698929D01*
X15521071Y-13684643D01*
X15521071Y-13713214D01*
X15721071Y-13413214D02*
X15749643Y-13413214D01*
X15778214Y-13427500D01*
X15792500Y-13441786D01*
X15806785Y-13470357D01*
X15821071Y-13527500D01*
X15821071Y-13598929D01*
X15806785Y-13656071D01*
X15792500Y-13684643D01*
X15778214Y-13698929D01*
X15749643Y-13713214D01*
X15721071Y-13713214D01*
X15692500Y-13698929D01*
X15678214Y-13684643D01*
X15663928Y-13656071D01*
X15649643Y-13598929D01*
X15649643Y-13527500D01*
X15663928Y-13470357D01*
X15678214Y-13441786D01*
X15692500Y-13427500D01*
X15721071Y-13413214D01*
X16078214Y-13513214D02*
X16078214Y-13713214D01*
X16006785Y-13398929D02*
X15935357Y-13613214D01*
X16121071Y-13613214D01*
X16292500Y-13413214D02*
X16321071Y-13413214D01*
X16349643Y-13427500D01*
X16363928Y-13441786D01*
X16378214Y-13470357D01*
X16392500Y-13527500D01*
X16392500Y-13598929D01*
X16378214Y-13656071D01*
X16363928Y-13684643D01*
X16349643Y-13698929D01*
X16321071Y-13713214D01*
X16292500Y-13713214D01*
X16263928Y-13698929D01*
X16249643Y-13684643D01*
X16235357Y-13656071D01*
X16221071Y-13598929D01*
X16221071Y-13527500D01*
X16235357Y-13470357D01*
X16249643Y-13441786D01*
X16263928Y-13427500D01*
X16292500Y-13413214D01*
X16506786Y-13413214D02*
X16506786Y-13470357D01*
X16621071Y-13413214D02*
X16621071Y-13470357D01*
X17063928Y-13827500D02*
X17049643Y-13813214D01*
X17021071Y-13770357D01*
X17006786Y-13741786D01*
X16992500Y-13698929D01*
X16978214Y-13627500D01*
X16978214Y-13570357D01*
X16992500Y-13498929D01*
X17006786Y-13456071D01*
X17021071Y-13427500D01*
X17049643Y-13384643D01*
X17063928Y-13370357D01*
X17306786Y-13413214D02*
X17249643Y-13413214D01*
X17221071Y-13427500D01*
X17206786Y-13441786D01*
X17178214Y-13484643D01*
X17163928Y-13541786D01*
X17163928Y-13656071D01*
X17178214Y-13684643D01*
X17192500Y-13698929D01*
X17221071Y-13713214D01*
X17278214Y-13713214D01*
X17306786Y-13698929D01*
X17321071Y-13684643D01*
X17335357Y-13656071D01*
X17335357Y-13584643D01*
X17321071Y-13556071D01*
X17306786Y-13541786D01*
X17278214Y-13527500D01*
X17221071Y-13527500D01*
X17192500Y-13541786D01*
X17178214Y-13556071D01*
X17163928Y-13584643D01*
X17692500Y-13713214D02*
X17692500Y-13413214D01*
X17821071Y-13713214D02*
X17821071Y-13556071D01*
X17806786Y-13527500D01*
X17778214Y-13513214D01*
X17735357Y-13513214D01*
X17706786Y-13527500D01*
X17692500Y-13541786D01*
X18006786Y-13713214D02*
X17978214Y-13698929D01*
X17963928Y-13684643D01*
X17949643Y-13656071D01*
X17949643Y-13570357D01*
X17963928Y-13541786D01*
X17978214Y-13527500D01*
X18006786Y-13513214D01*
X18049643Y-13513214D01*
X18078214Y-13527500D01*
X18092500Y-13541786D01*
X18106786Y-13570357D01*
X18106786Y-13656071D01*
X18092500Y-13684643D01*
X18078214Y-13698929D01*
X18049643Y-13713214D01*
X18006786Y-13713214D01*
X18278214Y-13713214D02*
X18249643Y-13698929D01*
X18235357Y-13670357D01*
X18235357Y-13413214D01*
X18506786Y-13698929D02*
X18478214Y-13713214D01*
X18421071Y-13713214D01*
X18392500Y-13698929D01*
X18378214Y-13670357D01*
X18378214Y-13556071D01*
X18392500Y-13527500D01*
X18421071Y-13513214D01*
X18478214Y-13513214D01*
X18506786Y-13527500D01*
X18521071Y-13556071D01*
X18521071Y-13584643D01*
X18378214Y-13613214D01*
X18635357Y-13698929D02*
X18663929Y-13713214D01*
X18721071Y-13713214D01*
X18749643Y-13698929D01*
X18763929Y-13670357D01*
X18763929Y-13656071D01*
X18749643Y-13627500D01*
X18721071Y-13613214D01*
X18678214Y-13613214D01*
X18649643Y-13598929D01*
X18635357Y-13570357D01*
X18635357Y-13556071D01*
X18649643Y-13527500D01*
X18678214Y-13513214D01*
X18721071Y-13513214D01*
X18749643Y-13527500D01*
X18863928Y-13827500D02*
X18878214Y-13813214D01*
X18906786Y-13770357D01*
X18921071Y-13741786D01*
X18935357Y-13698929D01*
X18949643Y-13627500D01*
X18949643Y-13570357D01*
X18935357Y-13498929D01*
X18921071Y-13456071D01*
X18906786Y-13427500D01*
X18878214Y-13384643D01*
X18863928Y-13370357D01*
X12309000Y-14057000D02*
X12392500Y-13973500D01*
X12309000Y-13890000D01*
X12225500Y-13973500D01*
X12309000Y-14057000D01*
X12821071Y-14109214D02*
X12649643Y-14109214D01*
X12735357Y-14109214D02*
X12735357Y-13809214D01*
X12706786Y-13852071D01*
X12678214Y-13880643D01*
X12649643Y-13894929D01*
X12949643Y-14080643D02*
X12963928Y-14094929D01*
X12949643Y-14109214D01*
X12935357Y-14094929D01*
X12949643Y-14080643D01*
X12949643Y-14109214D01*
X13221071Y-13809214D02*
X13163928Y-13809214D01*
X13135357Y-13823500D01*
X13121071Y-13837786D01*
X13092500Y-13880643D01*
X13078214Y-13937786D01*
X13078214Y-14052071D01*
X13092500Y-14080643D01*
X13106786Y-14094929D01*
X13135357Y-14109214D01*
X13192500Y-14109214D01*
X13221071Y-14094929D01*
X13235357Y-14080643D01*
X13249643Y-14052071D01*
X13249643Y-13980643D01*
X13235357Y-13952071D01*
X13221071Y-13937786D01*
X13192500Y-13923500D01*
X13135357Y-13923500D01*
X13106786Y-13937786D01*
X13092500Y-13952071D01*
X13078214Y-13980643D01*
X13349643Y-13809214D02*
X13549643Y-13809214D01*
X13421071Y-14109214D01*
X13663928Y-14109214D02*
X13663928Y-13909214D01*
X13663928Y-13937786D02*
X13678214Y-13923500D01*
X13706786Y-13909214D01*
X13749643Y-13909214D01*
X13778214Y-13923500D01*
X13792500Y-13952071D01*
X13792500Y-14109214D01*
X13792500Y-13952071D02*
X13806786Y-13923500D01*
X13835357Y-13909214D01*
X13878214Y-13909214D01*
X13906786Y-13923500D01*
X13921071Y-13952071D01*
X13921071Y-14109214D01*
X14063928Y-14109214D02*
X14063928Y-13909214D01*
X14063928Y-13937786D02*
X14078214Y-13923500D01*
X14106786Y-13909214D01*
X14149643Y-13909214D01*
X14178214Y-13923500D01*
X14192500Y-13952071D01*
X14192500Y-14109214D01*
X14192500Y-13952071D02*
X14206786Y-13923500D01*
X14235357Y-13909214D01*
X14278214Y-13909214D01*
X14306786Y-13923500D01*
X14321071Y-13952071D01*
X14321071Y-14109214D01*
X14906786Y-13794929D02*
X14649643Y-14180643D01*
X15292500Y-13809214D02*
X15321071Y-13809214D01*
X15349643Y-13823500D01*
X15363928Y-13837786D01*
X15378214Y-13866357D01*
X15392500Y-13923500D01*
X15392500Y-13994929D01*
X15378214Y-14052071D01*
X15363928Y-14080643D01*
X15349643Y-14094929D01*
X15321071Y-14109214D01*
X15292500Y-14109214D01*
X15263928Y-14094929D01*
X15249643Y-14080643D01*
X15235357Y-14052071D01*
X15221071Y-13994929D01*
X15221071Y-13923500D01*
X15235357Y-13866357D01*
X15249643Y-13837786D01*
X15263928Y-13823500D01*
X15292500Y-13809214D01*
X15521071Y-14080643D02*
X15535357Y-14094929D01*
X15521071Y-14109214D01*
X15506786Y-14094929D01*
X15521071Y-14080643D01*
X15521071Y-14109214D01*
X15721071Y-13809214D02*
X15749643Y-13809214D01*
X15778214Y-13823500D01*
X15792500Y-13837786D01*
X15806785Y-13866357D01*
X15821071Y-13923500D01*
X15821071Y-13994929D01*
X15806785Y-14052071D01*
X15792500Y-14080643D01*
X15778214Y-14094929D01*
X15749643Y-14109214D01*
X15721071Y-14109214D01*
X15692500Y-14094929D01*
X15678214Y-14080643D01*
X15663928Y-14052071D01*
X15649643Y-13994929D01*
X15649643Y-13923500D01*
X15663928Y-13866357D01*
X15678214Y-13837786D01*
X15692500Y-13823500D01*
X15721071Y-13809214D01*
X16078214Y-13809214D02*
X16021071Y-13809214D01*
X15992500Y-13823500D01*
X15978214Y-13837786D01*
X15949643Y-13880643D01*
X15935357Y-13937786D01*
X15935357Y-14052071D01*
X15949643Y-14080643D01*
X15963928Y-14094929D01*
X15992500Y-14109214D01*
X16049643Y-14109214D01*
X16078214Y-14094929D01*
X16092500Y-14080643D01*
X16106785Y-14052071D01*
X16106785Y-13980643D01*
X16092500Y-13952071D01*
X16078214Y-13937786D01*
X16049643Y-13923500D01*
X15992500Y-13923500D01*
X15963928Y-13937786D01*
X15949643Y-13952071D01*
X15935357Y-13980643D01*
X16363928Y-13809214D02*
X16306785Y-13809214D01*
X16278214Y-13823500D01*
X16263928Y-13837786D01*
X16235357Y-13880643D01*
X16221071Y-13937786D01*
X16221071Y-14052071D01*
X16235357Y-14080643D01*
X16249643Y-14094929D01*
X16278214Y-14109214D01*
X16335357Y-14109214D01*
X16363928Y-14094929D01*
X16378214Y-14080643D01*
X16392500Y-14052071D01*
X16392500Y-13980643D01*
X16378214Y-13952071D01*
X16363928Y-13937786D01*
X16335357Y-13923500D01*
X16278214Y-13923500D01*
X16249643Y-13937786D01*
X16235357Y-13952071D01*
X16221071Y-13980643D01*
X16506786Y-13809214D02*
X16506786Y-13866357D01*
X16621071Y-13809214D02*
X16621071Y-13866357D01*
X17063928Y-14223500D02*
X17049643Y-14209214D01*
X17021071Y-14166357D01*
X17006786Y-14137786D01*
X16992500Y-14094929D01*
X16978214Y-14023500D01*
X16978214Y-13966357D01*
X16992500Y-13894929D01*
X17006786Y-13852071D01*
X17021071Y-13823500D01*
X17049643Y-13780643D01*
X17063928Y-13766357D01*
X17163928Y-13837786D02*
X17178214Y-13823500D01*
X17206786Y-13809214D01*
X17278214Y-13809214D01*
X17306786Y-13823500D01*
X17321071Y-13837786D01*
X17335357Y-13866357D01*
X17335357Y-13894929D01*
X17321071Y-13937786D01*
X17149643Y-14109214D01*
X17335357Y-14109214D01*
X17692500Y-14109214D02*
X17692500Y-13809214D01*
X17821071Y-14109214D02*
X17821071Y-13952071D01*
X17806786Y-13923500D01*
X17778214Y-13909214D01*
X17735357Y-13909214D01*
X17706786Y-13923500D01*
X17692500Y-13937786D01*
X18006786Y-14109214D02*
X17978214Y-14094929D01*
X17963928Y-14080643D01*
X17949643Y-14052071D01*
X17949643Y-13966357D01*
X17963928Y-13937786D01*
X17978214Y-13923500D01*
X18006786Y-13909214D01*
X18049643Y-13909214D01*
X18078214Y-13923500D01*
X18092500Y-13937786D01*
X18106786Y-13966357D01*
X18106786Y-14052071D01*
X18092500Y-14080643D01*
X18078214Y-14094929D01*
X18049643Y-14109214D01*
X18006786Y-14109214D01*
X18278214Y-14109214D02*
X18249643Y-14094929D01*
X18235357Y-14066357D01*
X18235357Y-13809214D01*
X18506786Y-14094929D02*
X18478214Y-14109214D01*
X18421071Y-14109214D01*
X18392500Y-14094929D01*
X18378214Y-14066357D01*
X18378214Y-13952071D01*
X18392500Y-13923500D01*
X18421071Y-13909214D01*
X18478214Y-13909214D01*
X18506786Y-13923500D01*
X18521071Y-13952071D01*
X18521071Y-13980643D01*
X18378214Y-14009214D01*
X18635357Y-14094929D02*
X18663929Y-14109214D01*
X18721071Y-14109214D01*
X18749643Y-14094929D01*
X18763929Y-14066357D01*
X18763929Y-14052071D01*
X18749643Y-14023500D01*
X18721071Y-14009214D01*
X18678214Y-14009214D01*
X18649643Y-13994929D01*
X18635357Y-13966357D01*
X18635357Y-13952071D01*
X18649643Y-13923500D01*
X18678214Y-13909214D01*
X18721071Y-13909214D01*
X18749643Y-13923500D01*
X18863928Y-14223500D02*
X18878214Y-14209214D01*
X18906786Y-14166357D01*
X18921071Y-14137786D01*
X18935357Y-14094929D01*
X18949643Y-14023500D01*
X18949643Y-13966357D01*
X18935357Y-13894929D01*
X18921071Y-13852071D01*
X18906786Y-13823500D01*
X18878214Y-13780643D01*
X18863928Y-13766357D01*
M02*
